<?xml version="1.0" encoding="UTF-8" standalone="no"?>
<svg width="22px" height="22px" viewBox="0 0 22 22" version="1.1" xmlns="http://www.w3.org/2000/svg" xmlns:xlink="http://www.w3.org/1999/xlink">
    <!-- Generator: Sketch 46.2 (44496) - http://www.bohemiancoding.com/sketch -->
    <title>account</title>
    <desc>Created with Sketch.</desc>
    <defs></defs>
    <g id="style-guide" stroke="none" stroke-width="1" fill="none" fill-rule="evenodd">
        <g id="elements" transform="translate(-1318.000000, -39.000000)" fill-rule="nonzero" fill="#000000">
            <g id="header">
                <g id="icons" transform="translate(1223.000000, 39.000000)">
                    <g id="account" transform="translate(95.000000, 0.000000)">
                        <path d="M11,11 C7.9625,11 5.5,8.5375 5.5,5.5 C5.5,2.4625 7.9625,0 11,0 C14.0375,0 16.5,2.4625 16.5,5.5 C16.5,8.5375 14.0375,11 11,11 Z M11,9 C12.2504296,9.00000003 13.4058742,8.3329038 14.031089,7.25000002 C14.6563038,6.16709624 14.6563038,4.83290376 14.031089,3.74999998 C13.4058742,2.6670962 12.2504296,1.99999997 11,2 C9.0670034,2.00000004 7.50000007,3.5670034 7.50000007,5.5 C7.50000007,7.4329966 9.0670034,8.99999996 11,9 L11,9 Z M21.4085,16.082 C21.5835,16.463 21.7065,17.012 21.8135,17.741 C21.8876479,18.2518297 21.9451783,18.7649337 21.986,19.2795 L21.9975,19.429 L22,19.5 C22.000001,20.8795411 20.8825402,21.9983446 19.503,22 L2.497,22 C1.11745984,21.9983446 -9.93269984e-07,20.8795411 0,19.5 L0.0025,19.429 L0.014,19.2795 C0.0567187467,18.765117 0.114242592,18.252071 0.1865,17.741 C0.2935,17.012 0.4165,16.463 0.5915,16.082 C1.36,14.4135 7.0175,12 11,12 C14.9825,12 20.64,14.4135 21.4085,16.082 Z M19.49,16.844 C19.35,16.7215 19.15,16.5745 18.9025,16.4155 C18.3485,16.059 17.6165,15.678 16.808,15.333 C14.87,14.506 12.7915,14 11,14 C9.2085,14 7.1305,14.506 5.192,15.333 C4.3835,15.678 3.6515,16.059 3.0975,16.4155 C2.8505,16.5745 2.65,16.7215 2.51,16.844 C2.458,16.89 2.418,16.929 2.3915,16.9585 C2.324,17.1355 2.239,17.529 2.1655,18.0315 C2.116,18.3665 2.074,18.7285 2.039,19.0915 C2.021,19.2785 2.008,19.4295 2.0005,19.527 C2.0147835,19.7911986 2.23241965,19.9985337 2.497,20 L19.503,20 C19.7675803,19.9985337 19.9852165,19.7911986 19.9995,19.527 C19.992,19.4295 19.9795,19.2785 19.961,19.092 C19.9274644,18.7375238 19.8852852,18.3839186 19.8345,18.0315 C19.761,17.529 19.676,17.1355 19.6085,16.9585 C19.571248,16.9180733 19.5316815,16.8798424 19.49,16.844 Z" id="Shape"></path>
                    </g>
                </g>
            </g>
        </g>
    </g>
</svg>