<?xml version="1.0" encoding="UTF-8" standalone="no"?>
<svg width="20px" height="22px" viewBox="0 0 20 22" version="1.1" xmlns="http://www.w3.org/2000/svg" xmlns:xlink="http://www.w3.org/1999/xlink">
    <!-- Generator: Sketch 46.2 (44496) - http://www.bohemiancoding.com/sketch -->
    <title>shopping bag</title>
    <desc>Created with Sketch.</desc>
    <defs></defs>
    <g id="style-guide" stroke="none" stroke-width="1" fill="none" fill-rule="evenodd">
        <g id="elements" transform="translate(-1370.000000, -39.000000)" fill-rule="nonzero" fill="#000000">
            <g id="header">
                <g id="icons" transform="translate(1223.000000, 39.000000)">
                    <g id="shopping-bag" transform="translate(147.000000, 0.000000)">
                        <path d="M5.5,5 L5.5,5 L5.5,4.5 C5.5,2.01767393 7.51599125,0 10,0 C12.4849482,0 14.5,2.01605332 14.5,4.5 L14.5,5 L16.1134793,5 C17.4571148,5 18.6261729,6.05312555 18.7625886,7.39171115 L19.9869194,19.4055184 C20.1308828,20.8181668 19.0653232,22 17.6476171,22 L2.35244502,22 C0.931739545,22 -0.13124108,20.8222911 0.013142665,19.4055184 L1.23747352,7.39171115 C1.37349898,6.0569545 2.54532451,5 3.88658275,5 L5.5,5 Z M5.5,7 L3.88658275,7 C3.570763,7 3.259104,7.28110785 3.227168,7.59448155 L2.00283715,19.6082889 C1.97853424,19.8467624 2.11684394,20 2.35244502,20 L17.6476171,20 C17.8797221,20 18.0211578,19.843131 17.9972249,19.6082889 L16.7728941,7.59448155 C16.7406231,7.2778209 16.4322185,7 16.1134793,7 L14.5,7 L14.5,9 C14.5,9.55228475 14.0522847,10 13.5,10 C12.9477152,10 12.5,9.55228475 12.5,9 L12.5,7 L7.5,7 L7.5,9 C7.5,9.55228475 7.05228475,10 6.5,10 C5.94771525,10 5.5,9.55228475 5.5,9 L5.5,7 Z M12.5,5 L12.5,4.0769231 C12.5,2.93048615 11.3805268,2 10,2 C8.61999515,2 7.5,2.93123412 7.5,4.0769231 L7.5,5 L12.5,5 Z" id="Combined-Shape"></path>
                    </g>
                </g>
            </g>
        </g>
    </g>
</svg>