<?xml version="1.0" encoding="utf-8"?>
<!-- Generator: Adobe Illustrator 21.0.0, SVG Export Plug-In . SVG Version: 6.00 Build 0)  -->
<svg version="1.1" id="Layer_1" xmlns="http://www.w3.org/2000/svg" xmlns:xlink="http://www.w3.org/1999/xlink" x="0px" y="0px"
	 viewBox="0 0 60 60" style="enable-background:new 0 0 60 60;" xml:space="preserve">
<style type="text/css">
	.st0{fill:#393D4E;}
	.st1{fill:#EEEEDC;}
</style>
<g>
	<circle class="st0" cx="30" cy="30" r="30"/>
	<path class="st1" d="M18.7,20.4c2.9,3.4,6.6,5.3,10.9,5.6c0-0.6,0-1.1,0-1.6c0.2-2.4,2-4.5,4.4-4.9c1.7-0.3,3.2,0.2,4.5,1.3
		c0.2,0.2,0.4,0.3,0.7,0.2c0.9-0.2,1.8-0.6,2.6-1c0.1-0.1,0.2-0.1,0.4-0.2c-0.4,1.3-1.2,2.2-2.2,2.9c0,0,0,0.1,0,0.1
		c0.9-0.3,1.9-0.5,2.8-0.8c-0.2,0.2-0.3,0.5-0.5,0.7c-0.6,0.6-1.3,1.2-1.9,1.9c-0.1,0.1-0.2,0.2-0.2,0.3c0,2-0.3,3.9-1,5.8
		c-0.4,1.2-1,2.3-1.7,3.3c-1.2,1.8-2.8,3.4-4.6,4.5c-1.8,1.1-3.7,1.7-5.7,2c-1.8,0.2-3.6,0.2-5.4-0.2c-1.7-0.4-3.3-1-4.8-1.9
		c0,0-0.1-0.1-0.2-0.1c2.9,0.2,5.5-0.5,7.8-2.2c-2.4-0.2-4.1-1.4-5-3.7c0.8,0.1,1.5,0.1,2.3-0.1c-1.2-0.3-2.2-1-3-1.9
		c-0.8-1-1.2-2.1-1.2-3.4c0.7,0.4,1.5,0.6,2.4,0.6c-1.1-0.9-1.9-1.9-2.2-3.3C17.9,22.9,18.1,21.6,18.7,20.4z"/>
</g>
</svg>
