<?xml version="1.0" encoding="UTF-8"?>
<svg width="32px" height="32px" viewBox="0 0 32 32" version="1.1" xmlns="http://www.w3.org/2000/svg" xmlns:xlink="http://www.w3.org/1999/xlink">
    <!-- Generator: sketchtool 50 (54983) - http://www.bohemiancoding.com/sketch -->
    <title>4FC4230F-6BAF-4C3B-8D20-E2E364BB7DD3</title>
    <desc>Created with sketchtool.</desc>
    <defs></defs>
    <g id="HOMEPAGE" stroke="none" stroke-width="1" fill="none" fill-rule="evenodd">
        <g id="Homepage" transform="translate(-1059.000000, -6488.000000)" fill="#253237" fill-rule="nonzero">
            <g id="Footer" transform="translate(0.000000, 6248.000000)">
                <g id="Global/footer">
                    <g id="instagram" transform="translate(1059.000000, 240.000000)">
                        <path d="M22.6865337,0 L9.2881188,0 C4.16662631,0 0,4.16662631 0,9.2881188 L0,22.6864712 C0,27.8079637 4.16662631,31.97459 9.2881188,31.97459 L22.6864712,31.97459 C27.8079637,31.97459 31.97459,27.8079637 31.97459,22.6865337 L31.97459,9.2881188 C31.97459,4.16662631 27.8079637,0 22.6865337,0 Z M29.4765752,22.6864712 C29.4765752,26.4305583 26.4305583,29.4765752 22.6865337,29.4765752 L9.2881188,29.4765752 C5.5440317,29.4765752 2.49801485,26.4305583 2.49801485,22.6865337 L2.49801485,9.2881188 C2.49801485,5.5440317 5.5440317,2.49801485 9.2881188,2.49801485 L22.6864712,2.49801485 C26.4305583,2.49801485 29.4765752,5.5440317 29.4765752,9.2881188 L29.4765752,22.6864712 Z" id="Shape"></path>
                        <path d="M15.987295,7.3691438 C11.2351965,7.3691438 7.3691438,11.2351965 7.3691438,15.987295 C7.3691438,20.7393936 11.2351965,24.6054462 15.987295,24.6054462 C20.7393936,24.6054462 24.6054462,20.7393936 24.6054462,15.987295 C24.6054462,11.2351965 20.7393936,7.3691438 15.987295,7.3691438 Z M15.987295,22.1074314 C12.6126643,22.1074314 9.86715864,19.3619257 9.86715864,15.987295 C9.86715864,12.6126643 12.6126643,9.86715864 15.987295,9.86715864 C19.3619257,9.86715864 22.1074314,12.6126643 22.1074314,15.987295 C22.1074314,19.3619257 19.3619257,22.1074314 15.987295,22.1074314 Z" id="Shape"></path>
                        <circle id="Oval" cx="24.730347" cy="7.24424305" r="1.24900742"></circle>
                    </g>
                </g>
            </g>
        </g>
    </g>
</svg>