<?xml version="1.0" encoding="UTF-8"?>
<svg width="32px" height="32px" viewBox="0 0 32 32" version="1.1" xmlns="http://www.w3.org/2000/svg" xmlns:xlink="http://www.w3.org/1999/xlink">
    <!-- Generator: sketchtool 50 (54983) - http://www.bohemiancoding.com/sketch -->
    <title>6A46E2EC-4C85-484C-BF3F-761DB90902CC</title>
    <desc>Created with sketchtool.</desc>
    <defs></defs>
    <g id="HOMEPAGE" stroke="none" stroke-width="1" fill="none" fill-rule="evenodd">
        <g id="Homepage" transform="translate(-1146.000000, -6488.000000)" fill="#000000" fill-rule="nonzero">
            <g id="Footer" transform="translate(0.000000, 6248.000000)">
                <g id="Global/footer">
                    <g id="social-facebook-circular-button" transform="translate(1146.000000, 240.000000)">
                        <path d="M15.8428411,0 C7.09270381,0 0,7.09270381 0,15.8428411 C0,24.5929784 7.09270381,31.6856822 15.8428411,31.6856822 C24.5929784,31.6856822 31.6856822,24.5929784 31.6856822,15.8428411 C31.6856822,7.09270381 24.5929784,0 15.8428411,0 Z M15.8428411,29.2102383 C8.46001526,29.2102383 2.47544392,23.2256669 2.47544392,15.8428411 C2.47544392,8.46001526 8.46001526,2.47544392 15.8428411,2.47544392 C23.2256669,2.47544392 29.2102383,8.46001526 29.2102383,15.8428411 C29.2102383,23.2256669 23.2256669,29.2102383 15.8428411,29.2102383 Z" id="Shape"></path>
                        <path d="M19.6024216,13.4176487 L16.8465717,13.4176487 L16.8465717,11.4063505 C16.8465717,10.789408 17.4847412,10.6463273 17.782599,10.6463273 C18.0784764,10.6463273 19.5628763,10.6463273 19.5628763,10.6463273 L19.5628763,7.93206496 L17.5224917,7.92142055 C14.7386693,7.92142055 14.1032848,9.94528161 14.1032848,11.2429712 L14.1032848,13.4177106 L12.0832606,13.4177106 L12.0832606,16.2141577 L14.1032848,16.2141577 C14.1032848,19.8045415 14.1032848,23.7642616 14.1032848,23.7642616 L16.8465717,23.7642616 C16.8465717,23.7642616 16.8465717,19.7638824 16.8465717,16.2141577 L19.1769546,16.2141577 L19.6024216,13.4176487 Z" id="Shape"></path>
                    </g>
                </g>
            </g>
        </g>
    </g>
</svg>