<?xml version="1.0" encoding="UTF-8" standalone="no"?>
<svg width="19px" height="22px" viewBox="0 0 19 22" version="1.1" xmlns="http://www.w3.org/2000/svg" xmlns:xlink="http://www.w3.org/1999/xlink">
    <!-- Generator: Sketch 46.2 (44496) - http://www.bohemiancoding.com/sketch -->
    <title>locator</title>
    <desc>Created with Sketch.</desc>
    <defs></defs>
    <g id="style-guide" stroke="none" stroke-width="1" fill="none" fill-rule="evenodd">
        <g id="elements" transform="translate(-1272.000000, -39.000000)" fill-rule="nonzero" fill="#000000">
            <g id="header">
                <g id="icons" transform="translate(1223.000000, 39.000000)">
                    <g id="locator" transform="translate(49.000000, 0.000000)">
                        <path d="M15.7972821,15.6737778 L9.92579487,21.2446667 C9.55018414,21.6010244 8.96263638,21.6010244 8.58702564,21.2446667 L2.71553846,15.6737778 C0.978448234,13.9622516 -0.000135148553,11.6218414 -0.000135148553,9.17888889 C-0.000135148553,6.73593642 0.978448234,4.39552617 2.71553846,2.684 C6.3294359,-0.894666667 12.1833846,-0.894666667 15.7972821,2.684 C17.5343723,4.39552617 18.5129557,6.73593642 18.5129557,9.17888889 C18.5129557,11.6218414 17.5343723,13.9622516 15.7972821,15.6737778 L15.7972821,15.6737778 Z M14.4283077,4.07586667 C11.5734359,1.24862222 6.93938462,1.24862222 4.08451282,4.07586667 C1.23694872,6.89577778 1.23694872,11.462 4.06989744,14.2672444 L9.25641026,19.1888889 L14.4351282,14.2750667 C15.7981823,12.9303283 16.5653365,11.0921801 16.5640537,9.17403069 C16.562771,7.25588131 15.7931591,5.41876796 14.4283077,4.07586667 Z M9.25641026,13.2 C7.10391585,13.2 5.35897436,11.4489359 5.35897436,9.28888889 C5.35897436,7.12884187 7.10391585,5.37777778 9.25641026,5.37777778 C11.4089047,5.37777778 13.1538462,7.12884187 13.1538462,9.28888889 C13.1538462,11.4489359 11.4089047,13.2 9.25641026,13.2 Z M9.25641026,11.2444444 C10.3326575,11.2444444 11.2051282,10.3689124 11.2051282,9.28888889 C11.2051282,8.20886538 10.3326575,7.33333333 9.25641026,7.33333333 C8.18016305,7.33333333 7.30769231,8.20886538 7.30769231,9.28888889 C7.30769231,10.3689124 8.18016305,11.2444444 9.25641026,11.2444444 Z" id="Shape"></path>
                    </g>
                </g>
            </g>
        </g>
    </g>
</svg>