<?xml version="1.0" encoding="UTF-8" standalone="no"?>
<svg width="212px" height="18px" viewBox="0 0 212 18" version="1.1" xmlns="http://www.w3.org/2000/svg" xmlns:xlink="http://www.w3.org/1999/xlink">
    <!-- Generator: Sketch 46.2 (44496) - http://www.bohemiancoding.com/sketch -->
    <title>Logo</title>
    <desc>Created with Sketch.</desc>
    <defs></defs>
    <g id="style-guide" stroke="none" stroke-width="1" fill="none" fill-rule="evenodd">
        <g id="elements" transform="translate(-52.000000, -42.000000)" fill="#000000">
            <g id="header">
                <g id="Logo" transform="translate(52.000000, 42.000000)">
                    <path d="M2.14614135,12.0109117 C2.8535779,12.7986989 3.55106018,13.3873372 4.23858818,13.7772096 C4.92611619,14.1671777 5.61169237,14.3621138 6.29541433,14.3621138 C6.93121915,14.3621138 7.45381851,14.1945606 7.86330999,13.8590713 C8.2725087,13.5238691 8.47735203,13.0987628 8.47735203,12.5840394 C8.47735203,12.014933 8.30032211,11.5762309 7.94675022,11.2680287 C7.59298315,10.9601138 6.7920545,10.6422415 5.54425705,10.3146989 C3.83514734,9.86259255 2.6269718,9.27366702 1.91963284,8.54840106 C1.2120011,7.82313511 0.858429216,6.8288266 0.858429216,5.56557128 C0.858429216,3.92785851 1.41674685,2.59250745 2.53367488,1.55913511 C3.65031014,0.525858511 5.0989497,0.00922021277 6.87959356,0.00922021277 C7.84125444,0.00922021277 8.75343673,0.136081915 9.61594525,0.38942234 C10.4783562,0.642954255 11.2950946,1.02689043 12.0661604,1.54161383 L10.5757519,4.89880532 C10.0350982,4.44660319 9.48068424,4.10536915 8.91250993,3.87519894 C8.34414043,3.64531596 7.78172398,3.53013511 7.22535817,3.53013511 C6.65308504,3.53013511 6.18806432,3.66475213 5.83039362,3.93369894 C5.47262532,4.20274149 5.29383876,4.54790106 5.29383876,4.96898617 C5.29383876,5.39792234 5.45066736,5.74097553 5.76481252,5.99833723 C6.07866491,6.25569894 6.6847045,6.50137979 7.58302888,6.73528404 L7.79772889,6.79378404 C9.73705558,7.30850745 11.012764,7.87397553 11.6249518,8.48999681 C12.0382494,8.91108191 12.3522969,9.41594362 12.5668994,10.0047734 C12.7815018,10.5936032 12.8888518,11.2467734 12.8888518,11.9640926 C12.8888518,13.7812309 12.2807628,15.241433 11.0645848,16.3448904 C9.84840681,17.4484436 8.22693374,18.0000287 6.19997042,18.0000287 C4.98389001,18.0000287 3.87681866,17.7971457 2.8794395,17.3917628 C1.88176756,16.9863798 0.921960902,16.3506351 1.95181832e-05,15.4850074 L2.14614135,12.0109117 Z" id="Fill-1"></path>
                    <path d="M15.1747896,0.754945043 L19.7767986,0.754945043 L19.7767986,8.92425287 C19.7767986,10.1252129 19.8075575,10.9878042 19.8693593,11.5115572 C19.9309718,12.035592 20.0350789,12.4736024 20.1814914,12.8253068 C20.3587575,13.253832 20.6671986,13.5808372 21.1065307,13.8064163 C21.5459575,14.0320894 22.0816361,14.144785 22.7138504,14.144785 C23.3457807,14.144785 23.8796611,14.0320894 24.3153021,13.8064163 C24.7507539,13.5808372 25.0610879,13.253832 25.2461146,12.8253068 C25.3924325,12.4736024 25.4965396,12.035592 25.5582468,11.5115572 C25.6199539,10.9878042 25.6508075,10.1252129 25.6508075,8.92425287 L25.6508075,7.77691722 L25.6508075,0.754945043 L30.24127,0.754945043 L30.24127,9.63564417 C30.24127,11.4791572 30.1294021,12.8388303 29.9059504,13.7145694 C29.6823093,14.5904963 29.3046843,15.3380442 28.7727914,15.9576824 C28.1946182,16.638552 27.4005646,17.1491572 26.39082,17.4894042 C25.3808861,17.8296511 24.1552611,18.0000094 22.7138504,18.0000094 C21.2644896,18.0000094 20.0370664,17.8296511 19.0310129,17.4894042 C18.0250539,17.1491572 17.2290129,16.638552 16.6432682,15.9576824 C16.1190414,15.3380442 15.7432146,14.5904963 15.5158825,13.7145694 C15.2884557,12.8388303 15.1747896,11.4791572 15.1747896,9.63564417 L15.1747896,7.89167896 L15.1747896,0.754945043 Z" id="Fill-4"></path>
                    <path d="M38.3030646,13.8978763 L39.9723772,13.8978763 C41.1010957,13.8978763 41.8999336,13.7640912 42.3690862,13.4963359 C42.8380435,13.2286731 43.0726686,12.7819513 43.0726686,12.1559853 C43.0726686,11.4621546 42.8579535,10.9777508 42.4287184,10.7024035 C41.9994833,10.4272414 41.2045493,10.2894752 40.0439164,10.2894752 L38.3030646,10.2894752 L38.3030646,13.8978763 Z M38.3030646,7.33722279 L39.2569854,7.33722279 C40.4333316,7.33722279 41.2402701,7.21473306 41.6775082,6.96956844 C42.1146487,6.72458899 42.3333654,6.30045789 42.3333654,5.69708257 C42.3333654,5.07120914 42.1286052,4.63198672 41.7192801,4.37923014 C41.3097597,4.12675131 40.5128738,4.00037302 39.3285246,4.00037302 L38.3030646,4.00037302 L38.3030646,7.33722279 Z M33.8911565,17.28 L33.8911565,0.72 L38.672765,0.72 C40.6440452,0.72 42.0212476,0.780457892 42.8043723,0.901003338 C43.5872042,1.02173395 44.2609217,1.22903138 44.8254274,1.52317338 C45.4693776,1.86249677 45.9600993,2.3169031 46.2980804,2.88611462 C46.6358664,3.4556039 46.8048081,4.1134191 46.8048081,4.86002315 C46.8048081,5.80272186 46.5523227,6.55108502 46.0476445,7.10539038 C45.5427711,7.65960316 44.7378821,8.08012345 43.6330751,8.3665809 C44.8731527,8.45703628 45.8428843,8.86996461 46.5424653,9.60527331 C47.2418511,10.3403968 47.5918367,11.3228144 47.5918367,12.551878 C47.5918367,13.4341189 47.3950796,14.2109056 47.0015653,14.8819604 C46.608051,15.553293 46.0455949,16.0736197 45.3142947,16.4429406 C44.7180698,16.7446745 43.982768,16.9595639 43.1083894,17.0877013 C42.2338156,17.2160239 40.803032,17.28 38.8157458,17.28 L33.8911565,17.28 Z" id="Fill-7"></path>
                    <polygon id="Fill-9" points="48.3129252 17.28 59.8503401 17.28 59.8503401 14.4 48.3129252 14.4"></polygon>
                    <path d="M62.0136054,0.72 L66.6389434,0.72 L66.6389434,8.90585749 C66.6389434,10.1092504 66.6698583,10.9735892 66.7319734,11.4984033 C66.7938982,12.0234997 66.8985331,12.4623975 67.0456878,12.8148143 C67.2238525,13.2442076 67.5338571,13.5718753 67.9754164,13.7979114 C68.4170708,14.0240416 68.9554649,14.1369656 69.5908841,14.1369656 C70.2260179,14.1369656 70.7626046,14.0240416 71.2004541,13.7979114 C71.6381133,13.5718753 71.9500204,13.2442076 72.1359852,12.8148143 C72.2830448,12.4623975 72.3876797,12.0234997 72.4496996,11.4984033 C72.5117196,10.9735892 72.5427296,10.1092504 72.5427296,8.90585749 L72.5427296,7.75619753 L72.5427296,0.72 L77.1564626,0.72 L77.1564626,9.61868996 C77.1564626,11.4659377 77.0440276,12.8283652 76.8194431,13.7058784 C76.5946683,14.5835798 76.215129,15.3326421 75.6805398,15.9535356 C75.0994357,16.6357845 74.3013568,17.1474241 73.2864934,17.4883604 C72.2714398,17.8292966 71.0396017,18 69.5908841,18 C68.1341761,18 66.9005307,17.8292966 65.8893771,17.4883604 C64.8783186,17.1474241 64.0782422,16.6357845 63.4895282,15.9535356 C62.9626439,15.3326421 62.584912,14.5835798 62.3564274,13.7058784 C62.1278477,12.8283652 62.0136054,11.4659377 62.0136054,9.61868996 L62.0136054,7.87119176 L62.0136054,0.72 Z" id="Fill-11"></path>
                    <path d="M85.1753814,8.54758424 L86.0486496,8.54758424 C87.0635184,8.54758424 87.8049415,8.38176481 88.2731121,8.04984821 C88.7410896,7.71811677 88.9752232,7.19779004 88.9752232,6.48886802 C88.9752232,5.65940055 88.7569303,5.06926486 88.320248,4.71864611 C87.8836622,4.36793479 87.1499662,4.19267171 86.1194499,4.19267171 L85.1753814,4.19267171 L85.1753814,8.54758424 Z M80.7619048,17.28 L80.7619048,0.72 L85.6827675,0.72 C87.6102165,0.72 88.9534905,0.804900287 89.7127828,0.974515691 C90.4718818,1.14422368 91.1268571,1.42892202 91.677612,1.82851814 C92.298974,2.28098019 92.7769003,2.85787625 93.1113906,3.55920632 C93.4456879,4.26053639 93.6128848,5.0336197 93.6128848,5.87808591 C93.6128848,7.1602006 93.2843829,8.20252059 92.6275725,9.00560138 C91.9705688,9.80877476 91.012688,10.3424337 89.7540266,10.6062079 L94.462585,17.28 L89.1403918,17.28 L85.1753814,10.7985066 L85.1753814,17.28 L80.7619048,17.28 Z" id="Fill-12"></path>
                    <path d="M100.31667,13.8978763 L101.985983,13.8978763 C103.114701,13.8978763 103.913539,13.7640912 104.382692,13.4963359 C104.851649,13.2286731 105.086274,12.7819513 105.086274,12.1559853 C105.086274,11.4621546 104.871559,10.9777508 104.442324,10.7024035 C104.013089,10.4272414 103.218155,10.2894752 102.057522,10.2894752 L100.31667,10.2894752 L100.31667,13.8978763 Z M100.31667,7.33722279 L101.270591,7.33722279 C102.446937,7.33722279 103.253876,7.21473306 103.691114,6.96956844 C104.128254,6.72458899 104.346971,6.30045789 104.346971,5.69708257 C104.346971,5.07120914 104.142211,4.63198672 103.732886,4.37923014 C103.323365,4.12675131 102.526479,4.00037302 101.34213,4.00037302 L100.31667,4.00037302 L100.31667,7.33722279 Z M95.9047619,17.28 L95.9047619,0.72 L100.68637,0.72 C102.657651,0.72 104.034853,0.780457892 104.817978,0.901003338 C105.60081,1.02173395 106.274527,1.22903138 106.839033,1.52317338 C107.482983,1.86249677 107.973705,2.3169031 108.311686,2.88611462 C108.649472,3.4556039 108.818414,4.1134191 108.818414,4.86002315 C108.818414,5.80272186 108.565928,6.55108502 108.061348,7.10539038 C107.556377,7.65960316 106.751488,8.08012345 105.646681,8.3665809 C106.886758,8.45703628 107.85649,8.86996461 108.556071,9.60527331 C109.255554,10.3403968 109.605442,11.3228144 109.605442,12.551878 C109.605442,13.4341189 109.408685,14.2109056 109.015171,14.8819604 C108.621754,15.553293 108.0592,16.0736197 107.327998,16.4429406 C106.731675,16.7446745 105.996373,16.9595639 105.121995,17.0877013 C104.247421,17.2160239 102.816637,17.28 100.829351,17.28 L95.9047619,17.28 Z" id="Fill-13"></path>
                    <path d="M116.007937,11.0926486 L120.554912,11.0926486 L118.848355,5.62921789 C118.79492,5.46339847 118.72236,5.19564315 118.63077,4.82604451 C118.539086,4.45672364 118.420591,3.9815783 118.275659,3.40079368 C118.176382,3.80807434 118.079073,4.19656027 117.983639,4.56588115 C117.888112,4.93547978 117.79071,5.28980192 117.691526,5.62921789 L116.007937,11.0926486 Z M109.605442,17.28 L115.389399,0.72 L121.116077,0.72 L126.911565,17.28 L122.36459,17.28 L121.51703,14.3163597 L115.022945,14.3163597 L114.152511,17.28 L109.605442,17.28 Z" id="Fill-14"></path>
                    <path d="M129.795918,17.28 L129.795918,0.72 L134.258,0.72 L140.66715,9.23761896 C140.790662,9.41112293 140.99348,9.75979739 141.275603,10.2839201 C141.557536,10.8081354 141.868498,11.431972 142.208678,12.1558927 C142.115901,11.4697466 142.048169,10.8589645 142.005765,10.3234538 C141.963266,9.78803576 141.942017,9.31298301 141.942017,8.89820298 L141.942017,0.72 L146.380952,0.72 L146.380952,17.28 L141.942017,17.28 L135.532867,8.72858758 C135.401387,8.5551762 135.194775,8.20640915 134.912746,7.68219386 C134.630718,7.15816373 134.323551,6.54173395 133.991435,5.83281193 C134.084116,6.52664263 134.151659,7.14122071 134.194157,7.67654618 C134.236656,8.21205683 134.258,8.68710958 134.258,9.10179702 L134.258,17.28 L129.795918,17.28 Z" id="Fill-15"></path>
                    <path d="M161.61069,8.54758424 L162.483964,8.54758424 C163.49884,8.54758424 164.240365,8.38176481 164.708443,8.04984821 C165.176423,7.71811677 165.410655,7.19779004 165.410655,6.48886802 C165.410655,5.65940055 165.192264,5.06926486 164.755675,4.71864611 C164.31899,4.36793479 163.585289,4.19267171 162.554765,4.19267171 L161.61069,4.19267171 L161.61069,8.54758424 Z M157.197279,17.28 L157.197279,0.72 L162.118176,0.72 C164.045542,0.72 165.388826,0.804900287 166.14822,0.974515691 C166.907324,1.14422368 167.562208,1.42892202 168.112967,1.82851814 C168.73443,2.28098019 169.212263,2.85787625 169.546755,3.55920632 C169.881055,4.26053639 170.048253,5.0336197 170.048253,5.87808591 C170.048253,7.1602006 169.719749,8.20252059 169.062934,9.00560138 C168.406022,9.80877476 167.448134,10.3424337 166.189464,10.6062079 L170.897959,17.28 L165.575825,17.28 L161.61069,10.7985066 L161.61069,17.28 L157.197279,17.28 Z" id="Fill-16"></path>
                    <polygon id="Fill-17" points="172.340136 17.28 177.387755 17.28 177.387755 0.72 172.340136 0.72"></polygon>
                    <path d="M189.291466,14.0390389 C190.56618,14.0390389 191.620082,13.5626109 192.453454,12.6093713 C193.286638,11.6563234 193.703278,10.4531198 193.703278,9.00004796 C193.703278,7.56261091 193.280887,6.36324397 192.4362,5.40233082 C191.591419,4.44132176 190.54308,3.96086519 189.291466,3.96086519 C188.016657,3.96086519 186.962661,4.4394993 186.129571,5.39638387 C185.296198,6.35355618 184.879748,7.55474558 184.879748,9.00004796 C184.879748,10.4688504 185.290353,11.6758908 186.112223,12.6210733 C186.933904,13.5664477 187.993558,14.0390389 189.291466,14.0390389 M198.29932,9.00004796 C198.29932,10.2345211 198.076528,11.3906287 197.631226,12.4687545 C197.185736,13.5468802 196.536971,14.511822 195.684553,15.3632919 C194.824404,16.2070884 193.841497,16.8574169 192.735645,17.3143734 C191.629887,17.7715217 190.481702,18 189.291466,18 C188.085767,18 186.931924,17.7715217 185.830032,17.3143734 C184.728046,16.8574169 183.758339,16.2070884 182.921383,15.3632919 C182.053503,14.511822 181.395215,13.5430435 180.945954,12.4570524 C180.496787,11.3712532 180.272109,10.2187905 180.272109,9.00004796 C180.272109,7.77353604 180.496787,6.61925088 180.945954,5.53709654 C181.395215,4.45513405 182.053503,3.48827394 182.921383,2.63670807 C183.758339,1.79291161 184.728046,1.14248717 185.830032,0.68553067 C186.931924,0.22847825 188.085767,0 189.291466,0 C190.489433,0 191.643181,0.22847825 192.752993,0.68553067 C193.862523,1.14248717 194.839772,1.79291161 195.684553,2.63670807 C196.52924,3.48040861 197.176308,4.44535034 197.625569,5.5312455 C198.074736,6.61723658 198.29932,7.77353604 198.29932,9.00004796" id="Fill-18"></path>
                    <polygon id="Fill-19" points="203.552681 17.28 203.552681 4.63374583 199.741497 4.63374583 199.741497 0.72 212 0.72 212 4.63374583 208.188815 4.63374583 208.188815 17.28"></polygon>
                </g>
            </g>
        </g>
    </g>
</svg>