<?xml version="1.0" encoding="UTF-8"?>
<svg width="17px" height="17px" viewBox="0 0 17 17" version="1.1" xmlns="http://www.w3.org/2000/svg" xmlns:xlink="http://www.w3.org/1999/xlink">
    <title>Icon/Search</title>
    <defs>
        <path d="M17.1847083,16.0652917 L12.91525,11.7958333 C13.777375,10.6906667 14.25,9.340875 14.25,7.91666667 C14.25,6.224875 13.5905417,4.63441667 12.3943333,3.439 C11.1989167,2.242 9.60845833,1.58333333 7.91666667,1.58333333 C6.224875,1.58333333 4.63441667,2.242 3.439,3.439 C2.24279167,4.63441667 1.58333333,6.224875 1.58333333,7.91666667 C1.58333333,9.60845833 2.24279167,11.1989167 3.439,12.3943333 C4.63441667,13.5913333 6.224875,14.25 7.91666667,14.25 C9.340875,14.25 10.6906667,13.7781667 11.7958333,12.91525 L16.0652917,17.1839167 L17.1847083,16.0652917 Z M7.91666667,12.6666667 C6.647625,12.6666667 5.455375,12.1726667 4.55841667,11.2757083 C3.66066667,10.37875 3.16666667,9.18570833 3.16666667,7.91666667 C3.16666667,6.64841667 3.66066667,5.455375 4.55841667,4.55841667 C5.455375,3.66066667 6.647625,3.16666667 7.91666667,3.16666667 C9.18570833,3.16666667 10.3779583,3.66066667 11.2749167,4.55841667 C12.1726667,5.455375 12.6666667,6.64841667 12.6666667,7.91666667 C12.6666667,9.18570833 12.1726667,10.37875 11.2749167,11.2757083 C10.3779583,12.1726667 9.18570833,12.6666667 7.91666667,12.6666667 Z" id="path-1"></path>
    </defs>
    <g id="HOMEPAGE" stroke="none" stroke-width="1" fill="none" fill-rule="evenodd">
        <g id="Homepage-Copy" transform="translate(-783.000000, -57.000000)">
            <g id="Header">
                <g id="Nav-Links" transform="translate(167.000000, 56.000000)">
                    <g id="Icon/Search" transform="translate(615.000000, 0.000000)">
                        <rect id="Bounding-Box" x="0" y="0" width="19" height="19"></rect>
                        <mask id="mask-2" fill="white">
                            <use xlink:href="#path-1"></use>
                        </mask>
                        <g id="Mask"></g>
                        <g id="Mixin/Fill/Black" mask="url(#mask-2)" fill="#253237" fill-rule="evenodd">
                            <rect id="Rectangle" x="0" y="0" width="19" height="19"></rect>
                        </g>
                    </g>
                </g>
            </g>
        </g>
    </g>
</svg>