<?xml version="1.0" standalone="no"?>
<!DOCTYPE svg PUBLIC "-//W3C//DTD SVG 1.1//EN" "http://www.w3.org/Graphics/SVG/1.1/DTD/svg11.dtd" >
<svg xmlns="http://www.w3.org/2000/svg" xmlns:xlink="http://www.w3.org/1999/xlink" version="1.1">
<metadata>
Created by FontForge 20150102 at Tue Jan 13 16:00:25 2015
 By uniteet7
(c) 1992, 2002 Adobe Systems Incorporated. All rights reserved.
</metadata>
<defs>
<font id="BellCentennialStdSubCapt" horiz-adv-x="500" >
  <font-face 
    font-family="BellCentennialStdSubCapt"
    font-weight="400"
    font-variant="small-caps"
    font-stretch="normal"
    units-per-em="1000"
    panose-1="2 11 5 6 3 5 9 3 2 4"
    ascent="681"
    descent="-319"
    x-height="486"
    cap-height="667"
    bbox="-54 -250 1000 941"
    underline-thickness="50"
    underline-position="-50"
    unicode-range="U+0020-FB02"
  />
<missing-glyph 
d="M0 0v700h500v-700h-500zM250 395l170 255h-340zM280 350l170 -255v510zM80 50h340l-170 255zM50 605v-510l170 255z" />
    <glyph glyph-name=".notdef" 
d="M0 0v700h500v-700h-500zM250 395l170 255h-340zM280 350l170 -255v510zM80 50h340l-170 255zM50 605v-510l170 255z" />
    <glyph glyph-name=".null" horiz-adv-x="0" 
 />
    <glyph glyph-name="nonmarkingreturn" horiz-adv-x="333" 
 />
    <glyph glyph-name="space" unicode=" " horiz-adv-x="250" 
 />
    <glyph glyph-name="exclam" unicode="!" horiz-adv-x="250" 
d="M72 111h106v-111h-106v111zM67 667h116l-28 -486h-60z" />
    <glyph glyph-name="quotedbl" unicode="&#x22;" horiz-adv-x="288" 
d="M103 667v-237h-70v237h70zM255 667v-237h-70v237h70z" />
    <glyph glyph-name="numbersign" unicode="#" horiz-adv-x="769" 
d="M450 711l-81 -230h127l82 230h70l-80 -230h150l-21 -60h-152l-46 -133h161l-21 -60h-162l-81 -228h-71l82 228h-129l-82 -228h-70l81 228h-156l21 60h156l47 133h-167l21 60h168l82 230h71zM475 421h-129l-46 -133h128z" />
    <glyph glyph-name="dollar" unicode="$" 
d="M212 -3q-105 6 -163 72v83h43q19 -40 47 -59t73 -24v233q-78 16 -119 59.5t-41 109.5q0 72 47.5 123.5t127.5 61.5v55h61v-55q80 -11 134 -68v-81h-36q-37 68 -98 81v-206q163 -39 163 -178q0 -84 -47 -138.5t-131 -68.5v-60h-61v60zM273 298v-229q45 7 69 38t24 80
q0 86 -93 111zM227 588q-93 -18 -93 -104q0 -43 24 -69.5t69 -30.5v204z" />
    <glyph glyph-name="percent" unicode="%" horiz-adv-x="655" 
d="M162 682q141 0 141 -207q0 -206 -141 -206t-141 204q0 102 36 155.5t105 53.5zM162 629q-43 0 -55 -32.5t-12 -123.5q0 -88 12 -119.5t55 -31.5t55 31.5t12 119.5q0 91 -12 123.5t-55 32.5zM493 398q141 0 141 -207q0 -206 -141 -206t-141 204q0 102 36 155.5t105 53.5z
M493 345q-43 0 -55 -32.5t-12 -123.5q0 -88 12 -119.5t55 -31.5t55 31.5t12 119.5q0 91 -12 123.5t-55 32.5zM88 20l189 238l23 -25l-99 -233h-113v20zM572 648l-190 -239l-22 26l100 232h112v-19z" />
    <glyph glyph-name="ampersand" unicode="&#x26;" horiz-adv-x="611" 
d="M273 405q63 57 63 125q0 43 -21 69.5t-53 26.5q-33 0 -54.5 -26t-21.5 -65q0 -63 67 -130h20zM391 120l-186 198h-15q-44 -49 -44 -103q0 -64 41.5 -110t98.5 -46q59 0 105 61zM616 0h-122q-40 36 -76 82q-69 -97 -170 -97q-81 0 -138.5 57.5t-57.5 136.5q0 66 36 114
t99 64v10q-97 60 -97 154q0 71 47 116t121 45q78 0 124.5 -42.5t46.5 -104.5q0 -60 -39.5 -105.5t-108.5 -62.5v-11l153 -171h10v193h90q0 -3 0.5 -24.5t0.5 -35.5t-2 -34t-7 -34q-21 -65 -54 -95z" />
    <glyph glyph-name="quotesingle" unicode="'" horiz-adv-x="149" 
d="M109 667v-237h-70v237h70z" />
    <glyph glyph-name="parenleft" unicode="(" horiz-adv-x="333" 
d="M291 -137v-16h-86q-136 180 -136 418q0 239 136 417h86v-16q-59 -69 -94 -175t-35 -226t35 -226.5t94 -175.5z" />
    <glyph glyph-name="parenright" unicode=")" horiz-adv-x="333" 
d="M128 -153h-85v16q59 69 93.5 175t34.5 227q0 119 -34.5 225t-93.5 176v16h85q136 -181 136 -419q0 -236 -136 -416z" />
    <glyph glyph-name="asterisk" unicode="*" 
d="M278 503l160 57l21 -62l-169 -47l112 -144l-58 -40l-94 150l-94 -150l-58 40l112 144l-169 47l21 62l160 -57l-7 179h70z" />
    <glyph glyph-name="plus" unicode="+" horiz-adv-x="833" 
d="M379 290v216h74v-216h215v-74h-215v-216h-74v216h-215v74h215z" />
    <glyph glyph-name="comma" unicode="," horiz-adv-x="250" 
d="M72 111h106v-111q0 -83 -21 -116.5t-82 -33.5h-3v42q31 3 40.5 20t9.5 61v41h-50v97z" />
    <glyph glyph-name="hyphen" unicode="-" horiz-adv-x="333" 
d="M42 371h250v-75h-250v75z" />
    <glyph glyph-name="period" unicode="." horiz-adv-x="250" 
d="M72 111h106v-111h-106v111z" />
    <glyph glyph-name="slash" unicode="/" 
d="M366 682h80l-312 -697h-80z" />
    <glyph glyph-name="zero" unicode="0" 
d="M249 682q110 0 159.5 -85.5t49.5 -264.5q0 -180 -48.5 -263.5t-161.5 -83.5q-115 0 -160.5 88t-45.5 283q0 326 207 326zM253 609q-24 0 -42 -6.5t-30.5 -17t-21 -32t-13 -42t-7 -58t-3 -68t-0.5 -84.5q0 -129 23.5 -186.5t90.5 -57.5t90.5 57.5t23.5 186.5q0 53 -0.5 84
t-2.5 68.5t-7 58t-12.5 42t-19.5 32t-29 17t-40 6.5z" />
    <glyph glyph-name="one" unicode="1" 
d="M56 71h156v520h-156v76h253v-596h135v-71h-388v71z" />
    <glyph glyph-name="two" unicode="2" 
d="M153 463h-94q-1 9 -1 26q0 93 48.5 143t138.5 50q92 0 145.5 -49.5t53.5 -134.5q0 -32 -9.5 -63.5t-20 -52t-37.5 -52t-41 -45t-51 -49.5q-67 -65 -99 -102t-42 -67l9 -8q56 28 154 28h136v-87h-387q-1 8 -1 23q0 60 28.5 106t92.5 111q91 92 131 148.5t40 119.5
q0 47 -25.5 75t-69.5 28q-54 0 -75.5 -33.5t-23.5 -114.5z" />
    <glyph glyph-name="three" unicode="3" 
d="M48 142h45q38 -80 127 -80q59 0 97 38t38 96t-43 91.5t-121 34.5v69q71 1 109.5 32t38.5 86q0 46 -30.5 75.5t-79.5 29.5q-79 0 -122 -81h-42v91q74 56 176 56q91 0 143.5 -45t52.5 -117q0 -116 -121 -152v-12q66 -11 100.5 -54.5t34.5 -113.5q0 -89 -61 -145t-155 -56
q-120 0 -187 61v96z" />
    <glyph glyph-name="four" unicode="4" 
d="M406 667v-333q0 -33 -14 -70l14 -10q17 10 40 10h23v-68h-23q-18 0 -40 8l-14 -8q14 -31 14 -69v-127h-90v144q0 29 12 52l-13 9q-42 -9 -92 -9h-197v81l250 390h130zM273 519l-116 -184q-8 -14 -58 -71l10 -12q51 12 73 12h72q24 0 62 -12l9 12q-9 26 -9 58v150
q0 62 9 131h-9q-12 -37 -43 -84z" />
    <glyph glyph-name="five" unicode="5" 
d="M57 119h31q37 -37 65.5 -53.5t62.5 -16.5q57 0 96 45.5t39 114.5q0 63 -33 100.5t-89 37.5q-34 0 -73 -25h-68v345h344v-84h-191q-40 0 -68 24l-17 -11q11 -21 11 -55v-72q0 -31 -11 -56l17 -10q44 16 81 16q80 0 135.5 -57t55.5 -147q0 -105 -60.5 -165.5t-166.5 -60.5
q-84 0 -161 48v82z" />
    <glyph glyph-name="six" unicode="6" 
d="M272 667h109v-39q-195 -142 -244 -257l6 -2q68 55 140 55q84 0 133 -54t49 -152q0 -110 -55.5 -171.5t-152.5 -61.5q-107 0 -165 66.5t-58 189.5q0 120 57.5 220.5t180.5 205.5zM251 353q-60 0 -91.5 -35.5t-31.5 -104.5q0 -76 33 -118t89 -42q57 0 89.5 42t32.5 119
q0 67 -31.5 103t-89.5 36z" />
    <glyph glyph-name="seven" unicode="7" 
d="M35 0l269 482q28 49 66 101v17h-315v67h410v-75l-322 -592h-108z" />
    <glyph glyph-name="eight" unicode="8" 
d="M257 682q91 0 147 -48.5t56 -124.5q0 -94 -105 -160q118 -57 118 -165q0 -88 -60.5 -143.5t-162.5 -55.5q-99 0 -160.5 56.5t-61.5 140.5q0 112 114 169q-99 59 -99 154q0 77 57 127t157 50zM202 333q-75 -65 -75 -142q0 -58 35.5 -95.5t88.5 -37.5t89.5 34.5t36.5 83.5
q0 55 -41 90t-134 67zM298 376q66 66 66 133q0 43 -31 73t-78 30q-52 0 -82 -27t-30 -73q0 -45 40 -80.5t115 -55.5z" />
    <glyph glyph-name="nine" unicode="9" 
d="M228 0h-109v39q195 141 244 256l-6 3q-70 -56 -141 -56q-84 0 -132.5 54.5t-48.5 152.5q0 110 55 171.5t153 61.5q106 0 164.5 -67t58.5 -189q0 -120 -57.5 -220.5t-180.5 -205.5zM250 613q-57 0 -89.5 -42t-32.5 -119q0 -67 30.5 -102.5t89.5 -35.5q60 0 92 35.5
t32 103.5q0 76 -33 118t-89 42z" />
    <glyph glyph-name="colon" unicode=":" horiz-adv-x="278" 
d="M86 465h106v-111h-106v111zM86 111h106v-111h-106v111z" />
    <glyph glyph-name="semicolon" unicode=";" horiz-adv-x="278" 
d="M86 465h106v-111h-106v111zM86 111h106v-111q0 -83 -21 -116.5t-82 -33.5h-3v42q31 3 40.5 20t9.5 61v41h-50v97z" />
    <glyph glyph-name="less" unicode="&#x3c;" horiz-adv-x="833" 
d="M670 67v-75l-508 227v68l508 227v-75l-415 -186z" />
    <glyph glyph-name="equal" unicode="=" horiz-adv-x="833" 
d="M668 392v-74h-504v74h504zM668 188v-74h-504v74h504z" />
    <glyph glyph-name="greater" unicode="&#x3e;" horiz-adv-x="833" 
d="M162 67l415 186l-415 186v75l508 -227v-68l-508 -227v75z" />
    <glyph glyph-name="question" unicode="?" 
d="M183 111h107v-111h-107v111zM195 242q0 42 47 97q13 15 37 38.5t35 36t21 35.5t10 50q0 111 -98 111q-43 0 -67.5 -28t-24.5 -77v-48h-98q-1 9 -1 26q0 199 196 199q88 0 139.5 -48.5t51.5 -128.5q0 -42 -15.5 -76.5t-33 -53.5t-55.5 -54q-23 -22 -34 -34t-20 -32t-9 -45
q0 -8 2 -28h-83v60z" />
    <glyph glyph-name="at" unicode="@" horiz-adv-x="1000" 
d="M587 231l29 118q-8 44 -35 68.5t-66 24.5q-72 0 -119.5 -64.5t-47.5 -159.5q0 -54 25 -83t71 -29q49 0 89 34.5t54 90.5zM631 412l28 59h54l-69 -277q-6 -24 -6 -39q0 -44 54 -44q49 0 99 43q43 37 68 95t25 125q0 129 -95 208.5t-254 79.5q-165 0 -279 -100
q-138 -120 -138 -311q0 -166 121 -261q103 -82 261 -82q173 0 308 92l22 -32q-144 -108 -322 -108q-188 0 -305 90q-148 114 -148 305q0 161 98 282q144 175 392 175q168 0 273 -82q128 -99 128 -250q0 -169 -120 -266q-69 -55 -152 -55q-97 0 -97 76q0 1 0.5 5t0.5 6
q-50 -87 -145 -87q-75 0 -114 41.5t-39 120.5q0 114 67 191t162 77q89 0 122 -77z" />
    <glyph glyph-name="A" unicode="A" horiz-adv-x="556" 
d="M257 491l-71 -272h187l-68 272q-9 33 -12 97h-23q-5 -67 -13 -97zM225 667h112l191 -667h-100l-37 146h-224l-39 -146h-100z" />
    <glyph glyph-name="B" unicode="B" 
d="M157 595v-205h43q74 0 108 25.5t34 82.5q0 97 -116 97h-69zM157 320v-247h48q81 0 121 28.5t40 90.5q0 128 -156 128h-53zM322 369v-16q66 -12 101 -54t35 -107q0 -93 -52.5 -142.5t-173.5 -49.5h-163v667h146q107 0 163 -40.5t56 -116.5q0 -110 -112 -141z" />
    <glyph glyph-name="C" unicode="C" horiz-adv-x="556" 
d="M514 606v-120h-53q-46 123 -155 123q-170 0 -170 -276q0 -132 43.5 -200.5t126.5 -68.5q112 0 155 124h53v-123q-104 -80 -208 -80q-128 0 -196 89t-68 259t68 258.5t196 88.5q92 0 208 -74z" />
    <glyph glyph-name="D" unicode="D" horiz-adv-x="597" 
d="M69 667h138q73 0 124 -10.5t97 -42.5q60 -42 93.5 -115t33.5 -165q0 -166 -95 -258q-43 -42 -105 -59t-156 -17h-130v667zM157 72q34 -2 49 -2q257 0 257 264q0 262 -259 262q-15 0 -47 -2v-522z" />
    <glyph glyph-name="E" unicode="E" 
d="M69 667h400v-70h-312v-220h284v-73h-284v-230h329v-74h-417v667z" />
    <glyph glyph-name="F" unicode="F" horiz-adv-x="458" 
d="M69 667h375v-72h-287v-232h278v-71h-278v-292h-88v667z" />
    <glyph glyph-name="G" unicode="G" horiz-adv-x="597" 
d="M428 114v146h-151v69h251v-329h-100v51l-8 4q-60 -70 -139 -70q-44 0 -89 22.5t-77 63.5q-73 91 -73 262q0 170 69.5 258.5t202.5 88.5q95 0 214 -74v-118h-59q-25 63 -63.5 92t-96.5 29q-175 0 -175 -276q0 -130 44 -199.5t124 -69.5q58 0 126 50z" />
    <glyph glyph-name="H" unicode="H" horiz-adv-x="611" 
d="M454 667h88v-667h-88v315h-297v-315h-88v667h88v-276h297v276z" />
    <glyph glyph-name="I" unicode="I" horiz-adv-x="389" 
d="M49 58h101v551h-101v58h291v-58h-102v-551h102v-58h-291v58z" />
    <glyph glyph-name="J" unicode="J" horiz-adv-x="458" 
d="M33 264h95v-93q0 -110 80 -110q24 0 40.5 8.5t25.5 21t14 36.5t6.5 47t1.5 59v434h93v-463q0 -92 -22 -136q-40 -83 -152 -83q-97 0 -139.5 49.5t-42.5 145.5v84z" />
    <glyph glyph-name="K" unicode="K" horiz-adv-x="514" 
d="M69 667h88v-226q0 -61 -7 -102l7 -3l246 331h111l-239 -304q31 -29 58 -72l181 -291h-111l-194 317h-15l-37 -40v-277h-88v667z" />
    <glyph glyph-name="L" unicode="L" horiz-adv-x="444" 
d="M69 667h88v-593h260v-74h-348v667z" />
    <glyph glyph-name="M" unicode="M" horiz-adv-x="736" 
d="M583 381q0 83 11 214h-16l-182 -595h-56l-182 595h-16q11 -130 11 -214v-381h-84v667h145l117 -395q25 -80 32 -153h12q6 72 30 153l116 395h145v-667h-83v381z" />
    <glyph glyph-name="N" unicode="N" horiz-adv-x="611" 
d="M228 417q-35 77 -56 176h-17v-593h-86v667h141l173 -376q35 -75 56 -175h17v551h86v-667h-121z" />
    <glyph glyph-name="O" unicode="O" horiz-adv-x="611" 
d="M569 337q0 -174 -67 -263t-196 -89q-128 0 -196 89.5t-68 259.5q0 169 68 257.5t196 88.5t195.5 -87t67.5 -256zM306 56q83 0 127 67t44 195q0 291 -171 291q-84 0 -128 -70t-44 -205q0 -137 44 -207.5t128 -70.5z" />
    <glyph glyph-name="P" unicode="P" horiz-adv-x="514" 
d="M69 667h157q105 0 169 -56t64 -161q0 -98 -58.5 -152t-166.5 -54h-77v-244h-88v667zM157 593v-278h45q80 0 122 37t42 106t-46 102t-118 33h-45z" />
    <glyph glyph-name="Q" unicode="Q" horiz-adv-x="611" 
d="M560 -35l-55 -54l-49 59q-18 22 -21 47l-9 3q-53 -35 -117 -35q-121 0 -185 89t-64 260q0 170 63.5 259t182.5 89q116 0 181 -86.5t65 -244.5q0 -218 -80 -284v-9q20 -9 40 -33zM258 211l57 52l68 -84q24 -29 35 -52h13q28 78 28 193q0 290 -153 290t-153 -276
q0 -279 158 -279q23 0 68 12v11q-20 11 -45 41z" />
    <glyph glyph-name="R" unicode="R" horiz-adv-x="556" 
d="M157 597v-250h51q92 0 134.5 29.5t42.5 102.5q0 57 -40 87.5t-99 30.5h-89zM69 667h157q58 0 98.5 -6.5t78 -25t56.5 -56t19 -94.5q0 -142 -139 -173v-10l200 -302h-115l-165 273h-102v-273h-88v667z" />
    <glyph glyph-name="S" unicode="S" horiz-adv-x="514" 
d="M55 167h53q16 -51 54.5 -79.5t90.5 -28.5q58 0 94 34t36 83q0 46 -33 71.5t-118 60.5q-100 40 -127 64q-57 51 -57 128q0 78 54 129t144 51q103 0 188 -58v-122h-48q-36 112 -139 112q-47 0 -79 -28.5t-32 -71.5q0 -15 3.5 -27.5t6.5 -21.5t13.5 -18.5t16 -14t23.5 -12.5
t25 -11t31.5 -12t33.5 -12q91 -34 133.5 -80t42.5 -118q0 -88 -57 -144t-155 -56q-104 0 -198 59v123z" />
    <glyph glyph-name="T" unicode="T" 
d="M206 591h-192v76h472v-76h-192v-591h-88v591z" />
    <glyph glyph-name="U" unicode="U" horiz-adv-x="597" 
d="M158 667v-412q0 -91 29.5 -142t111.5 -51q76 0 108 46.5t32 146.5v412h88v-406q0 -145 -52.5 -210.5t-175.5 -65.5q-130 0 -179.5 69.5t-49.5 206.5v406h88z" />
    <glyph glyph-name="V" unicode="V" horiz-adv-x="556" 
d="M28 667h100l109 -400q21 -75 34 -157h14q14 86 34 157l109 400h100l-212 -667h-76z" />
    <glyph glyph-name="W" unicode="W" horiz-adv-x="833" 
d="M21 667h101l116 -576h12l116 576h103l114 -576h12l117 576h100l-164 -667h-106l-95 419q-15 65 -23 147h-13q-9 -91 -22 -147l-98 -419h-108z" />
    <glyph glyph-name="X" unicode="X" horiz-adv-x="542" 
d="M221 329l-187 338h106l101 -207q18 -38 30 -78h14q9 26 30 75l91 210h104l-188 -338l195 -329h-111l-103 205q-11 21 -28 65h-16q-2 -3 -30 -65l-94 -205h-103z" />
    <glyph glyph-name="Y" unicode="Y" horiz-adv-x="542" 
d="M229 243l-201 424h105l96 -250q27 -73 39 -114h14q14 75 31 118l96 246h105l-201 -424v-243h-84v243z" />
    <glyph glyph-name="Z" unicode="Z" 
d="M25 72l337 524l-6 8q-4 -2 -11 -3t-17.5 -2t-21 -1.5t-28.5 -1t-33 -0.5h-41h-46.5h-55h-60.5v71h421v-71l-338 -524l5 -10q39 10 109 10h236v-72h-450v72z" />
    <glyph glyph-name="bracketleft" unicode="[" 
d="M114 -202v923h273v-74h-185v-775h185v-74h-273z" />
    <glyph glyph-name="backslash" unicode="\" 
d="M54 682h80l312 -697h-80z" />
    <glyph glyph-name="bracketright" unicode="]" 
d="M113 721h273v-923h-273v74h185v775h-185v74z" />
    <glyph glyph-name="asciicircum" unicode="^" horiz-adv-x="1000" 
d="M539 712l254 -272h-77l-216 214l-216 -214h-78l254 272h79z" />
    <glyph glyph-name="underscore" unicode="_" 
d="M500 -75v-50h-500v50h500z" />
    <glyph glyph-name="grave" unicode="`" 
d="M108 752h106q44 -79 111 -134v-19h-55q-70 75 -162 123v30z" />
    <glyph glyph-name="a" unicode="a" horiz-adv-x="458" 
d="M389 334v-334h-83v44q-54 -56 -131 -56q-65 0 -104.5 41.5t-39.5 106.5q0 74 53.5 112t170.5 60l51 9v30q0 45 -23 64t-74 19q-63 0 -111 -57h-40v97q78 28 147 28q94 0 139 -40t45 -124zM306 102v159q-99 -20 -143 -46.5t-44 -73.5q0 -35 25 -58.5t64 -23.5q49 0 98 43z
" />
    <glyph glyph-name="b" unicode="b" 
d="M153 682v-234l9 -2q54 55 116 55q79 0 128.5 -69t49.5 -189q0 -122 -49.5 -190t-129.5 -68q-63 0 -115 55l-9 -3v-37h-84v682h84zM153 379v-271q52 -50 103 -50q113 0 113 184q0 186 -114 186q-50 0 -102 -49z" />
    <glyph glyph-name="c" unicode="c" horiz-adv-x="431" 
d="M403 131v-96q-74 -48 -146 -48q-98 0 -157 69t-59 190q0 115 59.5 184t154.5 69q63 0 148 -45v-97h-39q-43 71 -111 71q-58 0 -92 -47.5t-34 -134.5q0 -88 33 -136t91 -48q70 0 114 69h38z" />
    <glyph glyph-name="d" unicode="d" 
d="M431 0h-83v37l-10 4q-53 -56 -114 -56q-80 0 -130 68t-50 190q0 120 49.5 189t128.5 69q62 0 116 -55l10 2v234h83v-682zM348 108v271q-53 49 -103 49q-114 0 -114 -186q0 -184 114 -184q51 0 103 50z" />
    <glyph glyph-name="e" unicode="e" horiz-adv-x="472" 
d="M430 220h-301q0 -162 136 -162q69 0 131 55h34v-83q-92 -45 -166 -45q-108 0 -165 64.5t-57 188.5q0 125 56 194t151 69q82 0 131.5 -53t49.5 -145v-83zM129 278h220v12q0 79 -23 116t-80 37q-114 0 -117 -165z" />
    <glyph glyph-name="f" unicode="f" horiz-adv-x="292" 
d="M97 428h-76v58h76v45q0 74 27 105t101 31h60v-67h-26q-54 0 -66 -15t-12 -68v-31h91v-58h-91v-428h-84v428z" />
    <glyph glyph-name="g" unicode="g" 
d="M347 158v237q-50 43 -103 43q-55 0 -84.5 -41.5t-29.5 -119.5q0 -162 114 -162q51 0 103 43zM430 486v-392q0 -65 -4 -101.5t-20 -65.5q-20 -36 -66.5 -58t-107.5 -22q-93 0 -183 45v100h35q55 -69 151 -69q60 0 86.5 33.5t26.5 106.5q0 23 -1 35l-9 1q-54 -47 -116 -47
q-79 0 -128.5 59.5t-49.5 162.5q0 107 49 167t130 60q62 0 114 -49l10 3v31h83z" />
    <glyph glyph-name="h" unicode="h" 
d="M69 682h84v-228l9 -2q55 49 124 49q146 0 146 -188v-313h-83v275q0 89 -16.5 122.5t-70.5 33.5q-51 0 -109 -46v-385h-84v682z" />
    <glyph glyph-name="i" unicode="i" horiz-adv-x="236" 
d="M65 682h106v-81h-106v81zM156 486v-486h-84v486h84z" />
    <glyph glyph-name="j" unicode="j" horiz-adv-x="236" 
d="M76 682h106v-81h-106v81zM167 486v-501q0 -80 -29.5 -109t-110.5 -29h-39v73h23q50 0 61 11.5t11 65.5v489h84z" />
    <glyph glyph-name="k" unicode="k" horiz-adv-x="444" 
d="M69 682h84v-328q0 -53 -8 -98l20 -9q29 51 48 78l116 161h102l-171 -205v-12q19 -19 46 -63l126 -206h-104l-115 234h-20l-40 -47v-187h-84v682z" />
    <glyph glyph-name="l" unicode="l" horiz-adv-x="236" 
d="M76 682h84v-682h-84v682z" />
    <glyph glyph-name="m" unicode="m" horiz-adv-x="778" 
d="M70 486h84v-32l10 -2q50 49 116 49q97 0 135 -79q33 43 66.5 61t80.5 18q146 0 146 -185v-316h-84v292q0 29 -2.5 48.5t-10 43t-25.5 35.5t-46 12q-51 0 -109 -46v-385h-84v296q0 71 -20 103t-69 32q-54 0 -104 -47v-384h-84v486z" />
    <glyph glyph-name="n" unicode="n" 
d="M69 486h85v-32l8 -2q55 49 124 49q146 0 146 -185v-316h-83v292q0 76 -17.5 107.5t-69.5 31.5t-109 -47v-384h-84v486z" />
    <glyph glyph-name="o" unicode="o" 
d="M247 501q100 0 155.5 -66.5t55.5 -189.5q0 -124 -55.5 -192t-152.5 -68q-99 0 -154 70t-55 196q0 115 56.5 182.5t149.5 67.5zM248 431q-57 0 -89 -46.5t-32 -134.5q0 -96 31.5 -145.5t91.5 -49.5q57 0 89.5 49.5t32.5 141.5q0 185 -124 185z" />
    <glyph glyph-name="p" unicode="p" 
d="M69 486h83v-37l10 -4q53 56 114 56q80 0 129.5 -68.5t49.5 -190.5q0 -120 -49 -188.5t-128 -68.5q-62 0 -116 55l-10 -2v-191h-83v639zM152 378v-271q52 -49 103 -49q114 0 114 186q0 184 -114 184q-51 0 -103 -50z" />
    <glyph glyph-name="q" unicode="q" 
d="M347 -153v191l-9 2q-54 -55 -116 -55q-79 0 -128.5 68.5t-49.5 188.5q0 122 50 190.5t129 68.5q61 0 114 -56l10 4v37h84v-639h-84zM347 107v271q-52 50 -103 50q-113 0 -113 -184q0 -186 113 -186q50 0 103 49z" />
    <glyph glyph-name="r" unicode="r" horiz-adv-x="333" 
d="M69 486h84v-19q0 -33 -4 -58l8 -6q23 45 57 64t87 19h18v-98h-42q-73 0 -98.5 -24t-25.5 -94v-270h-84v486z" />
    <glyph glyph-name="s" unicode="s" horiz-adv-x="403" 
d="M34 112h43q37 -64 115 -64q42 0 68 21.5t26 56.5q0 17 -6 29.5t-12 20t-26.5 16.5t-30.5 12.5t-43 13.5q-67 22 -99 55t-32 85q0 61 46.5 100.5t126.5 39.5q65 0 140 -29v-97h-39q-38 70 -110 70q-33 0 -56.5 -20.5t-23.5 -50.5q0 -37 26 -54t92 -35q130 -38 130 -143
q0 -68 -47.5 -111t-123.5 -43q-102 0 -164 38v89z" />
    <glyph glyph-name="t" unicode="t" horiz-adv-x="319" 
d="M107 132v296h-85v58h85v130h83v-130h110v-58h-110v-292q0 -54 10.5 -66.5t62.5 -12.5h37v-57h-60q-91 0 -112 21t-21 111z" />
    <glyph glyph-name="u" unicode="u" 
d="M431 0h-85v32l-8 2q-55 -49 -124 -49q-51 0 -85 26t-48 63q-13 32 -13 146v266h83v-296q0 -71 17.5 -103t69.5 -32q50 0 109 48v383h84v-486z" />
    <glyph glyph-name="v" unicode="v" horiz-adv-x="444" 
d="M28 486h90l71 -255q19 -66 23 -131h22q11 84 28 146l69 240h86l-162 -486h-76z" />
    <glyph glyph-name="w" unicode="w" horiz-adv-x="667" 
d="M28 486h94l61 -282q13 -61 18 -108h19q6 53 18 108l59 282h72l63 -282q12 -54 18 -108h19q4 41 18 108l59 282h92l-147 -486h-69l-61 268q-7 34 -15 114h-20q-3 -50 -19 -114l-62 -268h-70z" />
    <glyph glyph-name="x" unicode="x" horiz-adv-x="431" 
d="M146 240l-119 246h105l76 -224h12l85 224h95l-116 -246l119 -240h-106l-77 212h-12l-82 -212h-96z" />
    <glyph glyph-name="y" unicode="y" horiz-adv-x="444" 
d="M32 486h87l70 -266q20 -70 22 -137h23q11 89 24 137l79 266h84l-172 -527q-22 -68 -55 -90t-117 -22h-31v71h35q47 0 68 16t33 60z" />
    <glyph glyph-name="z" unicode="z" horiz-adv-x="389" 
d="M21 75l145 221q51 82 86 114v12h-215v64h310v-64l-183 -277q-25 -38 -47 -58v-12h251v-75h-347v75z" />
    <glyph glyph-name="braceleft" unicode="{" 
d="M79 228v62q4 0 11.5 -0.5t10.5 -0.5q66 0 92.5 30.5t26.5 104.5v119q0 65 9 99t40 54q39 25 128 25h27v-62q-4 0 -11.5 0.5t-10.5 0.5q-62 0 -81.5 -25t-19.5 -94v-118q0 -76 -19.5 -112t-77.5 -52q58 -16 77.5 -52t19.5 -112v-118q0 -70 20 -94t84 -24h19v-61h-27
q-89 0 -128 25q-31 20 -40 54.5t-9 98.5v119q0 73 -26.5 103.5t-92.5 30.5q-3 0 -10.5 -0.5t-11.5 -0.5z" />
    <glyph glyph-name="bar" unicode="|" 
d="M290 750v-1000h-80v1000h80z" />
    <glyph glyph-name="braceright" unicode="}" 
d="M422 290v-62q-4 0 -11.5 0.5t-10.5 0.5q-66 0 -93 -30.5t-27 -104.5v-118q0 -65 -9 -99.5t-39 -54.5q-36 -24 -126 -24h-30v61q4 0 11.5 -0.5t10.5 -0.5q62 0 81.5 25t19.5 95v117q0 76 19.5 112t77.5 52q-58 16 -77.5 52t-19.5 112v118q0 70 -20 94.5t-84 24.5h-19v61
h27q90 0 129 -25q30 -20 39 -54t9 -99v-119q0 -74 27 -104.5t93 -30.5q3 0 10.5 0.5t11.5 0.5z" />
    <glyph glyph-name="asciitilde" unicode="~" horiz-adv-x="833" 
d="M747 306q-98 -70 -189 -70q-42 0 -93 17q-14 5 -48.5 17t-51 17t-42.5 10.5t-48 5.5q-77 0 -188 -78v65q103 71 189 71q52 0 142 -32q5 -2 27 -10t30 -10.5t25 -7.5t31 -6.5t28 -1.5q78 0 188 77v-64z" />
    <glyph glyph-name="uni00A0" unicode="&#xa0;" horiz-adv-x="250" 
 />
    <glyph glyph-name="exclamdown" unicode="&#xa1;" horiz-adv-x="250" 
d="M178 390h-106v111h106v-111zM183 -153h-116l28 473h60z" />
    <glyph glyph-name="cent" unicode="&#xa2;" 
d="M416 131v-96q-53 -37 -125 -46v-61h-56v61q-88 17 -134.5 83t-46.5 174q0 104 48 170t133 81v53h56v-53q47 -3 125 -43v-97h-39q-34 59 -86 67v-358q57 16 87 65h38zM235 64v360q-95 -29 -95 -178q0 -153 95 -182z" />
    <glyph glyph-name="sterling" unicode="&#xa3;" 
d="M44 0v75q40 6 62 30.5t22 64.5q0 26 -1 58.5t-1 39.5q0 24 9 41l-5 5q-22 -12 -49 -12h-37v68h27q14 0 54 -13l4 8q-22 53 -22 107q0 98 53 153t145 55q63 0 130 -33v-120l-41 -3q-33 85 -103 85q-47 0 -71.5 -28.5t-24.5 -82.5q0 -20 3.5 -53t3.5 -44q0 -2 -4 -36l6 -8
q36 13 96 13h63v-68h-80q-42 0 -74 11l-6 -7q11 -44 11 -76q0 -97 -74 -161l6 -12q30 19 70 25t107 6h135v-88h-414z" />
    <glyph glyph-name="currency" unicode="&#xa4;" horiz-adv-x="606" 
d="M300 457q-59 0 -99.5 -43.5t-40.5 -102.5q0 -58 40.5 -101t99.5 -43t100.5 43t41.5 101q0 59 -41.5 102.5t-100.5 43.5zM27 90l98 98q-39 48 -39 123q0 76 39 125l-98 98l52 52l96 -98q56 39 125 39q72 0 125 -39l96 98l52 -52l-96 -98q39 -58 39 -125q0 -70 -39 -123
l96 -98l-52 -52l-96 98q-53 -39 -125 -39t-125 39l-96 -98z" />
    <glyph glyph-name="yen" unicode="&#xa5;" 
d="M292 0h-84v35q0 25 5 31l-6 5q-27 -3 -37 -3h-129v68h129q10 0 37 -3l6 7q-5 15 -5 63q0 33 5 43l-6 7q-27 -3 -37 -3h-129v68h95q43 0 51 -4l4 6q-19 35 -21 39l-149 308h105l82 -220q25 -68 35 -114h14q24 90 35 118l82 216h105l-149 -308q-2 -4 -21 -39l4 -6q8 4 45 4
h101v-68h-129q-10 0 -37 3l-5 -7q4 -12 4 -63q0 -31 -4 -43l5 -7q27 3 37 3h129v-68h-129q-10 0 -37 3l-5 -5q4 -6 4 -31v-35z" />
    <glyph glyph-name="brokenbar" unicode="&#xa6;" 
d="M290 675v-350h-80v350h80zM290 175v-350h-80v350h80z" />
    <glyph glyph-name="section" unicode="&#xa7;" horiz-adv-x="557" 
d="M89 86l47 50q10 -27 55 -55t91 -28q82 0 82 53q0 10 -3 18t-10.5 15t-13.5 12t-19.5 11.5t-21.5 9.5t-25.5 10t-25.5 10q-89 36 -139 73t-50 90q0 48 28 76.5t72 33.5q2 2 2 5q-21 15 -31 24.5t-20 30t-10 46.5q0 49 43 79.5t130 30.5q108 0 193 -91l-45 -50
q-67 75 -152 75q-31 0 -48.5 -11.5t-17.5 -29.5q0 -45 66 -74l45.5 -19.5t43.5 -18.5t36.5 -16.5t33.5 -18t25.5 -18t22.5 -21t14.5 -22.5t11 -27.5t2.5 -31.5q0 -26 -10 -45.5t-23.5 -29t-27.5 -15t-24 -7.5t-10 -3v-2q32 -19 46 -42.5t14 -61.5q0 -46 -41.5 -81
t-142.5 -35q-20 0 -48 5.5t-72.5 30t-72.5 65.5zM372 233q33 0 47.5 19.5t14.5 40.5q0 37 -49 68q-25 17 -92.5 47.5t-101.5 30.5t-49 -21t-15 -43q0 -57 144 -115q45 -18 61 -22.5t40 -4.5z" />
    <glyph glyph-name="dieresis" unicode="&#xa8;" 
d="M119 723h91v-95h-91v95zM289 723h92v-95h-92v95z" />
    <glyph glyph-name="copyright" unicode="&#xa9;" horiz-adv-x="833" 
d="M416 713q151 0 256 -105q103 -103 103 -254t-103 -252q-110 -107 -256 -107t-252 106t-106 253q0 146 107 255q102 104 251 104zM733 354q0 132 -92 224t-225 92q-132 0 -221 -91q-94 -96 -94 -225q0 -127 93 -222q93 -93 222 -93q130 0 226 94q91 89 91 221zM520 445
q-7 38 -34.5 59t-67.5 21q-57 0 -89 -45t-32 -127q0 -79 33 -123.5t88 -44.5q42 0 71 23.5t36 65.5h63q-5 -62 -53 -101t-120 -39q-85 0 -136.5 58.5t-51.5 159.5q0 103 53 163t140 60q67 0 112.5 -36.5t50.5 -93.5h-63z" />
    <glyph glyph-name="ordfeminine" unicode="&#xaa;" horiz-adv-x="344" 
d="M292 560v-234h-62v31q-40 -39 -99 -39q-49 0 -78.5 29t-29.5 74q0 52 40.5 78.5t127.5 42.5l39 6v25q0 54 -73 54q-47 0 -83 -40h-30v68q57 20 110 20q138 0 138 -115zM230 397v112q-75 -14 -108 -32.5t-33 -51.5q0 -25 19 -41.5t48 -16.5q36 0 74 30z" />
    <glyph glyph-name="guillemotleft" unicode="&#xab;" horiz-adv-x="567" 
d="M350 266l122 -156v-4h-83l-123 159l130 154h86zM168 266l123 -156v-4h-84l-122 159l129 154h86z" />
    <glyph glyph-name="logicalnot" unicode="&#xac;" horiz-adv-x="833" 
d="M594 108v210h-430v74h504v-284h-74z" />
    <glyph glyph-name="uni00AD" unicode="&#xad;" horiz-adv-x="333" 
d="M42 371h250v-75h-250v75z" />
    <glyph glyph-name="registered" unicode="&#xae;" horiz-adv-x="833" 
d="M416 713q150 0 256 -106q103 -103 103 -253q0 -151 -104 -252q-110 -107 -255 -107q-146 0 -253 107q-105 105 -105 252q0 148 108 256q101 103 250 103zM733 352q0 134 -91 225q-93 93 -226 93q-132 0 -220 -90q-95 -95 -95 -226q0 -127 93 -222q91 -93 221 -93
q131 0 226 93q92 90 92 220zM426 565q171 0 171 -113q0 -43 -25.5 -72.5t-70.5 -36.5l92 -188h-77l-86 178h-87v-178h-69v410h152zM413 520h-70v-142h72q59 0 85 15.5t26 53.5q0 39 -27 56t-86 17z" />
    <glyph glyph-name="macron" unicode="&#xaf;" 
d="M110 704h279v-72h-279v72z" />
    <glyph glyph-name="degree" unicode="&#xb0;" horiz-adv-x="329" 
d="M170 712q62 0 104 -42t42 -104q0 -63 -42 -105.5t-104 -42.5q-63 0 -105.5 42.5t-42.5 105.5q0 62 42.5 104t105.5 42zM170 672q-43 0 -73.5 -31t-30.5 -75t30.5 -76t73.5 -32t72.5 32t29.5 76t-29.5 75t-72.5 31z" />
    <glyph glyph-name="plusminus" unicode="&#xb1;" horiz-adv-x="833" 
d="M379 348v176h74v-176h215v-74h-215v-176h-74v176h-215v74h215zM164 -30v74h504v-74h-504z" />
    <glyph glyph-name="twosuperior" unicode="&#xb2;" horiz-adv-x="330" 
d="M101 543h-62q-1 6 -1 16q0 56 32.5 86t91.5 30q60 0 95.5 -29.5t35.5 -81.5q0 -31 -16.5 -61t-33.5 -46t-55 -49q-83 -73 -93 -102l6 -5q35 17 102 17h89v-52h-255q-1 5 -1 14q0 36 19 64t61 66q41 38 60.5 58t36 48t16.5 54q0 29 -17 45.5t-46 16.5q-36 0 -49.5 -20
t-15.5 -69z" />
    <glyph glyph-name="threesuperior" unicode="&#xb3;" horiz-adv-x="330" 
d="M32 352h29q26 -48 84 -48q39 0 64 22.5t25 57.5t-28.5 55t-79.5 20v42q47 0 72.5 18.5t25.5 51.5q0 27 -20 45t-53 18q-52 0 -80 -48h-28v54q47 34 116 34q60 0 94.5 -27t34.5 -70q0 -70 -79 -91v-7q89 -14 89 -101q0 -53 -40 -86.5t-103 -33.5q-81 0 -123 36v58z" />
    <glyph glyph-name="acute" unicode="&#xb4;" 
d="M396 752v-30q-98 -53 -162 -123h-56v19q66 54 112 134h106z" />
    <glyph glyph-name="mu" unicode="&#xb5;" horiz-adv-x="551" 
d="M169 486l-54 -255q-7 -31 -7 -67q0 -53 27.5 -82t78.5 -29q121 0 164 200l51 233h76l-71 -332q-11 -49 -11 -66q0 -32 35 -32q8 0 17 1l-13 -61q-21 -5 -45 -5q-34 0 -51 17t-20 55q-42 -72 -141 -72q-85 0 -128 67l-55 -266h-76l146 694h77z" />
    <glyph glyph-name="paragraph" unicode="&#xb6;" 
d="M463 629h-61v-684h-46v684h-90v-684h-46v382q-85 4 -134 50.5t-49 119.5q0 76 52 123t140 47h234v-38z" />
    <glyph glyph-name="periodcentered" unicode="&#xb7;" horiz-adv-x="250" 
d="M72 353h106v-111h-106v111z" />
    <glyph glyph-name="cedilla" unicode="&#xb8;" 
d="M232 0h40v-49h16q55 0 83.5 -22.5t28.5 -62.5q0 -95 -128 -95q-52 0 -132 21l-1 49q81 -19 132 -19q56 0 56 40q0 42 -64 42q-21 0 -31 -1v97z" />
    <glyph glyph-name="onesuperior" unicode="&#xb9;" horiz-adv-x="330" 
d="M37 309h103v313h-103v45h167v-358h89v-43h-256v43z" />
    <glyph glyph-name="ordmasculine" unicode="&#xba;" horiz-adv-x="375" 
d="M185 676q75 0 117 -46.5t42 -132.5t-41.5 -133.5t-114.5 -47.5q-74 0 -115.5 49t-41.5 137q0 80 42.5 127t111.5 47zM186 627q-43 0 -67 -32.5t-24 -93.5q0 -136 93 -136q43 0 67 34.5t24 98.5q0 129 -93 129z" />
    <glyph glyph-name="guillemotright" unicode="&#xbb;" horiz-adv-x="567" 
d="M94 110l122 156l-131 153h85l130 -154l-123 -159h-83v4zM276 110l122 156l-132 153h86l130 -154l-123 -159h-83v4z" />
    <glyph glyph-name="onequarter" unicode="&#xbc;" horiz-adv-x="759" 
d="M39 220h111v390h-111v57h180v-447h97v-53h-277v53zM673 413v-249q0 -21 -10 -53l10 -7q12 7 28 7h17v-51h-17q-11 0 -28 6l-10 -6q10 -24 10 -51v-96h-64v109q0 21 8 38l-9 8q-33 -8 -71 -8h-133v61l177 292h92zM609 103l7 8q-7 21 -7 50v106q0 33 7 99h-7
q-9 -28 -30 -63l-83 -138q-7 -12 -41 -54l7 -8q38 9 52 9h51q14 0 44 -9z" />
    <glyph glyph-name="onehalf" unicode="&#xbd;" horiz-adv-x="759" 
d="M39 220h111v390h-111v57h180v-447h97v-53h-277v53zM506 258h-67q-1 9 -1 27q0 64 35.5 100.5t97.5 36.5q65 0 103 -36.5t38 -100.5q0 -30 -7.5 -56t-27.5 -53t-32.5 -41t-44.5 -46q-50 -51 -72.5 -78t-28.5 -48l7 -6q40 21 109 21h97v-65h-275q0 3 -0.5 8.5t-0.5 7.5
q0 45 20.5 79.5t65.5 83.5q63 67 92 110t29 90q0 36 -18 56.5t-49 20.5q-37 0 -53.5 -23.5t-16.5 -73.5v-14z" />
    <glyph glyph-name="threequarters" unicode="&#xbe;" horiz-adv-x="759" 
d="M49 281h31q27 -61 91 -61q41 0 68.5 29t27.5 73t-30.5 68.5t-86.5 24.5v52q51 1 78 24t27 64q0 35 -22 57t-56 22q-57 0 -87 -61h-30v68q56 43 125 43q64 0 101.5 -34t37.5 -88q0 -87 -85 -114v-8q96 -19 96 -127q0 -66 -43.5 -108t-110.5 -42q-83 0 -132 46v72zM656 413
v-249q0 -21 -10 -53l10 -7q12 7 28 7h17v-51h-17q-12 0 -28 6l-10 -6q10 -24 10 -51v-96h-64v109q0 21 8 38l-9 8q-33 -8 -71 -8h-133v61l177 292h92zM592 103l7 8q-7 21 -7 50v106q0 33 7 99h-7q-9 -28 -30 -63l-83 -138q-7 -12 -41 -54l7 -8q37 9 52 9h51q14 0 44 -9z" />
    <glyph glyph-name="questiondown" unicode="&#xbf;" 
d="M317 390h-107v111h107v-111zM222 319h83v-32q0 -40 -60 -110q-10 -12 -30 -31.5t-30.5 -31.5t-20 -34.5t-9.5 -49.5q0 -111 98 -111q43 0 67.5 28t24.5 77v48h98q1 -9 1 -26q0 -199 -196 -199q-88 0 -139.5 48.5t-51.5 128.5q0 42 15.5 76.5t33 53.5t55.5 54
q34 31 48.5 49t14.5 34q0 8 -2 28z" />
    <glyph glyph-name="Agrave" unicode="&#xc0;" horiz-adv-x="556" 
d="M257 491l-71 -272h187l-68 272q-9 33 -12 97h-23q-5 -67 -13 -97zM225 667h112l191 -667h-100l-37 146h-224l-39 -146h-100zM136 886h106q44 -79 111 -134v-19h-55q-70 75 -162 123v30z" />
    <glyph glyph-name="Aacute" unicode="&#xc1;" horiz-adv-x="556" 
d="M257 491l-71 -272h187l-68 272q-9 33 -12 97h-23q-5 -67 -13 -97zM225 667h112l191 -667h-100l-37 146h-224l-39 -146h-100zM424 886v-30q-98 -53 -162 -123h-56v19q66 54 112 134h106z" />
    <glyph glyph-name="Acircumflex" unicode="&#xc2;" horiz-adv-x="556" 
d="M257 491l-71 -272h187l-68 272q-9 33 -12 97h-23q-5 -67 -13 -97zM225 667h112l191 -667h-100l-37 146h-224l-39 -146h-100zM266 833q-15 -37 -35.5 -61t-56.5 -39h-50v31q54 29 101 122h106q37 -82 100 -122v-31h-48q-36 15 -57 39t-35 61h-25z" />
    <glyph glyph-name="Atilde" unicode="&#xc3;" horiz-adv-x="556" 
d="M257 491l-71 -272h187l-68 272q-9 33 -12 97h-23q-5 -67 -13 -97zM225 667h112l191 -667h-100l-37 146h-224l-39 -146h-100zM432 862q-30 -104 -102 -104q-40 0 -115 36q-14 -14 -22 -39h-66q24 102 104 102q24 0 63 -15t49 -17q14 16 22 37h67z" />
    <glyph glyph-name="Adieresis" unicode="&#xc4;" horiz-adv-x="556" 
d="M257 491l-71 -272h187l-68 272q-9 33 -12 97h-23q-5 -67 -13 -97zM225 667h112l191 -667h-100l-37 146h-224l-39 -146h-100zM147 857h91v-95h-91v95zM317 857h92v-95h-92v95z" />
    <glyph glyph-name="Aring" unicode="&#xc5;" horiz-adv-x="556" 
d="M257 491l-71 -272h187l-68 272q-9 33 -12 97h-23q-5 -67 -13 -97zM225 667h112l191 -667h-100l-37 146h-224l-39 -146h-100zM169 832q0 44 32 76.5t77 32.5q44 0 76.5 -32.5t32.5 -76.5q0 -46 -32 -78t-77 -32q-44 0 -76.5 32t-32.5 78zM225 832q0 -22 16 -38t37 -16
q22 0 37.5 16t15.5 38t-15.5 37t-37.5 15q-23 0 -38 -15t-15 -37z" />
    <glyph glyph-name="AE" unicode="&#xc6;" horiz-adv-x="758" 
d="M202 219h175v369h-23q-3 -8 -31.5 -81t-46.5 -115zM699 377v-73h-234v-230h279v-74h-367v146h-199l-58 -146h-92l292 667h407v-70h-262v-220h234z" />
    <glyph glyph-name="Ccedilla" unicode="&#xc7;" horiz-adv-x="556" 
d="M514 606v-120h-53q-46 123 -155 123q-170 0 -170 -276q0 -132 43.5 -200.5t126.5 -68.5q112 0 155 124h53v-123q-100 -76 -198 -79v-35h16q55 0 83.5 -22.5t28.5 -62.5q0 -95 -128 -95q-52 0 -132 21l-1 49q81 -19 132 -19q56 0 56 40q0 42 -64 42q-21 0 -31 -1v84
q-114 11 -174 99t-60 247q0 170 68 258.5t196 88.5q92 0 208 -74z" />
    <glyph glyph-name="Egrave" unicode="&#xc8;" 
d="M69 667h400v-70h-312v-220h284v-73h-284v-230h329v-74h-417v667zM108 886h106q44 -79 111 -134v-19h-55q-70 75 -162 123v30z" />
    <glyph glyph-name="Eacute" unicode="&#xc9;" 
d="M69 667h400v-70h-312v-220h284v-73h-284v-230h329v-74h-417v667zM396 886v-30q-98 -53 -162 -123h-56v19q66 54 112 134h106z" />
    <glyph glyph-name="Ecircumflex" unicode="&#xca;" 
d="M69 667h400v-70h-312v-220h284v-73h-284v-230h329v-74h-417v667zM238 833q-15 -37 -35.5 -61t-56.5 -39h-50v31q54 29 101 122h106q37 -82 100 -122v-31h-48q-36 15 -57 39t-35 61h-25z" />
    <glyph glyph-name="Edieresis" unicode="&#xcb;" 
d="M69 667h400v-70h-312v-220h284v-73h-284v-230h329v-74h-417v667zM119 857h91v-95h-91v95zM289 857h92v-95h-92v95z" />
    <glyph glyph-name="Igrave" unicode="&#xcc;" horiz-adv-x="389" 
d="M49 58h101v551h-101v58h291v-58h-102v-551h102v-58h-291v58zM53 886h106q44 -79 111 -134v-19h-55q-70 75 -162 123v30z" />
    <glyph glyph-name="Iacute" unicode="&#xcd;" horiz-adv-x="389" 
d="M49 58h101v551h-101v58h291v-58h-102v-551h102v-58h-291v58zM341 886v-30q-98 -53 -162 -123h-56v19q66 54 112 134h106z" />
    <glyph glyph-name="Icircumflex" unicode="&#xce;" horiz-adv-x="389" 
d="M49 58h101v551h-101v58h291v-58h-102v-551h102v-58h-291v58zM183 833q-15 -37 -35.5 -61t-56.5 -39h-50v31q54 29 101 122h106q37 -82 100 -122v-31h-48q-36 15 -57 39t-35 61h-25z" />
    <glyph glyph-name="Idieresis" unicode="&#xcf;" horiz-adv-x="389" 
d="M49 58h101v551h-101v58h291v-58h-102v-551h102v-58h-291v58zM64 857h91v-95h-91v95zM234 857h92v-95h-92v95z" />
    <glyph glyph-name="Eth" unicode="&#xd0;" horiz-adv-x="597" 
d="M157 594v-217h163v-74h-163v-231q34 -2 49 -2q257 0 257 264q0 138 -67 200t-170 62q-37 0 -69 -2zM69 377v290h111q89 0 145.5 -10.5t102.5 -42.5q60 -42 93.5 -115t33.5 -165q0 -166 -95 -258q-43 -42 -105 -59t-156 -17h-130v303h-69v74h69z" />
    <glyph glyph-name="Ntilde" unicode="&#xd1;" horiz-adv-x="611" 
d="M228 417q-35 77 -56 176h-17v-593h-86v667h141l173 -376q35 -75 56 -175h17v551h86v-667h-121zM460 862q-30 -104 -102 -104q-40 0 -115 36q-14 -14 -22 -39h-66q24 102 104 102q24 0 63 -15t49 -17q14 16 22 37h67z" />
    <glyph glyph-name="Ograve" unicode="&#xd2;" horiz-adv-x="611" 
d="M569 337q0 -174 -67 -263t-196 -89q-128 0 -196 89.5t-68 259.5q0 169 68 257.5t196 88.5t195.5 -87t67.5 -256zM306 56q83 0 127 67t44 195q0 291 -171 291q-84 0 -128 -70t-44 -205q0 -137 44 -207.5t128 -70.5zM164 886h106q44 -79 111 -134v-19h-55q-70 75 -162 123
v30z" />
    <glyph glyph-name="Oacute" unicode="&#xd3;" horiz-adv-x="611" 
d="M569 337q0 -174 -67 -263t-196 -89q-128 0 -196 89.5t-68 259.5q0 169 68 257.5t196 88.5t195.5 -87t67.5 -256zM306 56q83 0 127 67t44 195q0 291 -171 291q-84 0 -128 -70t-44 -205q0 -137 44 -207.5t128 -70.5zM452 886v-30q-98 -53 -162 -123h-56v19q66 54 112 134
h106z" />
    <glyph glyph-name="Ocircumflex" unicode="&#xd4;" horiz-adv-x="611" 
d="M569 337q0 -174 -67 -263t-196 -89q-128 0 -196 89.5t-68 259.5q0 169 68 257.5t196 88.5t195.5 -87t67.5 -256zM306 56q83 0 127 67t44 195q0 291 -171 291q-84 0 -128 -70t-44 -205q0 -137 44 -207.5t128 -70.5zM294 833q-15 -37 -35.5 -61t-56.5 -39h-50v31
q54 29 101 122h106q37 -82 100 -122v-31h-48q-36 15 -57 39t-35 61h-25z" />
    <glyph glyph-name="Otilde" unicode="&#xd5;" horiz-adv-x="611" 
d="M569 337q0 -174 -67 -263t-196 -89q-128 0 -196 89.5t-68 259.5q0 169 68 257.5t196 88.5t195.5 -87t67.5 -256zM306 56q83 0 127 67t44 195q0 291 -171 291q-84 0 -128 -70t-44 -205q0 -137 44 -207.5t128 -70.5zM460 862q-30 -104 -102 -104q-40 0 -115 36
q-14 -14 -22 -39h-66q24 102 104 102q24 0 63 -15t49 -17q14 16 22 37h67z" />
    <glyph glyph-name="Odieresis" unicode="&#xd6;" horiz-adv-x="611" 
d="M569 337q0 -174 -67 -263t-196 -89q-128 0 -196 89.5t-68 259.5q0 169 68 257.5t196 88.5t195.5 -87t67.5 -256zM306 56q83 0 127 67t44 195q0 291 -171 291q-84 0 -128 -70t-44 -205q0 -137 44 -207.5t128 -70.5zM175 857h91v-95h-91v95zM345 857h92v-95h-92v95z" />
    <glyph glyph-name="multiply" unicode="&#xd7;" horiz-adv-x="833" 
d="M365 253l-183 183l51 51l182 -183l184 183l51 -51l-184 -183l184 -183l-51 -51l-184 184l-182 -184l-51 51z" />
    <glyph glyph-name="Oslash" unicode="&#xd8;" horiz-adv-x="611" 
d="M396 413l-170 -213q-35 -44 -54 -58v-14l4 -5q3 -5 5.5 -8.5t8 -10t11 -11t13.5 -11t17.5 -10.5t21 -8t25 -6t28.5 -2q83 0 127 67t44 195q0 96 -16 172h-12q-7 -19 -53 -77zM306 609q-84 0 -128 -70t-44 -205q0 -24 2.5 -69t2.5 -53h12q2 15 30 48l187 236q37 48 54 54
v12q-50 47 -116 47zM58 -15l-58 44l36 46q29 36 46 41v12q-40 62 -40 206q0 169 68 257.5t196 88.5q65 0 106.5 -19t58.5 -41h12q4 13 19 29l26 31l50 -48l-13 -17q-21 -24 -46 -42v-12q17 -20 33.5 -77.5t16.5 -146.5q0 -174 -67 -263t-196 -89q-65 0 -116.5 28t-63.5 54
h-12q-8 -21 -30 -49z" />
    <glyph glyph-name="Ugrave" unicode="&#xd9;" horiz-adv-x="597" 
d="M158 667v-412q0 -91 29.5 -142t111.5 -51q76 0 108 46.5t32 146.5v412h88v-406q0 -145 -52.5 -210.5t-175.5 -65.5q-130 0 -179.5 69.5t-49.5 206.5v406h88zM157 886h106q44 -79 111 -134v-19h-55q-70 75 -162 123v30z" />
    <glyph glyph-name="Uacute" unicode="&#xda;" horiz-adv-x="597" 
d="M158 667v-412q0 -91 29.5 -142t111.5 -51q76 0 108 46.5t32 146.5v412h88v-406q0 -145 -52.5 -210.5t-175.5 -65.5q-130 0 -179.5 69.5t-49.5 206.5v406h88zM445 886v-30q-98 -53 -162 -123h-56v19q66 54 112 134h106z" />
    <glyph glyph-name="Ucircumflex" unicode="&#xdb;" horiz-adv-x="597" 
d="M158 667v-412q0 -91 29.5 -142t111.5 -51q76 0 108 46.5t32 146.5v412h88v-406q0 -145 -52.5 -210.5t-175.5 -65.5q-130 0 -179.5 69.5t-49.5 206.5v406h88zM287 833q-15 -37 -35.5 -61t-56.5 -39h-50v31q54 29 101 122h106q37 -82 100 -122v-31h-48q-36 15 -57 39
t-35 61h-25z" />
    <glyph glyph-name="Udieresis" unicode="&#xdc;" horiz-adv-x="597" 
d="M158 667v-412q0 -91 29.5 -142t111.5 -51q76 0 108 46.5t32 146.5v412h88v-406q0 -145 -52.5 -210.5t-175.5 -65.5q-130 0 -179.5 69.5t-49.5 206.5v406h88zM168 857h91v-95h-91v95zM338 857h92v-95h-92v95z" />
    <glyph glyph-name="Yacute" unicode="&#xdd;" horiz-adv-x="542" 
d="M229 243l-201 424h105l96 -250q27 -73 39 -114h14q14 75 31 118l96 246h105l-201 -424v-243h-84v243zM417 886v-30q-98 -53 -162 -123h-56v19q66 54 112 134h106z" />
    <glyph glyph-name="Thorn" unicode="&#xde;" horiz-adv-x="514" 
d="M157 142v-142h-88v667h88v-113h72q107 0 168.5 -51.5t61.5 -154.5q0 -104 -60 -155t-168 -51h-74zM157 487v-278h35q174 0 174 142q0 62 -41 99t-124 37h-44z" />
    <glyph glyph-name="germandbls" unicode="&#xdf;" horiz-adv-x="503" 
d="M215 315v70q55 -1 88 30t33 77q0 61 -21 90t-72 29q-29 0 -48.5 -12.5t-27.5 -36.5t-11 -46.5t-3 -54.5v-461h-84v456q0 225 192 225q75 0 116.5 -45t41.5 -127q0 -58 -33 -95.5t-73 -51.5v-12l18 -7q16 -3 33.5 -11t41 -25.5t38.5 -52t15 -79.5q0 -30 -8 -60.5t-26 -61
t-52.5 -49.5t-80.5 -19q-17 0 -47 4.5t-38 10.5v74q28 -15 58 -15q32 0 55 12t33 31t14 35t4 31q0 147 -156 147z" />
    <glyph glyph-name="agrave" unicode="&#xe0;" horiz-adv-x="458" 
d="M389 334v-334h-83v44q-54 -56 -131 -56q-65 0 -104.5 41.5t-39.5 106.5q0 74 53.5 112t170.5 60l51 9v30q0 45 -23 64t-74 19q-63 0 -111 -57h-40v97q78 28 147 28q94 0 139 -40t45 -124zM306 102v159q-99 -20 -143 -46.5t-44 -73.5q0 -35 25 -58.5t64 -23.5q49 0 98 43z
M87 752h106q44 -79 111 -134v-19h-55q-70 75 -162 123v30z" />
    <glyph glyph-name="aacute" unicode="&#xe1;" horiz-adv-x="458" 
d="M389 334v-334h-83v44q-54 -56 -131 -56q-65 0 -104.5 41.5t-39.5 106.5q0 74 53.5 112t170.5 60l51 9v30q0 45 -23 64t-74 19q-63 0 -111 -57h-40v97q78 28 147 28q94 0 139 -40t45 -124zM306 102v159q-99 -20 -143 -46.5t-44 -73.5q0 -35 25 -58.5t64 -23.5q49 0 98 43z
M375 752v-30q-98 -53 -162 -123h-56v19q66 54 112 134h106z" />
    <glyph glyph-name="acircumflex" unicode="&#xe2;" horiz-adv-x="458" 
d="M389 334v-334h-83v44q-54 -56 -131 -56q-65 0 -104.5 41.5t-39.5 106.5q0 74 53.5 112t170.5 60l51 9v30q0 45 -23 64t-74 19q-63 0 -111 -57h-40v97q78 28 147 28q94 0 139 -40t45 -124zM306 102v159q-99 -20 -143 -46.5t-44 -73.5q0 -35 25 -58.5t64 -23.5q49 0 98 43z
M217 699q-15 -37 -35.5 -61t-56.5 -39h-50v31q54 29 101 122h106q37 -82 100 -122v-31h-48q-36 15 -57 39t-35 61h-25z" />
    <glyph glyph-name="atilde" unicode="&#xe3;" horiz-adv-x="458" 
d="M389 334v-334h-83v44q-54 -56 -131 -56q-65 0 -104.5 41.5t-39.5 106.5q0 74 53.5 112t170.5 60l51 9v30q0 45 -23 64t-74 19q-63 0 -111 -57h-40v97q78 28 147 28q94 0 139 -40t45 -124zM306 102v159q-99 -20 -143 -46.5t-44 -73.5q0 -35 25 -58.5t64 -23.5q49 0 98 43z
M383 728q-30 -104 -102 -104q-40 0 -115 36q-14 -14 -22 -39h-66q24 102 104 102q24 0 63 -15t49 -17q14 16 22 37h67z" />
    <glyph glyph-name="adieresis" unicode="&#xe4;" horiz-adv-x="458" 
d="M389 334v-334h-83v44q-54 -56 -131 -56q-65 0 -104.5 41.5t-39.5 106.5q0 74 53.5 112t170.5 60l51 9v30q0 45 -23 64t-74 19q-63 0 -111 -57h-40v97q78 28 147 28q94 0 139 -40t45 -124zM306 102v159q-99 -20 -143 -46.5t-44 -73.5q0 -35 25 -58.5t64 -23.5q49 0 98 43z
M98 723h91v-95h-91v95zM268 723h92v-95h-92v95z" />
    <glyph glyph-name="aring" unicode="&#xe5;" horiz-adv-x="458" 
d="M389 334v-334h-83v44q-54 -56 -131 -56q-65 0 -104.5 41.5t-39.5 106.5q0 74 53.5 112t170.5 60l51 9v30q0 45 -23 64t-74 19q-63 0 -111 -57h-40v97q78 28 147 28q94 0 139 -40t45 -124zM306 102v159q-99 -20 -143 -46.5t-44 -73.5q0 -35 25 -58.5t64 -23.5q49 0 98 43z
M120 708q0 44 32 76.5t77 32.5q44 0 76.5 -32.5t32.5 -76.5q0 -46 -32 -78t-77 -32t-77 32t-32 78zM176 708q0 -22 16 -38t37 -16q22 0 37.5 16t15.5 38t-15.5 37t-37.5 15q-23 0 -38 -15t-15 -37z" />
    <glyph glyph-name="ae" unicode="&#xe6;" horiz-adv-x="711" 
d="M393 278h195v20q0 72 -21.5 108.5t-72.5 36.5q-46 0 -73.5 -42.5t-27.5 -122.5zM58 373v97q78 28 139 28q123 0 162 -70q26 35 62.5 54t72.5 19q77 0 126 -53t49 -145v-83h-276q0 -86 23.5 -124t87.5 -38q86 0 131 55h34v-83q-92 -45 -141 -45q-109 0 -169 68l-11 16
q-58 -46 -96 -63.5t-77 -17.5q-65 0 -104.5 41.5t-39.5 106.5q0 74 53.5 112t170.5 60l57 9v37q0 76 -103 76q-63 0 -111 -57h-40zM306 102v159q-99 -20 -143 -46.5t-44 -73.5q0 -35 25 -58.5t64 -23.5q49 0 98 43z" />
    <glyph glyph-name="ccedilla" unicode="&#xe7;" horiz-adv-x="431" 
d="M403 454v-97h-39q-43 71 -111 71q-58 0 -92 -47.5t-34 -134.5q0 -88 33 -136t91 -48q70 0 114 69h38v-96q-71 -47 -141 -47v-37h16q55 0 83.5 -22.5t28.5 -62.5q0 -95 -128 -95q-52 0 -132 21l-1 49q81 -19 132 -19q56 0 56 40q0 42 -64 42q-21 0 -31 -1v88
q-83 11 -132 78.5t-49 176.5q0 115 59.5 184t154.5 69q63 0 148 -45z" />
    <glyph glyph-name="egrave" unicode="&#xe8;" horiz-adv-x="472" 
d="M430 220h-301q0 -162 136 -162q69 0 131 55h34v-83q-92 -45 -166 -45q-108 0 -165 64.5t-57 188.5q0 125 56 194t151 69q82 0 131.5 -53t49.5 -145v-83zM129 278h220v12q0 79 -23 116t-80 37q-114 0 -117 -165zM94 752h106q44 -79 111 -134v-19h-55q-70 75 -162 123v30z
" />
    <glyph glyph-name="eacute" unicode="&#xe9;" horiz-adv-x="472" 
d="M430 220h-301q0 -162 136 -162q69 0 131 55h34v-83q-92 -45 -166 -45q-108 0 -165 64.5t-57 188.5q0 125 56 194t151 69q82 0 131.5 -53t49.5 -145v-83zM129 278h220v12q0 79 -23 116t-80 37q-114 0 -117 -165zM382 752v-30q-98 -53 -162 -123h-56v19q66 54 112 134h106z
" />
    <glyph glyph-name="ecircumflex" unicode="&#xea;" horiz-adv-x="472" 
d="M430 220h-301q0 -162 136 -162q69 0 131 55h34v-83q-92 -45 -166 -45q-108 0 -165 64.5t-57 188.5q0 125 56 194t151 69q82 0 131.5 -53t49.5 -145v-83zM129 278h220v12q0 79 -23 116t-80 37q-114 0 -117 -165zM224 699q-15 -37 -35.5 -61t-56.5 -39h-50v31
q54 29 101 122h106q37 -82 100 -122v-31h-48q-36 15 -57 39t-35 61h-25z" />
    <glyph glyph-name="edieresis" unicode="&#xeb;" horiz-adv-x="472" 
d="M430 220h-301q0 -162 136 -162q69 0 131 55h34v-83q-92 -45 -166 -45q-108 0 -165 64.5t-57 188.5q0 125 56 194t151 69q82 0 131.5 -53t49.5 -145v-83zM129 278h220v12q0 79 -23 116t-80 37q-114 0 -117 -165zM105 723h91v-95h-91v95zM275 723h92v-95h-92v95z" />
    <glyph glyph-name="igrave" unicode="&#xec;" horiz-adv-x="236" 
d="M156 486v-486h-84v486h84zM-24 752h106q44 -79 111 -134v-19h-55q-70 75 -162 123v30z" />
    <glyph glyph-name="iacute" unicode="&#xed;" horiz-adv-x="236" 
d="M156 486v-486h-84v486h84zM264 752v-30q-98 -53 -162 -123h-56v19q66 54 112 134h106z" />
    <glyph glyph-name="icircumflex" unicode="&#xee;" horiz-adv-x="236" 
d="M156 486v-486h-84v486h84zM106 699q-15 -37 -35.5 -61t-56.5 -39h-50v31q54 29 101 122h106q37 -82 100 -122v-31h-48q-36 15 -57 39t-35 61h-25z" />
    <glyph glyph-name="idieresis" unicode="&#xef;" horiz-adv-x="236" 
d="M156 486v-486h-84v486h84zM-13 723h91v-95h-91v95zM157 723h92v-95h-92v95z" />
    <glyph glyph-name="eth" unicode="&#xf0;" 
d="M248 431q-57 0 -89 -46.5t-32 -134.5q0 -96 31.5 -145.5t91.5 -49.5q58 0 90 55t32 164q0 82 -31 119.5t-93 37.5zM250 -15q-99 0 -154 70t-55 196q0 123 61 186.5t138 63.5q23 0 41.5 -11t24.5 -29l18 11q-3 7 -13.5 27t-17.5 34q-5 10 -21 46l-12 4q-17 -14 -97 -32
q-4 -2 -7.5 -2.5t-7.5 -1.5l-35 -8l-24 61l22 5q78 17 105 15l3 13q-2 0 -12.5 3t-15 4.5t-14.5 4.5t-15.5 6t-12.5 7.5t-10.5 10t-5.5 11.5h111q11 -4 20.5 -14t7.5 -22l11 -9q8 7 19.5 12t20 7.5t32.5 7.5t39 9l38 9l24 -61l-41 -11q-58 -17 -76 -16l-4 -12
q33 -15 76 -110t43 -188q0 -131 -53.5 -214t-150.5 -83z" />
    <glyph glyph-name="ntilde" unicode="&#xf1;" 
d="M69 486h85v-32l8 -2q55 49 124 49q146 0 146 -185v-316h-83v292q0 76 -17.5 107.5t-69.5 31.5t-109 -47v-384h-84v486zM404 728q-30 -104 -102 -104q-40 0 -115 36q-14 -14 -22 -39h-66q24 102 104 102q24 0 63 -15t49 -17q14 16 22 37h67z" />
    <glyph glyph-name="ograve" unicode="&#xf2;" 
d="M247 501q100 0 155.5 -66.5t55.5 -189.5q0 -124 -55.5 -192t-152.5 -68q-99 0 -154 70t-55 196q0 115 56.5 182.5t149.5 67.5zM248 431q-57 0 -89 -46.5t-32 -134.5q0 -96 31.5 -145.5t91.5 -49.5q57 0 89.5 49.5t32.5 141.5q0 185 -124 185zM108 752h106
q44 -79 111 -134v-19h-55q-70 75 -162 123v30z" />
    <glyph glyph-name="oacute" unicode="&#xf3;" 
d="M247 501q100 0 155.5 -66.5t55.5 -189.5q0 -124 -55.5 -192t-152.5 -68q-99 0 -154 70t-55 196q0 115 56.5 182.5t149.5 67.5zM248 431q-57 0 -89 -46.5t-32 -134.5q0 -96 31.5 -145.5t91.5 -49.5q57 0 89.5 49.5t32.5 141.5q0 185 -124 185zM396 752v-30
q-98 -53 -162 -123h-56v19q66 54 112 134h106z" />
    <glyph glyph-name="ocircumflex" unicode="&#xf4;" 
d="M247 501q100 0 155.5 -66.5t55.5 -189.5q0 -124 -55.5 -192t-152.5 -68q-99 0 -154 70t-55 196q0 115 56.5 182.5t149.5 67.5zM248 431q-57 0 -89 -46.5t-32 -134.5q0 -96 31.5 -145.5t91.5 -49.5q57 0 89.5 49.5t32.5 141.5q0 185 -124 185zM238 699q-15 -37 -35.5 -61
t-56.5 -39h-50v31q54 29 101 122h106q37 -82 100 -122v-31h-48q-36 15 -57 39t-35 61h-25z" />
    <glyph glyph-name="otilde" unicode="&#xf5;" 
d="M247 501q100 0 155.5 -66.5t55.5 -189.5q0 -124 -55.5 -192t-152.5 -68q-99 0 -154 70t-55 196q0 115 56.5 182.5t149.5 67.5zM248 431q-57 0 -89 -46.5t-32 -134.5q0 -96 31.5 -145.5t91.5 -49.5q57 0 89.5 49.5t32.5 141.5q0 185 -124 185zM404 728q-30 -104 -102 -104
q-40 0 -115 36q-14 -14 -22 -39h-66q24 102 104 102q24 0 63 -15t49 -17q14 16 22 37h67z" />
    <glyph glyph-name="odieresis" unicode="&#xf6;" 
d="M247 501q100 0 155.5 -66.5t55.5 -189.5q0 -124 -55.5 -192t-152.5 -68q-99 0 -154 70t-55 196q0 115 56.5 182.5t149.5 67.5zM248 431q-57 0 -89 -46.5t-32 -134.5q0 -96 31.5 -145.5t91.5 -49.5q57 0 89.5 49.5t32.5 141.5q0 185 -124 185zM119 723h91v-95h-91v95z
M289 723h92v-95h-92v95z" />
    <glyph glyph-name="divide" unicode="&#xf7;" horiz-adv-x="833" 
d="M668 216h-504v74h504v-74zM348 460q0 28 20.5 48t47.5 20q28 0 48 -20t20 -48q0 -26 -20 -47t-47 -21q-28 0 -48.5 20t-20.5 48zM348 46q0 28 20.5 48t47.5 20q28 0 48 -20t20 -48q0 -26 -20 -47t-47 -21q-28 0 -48.5 20t-20.5 48z" />
    <glyph glyph-name="oslash" unicode="&#xf8;" 
d="M425 501l46 -46l-12 -14q-2 -3 -7.5 -9t-8.5 -9.5t-7 -8t-8 -7t-7 -3.5v-9q37 -36 37 -150q0 -124 -55.5 -192t-152.5 -68q-48 0 -84 16t-49 39h-12q-10 -19 -25 -36l-11 -11l-41 48l18 20q15 16 29 23v12q-34 50 -34 155q0 115 56.5 182.5t149.5 67.5q44 0 78.5 -14.5
t50.5 -32.5h12q4 9 24 32zM181 227l48 53q24 25 47 52t35 39.5t20 18.5v12q-40 29 -83 29q-45 0 -78 -33t-40 -97l-3 -126h12q3 7 42 52zM325 296l-65 -72q-12 -13 -25.5 -28.5t-21.5 -24.5t-16.5 -19t-14 -15l-11 -10t-9 -7.5t-7.5 -3.5v-12q38 -49 95 -49q47 0 82.5 38.5
t39.5 135.5q2 44 -3 104h-12q-15 -20 -32 -37z" />
    <glyph glyph-name="ugrave" unicode="&#xf9;" 
d="M431 0h-85v32l-8 2q-55 -49 -124 -49q-51 0 -85 26t-48 63q-13 32 -13 146v266h83v-296q0 -71 17.5 -103t69.5 -32q50 0 109 48v383h84v-486zM108 752h106q44 -79 111 -134v-19h-55q-70 75 -162 123v30z" />
    <glyph glyph-name="uacute" unicode="&#xfa;" 
d="M431 0h-85v32l-8 2q-55 -49 -124 -49q-51 0 -85 26t-48 63q-13 32 -13 146v266h83v-296q0 -71 17.5 -103t69.5 -32q50 0 109 48v383h84v-486zM396 752v-30q-98 -53 -162 -123h-56v19q66 54 112 134h106z" />
    <glyph glyph-name="ucircumflex" unicode="&#xfb;" 
d="M431 0h-85v32l-8 2q-55 -49 -124 -49q-51 0 -85 26t-48 63q-13 32 -13 146v266h83v-296q0 -71 17.5 -103t69.5 -32q50 0 109 48v383h84v-486zM238 699q-15 -37 -35.5 -61t-56.5 -39h-50v31q54 29 101 122h106q37 -82 100 -122v-31h-48q-36 15 -57 39t-35 61h-25z" />
    <glyph glyph-name="udieresis" unicode="&#xfc;" 
d="M431 0h-85v32l-8 2q-55 -49 -124 -49q-51 0 -85 26t-48 63q-13 32 -13 146v266h83v-296q0 -71 17.5 -103t69.5 -32q50 0 109 48v383h84v-486zM119 723h91v-95h-91v95zM289 723h92v-95h-92v95z" />
    <glyph glyph-name="yacute" unicode="&#xfd;" horiz-adv-x="444" 
d="M32 486h87l70 -266q20 -70 22 -137h23q11 89 24 137l79 266h84l-172 -527q-22 -68 -55 -90t-117 -22h-31v71h35q47 0 68 16t33 60zM368 752v-30q-98 -53 -162 -123h-56v19q66 54 112 134h106z" />
    <glyph glyph-name="thorn" unicode="&#xfe;" 
d="M69 -153v835h83v-237h10q53 56 114 56q80 0 129.5 -68.5t49.5 -190.5q0 -120 -49 -188.5t-128 -68.5q-62 0 -116 55h-10v-193h-83zM152 378v-271q52 -49 103 -49q114 0 114 186q0 184 -114 184q-51 0 -103 -50z" />
    <glyph glyph-name="ydieresis" unicode="&#xff;" horiz-adv-x="444" 
d="M32 486h87l70 -266q20 -70 22 -137h23q11 89 24 137l79 266h84l-172 -527q-22 -68 -55 -90t-117 -22h-31v71h35q47 0 68 16t33 60zM91 723h91v-95h-91v95zM261 723h92v-95h-92v95z" />
    <glyph glyph-name="dotlessi" unicode="&#x131;" horiz-adv-x="236" 
d="M156 486v-486h-84v486h84z" />
    <glyph glyph-name="Lslash" unicode="&#x141;" horiz-adv-x="444" 
d="M417 74v-74h-348v287q0 27 6 42l-8 5q-21 -16 -51 -28l-16 -7v74l18 7q39 16 52 19l5 6q-6 16 -6 63v199h88v-125q0 -71 -4 -94l6 -5q11 11 74 48l61 35v-74l-83 -45q-40 -23 -54 -26l-3 -7q3 -14 3 -84v-216h260z" />
    <glyph glyph-name="lslash" unicode="&#x142;" horiz-adv-x="236" 
d="M76 682h84v-146q0 -49 -9 -72l6 -5q44 33 69 43v-77l-19 -10q-37 -19 -50 -21l-6 -6q9 -10 9 -98v-290h-84v282q0 49 9 72l-6 5q-20 -18 -69 -43v77l19 10q37 19 50 21l6 6q-9 10 -9 98v154z" />
    <glyph glyph-name="OE" unicode="&#x152;" horiz-adv-x="860" 
d="M567 597v-220h234v-73h-234v-230h279v-74h-367v49q-64 -64 -173 -64q-128 0 -196 89.5t-68 259.5q0 169 68 257.5t196 88.5q109 0 173 -63v50h350v-70h-262zM479 123v414q-51 72 -173 72q-52 0 -88 -25.5t-53 -69.5t-24 -87t-7 -93q0 -39 3.5 -74t15 -73.5t29.5 -66.5
t50 -46t74 -18q124 0 173 67z" />
    <glyph glyph-name="oe" unicode="&#x153;" horiz-adv-x="801" 
d="M458 278h220q0 90 -22.5 127.5t-80.5 37.5q-114 0 -117 -165zM759 220h-301q0 -162 136 -162q69 0 131 55h34v-83q-92 -45 -166 -45q-125 0 -180 84q-53 -84 -163 -84q-99 0 -154 70t-55 196q0 115 56.5 182.5t149.5 67.5q116 0 169 -87q52 87 162 87q82 0 131.5 -53
t49.5 -145v-83zM248 431q-57 0 -89 -46.5t-32 -134.5q0 -96 31.5 -145.5t91.5 -49.5t91.5 49.5t31.5 145.5q0 88 -32 134.5t-89 46.5h-4z" />
    <glyph glyph-name="Scaron" unicode="&#x160;" horiz-adv-x="514" 
d="M55 167h53q16 -51 54.5 -79.5t90.5 -28.5q58 0 94 34t36 83q0 46 -33 71.5t-118 60.5q-100 40 -127 64q-57 51 -57 128q0 78 54 129t144 51q103 0 188 -58v-122h-48q-36 112 -139 112q-47 0 -79 -28.5t-32 -71.5q0 -15 3.5 -27.5t6.5 -21.5t13.5 -18.5t16 -14t23.5 -12.5
t25 -11t31.5 -12t33.5 -12q91 -34 133.5 -80t42.5 -118q0 -88 -57 -144t-155 -56q-104 0 -198 59v123zM244 786h25q27 74 92 100h49v-31q-65 -40 -101 -122h-106q-47 93 -101 122v31h50q63 -25 92 -100z" />
    <glyph glyph-name="scaron" unicode="&#x161;" horiz-adv-x="403" 
d="M34 112h43q37 -64 115 -64q42 0 68 21.5t26 56.5q0 17 -6 29.5t-12 20t-26.5 16.5t-30.5 12.5t-43 13.5q-67 22 -99 55t-32 85q0 61 46.5 100.5t126.5 39.5q65 0 140 -29v-97h-39q-38 70 -110 70q-33 0 -56.5 -20.5t-23.5 -50.5q0 -37 26 -54t92 -35q130 -38 130 -143
q0 -68 -47.5 -111t-123.5 -43q-102 0 -164 38v89zM189 652h25q27 74 92 100h49v-31q-65 -40 -101 -122h-106q-47 93 -101 122v31h50q63 -25 92 -100z" />
    <glyph glyph-name="Ydieresis" unicode="&#x178;" horiz-adv-x="542" 
d="M229 243l-201 424h105l96 -250q27 -73 39 -114h14q14 75 31 118l96 246h105l-201 -424v-243h-84v243zM140 857h91v-95h-91v95zM310 857h92v-95h-92v95z" />
    <glyph glyph-name="Zcaron" unicode="&#x17d;" 
d="M25 72l337 524l-6 8q-4 -2 -11 -3t-17.5 -2t-21 -1.5t-28.5 -1t-33 -0.5h-41h-46.5h-55h-60.5v71h421v-71l-338 -524l5 -10q39 10 109 10h236v-72h-450v72zM237 786h25q27 74 92 100h49v-31q-65 -40 -101 -122h-106q-47 93 -101 122v31h50q63 -25 92 -100z" />
    <glyph glyph-name="zcaron" unicode="&#x17e;" horiz-adv-x="389" 
d="M21 75l145 221q51 82 86 114v12h-215v64h310v-64l-183 -277q-25 -38 -47 -58v-12h251v-75h-347v75zM182 652h25q27 74 92 100h49v-31q-65 -40 -101 -122h-106q-47 93 -101 122v31h50q63 -25 92 -100z" />
    <glyph glyph-name="florin" unicode="&#x192;" 
d="M67 335v68h137q11 116 37 180q42 99 124 99q42 0 90 -28l-18 -73q-23 29 -52 29q-24 0 -42 -26.5t-26.5 -64t-12 -67.5t-3.5 -49h130v-68h-137q-2 -13 -10.5 -84t-10.5 -84q-26 -168 -46 -216q-45 -104 -153 -104q-45 0 -83 27l31 76q28 -31 55 -31q36 0 55 40t30 126
l35 250h-130z" />
    <glyph glyph-name="circumflex" unicode="&#x2c6;" 
d="M238 699q-15 -37 -35.5 -61t-56.5 -39h-50v31q54 29 101 122h106q37 -82 100 -122v-31h-48q-36 15 -57 39t-35 61h-25z" />
    <glyph glyph-name="caron" unicode="&#x2c7;" 
d="M237 652h25q27 74 92 100h49v-31q-65 -40 -101 -122h-106q-47 93 -101 122v31h50q63 -25 92 -100z" />
    <glyph glyph-name="uni02C9" unicode="&#x2c9;" 
d="M110 704h279v-72h-279v72z" />
    <glyph glyph-name="breve" unicode="&#x2d8;" 
d="M93 744h58q6 -35 29 -50t69 -15t69.5 15t28.5 50h59q-8 -72 -45.5 -105t-111.5 -33q-73 0 -110.5 33.5t-45.5 104.5z" />
    <glyph glyph-name="dotaccent" unicode="&#x2d9;" 
d="M204 723h91v-95h-91v95z" />
    <glyph glyph-name="ring" unicode="&#x2da;" 
d="M141 708q0 44 32 76.5t77 32.5q44 0 76.5 -32.5t32.5 -76.5q0 -46 -32 -78t-77 -32q-44 0 -76.5 32t-32.5 78zM197 708q0 -22 16 -38t37 -16q22 0 37.5 16t15.5 38t-15.5 37t-37.5 15q-23 0 -38 -15t-15 -37z" />
    <glyph glyph-name="ogonek" unicode="&#x2db;" 
d="M243 0h44q-60 -45 -60 -107q0 -44 60 -44h73v-49q-80 -7 -98 -7q-51 0 -79.5 21.5t-28.5 61.5q0 61 89 124z" />
    <glyph glyph-name="tilde" unicode="&#x2dc;" 
d="M404 728q-30 -104 -102 -104q-40 0 -115 36q-14 -14 -22 -39h-66q24 102 104 102q24 0 63 -15t49 -17q14 16 22 37h67z" />
    <glyph glyph-name="hungarumlaut" unicode="&#x2dd;" 
d="M289 752v-30q-98 -53 -162 -123h-56v19q66 54 112 134h106zM485 752v-30q-98 -53 -162 -123h-56v19q66 54 112 134h106z" />
    <glyph glyph-name="uni03A9" unicode="&#x3a9;" horiz-adv-x="641" 
d="M172 68v3q-51 51 -84.5 126.5t-33.5 167.5q0 138 76 227.5t193 89.5q119 0 191 -92.5t72 -219.5q0 -94 -35 -173t-85 -126v-3h132v-68h-220v50q53 39 89.5 118t36.5 185q0 102 -48.5 180.5t-133.5 78.5q-84 0 -135 -74.5t-51 -187.5q0 -100 37 -182t89 -118v-50h-221v68
h131z" />
    <glyph glyph-name="uni03BC" unicode="&#x3bc;" horiz-adv-x="551" 
d="M169 486l-54 -255q-7 -31 -7 -67q0 -53 27.5 -82t78.5 -29q121 0 164 200l51 233h76l-71 -332q-11 -49 -11 -66q0 -32 35 -32q8 0 17 1l-13 -61q-21 -5 -45 -5q-34 0 -51 17t-20 55q-42 -72 -141 -72q-85 0 -128 67l-55 -266h-76l146 694h77z" />
    <glyph glyph-name="pi" unicode="&#x3c0;" horiz-adv-x="523" 
d="M499 430h-70v-291q0 -91 13 -139h-78q-16 30 -16 133v297h-152q-4 -100 -22.5 -231.5t-42.5 -198.5h-78q24 76 42 203.5t21 226.5q-67 0 -97 -11l-11 55q39 27 135 27h363z" />
    <glyph glyph-name="uni2010" unicode="&#x2010;" horiz-adv-x="333" 
d="M42 371h250v-75h-250v75z" />
    <glyph glyph-name="endash" unicode="&#x2013;" 
d="M0 371h500v-75h-500v75z" />
    <glyph glyph-name="emdash" unicode="&#x2014;" horiz-adv-x="1000" 
d="M0 371h1000v-75h-1000v75z" />
    <glyph glyph-name="quoteleft" unicode="&#x2018;" horiz-adv-x="222" 
d="M114 569v-40q0 -44 9.5 -61.5t40.5 -20.5v-41h-3q-61 0 -82 34t-21 116v111h106v-98h-50z" />
    <glyph glyph-name="quoteright" unicode="&#x2019;" horiz-adv-x="222" 
d="M58 667h106v-111q0 -83 -21 -116.5t-82 -33.5h-3v41q31 3 40.5 20.5t9.5 61.5v40h-50v98z" />
    <glyph glyph-name="quotesinglbase" unicode="&#x201a;" horiz-adv-x="222" 
d="M58 111h106v-111q0 -83 -21 -116.5t-82 -33.5h-3v41q31 3 40.5 20.5t9.5 61.5v40h-50v98z" />
    <glyph glyph-name="quotedblleft" unicode="&#x201c;" horiz-adv-x="444" 
d="M114 569v-40q0 -44 9.5 -61.5t40.5 -20.5v-41h-3q-61 0 -82 34t-21 116v111h106v-98h-50zM336 569v-40q0 -44 9.5 -61.5t40.5 -20.5v-41h-3q-61 0 -82 34t-21 116v111h106v-98h-50z" />
    <glyph glyph-name="quotedblright" unicode="&#x201d;" horiz-adv-x="444" 
d="M58 667h106v-111q0 -83 -21 -116.5t-82 -33.5h-3v41q31 3 40.5 20.5t9.5 61.5v40h-50v98zM280 667h106v-111q0 -83 -21 -116.5t-82 -33.5h-3v41q31 3 40.5 20.5t9.5 61.5v40h-50v98z" />
    <glyph glyph-name="quotedblbase" unicode="&#x201e;" horiz-adv-x="444" 
d="M58 111h106v-111q0 -83 -21 -116.5t-82 -33.5h-3v41q31 3 40.5 20.5t9.5 61.5v40h-50v98zM280 111h106v-111q0 -83 -21 -116.5t-82 -33.5h-3v41q31 3 40.5 20.5t9.5 61.5v40h-50v98z" />
    <glyph glyph-name="dagger" unicode="&#x2020;" 
d="M60 427v114l132 -36q4 -1 25 -10l3 4q-6 25 -9 53l-18 129h114l-17 -129q-6 -40 -10 -53l3 -4q21 9 25 10l132 36v-114l-132 38q-6 2 -25 10l-3 -3l5 -30q4 -26 10 -54t9.5 -44t3.5 -19q0 -4 -6.5 -45t-8.5 -68l-3 -44l-11 -183h-58l-10 183l-3 44q-2 20 -6 46t-7 44
t-3 23q0 3 3.5 19t10 44t10.5 54l4 30l-3 3q-19 -8 -25 -10z" />
    <glyph glyph-name="daggerdbl" unicode="&#x2021;" 
d="M194 681h113l-18 -137q-2 -19 -8 -35l5 -4q1 0 11 4.5t15 5.5l129 37v-114l-131 35q-12 3 -25 11l-4 -4q1 -3 5 -31.5t7 -45.5q2 -8 5 -22.5t5.5 -24.5t2.5 -13q0 -5 -2.5 -16.5t-6 -26.5t-4.5 -22q-3 -17 -7 -45.5t-5 -31.5l4 -4q13 8 25 11l131 35v-114l-129 37
q-5 1 -15 5.5t-11 4.5l-5 -4q6 -16 8 -35l18 -152h-113l18 152q2 19 8 35l-5 4q-1 0 -11 -4.5t-15 -5.5l-129 -37v114l131 -35q12 -3 25 -11l4 4q-1 3 -5 31.5t-7 45.5q-1 7 -4.5 22t-6 26.5t-2.5 16.5q0 3 2.5 13t5.5 24.5t5 22.5q3 17 7 45.5t5 31.5l-4 4q-13 -8 -25 -11
l-131 -35v114l129 -37q5 -1 15 -5.5t11 -4.5l5 4q-6 16 -8 35z" />
    <glyph glyph-name="bullet" unicode="&#x2022;" horiz-adv-x="590" 
d="M150 253q0 60 42.5 102t102.5 42q59 0 101.5 -42t42.5 -102q0 -59 -42.5 -102t-102.5 -43t-102 42.5t-42 102.5z" />
    <glyph glyph-name="ellipsis" unicode="&#x2026;" horiz-adv-x="1000" 
d="M114 111h106v-111h-106v111zM447 111h106v-111h-106v111zM780 111h106v-111h-106v111z" />
    <glyph glyph-name="perthousand" unicode="&#x2030;" horiz-adv-x="994" 
d="M162 682q141 0 141 -207q0 -206 -141 -206t-141 204q0 102 36 155.5t105 53.5zM162 629q-43 0 -55 -32.5t-12 -123.5q0 -88 12 -119.5t55 -31.5t55 31.5t12 119.5q0 91 -12 123.5t-55 32.5zM493 398q141 0 141 -207q0 -206 -141 -206t-141 204q0 102 36 155.5t105 53.5z
M493 345q-43 0 -55 -32.5t-12 -123.5q0 -88 12 -119.5t55 -31.5t55 31.5t12 119.5q0 91 -12 123.5t-55 32.5zM832 398q141 0 141 -207q0 -206 -141 -206t-141 204q0 102 36 155.5t105 53.5zM832 345q-43 0 -55 -32.5t-12 -123.5q0 -88 12 -119.5t55 -31.5t55 31.5t12 119.5
q0 91 -12 123.5t-55 32.5zM88 20l189 238l23 -25l-99 -233h-113v20zM572 648l-190 -239l-22 26l100 232h112v-19z" />
    <glyph glyph-name="guilsinglleft" unicode="&#x2039;" horiz-adv-x="386" 
d="M169 266l122 -156v-4h-83l-123 159l130 154h86z" />
    <glyph glyph-name="guilsinglright" unicode="&#x203a;" horiz-adv-x="386" 
d="M171 106h-86l132 153l-124 160h85l123 -159z" />
    <glyph glyph-name="fraction" unicode="&#x2044;" 
d="M366 682h80l-312 -697h-80z" />
    <glyph glyph-name="Euro" unicode="&#x20ac;" 
d="M460 643v-83q-47 43 -129 43q-70 0 -108 -44.5t-47 -123.5h247l-21 -66h-234v-34v-35h211l-22 -66h-181q20 -172 155 -172q81 0 129 44v-85q-41 -35 -141 -35q-198 0 -228 248h-69l22 66h40q-1 9 -1 35q0 24 1 34h-62l22 66h46q32 246 229 246q92 0 141 -38z" />
    <glyph glyph-name="afii61289" unicode="&#x2113;" horiz-adv-x="445" 
d="M390 143l36 -34q-61 -120 -173 -120q-76 0 -113.5 49t-40.5 126v13q-8 -7 -25.5 -21.5t-25.5 -21.5l-23 46q53 45 73 66v259q0 120 42 176t104 56q56 0 85.5 -44t29.5 -114q0 -156 -183 -346v-37q1 -72 27 -106.5t67 -34.5q70 0 120 88zM176 507v-194q130 153 130 267
q0 95 -60 95q-29 0 -49.5 -40.5t-20.5 -127.5z" />
    <glyph glyph-name="trademark" unicode="&#x2122;" horiz-adv-x="833" 
d="M474 667l118 -303l116 303h113v-412h-74v335h-2l-129 -335h-50l-129 335h-2v-335h-74v412h113zM301 667v-59h-107v-353h-74v353h-107v59h288z" />
    <glyph glyph-name="Omega" unicode="&#x2126;" horiz-adv-x="641" 
d="M172 68v3q-51 51 -84.5 126.5t-33.5 167.5q0 138 76 227.5t193 89.5q119 0 191 -92.5t72 -219.5q0 -94 -35 -173t-85 -126v-3h132v-68h-220v50q53 39 89.5 118t36.5 185q0 102 -48.5 180.5t-133.5 78.5q-84 0 -135 -74.5t-51 -187.5q0 -100 37 -182t89 -118v-50h-221v68
h131z" />
    <glyph glyph-name="estimated" unicode="&#x212e;" horiz-adv-x="840" 
d="M807 324h-627q-5 0 -5 -4v-190q0 -12 8 -22q100 -103 237 -103q150 0 250 116h55q-53 -63 -133.5 -99t-172.5 -36q-160 0 -273.5 101.5t-113.5 245.5q0 145 113.5 247t273.5 102q161 0 274.5 -102t113.5 -247v-9zM665 348v191q0 13 -10 23q-101 99 -235 99
q-136 0 -236 -102q-9 -9 -9 -24v-187q0 -6 5 -6h480q5 0 5 6z" />
    <glyph glyph-name="partialdiff" unicode="&#x2202;" horiz-adv-x="502" 
d="M93 637l-25 62q64 53 154 53q98 0 166 -93t68 -270q0 -181 -63 -290t-178 -109q-84 0 -130.5 65.5t-46.5 156.5q0 111 57.5 179.5t137.5 68.5q52 0 89.5 -27.5t52.5 -55.5h1q1 10 1 38q0 116 -47.5 192t-117.5 76q-65 0 -119 -46zM222 59h1q58 0 96.5 70t48.5 169
q-12 35 -45 65t-77 30q-53 0 -90.5 -54t-37.5 -129q0 -67 28.5 -109t75.5 -42z" />
    <glyph glyph-name="Delta" unicode="&#x2206;" horiz-adv-x="586" 
d="M28 0v53l220 635h94l216 -633v-55h-530zM110 67h362l-122 346q-6 22 -28.5 87t-28.5 90h-3q-4 -21 -25 -80.5t-27 -82.5z" />
    <glyph glyph-name="product" unicode="&#x220f;" horiz-adv-x="638" 
d="M613 596h-96v-689h-80v689h-237v-689h-80v689h-96v76h589v-76z" />
    <glyph glyph-name="summation" unicode="&#x2211;" horiz-adv-x="502" 
d="M482 -93h-461v55l238 327l-228 325v58h436v-71h-326v-3l209 -296l-229 -314v-3h361v-78z" />
    <glyph glyph-name="minus" unicode="&#x2212;" horiz-adv-x="833" 
d="M668 216h-504v74h504v-74z" />
    <glyph glyph-name="uni2215" unicode="&#x2215;" 
d="M366 682h80l-312 -697h-80z" />
    <glyph glyph-name="uni2219" unicode="&#x2219;" horiz-adv-x="250" 
d="M72 353h106v-111h-106v111z" />
    <glyph glyph-name="radical" unicode="&#x221a;" horiz-adv-x="526" 
d="M526 801l-201 -942h-69l-142 440l-68 -25l-15 49l133 52l109 -340q13 -57 16 -75h1q4 28 13 76l165 765h58z" />
    <glyph glyph-name="infinity" unicode="&#x221e;" horiz-adv-x="719" 
d="M672 279v-1q0 -67 -42.5 -109t-100.5 -42q-42 0 -81 25.5t-88 83.5q-45 -53 -84 -81t-90 -28q-57 0 -98.5 42.5t-41.5 105.5q0 65 41.5 107.5t105.5 42.5q48 0 88 -28.5t82 -80.5q55 61 81 79q43 30 91 30q61 -1 99 -41t38 -105zM193 176h1q9 0 18 1.5t18.5 6t16.5 8
t16.5 11.5t14.5 12t15 14.5t13.5 14t14 15.5t12.5 14q-24 30 -32.5 39.5t-29.5 29.5t-40.5 27.5t-42.5 7.5q-42 0 -66.5 -29.5t-23.5 -73.5q0 -41 27 -69.5t68 -28.5zM530 377h-1q-17 0 -34 -6.5t-33 -19.5t-26.5 -23t-26 -27.5t-20.5 -22.5q50 -58 79 -80t64 -22
q40 0 64.5 30.5t24.5 68.5q0 47 -25.5 74.5t-65.5 27.5z" />
    <glyph glyph-name="integral" unicode="&#x222b;" horiz-adv-x="340" 
d="M321 811l-11 -58q-14 9 -33 9q-30 0 -46 -23q-29 -37 -29 -169q0 -75 6 -236.5t6 -242.5q0 -132 -38 -195q-30 -53 -98 -53q-38 0 -62 15l13 60q22 -11 40 -11q26 0 42 22q29 41 29 161q0 83 -6.5 246.5t-6.5 240.5q0 152 51 207q34 39 92 39q31 0 51 -12z" />
    <glyph glyph-name="approxequal" unicode="&#x2248;" horiz-adv-x="509" 
d="M436 414l32 -27q-45 -92 -119 -92q-25 0 -46 8.5t-59 30.5q-51 31 -83 31q-28 0 -48 -17.5t-41 -50.5l-33 27q46 91 128 91q15 0 31.5 -4.5t25 -8.5t25 -13t19.5 -11q4 -2 15 -8.5t14.5 -8.5t12.5 -6t14 -5.5t12.5 -3t15.5 -1.5q25 0 44.5 17t39.5 52zM436 253l32 -28
q-46 -91 -119 -91q-25 0 -46 8.5t-59 30.5q-55 32 -83 32q-29 0 -48.5 -18t-40.5 -52l-33 27q21 43 54.5 67.5t72.5 24.5q16 0 33 -4.5t25 -8.5t25 -13.5t18 -10.5q4 -2 17 -9.5t18 -10t14.5 -6.5t18 -5.5t17.5 -1.5q26 0 45 16.5t39 52.5z" />
    <glyph glyph-name="notequal" unicode="&#x2260;" horiz-adv-x="509" 
d="M365 478l-40 -88h137v-51h-156l-60 -133h216v-51h-236l-47 -106l-41 17l41 89h-133v51h153l59 133h-212v51h231l47 106z" />
    <glyph glyph-name="lessequal" unicode="&#x2264;" horiz-adv-x="509" 
d="M460 96l-409 210v54l409 210v-61l-356 -174v-2l356 -175v-62zM463 6h-416v52h416v-52z" />
    <glyph glyph-name="greaterequal" unicode="&#x2265;" horiz-adv-x="509" 
d="M52 570l409 -210v-54l-409 -210v62l356 174v2l-356 175v61zM462 6h-415v52h415v-52z" />
    <glyph glyph-name="lozenge" unicode="&#x25ca;" horiz-adv-x="527" 
d="M477 335l-183 -377h-66l-179 377l183 379h66zM404 333l-122 257q-9 21 -18 54h-2q-8 -31 -18 -54l-122 -253l123 -258q13 -31 16 -52h4q8 35 16 51z" />
    <glyph glyph-name="fi" unicode="&#xfb01;" horiz-adv-x="528" 
d="M97 428h-76v58h76v45q0 74 27 105t101 31h60v-67h-26q-54 0 -66 -15t-12 -68v-31h91v-58h-91v-428h-84v428zM357 682h106v-81h-106v81zM448 486v-486h-84v486h84z" />
    <glyph glyph-name="fl" unicode="&#xfb02;" horiz-adv-x="528" 
d="M97 428h-76v58h76v45q0 74 27 105t101 31h60v-67h-26q-54 0 -66 -15t-12 -68v-31h91v-58h-91v-428h-84v428zM368 682h84v-682h-84v682z" />
    <glyph glyph-name="a.superior" horiz-adv-x="344" 
d="M292 560v-234h-62v31q-40 -39 -99 -39q-49 0 -78.5 29t-29.5 74q0 52 40.5 78.5t127.5 42.5l39 6v25q0 54 -73 54q-47 0 -83 -40h-30v68q57 20 110 20q138 0 138 -115zM230 397v112q-75 -14 -108 -32.5t-33 -51.5q0 -25 19 -41.5t48 -16.5q36 0 74 30z" />
    <glyph glyph-name="o.superior" horiz-adv-x="375" 
d="M185 676q75 0 117 -46.5t42 -132.5t-41.5 -133.5t-114.5 -47.5q-74 0 -115.5 49t-41.5 137q0 80 42.5 127t111.5 47zM186 627q-43 0 -67 -32.5t-24 -93.5q0 -136 93 -136q43 0 67 34.5t24 98.5q0 129 -93 129z" />
    <glyph glyph-name="one.superior" horiz-adv-x="330" 
d="M37 309h103v313h-103v45h167v-358h89v-43h-256v43z" />
    <glyph glyph-name="two.superior" horiz-adv-x="330" 
d="M101 543h-62q-1 6 -1 16q0 56 32.5 86t91.5 30q60 0 95.5 -29.5t35.5 -81.5q0 -31 -16.5 -61t-33.5 -46t-55 -49q-83 -73 -93 -102l6 -5q35 17 102 17h89v-52h-255q-1 5 -1 14q0 36 19 64t61 66q41 38 60.5 58t36 48t16.5 54q0 29 -17 45.5t-46 16.5q-36 0 -49.5 -20
t-15.5 -69z" />
    <glyph glyph-name="three.superior" horiz-adv-x="330" 
d="M32 352h29q26 -48 84 -48q39 0 64 22.5t25 57.5t-28.5 55t-79.5 20v42q47 0 72.5 18.5t25.5 51.5q0 27 -20 45t-53 18q-52 0 -80 -48h-28v54q47 34 116 34q60 0 94.5 -27t34.5 -70q0 -70 -79 -91v-7q89 -14 89 -101q0 -53 -40 -86.5t-103 -33.5q-81 0 -123 36v58z" />
    </font>
</defs>
</svg>
