<?xml version="1.0" standalone="no"?>
<!DOCTYPE svg PUBLIC "-//W3C//DTD SVG 1.1//EN" "http://www.w3.org/Graphics/SVG/1.1/DTD/svg11.dtd" >
<svg xmlns="http://www.w3.org/2000/svg" xmlns:xlink="http://www.w3.org/1999/xlink" version="1.1">
<metadata>
Created by FontForge 20150102 at Tue Jan 13 15:59:59 2015
 By uniteet7
(c) 1992, 2001, 2002 Adobe Systems Incorporated. All rights reserved.
</metadata>
<defs>
<font id="BellCentennialStdNameNum" horiz-adv-x="556" >
  <font-face 
    font-family="BellCentennialStdNameNum"
    font-weight="400"
    font-stretch="normal"
    units-per-em="1000"
    panose-1="2 11 7 6 2 2 9 3 2 4"
    ascent="681"
    descent="-319"
    x-height="539"
    cap-height="741"
    bbox="-45 -250 1056 998"
    underline-thickness="50"
    underline-position="-50"
    unicode-range="U+0020-FB02"
  />
<missing-glyph horiz-adv-x="500" 
d="M0 0v700h500v-700h-500zM250 395l170 255h-340zM280 350l170 -255v510zM80 50h340l-170 255zM50 605v-510l170 255z" />
    <glyph glyph-name=".notdef" horiz-adv-x="500" 
d="M0 0v700h500v-700h-500zM250 395l170 255h-340zM280 350l170 -255v510zM80 50h340l-170 255zM50 605v-510l170 255z" />
    <glyph glyph-name=".null" horiz-adv-x="0" 
 />
    <glyph glyph-name="nonmarkingreturn" horiz-adv-x="333" 
 />
    <glyph glyph-name="space" unicode=" " horiz-adv-x="278" 
 />
    <glyph glyph-name="exclam" unicode="!" horiz-adv-x="278" 
d="M55 741h167l-44 -516h-80zM55 149h168v-149h-168v149z" />
    <glyph glyph-name="quotedbl" unicode="&#x22;" horiz-adv-x="314" 
d="M27 741h95v-272h-95v272zM193 741h95v-272h-95v272z" />
    <glyph glyph-name="numbersign" unicode="#" horiz-adv-x="769" 
d="M359 713h93l-75 -213h122l76 213h93l-75 -213h142l-29 -84h-143l-44 -123h151l-30 -84h-150l-76 -212h-93l76 212h-123l-77 -212h-93l76 212h-146l30 84h145l44 123h-154l30 84h154zM346 416l-44 -124h125l44 124h-125z" />
    <glyph glyph-name="dollar" unicode="$" 
d="M234 -12q-89 3 -191 44v137h56q53 -77 135 -85v203q-179 59 -179 219q0 86 56.5 144.5t147.5 63.5v49h63v-49q66 -4 147 -42v-135h-47q-29 67 -100 76v-192q100 -39 145.5 -90t45.5 -128q0 -88 -56 -147.5t-153 -67.5v-70h-70v70zM290 304v-220q48 7 73.5 34t25.5 69
q0 78 -99 117zM266 613q-82 -20 -82 -99q0 -80 82 -116v215z" />
    <glyph glyph-name="percent" unicode="%" horiz-adv-x="724" 
d="M537 381q-36 0 -44.5 -33t-8.5 -133q0 -96 8.5 -128.5t44.5 -32.5q40 0 49.5 32.5t9.5 128.5q0 100 -9.5 133t-49.5 33zM537 446q152 0 152 -230q0 -227 -152 -227q-71 0 -108.5 57.5t-37.5 169.5t38 171t108 59zM101 11l204 262l28 -27l-105 -257h-127v22zM181 672
q-36 0 -44.5 -33t-8.5 -133q0 -96 8.5 -128.5t44.5 -32.5q40 0 49.5 32.5t9.5 128.5q0 100 -9.5 133t-49.5 33zM181 737q152 0 152 -230q0 -227 -152 -227q-71 0 -108.5 57.5t-37.5 169.5t38 171t108 59zM623 716l-205 -263l-27 29l107 255h125v-21z" />
    <glyph glyph-name="ampersand" unicode="&#x26;" horiz-adv-x="681" 
d="M307 419q38 43 55 76t17 71q0 41 -21 66t-56 25q-36 0 -57.5 -23.5t-21.5 -62.5q0 -37 19.5 -69.5t64.5 -82.5zM506 393h127q-5 -154 -105 -226v-14l124 -153h-157l-41 74q-95 -87 -180 -87q-90 0 -148 63.5t-58 165.5q0 139 129 177v21q-90 53 -90 158q0 78 53 129.5
t139 51.5q87 0 140 -49t53 -120q0 -62 -37.5 -114t-101.5 -77v-23q104 -104 131 -172l13 5q9 78 9 190zM230 364q-46 -43 -46 -110q0 -70 41.5 -119t98.5 -49q48 0 94 42v7l-136 165q-21 27 -37 62z" />
    <glyph glyph-name="quotesingle" unicode="'" horiz-adv-x="163" 
d="M34 741h95v-272h-95v272z" />
    <glyph glyph-name="parenleft" unicode="(" horiz-adv-x="375" 
d="M234 753h129v-34q-161 -105 -161 -425q0 -323 161 -426v-35h-129q-92 98 -134 209.5t-42 251.5q0 139 42 250t134 209z" />
    <glyph glyph-name="parenright" unicode=")" horiz-adv-x="375" 
d="M141 -167h-129v35q161 105 161 426q0 320 -161 425v34h129q91 -99 133.5 -210t42.5 -249q0 -140 -42 -251.5t-134 -209.5z" />
    <glyph glyph-name="asterisk" unicode="*" 
d="M305 537l173 88l37 -82l-191 -52l134 -139l-69 -55l-111 168l-111 -168l-69 55l133 139l-190 52l37 82l173 -88l-23 204h99z" />
    <glyph glyph-name="plus" unicode="+" horiz-adv-x="833" 
d="M364 305v201h104v-201h200v-104h-200v-201h-104v201h-200v104h200z" />
    <glyph glyph-name="comma" unicode="," horiz-adv-x="278" 
d="M56 163h166v-139q0 -93 -38 -141t-110 -48h-13v58q77 3 77 93v28h-82v149z" />
    <glyph glyph-name="hyphen" unicode="-" horiz-adv-x="500" 
d="M97 428h306v-111h-306v111z" />
    <glyph glyph-name="period" unicode="." horiz-adv-x="278" 
d="M56 163h166v-163h-166v163z" />
    <glyph glyph-name="slash" unicode="/" 
d="M398 757h111l-351 -785h-111z" />
    <glyph glyph-name="zero" unicode="0" 
d="M278 84q56 0 75 65.5t19 215.5t-19 215t-75 65q-55 0 -75 -65.5t-20 -214.5q0 -150 19.5 -215.5t75.5 -65.5zM41 377q0 364 235 364q127 0 182.5 -94.5t55.5 -296.5q0 -361 -235 -361q-124 0 -181 95t-57 293z" />
    <glyph glyph-name="one" unicode="1" 
d="M355 731v-542q0 -60 -7 -91l7 -10q17 10 137 10v-98h-417v98q121 0 139 -10l8 10q-8 21 -8 151v287q0 79 8 97l-8 9q-24 -9 -76 -9h-63v98h280z" />
    <glyph glyph-name="two" unicode="2" 
d="M177 497h-135q0 244 233 244q104 0 165 -59.5t61 -151.5q0 -72 -36.5 -130.5t-111.5 -121.5q-34 -29 -108 -86t-111 -88l15 -17q41 26 84.5 33t112.5 7h168v-127h-472v54q0 21 4.5 40.5t8 33.5t17.5 34t19.5 28.5t28 31l28 28t35.5 33t36 32.5q73 67 106 114t33 103
q0 46 -24.5 73t-68.5 27q-85 0 -88 -135z" />
    <glyph glyph-name="three" unicode="3" 
d="M53 154h54q12 -23 46.5 -37.5t78.5 -14.5q59 0 94.5 32.5t35.5 81.5q0 114 -160 117v108q147 9 147 101q0 39 -29 65t-74 26q-72 0 -129 -64h-49v130q107 42 190 42q107 0 167.5 -49t60.5 -130q0 -58 -35 -97.5t-98 -52.5v-23q76 -12 113 -55q37 -41 37 -118
q0 -103 -69.5 -165t-189.5 -62q-102 0 -191 35v130z" />
    <glyph glyph-name="four" unicode="4" 
d="M27 319l257 412h178v-394q0 -30 -9 -49l9 -11q26 11 41 11h24v-96h-20q-15 0 -45 12l-9 -12q9 -21 9 -80v-112h-141v116q0 51 15 76l-7 12q-35 -12 -71 -12h-231v127zM107 277l10 -12q50 25 115 25q73 0 118 -24l12 8q-28 64 -28 171q0 122 30 206l-17 8z" />
    <glyph glyph-name="five" unicode="5" 
d="M55 174h60q29 -69 119 -69q58 0 92 33.5t34 91.5q0 57 -37 93t-96 36q-38 0 -82 -16h-56v388h403v-125h-163q-86 0 -131 32l-14 -14q14 -19 14 -52v-63q0 -33 -14 -51l14 -14q45 14 89 14q94 0 154 -60t60 -159q0 -114 -71 -182.5t-187 -68.5q-115 0 -188 49v137z" />
    <glyph glyph-name="six" unicode="6" 
d="M440 731v-45q-62 -15 -97 -57l-171 -200l14 -16q60 56 136 56q86 0 144 -65.5t58 -164.5q0 -109 -69.5 -180t-176.5 -71q-115 0 -181 77.5t-66 215.5q0 112 60.5 216.5t187.5 233.5h161zM160 261q0 -71 34 -116.5t86 -45.5q45 0 75 37.5t30 97.5q0 69 -31.5 109t-83.5 40
q-51 0 -80.5 -32.5t-29.5 -89.5z" />
    <glyph glyph-name="seven" unicode="7" 
d="M44 606v125h477v-106l-324 -625h-162l292 516q22 39 73 90l-8 19q-48 -19 -120 -19h-228z" />
    <glyph glyph-name="eight" unicode="8" 
d="M168 379q-64 38 -94 78.5t-30 93.5q0 85 65 137.5t174 52.5q105 0 168 -52.5t63 -135.5q0 -104 -121 -160v-15q70 -37 102 -79.5t32 -103.5q0 -86 -67.5 -146.5t-174.5 -60.5q-117 0 -187.5 61.5t-70.5 151.5q0 54 34 93t107 73v12zM336 405q66 63 66 130q0 51 -31 81
t-83 30q-44 0 -74.5 -24t-30.5 -58q0 -40 39.5 -82t113.5 -77zM217 357q-62 -77 -62 -139q0 -55 37 -94t91 -39q45 0 76 29t31 72q0 47 -41.5 87t-131.5 84z" />
    <glyph glyph-name="nine" unicode="9" 
d="M115 0v44q67 19 108 68l160 188l-14 16q-60 -56 -132 -56q-89 0 -147.5 65t-58.5 165q0 109 69.5 180t176.5 71q115 0 181 -77.5t66 -215.5q0 -111 -60.5 -218t-186.5 -230h-162zM395 468q0 71 -34 116.5t-86 45.5q-44 0 -74 -37.5t-30 -97.5q0 -69 31 -109t83 -40
q51 0 80.5 32t29.5 90z" />
    <glyph glyph-name="colon" unicode=":" horiz-adv-x="333" 
d="M83 530h167v-163h-167v163zM83 163h167v-163h-167v163z" />
    <glyph glyph-name="semicolon" unicode=";" horiz-adv-x="333" 
d="M83 163h167v-139q0 -93 -38 -141t-110 -48h-13v58q77 3 77 93v28h-83v149zM83 530h167v-163h-167v163z" />
    <glyph glyph-name="less" unicode="&#x3c;" horiz-adv-x="833" 
d="M704 574v-90l-456 -186l456 -186v-89l-575 236v78z" />
    <glyph glyph-name="equal" unicode="=" horiz-adv-x="833" 
d="M668 414v-104h-504v104h504zM668 196v-104h-504v104h504z" />
    <glyph glyph-name="greater" unicode="&#x3e;" horiz-adv-x="833" 
d="M129 574l575 -237v-78l-575 -236v89l456 186l-456 186v90z" />
    <glyph glyph-name="question" unicode="?" 
d="M187 149h168v-149h-168v149zM187 509h-138q-1 10 -1 28q0 105 57.5 160.5t166.5 55.5q111 0 172.5 -54t61.5 -150q0 -44 -17 -80.5t-36 -57.5t-60 -58q-26 -24 -35.5 -33.5t-20 -29.5t-10.5 -42q0 -9 1 -14h-124v41q0 34 11 57t37 51q14 15 42.5 41t40.5 39t23 38t11 55
q0 42 -24.5 65.5t-68.5 23.5q-42 0 -65.5 -27t-23.5 -74v-35z" />
    <glyph glyph-name="at" unicode="@" horiz-adv-x="1000" 
d="M602 345q-14 86 -90 86q-62 0 -106 -62.5t-44 -151.5q0 -48 22 -74t63 -26q43 0 79 32.5t49 84.5zM573 138q-52 -82 -148 -82q-74 0 -113.5 42t-39.5 122q0 115 68 193.5t162 78.5q84 0 121 -69l27 52h75l-72 -286q-4 -20 -4 -24q0 -19 13 -30t34 -11q53 0 104 56
q72 77 72 192q0 123 -90.5 200.5t-239.5 77.5q-135 0 -230 -61q-89 -56 -136.5 -142.5t-47.5 -192.5q0 -152 102.5 -243.5t272.5 -91.5q167 0 300 93l33 -48q-147 -111 -329 -111q-189 0 -309 93q-150 114 -150 309q0 163 100 286q146 178 397 178q170 0 278 -84
q129 -99 129 -262q0 -164 -122 -263q-69 -55 -155 -55q-102 0 -102 81v2z" />
    <glyph glyph-name="A" unicode="A" horiz-adv-x="611" 
d="M194 240h209q-17 32 -35 112l-46 214q-9 41 -13 86h-21q-2 -33 -13 -86l-50 -230q-10 -50 -31 -96zM14 0l211 741h154l218 -741h-153l-34 154h-227l-33 -154h-136z" />
    <glyph glyph-name="B" unicode="B" horiz-adv-x="611" 
d="M214 632v-216h62q60 0 89 33.5t29 82.5t-24 74.5t-89 25.5h-67zM214 329v-229h78q140 0 140 119q0 110 -137 110h-81zM75 741h201q110 0 160 -24q43 -20 67.5 -59.5t24.5 -88.5q0 -108 -122 -169v-8q84 -18 123.5 -62t39.5 -121q0 -103 -72 -156t-179 -53h-243v741z" />
    <glyph glyph-name="C" unicode="C" horiz-adv-x="611" 
d="M550 694v-150h-53q-26 50 -57.5 73t-77.5 23q-85 0 -135 -70t-50 -195t49.5 -197t132.5 -72q98 0 138 95h53v-156q-79 -57 -180 -57q-157 0 -245.5 101.5t-88.5 283.5q0 172 87 276t224 104q96 0 203 -59z" />
    <glyph glyph-name="D" unicode="D" horiz-adv-x="667" 
d="M208 627v-513q18 -1 39 -1q225 0 225 259q0 256 -236 256q-18 0 -28 -1zM212 0h-143v741h143q97 0 161.5 -14.5t119.5 -58.5q118 -97 118 -295q0 -215 -131 -310q-55 -40 -115.5 -51.5t-152.5 -11.5z" />
    <glyph glyph-name="E" unicode="E" 
d="M69 741h422v-117h-283v-180h251v-106h-251v-223h292v-115h-431v741z" />
    <glyph glyph-name="F" unicode="F" horiz-adv-x="542" 
d="M69 741h431v-118h-292v-206h277v-111h-277v-306h-139v741z" />
    <glyph glyph-name="G" unicode="G" horiz-adv-x="653" 
d="M337 395h247v-395h-112v72h-16q-52 -84 -164 -84q-121 0 -185.5 93.5t-64.5 268.5q0 197 85.5 300t248.5 103q115 0 208 -52v-152h-53q-49 99 -156 99q-192 0 -192 -291q0 -129 38 -192t118 -63q48 0 106 32v89q0 53 7 80q-30 -8 -66 -8h-49v100z" />
    <glyph glyph-name="H" unicode="H" horiz-adv-x="667" 
d="M458 447v294h139v-741h-139v335h-250v-335h-139v741h139v-294h250z" />
    <glyph glyph-name="I" unicode="I" horiz-adv-x="278" 
d="M69 741h139v-741h-139v741z" />
    <glyph glyph-name="J" unicode="J" horiz-adv-x="514" 
d="M29 318h139v-121q0 -61 17.5 -85t50.5 -24q38 0 54 30t16 94v529h140v-507q0 -139 -55.5 -192.5t-154.5 -53.5q-104 0 -155.5 57t-51.5 181v92z" />
    <glyph glyph-name="K" unicode="K" horiz-adv-x="611" 
d="M69 741h139v-243q0 -70 -17 -147l15 -4q18 49 59 115l175 279h149l-153 -234q-25 -38 -80 -101q49 -59 72 -98l183 -308h-176l-177 343l-50 -56v-287h-139v741z" />
    <glyph glyph-name="L" unicode="L" horiz-adv-x="500" 
d="M69 741h139v-625h264v-116h-403v741z" />
    <glyph glyph-name="M" unicode="M" horiz-adv-x="833" 
d="M83 741h184l107 -403q16 -58 23 -152h35q6 87 23 152l107 403h188v-741h-117v437q0 113 9 166h-20l-165 -583h-85l-166 583h-19q13 -91 13 -166v-437h-117v741z" />
    <glyph glyph-name="N" unicode="N" horiz-adv-x="667" 
d="M69 741h170l184 -419q23 -52 57 -152h18q-18 95 -18 171v400h117v-741h-158l-209 473q-30 67 -44 133h-20q20 -117 20 -182v-424h-117v741z" />
    <glyph glyph-name="O" unicode="O" horiz-adv-x="667" 
d="M333 638q-69 0 -109 -69.5t-40 -198.5q0 -130 39.5 -198t109.5 -68t109.5 68t39.5 198q0 129 -40 198.5t-109 69.5zM42 381q0 179 77 275.5t215 96.5q136 0 213.5 -97.5t77.5 -275.5q0 -193 -75 -292.5t-216 -99.5q-142 0 -217 99.5t-75 293.5z" />
    <glyph glyph-name="P" unicode="P" horiz-adv-x="611" 
d="M208 622v-261q14 -1 40 -1q93 0 136.5 33t43.5 105q0 47 -27.5 85.5t-92.5 38.5h-100zM69 741h207q160 0 227 -61t67 -174q0 -109 -64.5 -175.5t-191.5 -66.5h-106v-264h-139v741z" />
    <glyph glyph-name="Q" unicode="Q" horiz-adv-x="667" 
d="M285 237l72 65l55 -68q27 -34 33 -62h8q17 79 17 209q0 126 -36.5 192.5t-101.5 66.5q-63 0 -98.5 -66.5t-35.5 -193.5q0 -286 155 -286q24 0 50 10v9q-8 2 -14.5 5t-13 9t-8.5 8t-10 11.5t-8 10.5zM615 -18l-69 -68l-48 61q-17 22 -17 53v5l-6 6q-58 -51 -138 -51
q-131 0 -204.5 99.5t-73.5 285.5t71.5 283t204.5 97q129 0 201.5 -97t72.5 -274q0 -226 -93 -305l6 -8q31 -10 50 -34z" />
    <glyph glyph-name="R" unicode="R" horiz-adv-x="611" 
d="M69 741h164q158 0 237 -51t79 -160q0 -138 -158 -196v-8q43 -31 62 -66l144 -260h-164l-124 250q-19 35 -23 65q-32 -7 -66 -7h-12v-308h-139v741zM208 636v-245q12 -1 35 -1q85 0 124.5 31t39.5 101q0 45 -26.5 79.5t-77.5 34.5h-95z" />
    <glyph glyph-name="S" unicode="S" horiz-adv-x="569" 
d="M28 198h59q56 -90 171 -90q65 0 100.5 25t35.5 71q0 19 -7.5 34t-16 24.5t-33.5 21.5t-39.5 18t-55.5 21q-108 40 -154 84.5t-46 125.5q0 97 70 157t182 60q98 0 198 -44v-147h-49q-47 83 -136 83q-50 0 -83 -28t-33 -67q0 -29 19 -49.5t38.5 -29.5t70.5 -28q14 -5 21 -8
q107 -40 154 -90.5t47 -132.5q0 -94 -71.5 -156t-189.5 -62q-151 0 -252 75v132z" />
    <glyph glyph-name="T" unicode="T" 
d="M206 624h-192v117h528v-117h-196v-624h-140v624z" />
    <glyph glyph-name="U" unicode="U" horiz-adv-x="653" 
d="M69 271v470h139v-463q0 -93 23 -133t95 -40q64 0 91.5 36t27.5 117v483h139v-470q0 -68 -9 -112.5t-37 -81.5q-70 -89 -211 -89q-143 0 -213 89q-28 36 -36.5 80t-8.5 114z" />
    <glyph glyph-name="V" unicode="V" horiz-adv-x="597" 
d="M21 741h131l115 -475q19 -81 19 -157h21q0 78 19 157l115 475h135l-219 -747h-129z" />
    <glyph glyph-name="W" unicode="W" horiz-adv-x="889" 
d="M14 741h137l86 -452q9 -51 20 -156h21q6 78 21 153l90 455h117l68 -363q30 -157 37 -245h21q5 75 21 153l90 455h132l-185 -747h-118l-96 449q-11 55 -15 139h-23q-4 -94 -31 -218l-81 -370h-131z" />
    <glyph glyph-name="X" unicode="X" horiz-adv-x="597" 
d="M198 375l-176 366h144l87 -213q23 -58 34 -109h22q12 53 37 116l79 206h141l-172 -366l182 -375h-142l-93 215q-24 56 -41 118h-21q-13 -60 -36 -117l-86 -216h-136z" />
    <glyph glyph-name="Y" unicode="Y" horiz-adv-x="597" 
d="M231 284l-210 457h148l84 -229q27 -73 40 -140h21q11 59 42 144l85 225h135l-206 -457v-284h-139v284z" />
    <glyph glyph-name="Z" unicode="Z" 
d="M28 116l268 426q27 43 66 84l-7 15q-37 -11 -135 -11h-179v111h472v-111l-265 -413q-38 -61 -79 -98l8 -16q54 13 119 13h232v-116h-500v116z" />
    <glyph glyph-name="bracketleft" unicode="[" 
d="M486 659h-178v-726h178v-86h-319v894h319v-82z" />
    <glyph glyph-name="backslash" unicode="\" 
d="M47 757h111l351 -785h-111z" />
    <glyph glyph-name="bracketright" unicode="]" 
d="M69 -153v86h179v726h-179v82h320v-894h-320z" />
    <glyph glyph-name="asciicircum" unicode="^" horiz-adv-x="1000" 
d="M447 713h106l242 -274h-101l-194 194l-195 -194h-101z" />
    <glyph glyph-name="underscore" unicode="_" horiz-adv-x="500" 
d="M0 -75h500v-50h-500v50z" />
    <glyph glyph-name="grave" unicode="`" horiz-adv-x="500" 
d="M79 753h163q40 -71 101 -122v-18h-90q-80 70 -174 113v27z" />
    <glyph glyph-name="a" unicode="a" horiz-adv-x="514" 
d="M78 388v113q113 47 196 47q92 0 140 -50t48 -145v-273q0 -44 8 -81h-136v49q-72 -64 -142 -64q-65 0 -108.5 45.5t-43.5 112.5q0 87 74 134t233 69v35q0 30 -22 53.5t-71 23.5q-84 0 -127 -69h-49zM346 121v71q0 53 9 79l-10 5q-88 -12 -134 -43t-46 -77q0 -32 22.5 -53
t57.5 -21q43 0 101 39z" />
    <glyph glyph-name="b" unicode="b" 
d="M194 753v-268l11 -2q47 71 123 71q85 0 135.5 -75t50.5 -209q0 -130 -52 -204.5t-135 -74.5q-71 0 -121 69l-12 -4v-56h-125v753h125zM194 406v-269q28 -50 84 -50q51 0 80 47.5t29 135.5q0 187 -116 187q-57 0 -77 -51z" />
    <glyph glyph-name="c" unicode="c" horiz-adv-x="500" 
d="M458 512v-118h-48q-40 68 -108 68q-61 0 -97 -51t-36 -142q0 -84 37 -133.5t94 -49.5q67 0 110 72h48v-127q-78 -45 -181 -45q-107 0 -171 75t-64 206q0 140 63.5 214.5t181.5 74.5q92 0 171 -44z" />
    <glyph glyph-name="d" unicode="d" 
d="M486 0h-125v56l-11 4q-50 -69 -122 -69q-83 0 -135 74.5t-52 204.5q0 134 51 209t136 75q76 0 123 -71l10 2v268h125v-753zM361 137v269q-22 51 -76 51q-116 0 -116 -187q0 -88 28.5 -135.5t79.5 -47.5q56 0 84 50z" />
    <glyph glyph-name="e" unicode="e" horiz-adv-x="528" 
d="M485 251h-317q8 -81 48.5 -124t104.5 -43q66 0 117 55h47v-111q-80 -44 -185 -44q-126 0 -192.5 77t-66.5 221q0 130 62 202t174 72q99 0 154.5 -63t55.5 -179q0 -15 -2 -63zM274 474q-46 0 -71.5 -36t-46.5 -117l12 -12q51 15 101 15q64 0 112 -15l12 12
q-22 81 -47.5 117t-71.5 36z" />
    <glyph glyph-name="f" unicode="f" horiz-adv-x="333" 
d="M94 441h-72v84h72v58q0 90 33.5 130t115.5 40h85v-95h-43q-45 0 -62 -8t-22 -36q0 -2 -1.5 -33t-8.5 -56l13 -10q20 10 49 10h75v-84h-109v-441h-125v441z" />
    <glyph glyph-name="g" unicode="g" 
d="M361 117l-10 1q-48 -61 -123 -61q-86 0 -136.5 64.5t-50.5 178.5q0 110 51.5 174.5t135.5 64.5q71 0 122 -60l11 4v57h125v-457q0 -132 -53 -191t-179 -59q-94 0 -189 30v123h57q32 -53 125 -53q114 0 114 115v69zM361 196v214q-41 41 -88 41q-48 0 -76 -40t-28 -109
q0 -70 28 -108.5t79 -38.5q53 0 85 41z" />
    <glyph glyph-name="h" unicode="h" 
d="M69 753h125v-270l21 -4q33 38 60 53.5t66 15.5q41 0 70 -13t46.5 -35t27 -59.5t12.5 -78t3 -99.5v-263h-123v321q0 69 -22 100.5t-69 31.5q-48 0 -92 -51v-402h-125v753z" />
    <glyph glyph-name="i" unicode="i" horiz-adv-x="278" 
d="M200 525v-525h-125v525h125zM65 753h148v-103h-148v103z" />
    <glyph glyph-name="j" unicode="j" horiz-adv-x="278" 
d="M208 525v-540q0 -87 -39 -121t-136 -31l-34 1v100l13 -1q49 -4 60 11t11 85v496h125zM73 753h148v-103h-148v103z" />
    <glyph glyph-name="k" unicode="k" horiz-adv-x="514" 
d="M69 753h126v-339q0 -56 -11 -111l15 -6l167 242h148l-151 -189q-20 -24 -41 -34v-13q29 -23 53 -64l139 -239h-148l-138 273h-10l-23 -34v-239h-126v753z" />
    <glyph glyph-name="l" unicode="l" horiz-adv-x="278" 
d="M201 753v-753h-125v753h125z" />
    <glyph glyph-name="m" unicode="m" horiz-adv-x="833" 
d="M62 539h125v-56l9 -4q32 38 59 53.5t66 15.5q47 0 80.5 -19t61.5 -62l9 -5q34 49 66 67.5t82 18.5q49 0 85.5 -27t51.5 -74t15 -160v-287h-125v295q0 93 -20 125.5t-72 32.5q-57 0 -78 -53v-400h-120v314q0 71 -20 105t-72 34q-59 0 -78 -51v-402h-125v539z" />
    <glyph glyph-name="n" unicode="n" 
d="M69 539h125v-56l21 -4q33 38 60 53.5t66 15.5q41 0 70 -13t46.5 -35t27 -59.5t12.5 -78t3 -99.5v-263h-123v309q0 79 -20 111.5t-71 32.5q-48 0 -92 -51v-402h-125v539z" />
    <glyph glyph-name="o" unicode="o" 
d="M278 88q53 0 82 47t29 136q0 87 -29.5 135t-81.5 48t-81.5 -48t-29.5 -135q0 -88 29.5 -135.5t81.5 -47.5zM514 271q0 -138 -61.5 -211.5t-174.5 -73.5t-174.5 73.5t-61.5 211.5t61.5 211.5t174.5 73.5q112 0 174 -74t62 -211z" />
    <glyph glyph-name="p" unicode="p" 
d="M69 539h125v-56l12 -4q51 70 121 70q83 0 135 -75.5t52 -205.5q0 -133 -50.5 -208.5t-135.5 -75.5q-76 0 -123 71l-11 -2v-220h-125v706zM194 402v-270q20 -51 81 -51q112 0 112 188q0 88 -29 135.5t-80 47.5q-56 0 -84 -50z" />
    <glyph glyph-name="q" unicode="q" 
d="M361 -167v220l-10 2q-47 -71 -123 -71q-85 0 -136 75.5t-51 209.5q0 130 52 205t135 75q71 0 122 -70l11 4v56h125v-706h-125zM361 132v270q-28 50 -84 50q-51 0 -79.5 -47.5t-28.5 -135.5q0 -188 111 -188q61 0 81 51z" />
    <glyph glyph-name="r" unicode="r" horiz-adv-x="389" 
d="M69 539h108v-108l21 -3q29 57 65.5 80.5t98.5 23.5h13v-133h-61q-41 0 -65.5 -7t-36.5 -25.5t-15 -39t-3 -59.5v-268h-125v539z" />
    <glyph glyph-name="s" unicode="s" horiz-adv-x="444" 
d="M43 137h55q13 -29 39.5 -46t58.5 -17q36 0 59.5 20.5t23.5 46.5q0 16 -5 28.5t-21 24t-25.5 17t-39 19t-41.5 19.5q-105 51 -105 149q0 73 49.5 115.5t138.5 42.5q75 0 153 -26v-109h-48q-42 55 -96 55q-35 0 -56 -17.5t-21 -45.5q0 -20 11 -34.5t23 -21.5t44 -22t51 -25
q59 -31 85.5 -65t26.5 -89q0 -79 -53.5 -125.5t-148.5 -46.5q-92 0 -158 29v124z" />
    <glyph glyph-name="t" unicode="t" horiz-adv-x="333" 
d="M84 156v285h-69v84h83v158h111v-158h112v-84h-112v-288q0 -46 10 -56.5t49 -10.5h53v-86h-101q-33 0 -54 2t-37.5 9t-24.5 16t-13 29t-6 41.5t-1 58.5z" />
    <glyph glyph-name="u" unicode="u" 
d="M486 0h-125v55l-21 4q-32 -38 -59.5 -53.5t-66.5 -15.5q-99 0 -137 85q-21 46 -21 179v285h122v-322q0 -72 23 -102t69 -30q24 0 49.5 15t41.5 38v401h125v-539z" />
    <glyph glyph-name="v" unicode="v" horiz-adv-x="458" 
d="M14 539h141l56 -323q15 -79 19 -133h13q1 65 14 133l58 323h129l-155 -539h-117z" />
    <glyph glyph-name="w" unicode="w" horiz-adv-x="736" 
d="M14 539h130l43 -228q25 -130 31 -222h22q8 89 15 131l57 319h113l52 -319q10 -55 15 -131h23q1 53 30 207l46 243h131l-150 -539h-120l-66 300q-9 41 -13 94h-23q-3 -36 -15 -94l-60 -300h-117z" />
    <glyph glyph-name="x" unicode="x" horiz-adv-x="458" 
d="M155 273l-136 266h147l59 -211h16l71 211h127l-136 -266l141 -273h-144l-66 215h-22l-66 -215h-132z" />
    <glyph glyph-name="y" unicode="y" horiz-adv-x="458" 
d="M29 -65h72q34 0 50.5 16.5t27.5 59.5l-162 528h142l68 -439h23l78 439h120l-164 -543q-14 -46 -25 -71.5t-31.5 -49t-52 -33t-79.5 -9.5h-67v102z" />
    <glyph glyph-name="z" unicode="z" horiz-adv-x="444" 
d="M28 105l183 264q18 25 62 77l-6 8q-37 -8 -216 -8v93h347v-85l-192 -288q-22 -33 -61 -69l7 -12q35 12 89 12h176v-97h-389v105z" />
    <glyph glyph-name="braceleft" unicode="{" horiz-adv-x="500" 
d="M427 741v-86h-43q-30 0 -40.5 -18.5t-10.5 -86.5v-118q0 -20 -1 -33.5t-7.5 -34.5t-18.5 -35t-35.5 -26t-56.5 -16v-16q33 -4 56.5 -16t35.5 -26t18.5 -35t7.5 -34.5t1 -33.5v-118q0 -59 11.5 -82t39.5 -23h43v-85h-41q-93 0 -133 24q-31 18 -40.5 51t-9.5 95v121
q0 68 -22 98t-71 30q-4 0 -14.5 -0.5t-16.5 -0.5v87q3 0 13 -0.5t18 -0.5q48 0 70.5 29.5t22.5 97.5v121q0 63 9.5 95.5t40.5 51.5q41 24 152 24h22z" />
    <glyph glyph-name="bar" unicode="|" horiz-adv-x="500" 
d="M192 750h117v-1000h-117v1000z" />
    <glyph glyph-name="braceright" unicode="}" horiz-adv-x="500" 
d="M73 655v86h22q111 0 152 -24q31 -19 40.5 -51.5t9.5 -95.5v-121q0 -68 22.5 -97.5t70.5 -29.5q8 0 18 0.5t13 0.5v-87q-6 0 -16.5 0.5t-14.5 0.5q-49 0 -71 -30t-22 -98v-121q0 -62 -9.5 -95t-40.5 -51q-40 -24 -133 -24h-41v85h43q28 0 39.5 23t11.5 82v118q0 20 1 33.5
t7.5 34.5t18.5 35t35.5 26t56.5 16v16q-33 4 -56.5 16t-35.5 26t-18.5 35t-7.5 34.5t-1 33.5v118q0 68 -10.5 86.5t-40.5 18.5h-43z" />
    <glyph glyph-name="asciitilde" unicode="~" horiz-adv-x="833" 
d="M747 383v-90q-100 -69 -186 -69q-44 0 -93 17q-10 3 -39 13.5t-41.5 14t-35 9.5t-41 8.5t-36.5 2.5q-79 0 -188 -77v91q103 70 189 70q58 0 143 -29q7 -2 24 -8t24.5 -9t22.5 -7.5t24.5 -6.5t22.5 -3.5t25 -1.5q81 0 185 75z" />
    <glyph glyph-name="uni00A0" unicode="&#xa0;" horiz-adv-x="278" 
 />
    <glyph glyph-name="exclamdown" unicode="&#xa1;" horiz-adv-x="278" 
d="M223 -167h-167l44 498h80zM223 407h-168v149h168v-149z" />
    <glyph glyph-name="cent" unicode="&#xa2;" 
d="M288 91v386q-99 -49 -99 -192q0 -155 99 -194zM354 -12v-58h-66v58h-5q-104 0 -169 79.5t-65 210.5q0 136 61.5 213.5t177.5 87.5l-2 46h69v-46q90 -13 152 -46v-123h-53q-33 57 -99 70v-389q59 9 99 73h53v-132q-76 -41 -153 -44z" />
    <glyph glyph-name="sterling" unicode="&#xa3;" 
d="M519 130v-130h-494v106q44 7 67.5 34.5t23.5 69.5q0 5 -2 41t0 57t9 29l-5 5q-25 -14 -73 -14h-21v74q48 2 88 -13l6 8q-31 55 -31 117q0 104 67 165.5t185 61.5q75 0 171 -30v-166h-60q-31 88 -111 88q-48 0 -76.5 -29.5t-28.5 -79.5q0 -20 4.5 -49.5t5 -41.5t-6.5 -36
l7 -8q35 13 85 13h89v-74h-92q-45 0 -77 12l-6 -6q15 -33 15 -62q0 -93 -89 -156l11 -20q36 22 81 28t123 6h135z" />
    <glyph glyph-name="currency" unicode="&#xa4;" horiz-adv-x="606" 
d="M303 375q-43 0 -69 -30t-26 -75t26 -75t69 -30t69 30t26 75t-26 75t-69 30zM21 57l98 98q-31 52 -31 115q0 64 31 115l-98 98l69 69l98 -98q52 31 115 31q65 0 115 -31l98 98l69 -69l-98 -98q31 -50 31 -115q0 -66 -31 -114l98 -99l-69 -69l-98 99q-52 -32 -115 -32
t-115 31l-98 -98z" />
    <glyph glyph-name="yen" unicode="&#xa5;" 
d="M34 741h144l52 -189q2 -9 18 -59t22 -81h13q7 37 24.5 90t17.5 54l53 185h143l-90 -213q-58 -139 -69 -152l8 -11q37 9 81 9h71v-74h-102q-65 0 -81 13l-9 -14q12 -9 17 -45v-26q0 -36 -16 -59l8 -12q22 13 71 13h112v-74h-128q-38 0 -55 11l-9 -11q17 -23 17 -70v-26
h-139v26q0 47 17 70l-9 11q-16 -11 -55 -11h-128v74h112q49 0 71 -13l8 12q-16 23 -16 59v26q5 36 17 45l-9 14q-16 -13 -81 -13h-102v74h71q44 0 81 -9l8 11q-11 13 -69 152z" />
    <glyph glyph-name="brokenbar" unicode="&#xa6;" horiz-adv-x="500" 
d="M192 675h117v-350h-117v350zM192 175h117v-350h-117v350z" />
    <glyph glyph-name="section" unicode="&#xa7;" 
d="M463 654l-75 -51q-3 3 -18 16.5t-25 21.5t-29 16t-38 8q-58 0 -58 -37q0 -19 14.5 -35t32 -25.5t56.5 -28.5q104 -50 132 -70q63 -45 63 -108q0 -47 -25 -82t-85 -40v-8q75 -48 75 -117q0 -61 -49 -104.5t-151 -43.5q-78 0 -130 39t-69 75l86 50q13 -21 22.5 -33t32 -27
t46.5 -15q77 0 77 44q0 27 -22.5 43.5t-91.5 47.5q-1 1 -25.5 11.5t-32 14t-30.5 15.5t-32.5 19.5t-26.5 22.5t-24.5 28t-14 31.5t-6.5 38.5q0 54 30.5 86t81.5 37v8q-74 40 -74 115q0 57 47.5 96.5t146.5 39.5q117 0 189 -99zM395 330q0 20 -16.5 38t-35 28.5t-55.5 28.5
q-56 28 -84 34q-13 -3 -25 -21.5t-12 -38.5q0 -28 22 -47t74 -45q75 -38 90 -41q10 4 26 25t16 39z" />
    <glyph glyph-name="dieresis" unicode="&#xa8;" horiz-adv-x="500" 
d="M100 625v116h112q-4 -44 -4 -58t4 -58h-112zM288 741h112v-116h-112q4 33 4 58q0 12 -4 58z" />
    <glyph glyph-name="copyright" unicode="&#xa9;" horiz-adv-x="833" 
d="M773 351q0 -162 -110 -262.5t-262 -100.5q-153 0 -263.5 100.5t-110.5 262.5q0 161 110.5 261t263.5 100q98 0 182 -43t137 -127t53 -191zM109 351q0 -123 85 -208.5t207 -85.5q120 0 205 85.5t85 208.5q0 121 -85 206.5t-205 85.5q-121 0 -206.5 -85.5t-85.5 -206.5z
M506 292h83q-11 -71 -59.5 -111.5t-115.5 -40.5q-91 0 -147.5 60.5t-56.5 152.5q0 93 54.5 153t147.5 60q69 0 116.5 -39t57.5 -111h-80q-6 34 -32 51.5t-62 17.5q-50 0 -78 -35.5t-28 -95.5q0 -57 30 -95.5t78 -38.5q38 0 63 19t29 53z" />
    <glyph glyph-name="ordfeminine" unicode="&#xaa;" horiz-adv-x="386" 
d="M353 363h-102v34q-55 -44 -107 -44q-49 0 -81.5 31.5t-32.5 78.5q0 61 55 93.5t175 47.5v25q0 25 -18.5 39.5t-50.5 14.5q-63 0 -96 -48h-36v79q85 33 147 33q69 0 105 -35t36 -102q0 -225 6 -247zM260 448v32q0 52 6 73l-7 3q-66 -7 -100.5 -29t-34.5 -54
q0 -23 17 -37.5t43 -14.5q31 0 76 27z" />
    <glyph glyph-name="guillemotleft" unicode="&#xab;" horiz-adv-x="548" 
d="M150 427h122l-125 -155l126 -153v-3h-121l-129 156zM243 272l123 155h127l-127 -155l126 -156h-122z" />
    <glyph glyph-name="logicalnot" unicode="&#xac;" horiz-adv-x="833" 
d="M564 108v202h-400v104h504v-306h-104z" />
    <glyph glyph-name="uni00AD" unicode="&#xad;" horiz-adv-x="500" 
d="M97 428h306v-111h-306v111z" />
    <glyph glyph-name="registered" unicode="&#xae;" horiz-adv-x="833" 
d="M409 490h-72v-108h72q60 0 60 54t-60 54zM255 548h162q59 0 97.5 -23t38.5 -77q0 -37 -22 -62t-60 -34v-4q22 -1 36 -7.5t21 -21.5t9.5 -26.5t5.5 -36.5q1 -6 3 -23t3.5 -27.5t5 -24.5t8.5 -23h-86q-7 38 -10 60q-4 41 -10 58q-9 44 -38 44h-82v-162h-82v390zM773 351
q0 -162 -110 -262.5t-262 -100.5q-153 0 -263.5 100.5t-110.5 262.5q0 161 110.5 261t263.5 100q98 0 182 -43t137 -127t53 -191zM109 351q0 -123 85 -208.5t207 -85.5q120 0 205 85.5t85 208.5q0 121 -85 206.5t-205 85.5q-121 0 -206.5 -85.5t-85.5 -206.5z" />
    <glyph glyph-name="macron" unicode="&#xaf;" horiz-adv-x="500" 
d="M113 719h274v-73h-274v73z" />
    <glyph glyph-name="degree" unicode="&#xb0;" horiz-adv-x="329" 
d="M8 584q0 65 46 111t111 46t111 -46t46 -111t-46 -111.5t-111 -46.5t-111 46.5t-46 111.5zM256 584q0 41 -25.5 69t-65.5 28t-65.5 -28t-25.5 -69t25.5 -69.5t65.5 -28.5t65.5 28.5t25.5 69.5z" />
    <glyph glyph-name="plusminus" unicode="&#xb1;" horiz-adv-x="833" 
d="M364 384v162h104v-162h200v-104h-200v-162h-104v162h-200v104h200zM164 -52v104h504v-104h-504z" />
    <glyph glyph-name="twosuperior" unicode="&#xb2;" horiz-adv-x="367" 
d="M339 368v-76h-311v32q0 13 2.5 24.5t5.5 20.5t11.5 20t13 17t18 18.5t19 17t23.5 19t24 19.5q47 40 69 68.5t22 62.5q0 28 -16 44t-45 16q-57 0 -58 -81h-89q0 147 154 147q68 0 108.5 -36t40.5 -91q0 -43 -24 -78.5t-74 -72.5q-22 -16 -71 -51t-74 -54l10 -10
q42 24 130 24h111z" />
    <glyph glyph-name="threesuperior" unicode="&#xb3;" horiz-adv-x="367" 
d="M35 384h36q17 -31 82 -31q40 0 63 19.5t23 49.5q0 69 -106 69v65q97 4 97 61q0 23 -19 39t-49 16q-48 0 -85 -39h-32v78q70 26 125 26q70 0 110.5 -29.5t40.5 -78.5q0 -35 -23 -59t-65 -31v-14q99 -13 99 -103q0 -62 -46 -99.5t-125 -37.5q-64 0 -126 21v78z" />
    <glyph glyph-name="acute" unicode="&#xb4;" horiz-adv-x="500" 
d="M257 753h163v-27q-95 -41 -174 -113h-90v18q59 49 101 122z" />
    <glyph glyph-name="mu" unicode="&#xb5;" horiz-adv-x="590" 
d="M100 525h112l-61 -307q-6 -28 -6 -51q0 -96 89 -96q61 0 95.5 44.5t53.5 141.5l53 268h110l-71 -358q-9 -47 -9 -65q0 -17 7.5 -24.5t25.5 -7.5q11 0 17 1l-16 -78q-31 -8 -73 -8q-73 0 -73 61v7q-42 -69 -124 -69q-76 0 -115 53l-48 -247h-112z" />
    <glyph glyph-name="paragraph" unicode="&#xb6;" horiz-adv-x="500" 
d="M475 741v-890h-104v796h-96v-796h-104v474q-62 0 -111 61t-49 151q0 92 57.5 148t124.5 56h282z" />
    <glyph glyph-name="periodcentered" unicode="&#xb7;" horiz-adv-x="278" 
d="M56 379h166v-163h-166v163z" />
    <glyph glyph-name="cedilla" unicode="&#xb8;" horiz-adv-x="500" 
d="M227 0h47v-40h7q109 0 109 -85q0 -88 -124 -88q-48 0 -123 19v57q82 -19 126 -19q40 0 40 33q0 17 -12.5 23.5t-42.5 6.5q-18 0 -28 -1z" />
    <glyph glyph-name="onesuperior" unicode="&#xb9;" horiz-adv-x="367" 
d="M234 731v-308q0 -56 -4 -73l4 -6q12 6 91 6v-59h-275v59q79 0 91 -6l6 6q-6 20 -6 33v226q0 50 6 63l-6 5q-14 -5 -91 -5v59h184z" />
    <glyph glyph-name="ordmasculine" unicode="&#xba;" horiz-adv-x="417" 
d="M209 425q40 0 61.5 33t21.5 96q0 61 -22 94.5t-61 33.5t-61.5 -33.5t-22.5 -94.5q0 -63 22 -96t62 -33zM386 554q0 -97 -46.5 -149t-130.5 -52q-85 0 -131 51.5t-46 149.5q0 96 46 147.5t131 51.5q84 0 130.5 -52t46.5 -147z" />
    <glyph glyph-name="guillemotright" unicode="&#xbb;" horiz-adv-x="548" 
d="M242 427h123l128 -155l-129 -158h-122l127 158zM273 272l-123 -156h-122l123 156l-128 155h123z" />
    <glyph glyph-name="onequarter" unicode="&#xbc;" horiz-adv-x="833" 
d="M259 731v-402q0 -52 -5 -73l5 -8q19 8 52 8h45v-74h-296v74h44q36 0 55 -8l6 8q-6 22 -6 77v263q0 42 6 62l-6 7q-17 -7 -64 -7h-35v73h199zM756 428v-268q0 -49 -6 -64l6 -9q18 9 29 9h17v-73h-14q-10 0 -32 9l-6 -9q6 -14 6 -49v-95h-100v70q0 56 11 74l-5 9
q-26 -9 -50 -9h-165v96l183 309h126zM674 374l-170 -287l7 -9q37 19 82 19q50 0 83 -18l9 6q-20 46 -20 129q0 87 22 154z" />
    <glyph glyph-name="onehalf" unicode="&#xbd;" horiz-adv-x="833" 
d="M60 658v73h199v-434q0 -20 -5 -41l5 -8q19 8 48 8h49v-74h-296v74h44q36 0 55 -8l6 8q-6 22 -6 41v307q0 38 6 54l-6 7q-25 -7 -71 -7h-28zM554 250h-97q0 182 166 182q74 0 117.5 -44t43.5 -113q0 -31 -10 -59.5t-22 -49t-42 -50t-49.5 -46.5t-66 -54.5t-71.5 -58.5
l10 -12q30 21 70.5 25t189.5 4v-95h-336v41q0 35 15 66t31.5 49t53.5 53q67 62 96 101.5t29 86.5q0 35 -17.5 55t-48.5 20q-60 0 -62 -101z" />
    <glyph glyph-name="threequarters" unicode="&#xbe;" horiz-adv-x="833" 
d="M57 305h39q8 -17 32.5 -28.5t55.5 -11.5q42 0 67.5 24.5t25.5 61.5q0 87 -114 88v81q104 6 104 76q0 29 -20.5 49t-49.5 20q-52 0 -94 -49h-35v98q75 32 135 32q76 0 119 -37t43 -98q0 -43 -25 -72.5t-70 -39.5v-18q52 -7 80 -41q26 -34 26 -89q0 -79 -49.5 -125
t-139.5 -46q-65 0 -130 27v98zM591 428h126v-296q0 -21 -6 -36l6 -9q18 9 29 9h17v-72h-14q-12 0 -32 8l-6 -8q6 -14 6 -33v-111h-100v102q0 24 11 42l-5 8q-23 -8 -50 -8h-164v95zM465 87l7 -9q37 19 82 19q50 0 83 -18l9 6q-19 44 -19 129q0 90 21 154l-13 6z" />
    <glyph glyph-name="questiondown" unicode="&#xbf;" 
d="M369 407h-168v149h168v-149zM228 322h124v-41q0 -34 -11 -57t-37 -51q-18 -18 -43.5 -41t-39 -35t-24 -30t-10.5 -37q0 -42 24.5 -65.5t68.5 -23.5q42 0 65.5 27t23.5 74v35h138q1 -10 1 -28q0 -105 -57.5 -160.5t-166.5 -55.5q-108 0 -171 49.5t-63 124.5q0 44 17 80.5
t36 57.5t60 58q26 24 35.5 33.5t20 29.5t10.5 42q0 9 -1 14z" />
    <glyph glyph-name="Agrave" unicode="&#xc0;" horiz-adv-x="611" 
d="M194 240h209q-17 32 -35 112l-46 214q-9 41 -13 86h-21q-2 -33 -13 -86l-50 -230q-10 -50 -31 -96zM14 0l211 741h154l218 -741h-153l-34 154h-227l-33 -154h-136zM135 920h163q40 -71 101 -122v-18h-90q-80 70 -174 113v27z" />
    <glyph glyph-name="Aacute" unicode="&#xc1;" horiz-adv-x="611" 
d="M194 240h209q-17 32 -35 112l-46 214q-9 41 -13 86h-21q-2 -33 -13 -86l-50 -230q-10 -50 -31 -96zM14 0l211 741h154l218 -741h-153l-34 154h-227l-33 -154h-136zM313 920h163v-27q-95 -41 -174 -113h-90v18q59 49 101 122z" />
    <glyph glyph-name="Acircumflex" unicode="&#xc2;" horiz-adv-x="611" 
d="M194 240h209q-17 32 -35 112l-46 214q-9 41 -13 86h-21q-2 -33 -13 -86l-50 -230q-10 -50 -31 -96zM14 0l211 741h154l218 -741h-153l-34 154h-227l-33 -154h-136zM294 872q-27 -69 -83 -92h-71v28q49 27 91 112h150q35 -78 91 -112v-28h-71q-33 13 -51.5 35.5
t-31.5 56.5h-24z" />
    <glyph glyph-name="Atilde" unicode="&#xc3;" horiz-adv-x="611" 
d="M194 240h209q-17 32 -35 112l-46 214q-9 41 -13 86h-21q-2 -33 -13 -86l-50 -230q-10 -50 -31 -96zM14 0l211 741h154l218 -741h-153l-34 154h-227l-33 -154h-136zM155 789q13 57 38.5 87.5t58.5 30.5q15 0 31.5 -6.5t46 -24t43.5 -24.5q20 27 27 59h56
q-30 -119 -101 -119q-40 0 -118 56q-18 -29 -25 -59h-57z" />
    <glyph glyph-name="Adieresis" unicode="&#xc4;" horiz-adv-x="611" 
d="M194 240h209q-17 32 -35 112l-46 214q-9 41 -13 86h-21q-2 -33 -13 -86l-50 -230q-10 -50 -31 -96zM14 0l211 741h154l218 -741h-153l-34 154h-227l-33 -154h-136zM156 792v116h112q-4 -44 -4 -58t4 -58h-112zM344 908h112v-116h-112q4 33 4 58q0 12 -4 58z" />
    <glyph glyph-name="Aring" unicode="&#xc5;" horiz-adv-x="611" 
d="M194 240h209q-17 32 -35 112l-46 214q-9 41 -13 86h-21q-2 -33 -13 -86l-50 -230q-10 -50 -31 -96zM14 0l211 741h154l218 -741h-153l-34 154h-227l-33 -154h-136zM307 998q47 0 81 -34t34 -82t-34 -82t-81 -34t-81.5 34t-34.5 82t34.5 82t81.5 34zM307 932
q-21 0 -35.5 -14.5t-14.5 -36.5q0 -20 14.5 -34.5t35.5 -14.5t35.5 14t14.5 35q0 22 -14.5 36.5t-35.5 14.5z" />
    <glyph glyph-name="AE" unicode="&#xc6;" horiz-adv-x="842" 
d="M745 444v-106h-201v-223h242v-115h-381v154h-206l-49 -154h-136l314 741h449v-117h-233v-180h201zM405 640h-23l-114 -312q-21 -60 -55 -84v-10q15 5 41 5h108q36 0 50 -5v10q-7 14 -7 55v341z" />
    <glyph glyph-name="Ccedilla" unicode="&#xc7;" horiz-adv-x="611" 
d="M550 694v-150h-53q-26 50 -57.5 73t-77.5 23q-85 0 -135 -70t-50 -195t49.5 -197t132.5 -72q98 0 138 95h53v-156q-77 -55 -175 -57v-28h7q109 0 109 -85q0 -88 -124 -88q-48 0 -123 19v57q82 -19 126 -19q40 0 40 33q0 17 -12.5 23.5t-42.5 6.5q-18 0 -28 -1l1 84
q-138 14 -215 114t-77 269q0 172 87 276t224 104q96 0 203 -59z" />
    <glyph glyph-name="Egrave" unicode="&#xc8;" 
d="M69 741h422v-117h-283v-180h251v-106h-251v-223h292v-115h-431v741zM107 920h163q40 -71 101 -122v-18h-90q-80 70 -174 113v27z" />
    <glyph glyph-name="Eacute" unicode="&#xc9;" 
d="M69 741h422v-117h-283v-180h251v-106h-251v-223h292v-115h-431v741zM285 920h163v-27q-95 -41 -174 -113h-90v18q59 49 101 122z" />
    <glyph glyph-name="Ecircumflex" unicode="&#xca;" 
d="M69 741h422v-117h-283v-180h251v-106h-251v-223h292v-115h-431v741zM266 872q-27 -69 -83 -92h-71v28q49 27 91 112h150q35 -78 91 -112v-28h-71q-33 13 -51.5 35.5t-31.5 56.5h-24z" />
    <glyph glyph-name="Edieresis" unicode="&#xcb;" 
d="M69 741h422v-117h-283v-180h251v-106h-251v-223h292v-115h-431v741zM128 792v116h112q-4 -44 -4 -58t4 -58h-112zM316 908h112v-116h-112q4 33 4 58q0 12 -4 58z" />
    <glyph glyph-name="Igrave" unicode="&#xcc;" horiz-adv-x="278" 
d="M69 741h139v-741h-139v741zM-32 920h163q40 -71 101 -122v-18h-90q-80 70 -174 113v27z" />
    <glyph glyph-name="Iacute" unicode="&#xcd;" horiz-adv-x="278" 
d="M69 741h139v-741h-139v741zM146 920h163v-27q-95 -41 -174 -113h-90v18q59 49 101 122z" />
    <glyph glyph-name="Icircumflex" unicode="&#xce;" horiz-adv-x="278" 
d="M69 741h139v-741h-139v741zM127 872q-27 -69 -83 -92h-71v28q49 27 91 112h150q35 -78 91 -112v-28h-71q-33 13 -51.5 35.5t-31.5 56.5h-24z" />
    <glyph glyph-name="Idieresis" unicode="&#xcf;" horiz-adv-x="278" 
d="M69 741h139v-741h-139v741zM-11 792v116h112q-4 -44 -4 -58t4 -58h-112zM177 908h112v-116h-112q4 33 4 58q0 12 -4 58z" />
    <glyph glyph-name="Eth" unicode="&#xd0;" horiz-adv-x="667" 
d="M362 444v-106h-56q-5 0 -26 -0.5t-31 0t-25.5 2.5t-24.5 6v-26q9 -14 9 -80v-126q18 -1 39 -1q225 0 225 259q0 256 -236 256q-18 0 -28 -1v-108q0 -48 -9 -59v-24q13 8 67 8h96zM0 338v106h69v297h143q97 0 161.5 -14.5t119.5 -58.5q118 -97 118 -295q0 -215 -131 -310
q-55 -40 -115.5 -51.5t-152.5 -11.5h-143v338h-69z" />
    <glyph glyph-name="Ntilde" unicode="&#xd1;" horiz-adv-x="667" 
d="M69 741h170l184 -419q23 -52 57 -152h18q-18 95 -18 171v400h117v-741h-158l-209 473q-30 67 -44 133h-20q20 -117 20 -182v-424h-117v741zM183 789q13 57 38.5 87.5t58.5 30.5q15 0 31.5 -6.5t46 -24t43.5 -24.5q20 27 27 59h56q-30 -119 -101 -119q-40 0 -118 56
q-18 -29 -25 -59h-57z" />
    <glyph glyph-name="Ograve" unicode="&#xd2;" horiz-adv-x="667" 
d="M333 638q-69 0 -109 -69.5t-40 -198.5q0 -130 39.5 -198t109.5 -68t109.5 68t39.5 198q0 129 -40 198.5t-109 69.5zM42 381q0 179 77 275.5t215 96.5q136 0 213.5 -97.5t77.5 -275.5q0 -193 -75 -292.5t-216 -99.5q-142 0 -217 99.5t-75 293.5zM163 920h163
q40 -71 101 -122v-18h-90q-80 70 -174 113v27z" />
    <glyph glyph-name="Oacute" unicode="&#xd3;" horiz-adv-x="667" 
d="M333 638q-69 0 -109 -69.5t-40 -198.5q0 -130 39.5 -198t109.5 -68t109.5 68t39.5 198q0 129 -40 198.5t-109 69.5zM42 381q0 179 77 275.5t215 96.5q136 0 213.5 -97.5t77.5 -275.5q0 -193 -75 -292.5t-216 -99.5q-142 0 -217 99.5t-75 293.5zM341 920h163v-27
q-95 -41 -174 -113h-90v18q59 49 101 122z" />
    <glyph glyph-name="Ocircumflex" unicode="&#xd4;" horiz-adv-x="667" 
d="M333 638q-69 0 -109 -69.5t-40 -198.5q0 -130 39.5 -198t109.5 -68t109.5 68t39.5 198q0 129 -40 198.5t-109 69.5zM42 381q0 179 77 275.5t215 96.5q136 0 213.5 -97.5t77.5 -275.5q0 -193 -75 -292.5t-216 -99.5q-142 0 -217 99.5t-75 293.5zM322 872q-27 -69 -83 -92
h-71v28q49 27 91 112h150q35 -78 91 -112v-28h-71q-33 13 -51.5 35.5t-31.5 56.5h-24z" />
    <glyph glyph-name="Otilde" unicode="&#xd5;" horiz-adv-x="667" 
d="M333 638q-69 0 -109 -69.5t-40 -198.5q0 -130 39.5 -198t109.5 -68t109.5 68t39.5 198q0 129 -40 198.5t-109 69.5zM42 381q0 179 77 275.5t215 96.5q136 0 213.5 -97.5t77.5 -275.5q0 -193 -75 -292.5t-216 -99.5q-142 0 -217 99.5t-75 293.5zM183 789q13 57 38.5 87.5
t58.5 30.5q15 0 31.5 -6.5t46 -24t43.5 -24.5q20 27 27 59h56q-30 -119 -101 -119q-40 0 -118 56q-18 -29 -25 -59h-57z" />
    <glyph glyph-name="Odieresis" unicode="&#xd6;" horiz-adv-x="667" 
d="M333 638q-69 0 -109 -69.5t-40 -198.5q0 -130 39.5 -198t109.5 -68t109.5 68t39.5 198q0 129 -40 198.5t-109 69.5zM42 381q0 179 77 275.5t215 96.5q136 0 213.5 -97.5t77.5 -275.5q0 -193 -75 -292.5t-216 -99.5q-142 0 -217 99.5t-75 293.5zM184 792v116h112
q-4 -44 -4 -58t4 -58h-112zM372 908h112v-116h-112q4 33 4 58q0 12 -4 58z" />
    <glyph glyph-name="multiply" unicode="&#xd7;" horiz-adv-x="833" 
d="M344 253l-167 167l72 72l167 -167l167 167l72 -72l-168 -167l168 -167l-72 -72l-167 168l-167 -168l-72 72z" />
    <glyph glyph-name="Oslash" unicode="&#xd8;" horiz-adv-x="667" 
d="M330 638q-18 0 -35.5 -5t-39 -22t-37 -44.5t-26.5 -77.5t-11 -115q0 -54 -5 -86l20 -10q6 21 61 81l103 111q55 59 91 63l12 12q-3 3 -21 27t-28 33.5t-33.5 21t-50.5 11.5zM435 406l-129 -134q-35 -35 -53.5 -48t-37.5 -15l-12 -12q2 -2 20.5 -26.5t28 -33t32.5 -19.5
t49 -10q19 1 36.5 6t39.5 22t38.5 44.5t27.5 77t11 114.5q0 53 4 82l-20 10q-9 -30 -35 -58zM602 753l77 -76l-33 -34q-25 -25 -62 -35l-4 -20q45 -77 45 -208q0 -193 -75 -292.5t-216 -99.5q-80 0 -130 29t-64 56l-20 4q3 -20 -30 -60l-24 -29l-77 76l33 34q25 25 62 35
l4 20q-46 78 -46 228q-1 179 76.5 275.5t215.5 96.5q80 0 130 -29t64 -56l20 -4q-3 20 30 60z" />
    <glyph glyph-name="Ugrave" unicode="&#xd9;" horiz-adv-x="653" 
d="M69 271v470h139v-463q0 -93 23 -133t95 -40q64 0 91.5 36t27.5 117v483h139v-470q0 -68 -9 -112.5t-37 -81.5q-70 -89 -211 -89q-143 0 -213 89q-28 36 -36.5 80t-8.5 114zM156 920h163q40 -71 101 -122v-18h-90q-80 70 -174 113v27z" />
    <glyph glyph-name="Uacute" unicode="&#xda;" horiz-adv-x="653" 
d="M69 271v470h139v-463q0 -93 23 -133t95 -40q64 0 91.5 36t27.5 117v483h139v-470q0 -68 -9 -112.5t-37 -81.5q-70 -89 -211 -89q-143 0 -213 89q-28 36 -36.5 80t-8.5 114zM334 920h163v-27q-95 -41 -174 -113h-90v18q59 49 101 122z" />
    <glyph glyph-name="Ucircumflex" unicode="&#xdb;" horiz-adv-x="653" 
d="M69 271v470h139v-463q0 -93 23 -133t95 -40q64 0 91.5 36t27.5 117v483h139v-470q0 -68 -9 -112.5t-37 -81.5q-70 -89 -211 -89q-143 0 -213 89q-28 36 -36.5 80t-8.5 114zM315 872q-27 -69 -83 -92h-71v28q49 27 91 112h150q35 -78 91 -112v-28h-71q-33 13 -51.5 35.5
t-31.5 56.5h-24z" />
    <glyph glyph-name="Udieresis" unicode="&#xdc;" horiz-adv-x="653" 
d="M69 271v470h139v-463q0 -93 23 -133t95 -40q64 0 91.5 36t27.5 117v483h139v-470q0 -68 -9 -112.5t-37 -81.5q-70 -89 -211 -89q-143 0 -213 89q-28 36 -36.5 80t-8.5 114zM177 792v116h112q-4 -44 -4 -58t4 -58h-112zM365 908h112v-116h-112q4 33 4 58q0 12 -4 58z" />
    <glyph glyph-name="Yacute" unicode="&#xdd;" horiz-adv-x="597" 
d="M231 284l-210 457h148l84 -229q27 -73 40 -140h21q11 59 42 144l85 225h135l-206 -457v-284h-139v284zM306 920h163v-27q-95 -41 -174 -113h-90v18q59 49 101 122z" />
    <glyph glyph-name="Thorn" unicode="&#xde;" horiz-adv-x="611" 
d="M208 542v-261q14 -1 40 -1q93 0 136.5 33t43.5 105q0 124 -138 124h-82zM208 639h102q260 0 260 -207q0 -114 -65.5 -181t-195.5 -67h-101v-184h-139v741h139v-102z" />
    <glyph glyph-name="germandbls" unicode="&#xdf;" horiz-adv-x="552" 
d="M272 359v79q25 0 37 2t24.5 12t17 32.5t4.5 61.5q0 20 -0.5 32t-4.5 32.5t-12 32t-24.5 21t-39.5 9.5t-38.5 -7.5t-23.5 -17.5t-12.5 -29t-5 -32.5t-0.5 -36.5v-548h-125v478q0 37 0.5 56t4 53t11 53t22 43t35.5 37t53 22t74 9q112 0 164 -61q43 -50 43 -138
q0 -66 -31 -101t-58 -42v-4q29 -6 48.5 -15.5t38.5 -30.5t28 -59.5t9 -95.5q0 -210 -151 -210q-60 0 -71 6v80q26 -17 63 -4q9 3 16.5 11.5t11.5 21.5t6.5 25.5t3 31t1 29.5t0 28.5t-0.5 22.5q0 28 -2.5 47t-10.5 31t-15 19t-24 10t-28.5 3.5t-37.5 0.5z" />
    <glyph glyph-name="agrave" unicode="&#xe0;" horiz-adv-x="514" 
d="M78 388v113q113 47 196 47q92 0 140 -50t48 -145v-273q0 -44 8 -81h-136v49q-72 -64 -142 -64q-65 0 -108.5 45.5t-43.5 112.5q0 87 74 134t233 69v35q0 30 -22 53.5t-71 23.5q-84 0 -127 -69h-49zM346 121v71q0 53 9 79l-10 5q-88 -12 -134 -43t-46 -77q0 -32 22.5 -53
t57.5 -21q43 0 101 39zM86 753h163q40 -71 101 -122v-18h-90q-80 70 -174 113v27z" />
    <glyph glyph-name="aacute" unicode="&#xe1;" horiz-adv-x="514" 
d="M78 388v113q113 47 196 47q92 0 140 -50t48 -145v-273q0 -44 8 -81h-136v49q-72 -64 -142 -64q-65 0 -108.5 45.5t-43.5 112.5q0 87 74 134t233 69v35q0 30 -22 53.5t-71 23.5q-84 0 -127 -69h-49zM346 121v71q0 53 9 79l-10 5q-88 -12 -134 -43t-46 -77q0 -32 22.5 -53
t57.5 -21q43 0 101 39zM264 753h163v-27q-95 -41 -174 -113h-90v18q59 49 101 122z" />
    <glyph glyph-name="acircumflex" unicode="&#xe2;" horiz-adv-x="514" 
d="M78 388v113q113 47 196 47q92 0 140 -50t48 -145v-273q0 -44 8 -81h-136v49q-72 -64 -142 -64q-65 0 -108.5 45.5t-43.5 112.5q0 87 74 134t233 69v35q0 30 -22 53.5t-71 23.5q-84 0 -127 -69h-49zM346 121v71q0 53 9 79l-10 5q-88 -12 -134 -43t-46 -77q0 -32 22.5 -53
t57.5 -21q43 0 101 39zM245 705q-27 -69 -83 -92h-71v28q49 27 91 112h150q35 -78 91 -112v-28h-71q-33 13 -51.5 35.5t-31.5 56.5h-24z" />
    <glyph glyph-name="atilde" unicode="&#xe3;" horiz-adv-x="514" 
d="M78 388v113q113 47 196 47q92 0 140 -50t48 -145v-273q0 -44 8 -81h-136v49q-72 -64 -142 -64q-65 0 -108.5 45.5t-43.5 112.5q0 87 74 134t233 69v35q0 30 -22 53.5t-71 23.5q-84 0 -127 -69h-49zM346 121v71q0 53 9 79l-10 5q-88 -12 -134 -43t-46 -77q0 -32 22.5 -53
t57.5 -21q43 0 101 39zM106 622q13 57 38.5 87.5t58.5 30.5q15 0 31.5 -6.5t46 -24t43.5 -24.5q20 27 27 59h56q-30 -119 -101 -119q-40 0 -118 56q-18 -29 -25 -59h-57z" />
    <glyph glyph-name="adieresis" unicode="&#xe4;" horiz-adv-x="514" 
d="M78 388v113q113 47 196 47q92 0 140 -50t48 -145v-273q0 -44 8 -81h-136v49q-72 -64 -142 -64q-65 0 -108.5 45.5t-43.5 112.5q0 87 74 134t233 69v35q0 30 -22 53.5t-71 23.5q-84 0 -127 -69h-49zM346 121v71q0 53 9 79l-10 5q-88 -12 -134 -43t-46 -77q0 -32 22.5 -53
t57.5 -21q43 0 101 39zM107 625v116h112q-4 -44 -4 -58t4 -58h-112zM295 741h112v-116h-112q4 33 4 58q0 12 -4 58z" />
    <glyph glyph-name="aring" unicode="&#xe5;" horiz-adv-x="514" 
d="M78 388v113q113 47 196 47q92 0 140 -50t48 -145v-273q0 -44 8 -81h-136v49q-72 -64 -142 -64q-65 0 -108.5 45.5t-43.5 112.5q0 87 74 134t233 69v35q0 30 -22 53.5t-71 23.5q-84 0 -127 -69h-49zM346 121v71q0 53 9 79l-10 5q-88 -12 -134 -43t-46 -77q0 -32 22.5 -53
t57.5 -21q43 0 101 39zM258 831q47 0 81 -34t34 -82t-34 -82t-81 -34t-81.5 34t-34.5 82t34.5 82t81.5 34zM258 765q-21 0 -35.5 -14.5t-14.5 -36.5q0 -20 14.5 -34.5t35.5 -14.5t35.5 14t14.5 35q0 22 -14.5 36.5t-35.5 14.5z" />
    <glyph glyph-name="ae" unicode="&#xe6;" horiz-adv-x="842" 
d="M588 474q-46 0 -71.5 -36t-46.5 -117l12 -12q51 15 101 15q64 0 112 -15l12 12q-22 81 -47.5 117t-71.5 36zM165 156q0 -32 22.5 -53t57.5 -21q24 0 75 23q8 4 21 11.5t21.5 11.5t14.5 4l4 9q-12 17 -17 41l-4 19q-5 25 -4.5 47t4.5 29l-7 6q-10 -4 -50.5 -14t-61.5 -20
q-76 -35 -76 -93zM78 388v113q113 47 196 47q101 0 148 -59q62 67 169 67q99 0 154.5 -63t55.5 -179q0 -15 -2 -63h-317q8 -81 48.5 -124t104.5 -43q66 0 117 55h47v-111q-80 -44 -185 -44q-136 0 -202 89q-89 -52 -135 -70.5t-85 -18.5q-65 0 -108.5 45.5t-43.5 112.5
q0 87 76 133.5t243 67.5v43q0 71 -105 71q-84 0 -127 -69h-49z" />
    <glyph glyph-name="ccedilla" unicode="&#xe7;" horiz-adv-x="500" 
d="M458 512v-118h-48q-40 68 -108 68q-61 0 -97 -51t-36 -142q0 -84 37 -133.5t94 -49.5q67 0 110 72h48v-127q-75 -44 -174 -45v-26h7q109 0 109 -85q0 -88 -124 -88q-48 0 -123 19v57q82 -19 126 -19q40 0 40 33q0 17 -12.5 23.5t-42.5 6.5q-18 0 -28 -1l1 84
q-90 14 -142.5 87t-52.5 190q0 140 63.5 214.5t181.5 74.5q92 0 171 -44z" />
    <glyph glyph-name="egrave" unicode="&#xe8;" horiz-adv-x="528" 
d="M485 251h-317q8 -81 48.5 -124t104.5 -43q66 0 117 55h47v-111q-80 -44 -185 -44q-126 0 -192.5 77t-66.5 221q0 130 62 202t174 72q99 0 154.5 -63t55.5 -179q0 -15 -2 -63zM274 474q-46 0 -71.5 -36t-46.5 -117l12 -12q51 15 101 15q64 0 112 -15l12 12
q-22 81 -47.5 117t-71.5 36zM93 753h163q40 -71 101 -122v-18h-90q-80 70 -174 113v27z" />
    <glyph glyph-name="eacute" unicode="&#xe9;" horiz-adv-x="528" 
d="M485 251h-317q8 -81 48.5 -124t104.5 -43q66 0 117 55h47v-111q-80 -44 -185 -44q-126 0 -192.5 77t-66.5 221q0 130 62 202t174 72q99 0 154.5 -63t55.5 -179q0 -15 -2 -63zM274 474q-46 0 -71.5 -36t-46.5 -117l12 -12q51 15 101 15q64 0 112 -15l12 12
q-22 81 -47.5 117t-71.5 36zM271 753h163v-27q-95 -41 -174 -113h-90v18q59 49 101 122z" />
    <glyph glyph-name="ecircumflex" unicode="&#xea;" horiz-adv-x="528" 
d="M485 251h-317q8 -81 48.5 -124t104.5 -43q66 0 117 55h47v-111q-80 -44 -185 -44q-126 0 -192.5 77t-66.5 221q0 130 62 202t174 72q99 0 154.5 -63t55.5 -179q0 -15 -2 -63zM274 474q-46 0 -71.5 -36t-46.5 -117l12 -12q51 15 101 15q64 0 112 -15l12 12
q-22 81 -47.5 117t-71.5 36zM252 705q-27 -69 -83 -92h-71v28q49 27 91 112h150q35 -78 91 -112v-28h-71q-33 13 -51.5 35.5t-31.5 56.5h-24z" />
    <glyph glyph-name="edieresis" unicode="&#xeb;" horiz-adv-x="528" 
d="M485 251h-317q8 -81 48.5 -124t104.5 -43q66 0 117 55h47v-111q-80 -44 -185 -44q-126 0 -192.5 77t-66.5 221q0 130 62 202t174 72q99 0 154.5 -63t55.5 -179q0 -15 -2 -63zM274 474q-46 0 -71.5 -36t-46.5 -117l12 -12q51 15 101 15q64 0 112 -15l12 12
q-22 81 -47.5 117t-71.5 36zM114 625v116h112q-4 -44 -4 -58t4 -58h-112zM302 741h112v-116h-112q4 33 4 58q0 12 -4 58z" />
    <glyph glyph-name="igrave" unicode="&#xec;" horiz-adv-x="278" 
d="M200 525v-525h-125v525h125zM-32 753h163q40 -71 101 -122v-18h-90q-80 70 -174 113v27z" />
    <glyph glyph-name="iacute" unicode="&#xed;" horiz-adv-x="278" 
d="M200 525v-525h-125v525h125zM146 753h163v-27q-95 -41 -174 -113h-90v18q59 49 101 122z" />
    <glyph glyph-name="icircumflex" unicode="&#xee;" horiz-adv-x="278" 
d="M200 525v-525h-125v525h125zM127 705q-27 -69 -83 -92h-71v28q49 27 91 112h150q35 -78 91 -112v-28h-71q-33 13 -51.5 35.5t-31.5 56.5h-24z" />
    <glyph glyph-name="idieresis" unicode="&#xef;" horiz-adv-x="278" 
d="M200 525v-525h-125v525h125zM-11 625v116h112q-4 -44 -4 -58t4 -58h-112zM177 741h112v-116h-112q4 33 4 58q0 12 -4 58z" />
    <glyph glyph-name="eth" unicode="&#xf0;" 
d="M278 88q53 0 82 47t29 136q0 87 -29.5 135t-81.5 48t-81.5 -48t-29.5 -135q0 -88 29.5 -135.5t81.5 -47.5zM133 568l-24 69l53 13q75 18 99 16v15q-59 7 -101 72h159q9 -7 18 -23t5 -33l13 -10q11 16 26.5 25t47.5 21l88 32l31 -69l-51 -17q-69 -23 -101 -26l-3 -9
q45 -33 83 -130t38 -194q0 -162 -64 -248t-172 -86q-113 0 -174.5 73.5t-61.5 211.5q0 135 59 210t155 75q32 0 56 -11t46 -45l22 14q-58 60 -63 109l-10 4q-1 -2 -3 -4t-6 -4t-8.5 -4t-11.5 -4.5t-13.5 -4.5t-17 -5t-19 -5.5t-22.5 -6.5t-25 -7z" />
    <glyph glyph-name="ntilde" unicode="&#xf1;" 
d="M69 539h125v-56l21 -4q33 38 60 53.5t66 15.5q41 0 70 -13t46.5 -35t27 -59.5t12.5 -78t3 -99.5v-263h-123v309q0 79 -20 111.5t-71 32.5q-48 0 -92 -51v-402h-125v539zM127 622q13 57 38.5 87.5t58.5 30.5q15 0 31.5 -6.5t46 -24t43.5 -24.5q20 27 27 59h56
q-30 -119 -101 -119q-40 0 -118 56q-18 -29 -25 -59h-57z" />
    <glyph glyph-name="ograve" unicode="&#xf2;" 
d="M278 88q53 0 82 47t29 136q0 87 -29.5 135t-81.5 48t-81.5 -48t-29.5 -135q0 -88 29.5 -135.5t81.5 -47.5zM514 271q0 -138 -61.5 -211.5t-174.5 -73.5t-174.5 73.5t-61.5 211.5t61.5 211.5t174.5 73.5q112 0 174 -74t62 -211zM107 753h163q40 -71 101 -122v-18h-90
q-80 70 -174 113v27z" />
    <glyph glyph-name="oacute" unicode="&#xf3;" 
d="M278 88q53 0 82 47t29 136q0 87 -29.5 135t-81.5 48t-81.5 -48t-29.5 -135q0 -88 29.5 -135.5t81.5 -47.5zM514 271q0 -138 -61.5 -211.5t-174.5 -73.5t-174.5 73.5t-61.5 211.5t61.5 211.5t174.5 73.5q112 0 174 -74t62 -211zM285 753h163v-27q-95 -41 -174 -113h-90v18
q59 49 101 122z" />
    <glyph glyph-name="ocircumflex" unicode="&#xf4;" 
d="M278 88q53 0 82 47t29 136q0 87 -29.5 135t-81.5 48t-81.5 -48t-29.5 -135q0 -88 29.5 -135.5t81.5 -47.5zM514 271q0 -138 -61.5 -211.5t-174.5 -73.5t-174.5 73.5t-61.5 211.5t61.5 211.5t174.5 73.5q112 0 174 -74t62 -211zM266 705q-27 -69 -83 -92h-71v28
q49 27 91 112h150q35 -78 91 -112v-28h-71q-33 13 -51.5 35.5t-31.5 56.5h-24z" />
    <glyph glyph-name="otilde" unicode="&#xf5;" 
d="M278 88q53 0 82 47t29 136q0 87 -29.5 135t-81.5 48t-81.5 -48t-29.5 -135q0 -88 29.5 -135.5t81.5 -47.5zM514 271q0 -138 -61.5 -211.5t-174.5 -73.5t-174.5 73.5t-61.5 211.5t61.5 211.5t174.5 73.5q112 0 174 -74t62 -211zM127 622q13 57 38.5 87.5t58.5 30.5
q15 0 31.5 -6.5t46 -24t43.5 -24.5q20 27 27 59h56q-30 -119 -101 -119q-40 0 -118 56q-18 -29 -25 -59h-57z" />
    <glyph glyph-name="odieresis" unicode="&#xf6;" 
d="M278 88q53 0 82 47t29 136q0 87 -29.5 135t-81.5 48t-81.5 -48t-29.5 -135q0 -88 29.5 -135.5t81.5 -47.5zM514 271q0 -138 -61.5 -211.5t-174.5 -73.5t-174.5 73.5t-61.5 211.5t61.5 211.5t174.5 73.5q112 0 174 -74t62 -211zM128 625v116h112q-4 -44 -4 -58t4 -58h-112
zM316 741h112v-116h-112q4 33 4 58q0 12 -4 58z" />
    <glyph glyph-name="divide" unicode="&#xf7;" horiz-adv-x="833" 
d="M668 201h-504v104h504v-104zM332 460q0 35 25 60t60 25q34 0 59 -25.5t25 -59.5q0 -32 -25 -58t-58 -26q-35 0 -60.5 25t-25.5 59zM332 46q0 35 25 59.5t60 24.5q34 0 59 -25t25 -59q0 -32 -25 -58.5t-58 -26.5q-35 0 -60.5 25t-25.5 60z" />
    <glyph glyph-name="oslash" unicode="&#xf8;" 
d="M485 556l63 -70l-14 -17q-32 -39 -49 -42l-5 -11q34 -42 34 -146q0 -137 -61.5 -210.5t-174.5 -74.5q-54 0 -87.5 15t-65.5 43h-16q-1 -17 -29 -45l-13 -13l-67 70l30 30q28 28 37 29l5 10q-30 57 -30 147q0 138 61.5 211.5t174.5 73.5q89 0 151 -58h13q1 11 30 43z
M259 312l98 98v13q-4 2 -17 10.5t-28 14.5t-34 6q-55 0 -83 -45t-28 -127q0 -24 -5 -52l11 -8q1 4 3 7.5t9 10.5t14.5 14t24.5 23.5t35 34.5zM361 294l-118 -119q-27 -28 -48 -35v-17q40 -35 88 -35q52 0 79 45t27 124q0 29 6 55l-11 12q-7 -14 -23 -30z" />
    <glyph glyph-name="ugrave" unicode="&#xf9;" 
d="M486 0h-125v55l-21 4q-32 -38 -59.5 -53.5t-66.5 -15.5q-99 0 -137 85q-21 46 -21 179v285h122v-322q0 -72 23 -102t69 -30q24 0 49.5 15t41.5 38v401h125v-539zM107 753h163q40 -71 101 -122v-18h-90q-80 70 -174 113v27z" />
    <glyph glyph-name="uacute" unicode="&#xfa;" 
d="M486 0h-125v55l-21 4q-32 -38 -59.5 -53.5t-66.5 -15.5q-99 0 -137 85q-21 46 -21 179v285h122v-322q0 -72 23 -102t69 -30q24 0 49.5 15t41.5 38v401h125v-539zM285 753h163v-27q-95 -41 -174 -113h-90v18q59 49 101 122z" />
    <glyph glyph-name="ucircumflex" unicode="&#xfb;" 
d="M486 0h-125v55l-21 4q-32 -38 -59.5 -53.5t-66.5 -15.5q-99 0 -137 85q-21 46 -21 179v285h122v-322q0 -72 23 -102t69 -30q24 0 49.5 15t41.5 38v401h125v-539zM266 705q-27 -69 -83 -92h-71v28q49 27 91 112h150q35 -78 91 -112v-28h-71q-33 13 -51.5 35.5t-31.5 56.5
h-24z" />
    <glyph glyph-name="udieresis" unicode="&#xfc;" 
d="M486 0h-125v55l-21 4q-32 -38 -59.5 -53.5t-66.5 -15.5q-99 0 -137 85q-21 46 -21 179v285h122v-322q0 -72 23 -102t69 -30q24 0 49.5 15t41.5 38v401h125v-539zM128 625v116h112q-4 -44 -4 -58t4 -58h-112zM316 741h112v-116h-112q4 33 4 58q0 12 -4 58z" />
    <glyph glyph-name="yacute" unicode="&#xfd;" horiz-adv-x="458" 
d="M29 -65h72q34 0 50.5 16.5t27.5 59.5l-162 528h142l68 -439h23l78 439h120l-164 -543q-14 -46 -25 -71.5t-31.5 -49t-52 -33t-79.5 -9.5h-67v102zM236 753h163v-27q-95 -41 -174 -113h-90v18q59 49 101 122z" />
    <glyph glyph-name="thorn" unicode="&#xfe;" 
d="M69 753h125v-270l12 -4q51 70 121 70q83 0 135 -75.5t52 -205.5q0 -133 -50.5 -208.5t-135.5 -75.5q-76 0 -123 71l-11 -2v-220h-125v920zM194 402v-270q20 -51 81 -51q112 0 112 188q0 88 -29 135.5t-80 47.5q-56 0 -84 -50z" />
    <glyph glyph-name="ydieresis" unicode="&#xff;" horiz-adv-x="458" 
d="M29 -65h72q34 0 50.5 16.5t27.5 59.5l-162 528h142l68 -439h23l78 439h120l-164 -543q-14 -46 -25 -71.5t-31.5 -49t-52 -33t-79.5 -9.5h-67v102zM79 625v116h112q-4 -44 -4 -58t4 -58h-112zM267 741h112v-116h-112q4 33 4 58q0 12 -4 58z" />
    <glyph glyph-name="dotlessi" unicode="&#x131;" horiz-adv-x="278" 
d="M200 525v-525h-125v525h125z" />
    <glyph glyph-name="Lslash" unicode="&#x141;" horiz-adv-x="500" 
d="M208 116h264v-116h-403v226q0 51 8 74l-13 10l-25 -13q-25 -13 -39 -21v100l20 11q36 19 52 19l9 18q-12 19 -12 68v249h139v-147q0 -51 -8 -74l13 -10q2 2 17.5 14t26.5 20l99 68v-100l-102 -63q-27 -16 -41 -14l-13 -10q8 -25 8 -67v-242z" />
    <glyph glyph-name="lslash" unicode="&#x142;" horiz-adv-x="278" 
d="M76 753h125v-120q0 -51 -8 -74l13 -10q3 5 8.5 10.5t9.5 8.5t12 8.5t11 7.5l31 22v-94l-12 -8q-5 -3 -16 -11t-18 -13t-16 -9t-16 -4l-7 -10q8 -29 8 -49v-408h-125l1 305q0 51 8 74l-13 10q-2 -4 -5.5 -8.5t-10.5 -9.5t-11 -8t-14.5 -10t-14.5 -10l-16 -11v94l23 16
q4 2 13.5 9.5t14 10.5t12 5.5t14.5 1.5l7 10q-8 45 -8 49v225z" />
    <glyph glyph-name="OE" unicode="&#x152;" horiz-adv-x="906" 
d="M469 159v422q-60 57 -129 57q-156 0 -156 -268t156 -268q69 0 129 57zM809 444v-106h-201v-223h242v-115h-381v19q-56 -31 -135 -31q-142 0 -217 99.5t-75 293.5q0 179 77 275.5t215 96.5q77 0 135 -32v20h372v-117h-233v-180h201z" />
    <glyph glyph-name="oe" unicode="&#x153;" horiz-adv-x="876" 
d="M278 88q53 0 82 47t29 136q0 87 -29.5 135t-81.5 48t-81.5 -48t-29.5 -135q0 -88 29.5 -135.5t81.5 -47.5zM833 251h-317q8 -81 48.5 -124t104.5 -43q66 0 117 55h47v-111q-80 -44 -185 -44q-128 0 -193 79q-62 -79 -177 -79q-112 0 -174 74.5t-62 212.5t61.5 211.5
t174.5 73.5q110 0 173 -72q63 72 174 72q99 0 154.5 -63t55.5 -179q0 -15 -2 -63zM622 474q-45 0 -71 -35.5t-43 -117.5l8 -12q51 15 101 15q64 0 112 -15l12 12q-22 81 -47.5 117t-71.5 36z" />
    <glyph glyph-name="Scaron" unicode="&#x160;" horiz-adv-x="569" 
d="M28 198h59q56 -90 171 -90q65 0 100.5 25t35.5 71q0 19 -7.5 34t-16 24.5t-33.5 21.5t-39.5 18t-55.5 21q-108 40 -154 84.5t-46 125.5q0 97 70 157t182 60q98 0 198 -44v-147h-49q-47 83 -136 83q-50 0 -83 -28t-33 -67q0 -29 19 -49.5t38.5 -29.5t70.5 -28q14 -5 21 -8
q107 -40 154 -90.5t47 -132.5q0 -94 -71.5 -156t-189.5 -62q-151 0 -252 75v132zM297 828q13 34 31.5 56.5t51.5 35.5h71v-28q-48 -25 -91 -112h-150q-35 78 -91 112v28h71q56 -22 83 -92h24z" />
    <glyph glyph-name="scaron" unicode="&#x161;" horiz-adv-x="444" 
d="M43 137h55q13 -29 39.5 -46t58.5 -17q36 0 59.5 20.5t23.5 46.5q0 16 -5 28.5t-21 24t-25.5 17t-39 19t-41.5 19.5q-105 51 -105 149q0 73 49.5 115.5t138.5 42.5q75 0 153 -26v-109h-48q-42 55 -96 55q-35 0 -56 -17.5t-21 -45.5q0 -20 11 -34.5t23 -21.5t44 -22t51 -25
q59 -31 85.5 -65t26.5 -89q0 -79 -53.5 -125.5t-148.5 -46.5q-92 0 -158 29v124zM234 661q13 34 31.5 56.5t51.5 35.5h71v-28q-48 -25 -91 -112h-150q-35 78 -91 112v28h71q56 -22 83 -92h24z" />
    <glyph glyph-name="Ydieresis" unicode="&#x178;" horiz-adv-x="597" 
d="M231 284l-210 457h148l84 -229q27 -73 40 -140h21q11 59 42 144l85 225h135l-206 -457v-284h-139v284zM149 792v116h112q-4 -44 -4 -58t4 -58h-112zM337 908h112v-116h-112q4 33 4 58q0 12 -4 58z" />
    <glyph glyph-name="Zcaron" unicode="&#x17d;" 
d="M28 116l268 426q27 43 66 84l-7 15q-37 -11 -135 -11h-179v111h472v-111l-265 -413q-38 -61 -79 -98l8 -16q54 13 119 13h232v-116h-500v116zM290 828q13 34 31.5 56.5t51.5 35.5h71v-28q-48 -25 -91 -112h-150q-35 78 -91 112v28h71q56 -22 83 -92h24z" />
    <glyph glyph-name="zcaron" unicode="&#x17e;" horiz-adv-x="444" 
d="M28 105l183 264q18 25 62 77l-6 8q-37 -8 -216 -8v93h347v-85l-192 -288q-22 -33 -61 -69l7 -12q35 12 89 12h176v-97h-389v105zM234 661q13 34 31.5 56.5t51.5 35.5h71v-28q-48 -25 -91 -112h-150q-35 78 -91 112v28h71q56 -22 83 -92h24z" />
    <glyph glyph-name="florin" unicode="&#x192;" 
d="M99 369v106h48q32 0 48 -6l6 6q-7 47 17 139q15 55 56.5 91t105.5 36q58 0 130 -31l-41 -103q-25 23 -65 23q-34 0 -47 -24t-23 -86q-4 -33 -15 -45l4 -6q17 6 51 6h72v-106h-82q-32 0 -48 6l-6 -8q5 -26 0 -60l-39 -304q-22 -170 -180 -170q-54 0 -112 20l29 115
q18 -25 58 -25q18 0 31 6t20 13t12.5 25.5t7 30t5.5 39.5l32 257q6 44 13 55l-7 5q-19 -5 -60 -5h-21z" />
    <glyph glyph-name="circumflex" unicode="&#x2c6;" horiz-adv-x="500" 
d="M238 705q-27 -69 -83 -92h-71v28q49 27 91 112h150q35 -78 91 -112v-28h-71q-33 13 -51.5 35.5t-31.5 56.5h-24z" />
    <glyph glyph-name="caron" unicode="&#x2c7;" horiz-adv-x="500" 
d="M262 661q13 34 31.5 56.5t51.5 35.5h71v-28q-48 -25 -91 -112h-150q-35 78 -91 112v28h71q56 -22 83 -92h24z" />
    <glyph glyph-name="uni02C9" unicode="&#x2c9;" horiz-adv-x="500" 
d="M113 719h274v-73h-274v73z" />
    <glyph glyph-name="breve" unicode="&#x2d8;" horiz-adv-x="500" 
d="M99 751h60q6 -34 28 -49q23 -15 63 -15q42 0 63.5 15t26.5 49h60q-7 -71 -43 -104t-107 -33q-70 0 -106.5 33t-44.5 104z" />
    <glyph glyph-name="dotaccent" unicode="&#x2d9;" horiz-adv-x="500" 
d="M194 625v116h112v-116h-112z" />
    <glyph glyph-name="ring" unicode="&#x2da;" horiz-adv-x="500" 
d="M251 831q47 0 81 -34t34 -82t-34 -82t-81 -34t-81.5 34t-34.5 82t34.5 82t81.5 34zM251 765q-21 0 -35.5 -14.5t-14.5 -36.5q0 -20 14.5 -34.5t35.5 -14.5t35.5 14t14.5 35q0 22 -14.5 36.5t-35.5 14.5z" />
    <glyph glyph-name="ogonek" unicode="&#x2db;" horiz-adv-x="500" 
d="M243 0h52q-68 -43 -68 -107q0 -36 60 -36h73v-57q-80 -7 -106 -7q-51 0 -79.5 21.5t-28.5 61.5q0 63 97 124z" />
    <glyph glyph-name="tilde" unicode="&#x2dc;" horiz-adv-x="500" 
d="M99 622q13 57 38.5 87.5t58.5 30.5q15 0 31.5 -6.5t46 -24t43.5 -24.5q20 27 27 59h56q-30 -119 -101 -119q-40 0 -118 56q-18 -29 -25 -59h-57z" />
    <glyph glyph-name="hungarumlaut" unicode="&#x2dd;" horiz-adv-x="500" 
d="M126 753h163v-27q-95 -41 -174 -113h-90v18q59 49 101 122zM366 753h163v-27q-95 -41 -174 -113h-90v18q59 49 101 122z" />
    <glyph glyph-name="uni03A9" unicode="&#x3a9;" horiz-adv-x="705" 
d="M177 97v3q-53 53 -88.5 129.5t-35.5 169.5q0 143 85 240t217 97q69 0 126.5 -29t93.5 -77t55.5 -106t19.5 -118q0 -95 -36.5 -175t-89.5 -131v-3h140v-97h-258v71q53 37 88.5 115.5t35.5 194.5q0 105 -46.5 180t-129.5 75q-82 0 -132 -73.5t-50 -186.5
q0 -108 36.5 -189.5t88.5 -115.5v-71h-258v97h138z" />
    <glyph glyph-name="uni03BC" unicode="&#x3bc;" horiz-adv-x="590" 
d="M100 525h112l-61 -307q-6 -28 -6 -51q0 -96 89 -96q61 0 95.5 44.5t53.5 141.5l53 268h110l-71 -358q-9 -47 -9 -65q0 -17 7.5 -24.5t25.5 -7.5q11 0 17 1l-16 -78q-31 -8 -73 -8q-73 0 -73 61v7q-42 -69 -124 -69q-76 0 -115 53l-48 -247h-112z" />
    <glyph glyph-name="pi" unicode="&#x3c0;" horiz-adv-x="596" 
d="M571 442h-72v-291q0 -97 14 -151h-114q-18 32 -18 146v296h-145q-4 -99 -23 -232.5t-44 -209.5h-114q25 88 44 218.5t21 223.5q-67 0 -100 -11l-14 80q43 33 160 33h415z" />
    <glyph glyph-name="uni2010" unicode="&#x2010;" horiz-adv-x="500" 
d="M97 428h306v-111h-306v111z" />
    <glyph glyph-name="endash" unicode="&#x2013;" horiz-adv-x="500" 
d="M0 428h500v-111h-500v111z" />
    <glyph glyph-name="emdash" unicode="&#x2014;" horiz-adv-x="1000" 
d="M0 428h1000v-111h-1000v111z" />
    <glyph glyph-name="quoteleft" unicode="&#x2018;" horiz-adv-x="278" 
d="M140 592v-29q0 -91 80 -93v-58q-3 0 -8.5 -0.5t-8.5 -0.5q-72 0 -110 48.5t-38 141.5v140h165v-149h-80z" />
    <glyph glyph-name="quoteright" unicode="&#x2019;" horiz-adv-x="278" 
d="M56 741h166v-140q0 -93 -38 -140.5t-110 -47.5h-13v57q77 3 77 94v27h-82v150z" />
    <glyph glyph-name="quotesinglbase" unicode="&#x201a;" horiz-adv-x="278" 
d="M56 163h166v-140q0 -93 -38 -140.5t-110 -47.5h-13v57q77 3 77 94v27h-82v150z" />
    <glyph glyph-name="quotedblleft" unicode="&#x201c;" 
d="M140 592v-29q0 -91 80 -93v-58q-3 0 -8.5 -0.5t-8.5 -0.5q-72 0 -110 48.5t-38 141.5v140h165v-149h-80zM418 592v-29q0 -91 80 -93v-58q-3 0 -8.5 -0.5t-8.5 -0.5q-72 0 -110 48.5t-38 141.5v140h165v-149h-80z" />
    <glyph glyph-name="quotedblright" unicode="&#x201d;" 
d="M56 741h166v-140q0 -93 -38 -140.5t-110 -47.5h-13v57q77 3 77 94v27h-82v150zM334 741h166v-140q0 -93 -38 -140.5t-110 -47.5h-13v57q77 3 77 94v27h-82v150z" />
    <glyph glyph-name="quotedblbase" unicode="&#x201e;" 
d="M56 163h166v-140q0 -93 -38 -140.5t-110 -47.5h-13v57q77 3 77 94v27h-82v150zM334 163h166v-140q0 -93 -38 -140.5t-110 -47.5h-13v57q77 3 77 94v27h-82v150z" />
    <glyph glyph-name="dagger" unicode="&#x2020;" 
d="M76 460v145l135 -33q33 -8 44 -15l3 4q-14 18 -22 51l-33 141h150l-33 -141q-8 -33 -22 -51l3 -4q11 7 44 15l135 33v-145l-142 35q-25 6 -39 15l-3 -4q7 -10 12 -26q44 -118 44 -126q0 -7 -4.5 -24.5t-12 -61t-12.5 -106.5l-16 -193h-58l-16 193q-5 63 -12.5 106.5
t-12 61t-4.5 24.5q0 8 44 126q5 16 12 26l-3 4q-14 -9 -39 -15z" />
    <glyph glyph-name="daggerdbl" unicode="&#x2021;" 
d="M76 462v148l136 -46q13 -4 43 -16l4 5q-22 58 -27 81l-27 123h146l-21 -101q-6 -26 -12 -46.5t-9.5 -30t-7.5 -17.5t-4 -9l4 -5q30 12 43 16l136 46v-148l-119 40q-22 8 -61 21l-3 -2q2 -7 6 -19t9.5 -27.5t8.5 -24.5q5 -17 12.5 -38t12 -33t4.5 -14q0 -4 -21.5 -67
t-27.5 -77l-5 -11l3 -4q8 3 47 17l134 45v-148l-123 42q-22 7 -55 19l-3 -3q14 -19 27 -84l25 -121h-146l25 121q13 65 27 84l-3 3q-33 -12 -55 -19l-123 -42v148l134 -45q39 -14 47 -17l3 4l-5 11q-6 14 -27.5 77t-21.5 67q0 2 4.5 14t12 33t12.5 38q3 9 8.5 24.5t9.5 27.5
t6 19l-3 2q-39 -13 -61 -21z" />
    <glyph glyph-name="bullet" unicode="&#x2022;" horiz-adv-x="590" 
d="M465 350q0 -70 -49.5 -120t-120.5 -50t-120 49.5t-50 120.5q0 71 49.5 120.5t120.5 49.5t120.5 -50t49.5 -120z" />
    <glyph glyph-name="ellipsis" unicode="&#x2026;" horiz-adv-x="1000" 
d="M84 163h166v-163h-166v163zM417 163h166v-163h-166v163zM750 163h166v-163h-166v163z" />
    <glyph glyph-name="perthousand" unicode="&#x2030;" horiz-adv-x="1091" 
d="M537 381q-36 0 -44.5 -33t-8.5 -133q0 -96 8.5 -128.5t44.5 -32.5q40 0 49.5 32.5t9.5 128.5q0 100 -9.5 133t-49.5 33zM537 446q152 0 152 -230q0 -227 -152 -227q-71 0 -108.5 57.5t-37.5 169.5t38 171t108 59zM101 11l204 262l28 -27l-105 -257h-127v22zM181 672
q-36 0 -44.5 -33t-8.5 -133q0 -96 8.5 -128.5t44.5 -32.5q40 0 49.5 32.5t9.5 128.5q0 100 -9.5 133t-49.5 33zM181 737q152 0 152 -230q0 -227 -152 -227q-71 0 -108.5 57.5t-37.5 169.5t38 171t108 59zM623 716l-205 -263l-27 29l107 255h125v-21zM904 446q152 0 152 -230
q0 -227 -152 -227q-71 0 -108.5 57.5t-37.5 169.5t38 171t108 59zM904 381q-36 0 -44.5 -33t-8.5 -133q0 -96 8.5 -128.5t44.5 -32.5q40 0 49.5 32.5t9.5 128.5q0 100 -9.5 133t-49.5 33z" />
    <glyph glyph-name="guilsinglleft" unicode="&#x2039;" horiz-adv-x="333" 
d="M149 436h125l-125 -156l129 -154h-126l-129 154z" />
    <glyph glyph-name="guilsinglright" unicode="&#x203a;" horiz-adv-x="333" 
d="M154 126h-126l125 154l-129 156h125l129 -156z" />
    <glyph glyph-name="fraction" unicode="&#x2044;" 
d="M398 757h111l-351 -785h-111z" />
    <glyph glyph-name="Euro" unicode="&#x20ac;" 
d="M513 705v-120q-49 43 -137 43q-130 0 -150 -136h254l-32 -94h-234q0 -4 -0.5 -13.5t-0.5 -15.5t0.5 -18t0.5 -16h212l-32 -94h-168q19 -140 151 -140q86 0 136 42v-121q-43 -32 -155 -32q-218 0 -257 251h-82l32 94h40q-1 8 -1 34q0 20 1 29h-72l32 94h49q39 248 258 248
q101 0 155 -35z" />
    <glyph glyph-name="afii61289" unicode="&#x2113;" horiz-adv-x="507" 
d="M440 181l49 -49q-71 -139 -203 -139q-85 0 -128 49t-50 127q0 8 -1 12q-51 -42 -53 -43l-30 64q75 65 82 72v267q0 129 49.5 193.5t125.5 64.5q67 0 101.5 -50t34.5 -130q0 -164 -198 -362l1 -45q1 -61 26.5 -93t66.5 -32q71 0 127 94zM219 541v-173q125 146 125 256
q0 89 -58 89q-28 0 -47.5 -40t-19.5 -132z" />
    <glyph glyph-name="trademark" unicode="&#x2122;" horiz-adv-x="833" 
d="M324 741v-90h-107v-322h-100v322h-107v90h314zM549 741l89 -239l89 239h156v-412h-108v270h-12l-81 -270h-88l-81 270h-12v-270h-98v412h146z" />
    <glyph glyph-name="Omega" unicode="&#x2126;" horiz-adv-x="705" 
d="M177 97v3q-53 53 -88.5 129.5t-35.5 169.5q0 143 85 240t217 97q69 0 126.5 -29t93.5 -77t55.5 -106t19.5 -118q0 -95 -36.5 -175t-89.5 -131v-3h140v-97h-258v71q53 37 88.5 115.5t35.5 194.5q0 105 -46.5 180t-129.5 75q-82 0 -132 -73.5t-50 -186.5
q0 -108 36.5 -189.5t88.5 -115.5v-71h-258v97h138z" />
    <glyph glyph-name="estimated" unicode="&#x212e;" horiz-adv-x="907" 
d="M871 354h-677q-5 0 -5 -4v-205q0 -13 9 -23q106 -111 255 -111q79 0 149 33t121 91h60q-57 -67 -144 -106t-187 -39q-172 0 -294.5 109.5t-122.5 264.5q0 156 122 266t295 110q174 0 296.5 -109.5t122.5 -266.5v-10zM717 381v206q0 15 -10 24q-109 107 -254 107
q-147 0 -254 -110q-10 -10 -10 -25v-202q0 -6 5 -6h519q4 0 4 6z" />
    <glyph glyph-name="partialdiff" unicode="&#x2202;" horiz-adv-x="571" 
d="M104 671l-34 90q74 58 180 58q114 0 192.5 -102t78.5 -291q0 -197 -73 -314.5t-204 -117.5q-65 0 -113.5 37.5t-70 92t-21.5 114.5q0 122 63 196.5t154 74.5q54 0 93 -27t55 -56h1q1 9 1 36q0 107 -48.5 183t-122.5 76q-72 0 -131 -50zM255 93h1q55 0 92.5 69.5
t45.5 160.5q-9 32 -40.5 61t-75.5 29q-52 0 -87.5 -53.5t-35.5 -125.5q0 -61 27.5 -101t72.5 -40z" />
    <glyph glyph-name="Delta" unicode="&#x2206;" horiz-adv-x="654" 
d="M28 0v71l233 670h138l226 -668v-73h-597zM148 96h352l-115 321q-7 28 -29.5 96.5t-28.5 92.5h-3q-5 -19 -25.5 -82t-28.5 -91z" />
    <glyph glyph-name="product" unicode="&#x220f;" horiz-adv-x="719" 
d="M692 617h-102v-717h-117v717h-229v-717h-116v717h-102v108h666v-108z" />
    <glyph glyph-name="summation" unicode="&#x2211;" horiz-adv-x="557" 
d="M537 -100h-513v77l247 336l-238 328v84h488v-101h-331v-4l213 -287l-236 -319v-3h370v-111z" />
    <glyph glyph-name="minus" unicode="&#x2212;" horiz-adv-x="833" 
d="M668 201h-504v104h504v-104z" />
    <glyph glyph-name="uni2215" unicode="&#x2215;" 
d="M398 757h111l-351 -785h-111z" />
    <glyph glyph-name="uni2219" unicode="&#x2219;" horiz-adv-x="278" 
d="M56 379h166v-163h-166v163z" />
    <glyph glyph-name="radical" unicode="&#x221a;" horiz-adv-x="592" 
d="M597 869l-224 -1015h-95l-151 459l-74 -29l-20 68l165 66l107 -338q8 -37 20 -87l1 -1q2 11 7 44t8 49l174 784h82z" />
    <glyph glyph-name="infinity" unicode="&#x221e;" horiz-adv-x="791" 
d="M741 300v-1q0 -78 -48 -125.5t-114 -47.5q-47 0 -90 26.5t-92 89.5q-47 -57 -90 -86.5t-100 -29.5q-64 0 -111 48t-47 120q0 75 47.5 123.5t119.5 48.5q53 0 96.5 -29t87.5 -85q53 60 80 79q48 36 105 35q68 0 112 -46t44 -120zM216 192h2q27 0 55.5 17.5t43.5 33.5
t43 49q-24 32 -33 42.5t-30 31.5t-41 28.5t-44 7.5q-44 0 -69.5 -30.5t-25.5 -78.5q0 -42 28.5 -71.5t70.5 -29.5zM578 402h-1q-18 0 -34.5 -6t-34.5 -21t-26.5 -23t-27.5 -30.5t-20 -23.5q49 -60 79.5 -83t68.5 -23q41 0 66 32t25 70q0 48 -26.5 78t-68.5 30z" />
    <glyph glyph-name="integral" unicode="&#x222b;" horiz-adv-x="395" 
d="M372 882l-14 -82q-20 9 -35 9q-33 0 -51 -27q-28 -36 -28 -176q0 -82 7 -246.5t7 -257.5q0 -142 -38 -208q-36 -71 -124 -71q-45 0 -75 17l15 85q25 -10 44 -10q29 0 44 21q29 40 29 165q0 94 -7.5 262t-7.5 254q0 89 13.5 142.5t45.5 88.5q42 46 114 46q32 0 61 -12z
" />
    <glyph glyph-name="approxequal" unicode="&#x2248;" horiz-adv-x="555" 
d="M471 461l42 -38q-23 -47 -57.5 -75.5t-76.5 -28.5q-47 0 -114 41q-54 34 -88 34q-21 0 -39.5 -12t-28.5 -25t-26 -37l-43 38q23 47 61 75.5t83 28.5q12 0 23.5 -2t20 -4.5t19.5 -7.5t16 -8t16 -9.5t13 -7.5q3 -2 10 -6t9.5 -5.5t9 -5.5t9 -5t8 -3.5t8.5 -3.5t8 -3
t8.5 -2.5t8 -1t9.5 -0.5q27 0 48 18.5t43 55.5zM471 275l42 -39q-51 -104 -135 -104q-19 0 -38 5.5t-33 12.5t-42 23q-54 35 -88 35q-21 0 -39.5 -12.5t-28 -24.5t-26.5 -37l-43 38q22 46 60.5 75t83.5 29q14 0 26.5 -2t26 -7.5t19.5 -8.5t20 -11t15 -9q4 -3 18 -11
t19 -10.5t15.5 -7.5t19 -6.5t17.5 -1.5q28 0 47.5 18t43.5 56z" />
    <glyph glyph-name="notequal" unicode="&#x2260;" horiz-adv-x="555" 
d="M405 526l-40 -92h140v-70h-166l-61 -140h227v-69h-254l-50 -116l-55 22l42 94h-139v69h165l61 140h-226v70h252l50 114z" />
    <glyph glyph-name="lessequal" unicode="&#x2264;" horiz-adv-x="555" 
d="M503 103l-448 228v75l448 229v-82l-379 -183v-2l379 -183v-82zM507 -7h-457v70h457v-70z" />
    <glyph glyph-name="greaterequal" unicode="&#x2265;" horiz-adv-x="555" 
d="M56 635l449 -229v-75l-448 -228v82l378 183v2l-379 183v82zM505 -7h-454v70h454v-70z" />
    <glyph glyph-name="lozenge" unicode="&#x25ca;" horiz-adv-x="592" 
d="M540 362l-200 -411h-94l-194 411l199 411h95zM435 359l-118 254q-12 33 -19 62h-3q-8 -31 -20 -62l-119 -249l119 -257q11 -29 18 -59h4q14 49 18 57z" />
    <glyph glyph-name="fi" unicode="&#xfb01;" horiz-adv-x="611" 
d="M398 753h148v-103h-148v103zM94 441h-72v84h72v58q0 89 33.5 129.5t111.5 40.5h89v-95h-43q-45 0 -62 -8t-22 -36q0 -2 -1.5 -33t-8.5 -56l13 -10q20 10 49 10h75v-84h-109v-441h-125v441zM533 525v-525h-125v525h125z" />
    <glyph glyph-name="fl" unicode="&#xfb02;" horiz-adv-x="611" 
d="M534 753v-753h-125v753h125zM94 441h-72v84h72v58q0 89 33.5 129.5t111.5 40.5h89v-95h-43q-45 0 -62 -8t-22 -36q0 -2 -1.5 -33t-8.5 -56l13 -10q20 10 49 10h75v-84h-109v-441h-125v441z" />
    <glyph glyph-name="a.superior" horiz-adv-x="386" 
d="M353 363h-102v34q-55 -44 -107 -44q-49 0 -81.5 31.5t-32.5 78.5q0 61 55 93.5t175 47.5v25q0 25 -18.5 39.5t-50.5 14.5q-63 0 -96 -48h-36v79q85 33 147 33q69 0 105 -35t36 -102q0 -225 6 -247zM260 448v32q0 52 6 73l-7 3q-66 -7 -100.5 -29t-34.5 -54
q0 -23 17 -37.5t43 -14.5q31 0 76 27z" />
    <glyph glyph-name="o.superior" horiz-adv-x="417" 
d="M209 425q40 0 61.5 33t21.5 96q0 61 -22 94.5t-61 33.5t-61.5 -33.5t-22.5 -94.5q0 -63 22 -96t62 -33zM386 554q0 -97 -46.5 -149t-130.5 -52q-85 0 -131 51.5t-46 149.5q0 96 46 147.5t131 51.5q84 0 130.5 -52t46.5 -147z" />
    <glyph glyph-name="one.superior" horiz-adv-x="367" 
d="M234 731v-308q0 -56 -4 -73l4 -6q12 6 91 6v-59h-275v59q79 0 91 -6l6 6q-6 20 -6 33v226q0 50 6 63l-6 5q-14 -5 -91 -5v59h184z" />
    <glyph glyph-name="two.superior" horiz-adv-x="367" 
d="M339 368v-76h-311v32q0 13 2.5 24.5t5.5 20.5t11.5 20t13 17t18 18.5t19 17t23.5 19t24 19.5q47 40 69 68.5t22 62.5q0 28 -16 44t-45 16q-57 0 -58 -81h-89q0 147 154 147q68 0 108.5 -36t40.5 -91q0 -43 -24 -78.5t-74 -72.5q-22 -16 -71 -51t-74 -54l10 -10
q42 24 130 24h111z" />
    <glyph glyph-name="three.superior" horiz-adv-x="367" 
d="M35 384h36q17 -31 82 -31q40 0 63 19.5t23 49.5q0 69 -106 69v65q97 4 97 61q0 23 -19 39t-49 16q-48 0 -85 -39h-32v78q70 26 125 26q70 0 110.5 -29.5t40.5 -78.5q0 -35 -23 -59t-65 -31v-14q99 -13 99 -103q0 -62 -46 -99.5t-125 -37.5q-64 0 -126 21v78z" />
    </font>
</defs>
</svg>
