<?xml version="1.0" standalone="no"?><!DOCTYPE svg PUBLIC "-//W3C//DTD SVG 1.1//EN" "http://www.w3.org/Graphics/SVG/1.1/DTD/svg11.dtd" ><svg xmlns="http://www.w3.org/2000/svg"><metadata></metadata><defs><font id="1.003;SubUrbanRegular" horiz-adv-x="1062"><font-face font-family="Sub Urban" font-weight="400" font-stretch="normal" units-per-em="1000" panose-1="0 0 0 0 0 0 0 0 0 0" ascent="950" descent="-200" x-height="0" bbox="-142 -571 1036 1188" underline-thickness="0" underline-position="0" unicode-range="U+0000-ffe1" /><missing-glyph horiz-adv-x="718"  /><glyph glyph-name="" unicode="" d="" /><glyph glyph-name="" unicode="" d="" /><glyph glyph-name="" unicode=" " d="" /><glyph glyph-name="" unicode="!" d="M214 773 q-9 1 -20 -5 q-10 -6 -13 -14 q-1 -6 -3 -12 q-2 -6 -2 -12 q0 -48 -3 -95 q-2 -47 -15 -93 q-8 -68 -19 -135 q-11 -67 -23 -133 q-1 -9 -3 -16 q0 -5 0 -9 q0 -10 7 -19 q7 -10 15 -13 q9 -2 17 1 q7 3 13 9 q6 5 12 12 q5 7 7 14 q6 24 12 48 q5 24 8 48 q3 31 7 62 q4 30 9 60 q10 65 18 131 q7 65 12 131 q0 13 -10 25 q-11 11 -26 15 l0 0 ZM69 10 q-11 -5 -21 -12 q-11 -7 -16 -20 q-6 -12 -3 -21 q4 -10 12 -16 q8 -6 18 -9 q4 -2 8 -2 q12 -3 23 4 q11 6 15 18 q1 6 2 12 q1 5 2 9 q0 4 0 7 q0 2 0 4 q-1 17 -13 24 q-11 8 -27 2 l0 0 Z" /><glyph glyph-name="" unicode="&quot;" d="M305 788 q2 7 2 15 q-1 9 -2 17 q0 6 -4 11 q-4 5 -10 7 q-6 3 -12 2 q-6 -2 -11 -6 q-12 -9 -20 -20 q-7 -12 -12 -26 q-8 -24 -11 -48 q-4 -25 -10 -48 q-9 -28 -12 -58 q-3 -30 -3 -68 q1 -12 2 -30 q1 -19 4 -40 q2 -12 6 -23 q5 -12 9 -23 q2 -5 8 -9 q7 -4 12 -3 q6 1 12 3 q5 3 8 9 q3 5 6 11 q2 5 3 11 q1 17 -3 33 q-2 12 -3 24 q-1 12 1 24 q8 59 16 118 q8 59 24 117 l0 0 ZM99 829 q-10 2 -22 -2 q-11 -4 -15 -11 q-2 -3 -4 -7 q-9 -21 -13 -43 q-3 -22 -4 -45 q-3 -57 -4 -115 q-1 -58 -9 -115 q-1 -7 3 -15 q3 -8 7 -15 q5 -8 17 -9 q12 -1 19 6 q5 4 9 10 q4 5 5 10 q6 39 12 77 q6 39 7 78 q0 41 2 82 q2 41 10 82 q1 10 -5 20 q-6 9 -15 12 l0 0 Z" /><glyph glyph-name="" unicode="#" d="M948 600 q-40 3 -97 2 q-58 -1 -92 -6 q-33 -6 -66 -4 q-7 1 -14 7 q-6 6 -6 15 q-3 41 10 81 q6 18 12 35 q6 18 10 36 q8 38 19 76 q11 37 26 74 q5 11 1 22 q-5 12 -16 21 q-4 2 -7 4 q-9 5 -21 2 q-12 -2 -16 -11 q-6 -13 -11 -26 q-6 -13 -10 -27 q-9 -30 -17 -60 q-7 -30 -17 -59 q-12 -35 -21 -71 q-8 -36 -12 -74 q-2 -20 -7 -40 q-3 -9 -9 -14 q-6 -6 -14 -7 q-45 -8 -90 -15 q-7 0 -15 6 q-7 6 -8 13 q-3 19 -1 37 q2 19 6 37 q7 32 9 65 q2 33 2 66 q0 16 -9 27 q-9 11 -23 18 q-9 5 -20 0 q-10 -5 -12 -15 q-3 -16 -4 -32 q-2 -66 -3 -132 q-1 -21 -5 -41 q-4 -20 -11 -40 q-4 -11 -11 -17 q-8 -7 -19 -8 q-82 -12 -162 -34 q-29 -8 -60 -15 q-30 -7 -61 -9 q-8 -1 -15 -4 q-8 -3 -15 -7 q-7 -4 -12 -13 q-5 -8 -2 -15 q2 -5 6 -10 q3 -6 8 -9 q5 -4 11 -6 q6 -1 12 -2 q18 -4 37 -3 q18 1 37 6 q32 8 64 15 q32 8 63 19 q18 6 36 9 q18 2 37 2 q12 0 20 -7 q8 -7 8 -17 q1 -10 1 -21 q0 -10 -1 -20 q-1 -13 -2 -25 q-2 -12 -4 -24 q-3 -25 -24 -30 q-34 -8 -69 -15 q-34 -8 -67 -18 q-67 -22 -136 -34 q-12 -2 -24 -6 q-8 -2 -13 -9 q-5 -8 -4 -16 q1 -8 7 -14 q6 -6 14 -8 q21 -5 41 2 q19 7 39 11 q20 5 41 6 q10 0 20 2 q10 3 20 6 q20 5 40 10 q20 5 40 10 q10 2 21 2 q10 1 20 1 q8 0 15 -7 q6 -7 6 -15 q-1 -18 -4 -36 q-2 -19 -2 -37 q1 -19 3 -37 q3 -19 5 -37 q1 -10 1 -21 q1 -10 3 -20 q3 -12 9 -23 q6 -10 17 -18 q5 -3 12 -4 q7 -1 11 3 q4 4 8 10 q4 5 4 10 q-1 14 -5 28 q-4 14 -4 28 q-1 87 1 174 q0 15 9 26 q9 11 22 18 q26 14 54 22 q27 8 56 14 q4 0 10 -5 q6 -4 7 -10 q1 -2 1 -4 q1 -2 1 -4 q2 -78 3 -157 q0 -17 -6 -32 q-6 -15 -16 -29 q-5 -9 2 -18 q6 -10 18 -9 q6 0 12 2 q6 2 11 5 q20 13 32 31 q11 19 13 43 q1 29 1 58 q1 29 1 58 q0 8 0 17 q-1 8 -1 16 q0 12 1 25 q0 13 6 23 q5 10 19 15 q15 5 31 11 q15 5 28 18 q1 1 1 3 q1 2 0 4 q0 2 -1 4 q-2 1 -3 2 q-15 5 -29 0 q-14 -5 -28 -6 q-8 0 -15 5 q-7 5 -7 13 q-1 37 1 74 q0 14 9 23 q8 9 20 13 q19 8 40 12 q30 6 61 10 q30 5 60 13 q30 7 60 14 q30 8 57 23 q-1 2 -2 4 q-1 2 -2 2 l0 0 ZM570 400 q-1 -7 -7 -14 q-7 -7 -14 -9 q-44 -10 -88 -19 q-14 -2 -24 5 q-9 7 -10 20 q-1 46 16 88 q3 6 7 10 q5 5 10 7 q23 11 47 13 q24 3 49 -1 q4 -1 9 -7 q5 -7 6 -11 q2 -21 3 -39 q-2 -23 -4 -43 l0 0 Z" /><glyph glyph-name="" unicode="$" d="M214 -36 q4 -34 30 -57 q4 -4 10 -6 q6 -2 12 0 q6 1 11 6 q4 5 5 10 q0 2 1 4 q1 3 1 5 q-5 58 4 115 q8 57 14 114 q1 8 4 16 q6 17 22 24 q19 7 39 11 q39 9 74 26 q35 18 69 36 q4 2 7 5 q3 3 5 6 q6 9 8 19 q2 10 -3 20 q-4 10 -11 17 q-7 7 -18 10 q-51 15 -105 21 q-10 1 -20 4 q-10 2 -20 5 q-6 2 -10 7 q-4 5 -5 11 q-2 20 3 36 q6 17 24 28 q16 10 32 18 q17 9 33 18 q6 3 10 7 q5 3 10 7 q8 7 9 18 q1 10 -5 20 q-11 18 -23 21 q-12 4 -32 -5 q-15 -7 -30 -13 q-5 -1 -11 4 q-6 4 -7 10 q-1 4 -1 8 q-1 45 -1 90 q0 46 8 91 q3 12 -1 24 q-3 12 -11 22 q-4 5 -13 8 q-9 2 -17 1 q-6 -2 -10 -7 q-4 -4 -7 -10 q-3 -7 -4 -15 q-3 -50 -8 -99 q-5 -49 -4 -99 q0 -14 -2 -29 q-1 -14 -3 -28 q-1 -9 -6 -16 q-4 -6 -11 -11 q-11 -7 -22 -12 q-56 -27 -111 -54 q-18 -10 -35 -22 q-8 -6 -8 -18 q-1 -12 5 -19 q4 -5 8 -9 q5 -5 10 -8 q19 -13 40 -21 q21 -9 43 -13 q14 -3 28 -5 q15 -2 29 -5 q4 -1 6 -4 q2 -4 1 -9 q-1 -8 -2 -16 q-3 -19 -14 -29 q-10 -11 -29 -14 q-15 -2 -29 -4 q-14 -2 -28 -6 q-17 -4 -33 -3 q-15 1 -31 8 q-8 3 -16 0 q-8 -2 -14 -9 q-15 -20 -28 -40 q-5 -9 1 -20 q5 -10 15 -14 q6 -1 12 -3 q6 -1 12 -1 q41 4 82 11 q10 1 20 3 q10 2 20 4 q19 2 28 -6 q10 -8 8 -26 q-2 -24 -5 -49 q-2 -18 -5 -35 q-2 -17 -4 -29 q0 -17 0 -29 q-1 -12 0 -22 l0 0 ZM339 270 q-6 -2 -10 3 q-3 5 -2 13 q2 8 5 16 q3 8 8 14 q6 5 15 6 q23 1 35 -2 q11 -3 41 -18 q-21 -14 -45 -19 q-24 -6 -47 -13 l0 0 ZM248 403 q3 0 6 -3 q4 -2 5 -5 q2 -4 0 -7 q-2 -4 -7 -5 q-9 -3 -15 -3 q-5 1 -22 5 q12 17 33 18 l0 0 Z" /><glyph glyph-name="" unicode="%" d="M537 704 q0 14 -10 25 q-10 11 -25 14 q-6 1 -12 -1 q-7 -3 -10 -8 q-2 -3 -4 -7 q-2 -3 -3 -7 q-12 -82 -37 -160 q-24 -79 -56 -155 q-49 -122 -108 -240 q-17 -33 -32 -67 q-16 -33 -31 -67 q-9 -23 -15 -47 q-2 -6 -2 -12 q0 -6 0 -12 q1 -13 11 -21 q9 -9 22 -10 q22 0 35 11 q12 12 12 33 q-1 19 3 37 q3 18 12 35 q12 28 25 56 q12 28 28 55 q8 14 15 29 q6 16 12 31 q5 11 10 23 q4 11 10 22 q20 39 37 78 q16 40 32 80 q53 130 80 268 q1 4 1 8 q0 4 0 9 l0 0 ZM263 533 q-3 8 -6 16 q-4 10 -11 16 q-8 7 -18 11 q-9 5 -19 6 q-10 2 -21 0 q-28 -6 -55 -14 q-26 -7 -43 -23 q-17 -17 -22 -44 q-2 -12 -7 -24 q-5 -11 -12 -21 q-9 -14 -17 -28 q-7 -15 -3 -32 q4 -16 17 -28 q11 -10 26 -15 q14 -5 35 -5 q20 -1 46 8 q27 9 54 26 q48 29 62 63 q15 34 -6 88 l0 0 ZM118 408 q-1 0 -3 2 q-1 1 -3 3 q-2 4 -1 8 q0 2 0 4 q0 2 2 3 q36 39 73 77 q2 2 7 1 q5 -1 8 -3 q4 -4 8 -9 q3 -5 6 -10 q-2 -6 -3 -13 q-2 -6 -5 -11 q-16 -23 -38 -36 q-22 -13 -51 -16 l0 0 ZM636 176 q-29 34 -59 67 q-10 10 -26 9 q-15 -2 -24 -14 q-11 -18 -18 -37 q-6 -19 -6 -40 q0 -7 3 -15 q3 -8 8 -15 q17 -22 41 -32 q23 -10 49 -11 q8 1 14 3 q6 1 12 3 q12 3 19 13 q6 10 5 24 q-3 25 -18 45 l0 0 Z" /><glyph glyph-name="" unicode="&amp;" d="M416 613 q-6 13 -18 16 q-9 3 -19 5 q-11 2 -21 4 q-12 -2 -24 -3 q-13 -2 -24 -5 q-28 -9 -53 -23 q-86 -49 -171 -99 q-12 -8 -24 -17 q-11 -8 -22 -17 q-13 -12 -12 -30 q1 -17 15 -28 q30 -23 67 -28 q33 -5 66 -9 q9 -1 10 -10 q0 -2 -1 -4 q0 -2 -2 -4 q-20 -18 -37 -38 q-16 -21 -27 -46 q-4 -10 0 -20 q4 -10 14 -14 q8 -2 16 -4 q8 -2 16 -1 q27 3 52 11 q26 8 50 20 q9 4 13 13 q4 10 2 21 q-1 4 -3 8 q-2 6 -2 12 q1 6 6 10 q13 11 26 21 q5 5 5 14 q0 8 -4 16 q-5 7 -10 13 q-6 6 -14 9 q-24 8 -47 14 q-24 7 -49 7 q-12 1 -24 3 q-13 3 -25 6 q-5 2 -10 5 q-5 3 -10 7 q-2 2 3 9 q4 6 11 10 q34 20 68 39 q34 19 67 40 q50 31 108 38 q8 1 15 4 q8 2 16 4 q5 2 7 9 q2 6 0 12 l0 0 ZM247 661 q3 -2 7 -3 q13 -4 24 3 q11 6 13 19 q1 47 1 93 q-1 47 10 90 q0 7 0 12 q0 5 -1 9 q-1 12 -10 21 q-10 9 -22 12 q-12 1 -22 -7 q-10 -8 -13 -21 q-2 -4 -3 -8 q-1 -4 -2 -8 q-10 -77 -19 -155 q-2 -19 7 -33 q10 -15 30 -24 l0 0 ZM191 24 q-11 6 -24 2 q-13 -4 -18 -15 q-2 -5 -4 -11 q-2 -6 -2 -12 q-2 -27 -4 -53 q-2 -26 -10 -51 q-2 -11 2 -20 q5 -10 13 -16 q13 -8 28 -3 q15 4 21 17 q11 31 15 64 q3 32 4 65 q0 10 -6 18 q-6 9 -15 15 l0 0 Z" /><glyph glyph-name="" unicode="&#39;" d="M85 627 q-1 16 -1 33 q-1 16 -2 33 q-1 5 -5 11 q-3 5 -8 9 q-8 7 -19 7 q-10 1 -20 -4 q-10 -4 -16 -12 q-6 -8 -7 -19 q0 -17 2 -33 q3 -16 -1 -33 q-12 -42 -4 -82 q7 -40 21 -79 q3 -9 15 -11 q12 -3 19 5 q4 4 8 9 q4 5 6 11 q3 7 6 15 q2 8 2 16 q2 23 2 46 q1 22 2 45 q0 16 0 33 l0 0 Z" /><glyph glyph-name="" unicode="(" d="M243 6 q-29 1 -58 5 q-27 5 -50 27 q-22 23 -23 60 q1 17 3 33 q2 16 8 32 q11 31 19 63 q32 133 96 254 q21 42 44 84 q22 42 52 79 q4 5 6 11 q2 6 2 12 q1 11 -3 20 q-4 9 -14 15 q-9 6 -19 6 q-10 -1 -20 -6 q-17 -12 -30 -28 q-13 -16 -22 -35 q-28 -52 -56 -105 q-29 -53 -52 -108 q-20 -50 -39 -100 q-19 -50 -35 -101 q-9 -32 -16 -64 q-6 -33 -8 -66 q-2 -49 23 -85 q26 -36 75 -49 q57 -17 84 -17 q27 0 86 15 q20 5 40 10 q20 5 40 10 q5 2 10 6 q4 5 8 9 q2 1 2 4 q0 2 0 4 q-1 2 -2 3 q-2 2 -4 2 q-22 7 -45 4 q-22 -3 -45 -4 q-14 0 -29 0 q-14 -1 -28 0 l0 0 Z" /><glyph glyph-name="" unicode=")" d="M301 340 q-7 36 -10 72 q-3 37 -23 71 q-5 8 -6 19 q-2 10 -5 20 q-6 26 -15 52 q-8 25 -23 48 q-24 40 -48 81 q-24 41 -59 74 q-9 8 -19 16 q-3 3 -7 5 q-12 7 -27 4 q-16 -2 -25 -13 q-7 -11 -6 -23 q1 -13 9 -23 q11 -12 23 -23 q29 -28 50 -60 q21 -33 36 -70 q6 -15 13 -30 q7 -15 13 -30 q29 -68 40 -138 q11 -70 -5 -144 q-1 -8 -2 -16 q-6 -52 -22 -100 q-16 -49 -43 -94 q-19 -34 -38 -68 q-18 -34 -42 -66 q-2 -2 -1 -6 q1 -5 3 -7 q3 -3 7 -4 q4 -1 8 -1 q6 1 12 4 q6 2 10 6 q93 78 144 188 q7 15 12 31 q21 79 40 159 q3 13 5 23 q1 11 2 16 q0 11 0 17 q0 6 -1 10 l0 0 Z" /><glyph glyph-name="" unicode="*" d="M409 563 q-7 2 -16 -2 q-8 -4 -12 -11 q-2 -5 -5 -11 q-2 -6 -4 -12 q-2 -10 -4 -20 q-2 -10 -4 -20 q-1 -5 -4 -7 q-3 -2 -8 -1 q-2 0 -4 1 q-2 1 -2 3 q-21 45 -41 89 q-7 16 -21 25 q-16 9 -32 1 q-7 -4 -11 -12 q-3 -8 -2 -16 q8 -36 19 -71 q11 -36 26 -70 q17 -37 33 -75 q4 -12 -1 -23 q-6 -11 -19 -16 q-16 -5 -32 -10 q-16 -4 -31 -11 q-43 -20 -87 -37 q-44 -17 -89 -33 q-5 -2 -11 -6 q-5 -4 -10 -7 q-10 -8 -9 -21 q0 -13 10 -22 q9 -7 19 -10 q9 -2 20 2 q25 10 49 20 q25 10 50 20 q25 9 51 18 q25 8 50 16 q10 3 15 -5 q1 -1 1 -4 q0 -2 -1 -3 q-17 -28 -34 -56 q-13 -22 -31 -38 q-17 -17 -42 -25 q-12 -5 -16 -17 q-3 -13 1 -26 q8 -21 24 -28 q15 -7 34 3 q21 13 42 26 q2 1 4 1 q2 -1 3 -2 q1 -1 2 -3 q1 -2 1 -3 q-1 -6 -3 -12 q-2 -6 -2 -12 q-1 -17 10 -25 q12 -9 28 -2 q4 1 7 3 q16 8 26 19 q9 12 12 31 q3 28 8 56 q6 29 12 57 q2 10 6 19 q5 10 9 19 q2 4 6 4 q4 0 8 -3 q35 -40 70 -81 q15 -18 33 -31 q18 -13 40 -20 q11 -4 23 1 q11 4 20 15 q4 7 3 16 q-1 10 -6 14 q-9 6 -18 11 q-9 5 -17 10 q-7 4 -14 9 q-8 4 -13 10 q-18 23 -35 46 q-18 22 -31 48 q-4 9 -1 17 q2 7 10 11 q50 19 101 33 q52 15 105 22 q98 13 192 45 q6 2 11 5 q5 3 11 6 q4 3 6 10 q2 6 0 12 q-2 6 -7 11 q-5 5 -10 5 q-16 -2 -32 -4 q-27 -6 -53 -12 q-26 -6 -52 -8 q-58 -4 -115 -14 q-57 -10 -113 -24 q-12 -3 -24 -5 q-8 -2 -15 4 q-6 7 -3 15 q26 73 53 147 q6 15 11 31 q2 8 -3 19 q-5 12 -13 16 q-9 5 -20 3 q-11 -1 -18 -8 q-9 -8 -17 -18 q-5 -6 -10 -13 q-5 -7 -10 -15 q-19 8 -37 16 l0 0 Z" /><glyph glyph-name="" unicode="+" d="M192 62 q1 -25 15 -47 q5 -6 12 -11 q8 -6 19 -3 q12 3 15 12 q2 6 4 11 q2 6 2 12 q0 19 0 37 q-1 19 -1 37 q-1 21 1 42 q2 20 7 40 q4 13 11 22 q7 9 21 12 q24 5 48 10 q24 6 49 9 q26 3 53 8 q26 5 52 10 q10 1 20 6 q9 4 17 11 q5 6 7 16 q2 9 -2 15 q-4 4 -9 8 q-6 4 -11 4 q-16 -1 -32 -3 q-17 -2 -33 -2 q-78 -1 -155 -16 q-8 -1 -12 2 q-5 4 -5 11 q5 49 9 98 q0 6 -1 12 q-1 6 -2 12 q-2 11 -13 18 q-11 8 -25 8 q-10 -1 -18 -9 q-9 -7 -10 -17 q-1 -12 -2 -24 q-1 -13 -1 -25 q0 -23 -4 -45 q-5 -22 -11 -44 q-7 -26 -32 -34 q-32 -9 -64 -18 q-13 -3 -27 -7 q-14 -4 -28 -8 q-6 -2 -11 -5 q-5 -4 -10 -8 q-7 -6 -7 -18 q0 -11 7 -18 q11 -8 22 -11 q12 -4 24 -2 q23 4 45 10 q22 5 44 10 q5 0 11 -4 q6 -5 7 -9 q2 -29 4 -58 q0 -14 -1 -28 q0 -15 1 -29 l0 0 Z" /><glyph glyph-name="" unicode="," d="M186 166 q-18 -1 -26 -18 q-3 -5 -5 -11 q-2 -6 -2 -12 q-1 -27 -7 -53 q-6 -26 -14 -52 q-5 -18 -9 -36 q-5 -18 -11 -35 q-14 -43 -31 -85 q-13 -30 -27 -60 q-13 -30 -26 -61 q-1 -2 2 -6 q3 -3 6 -6 q1 -2 3 -2 q3 0 5 0 q4 1 7 3 q30 27 53 58 q23 32 41 66 q19 35 31 73 q12 37 23 74 q9 31 15 58 q6 27 9 44 q4 31 -8 46 q-11 15 -29 15 l0 0 Z" /><glyph glyph-name="" unicode="-" d="M242 276 q-92 -19 -184 -41 q-4 -1 -8 -2 q-4 -2 -7 -5 q-9 -8 -14 -19 q-3 -7 1 -15 q4 -9 11 -14 q7 -5 14 -7 q8 -2 17 0 q52 11 104 24 q99 27 198 55 q4 1 9 8 q4 6 4 11 q-1 7 -8 13 q-7 7 -15 7 q-10 -1 -21 -2 q-11 -1 -27 -2 q-15 -2 -34 -4 q-20 -3 -40 -7 l0 0 Z" /><glyph glyph-name="" unicode="." d="M28 57 q-2 -21 9 -37 q10 -15 28 -19 q21 -3 37 10 q16 13 20 37 q2 17 -11 31 q-14 13 -36 16 q-17 1 -31 -10 q-14 -12 -16 -28 l0 0 Z" /><glyph glyph-name="" unicode="/" d="M460 773 q-11 4 -24 0 q-13 -3 -20 -13 q-26 -37 -53 -74 q-6 -8 -10 -18 q-4 -9 -4 -20 q0 -14 -3 -29 q-2 -14 -10 -27 q-23 -41 -46 -82 q-23 -42 -47 -82 q-35 -56 -71 -112 q-35 -55 -71 -111 q-18 -28 -32 -57 q-15 -30 -29 -60 q-7 -17 -10 -35 q-3 -18 -2 -37 q1 -11 5 -20 q5 -9 13 -16 q13 -11 27 -9 q13 2 22 16 q5 9 11 18 q5 9 9 18 q8 19 14 39 q7 19 16 38 q11 20 24 38 q12 19 23 39 q41 76 84 151 q44 75 87 150 q34 59 64 120 q29 61 60 122 q1 3 1 8 q1 4 1 8 q0 10 -9 21 q-9 11 -20 16 l0 0 Z" /><glyph glyph-name="" unicode="0" d="M280 586 q-10 9 -16 19 q-6 10 -10 22 q-2 5 -7 10 q-4 5 -8 9 q-3 2 -7 3 q-5 1 -9 0 q-4 0 -8 -2 q-4 -1 -6 -4 q-13 -14 -29 -23 q-15 -9 -34 -15 q-24 -8 -42 -24 q-19 -16 -31 -38 q-2 -3 -2 -8 q1 -4 2 -7 q3 -3 6 -5 q4 -1 8 -2 q4 0 8 2 q4 1 7 3 q7 4 14 9 q6 6 13 10 q6 4 12 4 q7 0 11 -4 q4 -6 5 -11 q1 -6 -1 -12 q0 -4 -1 -8 q-11 -31 -22 -63 q-11 -31 -23 -61 q-11 -27 -19 -55 q-9 -27 -17 -55 q-8 -30 -15 -60 q-7 -30 -20 -59 q-9 -20 -10 -43 q-2 -23 0 -46 q0 -8 2 -16 q2 -8 6 -16 q17 -43 57 -68 q11 -7 23 -10 q11 -4 24 -3 q8 0 16 1 q9 0 17 2 q42 12 79 35 q36 22 64 57 q9 11 19 22 q9 11 18 23 q26 33 41 71 q16 37 13 81 q0 8 0 16 q0 93 -30 173 q-30 81 -98 146 l0 0 ZM360 258 q0 -42 -16 -77 q-16 -34 -41 -65 q-7 -8 -15 -15 q-8 -7 -14 -15 q-21 -27 -50 -43 q-28 -15 -60 -25 q-30 -9 -55 7 q-25 17 -30 48 q-1 8 -1 16 q-1 9 1 17 q5 30 11 60 q6 30 15 60 q16 48 32 97 q17 49 31 98 q19 63 55 120 q4 6 13 8 q8 1 16 -3 q7 -5 14 -10 q7 -4 12 -10 q17 -23 33 -47 q15 -25 26 -51 q14 -34 18 -66 q4 -32 5 -56 q0 -19 -1 -30 q0 -11 1 -18 l0 0 Z" /><glyph glyph-name="" unicode="1" d="M28 64 q-2 -18 3 -36 q5 -18 14 -35 q6 -11 16 -18 q10 -7 23 -9 q5 0 8 2 q3 2 6 6 q5 7 7 15 q1 8 -2 16 q-13 33 -14 68 q-1 35 2 70 q1 20 4 41 q14 93 32 186 q17 93 41 185 q3 12 -2 23 q-5 11 -17 18 q-11 7 -24 3 q-13 -4 -17 -16 q-3 -5 -5 -11 q-2 -6 -2 -12 q-2 -25 -11 -48 q-8 -22 -25 -42 q-5 -7 -6 -15 q0 -8 2 -17 q14 -65 -7 -129 q-14 -42 -17 -85 q-4 -43 -6 -86 q-2 -18 -1 -37 q1 -18 -2 -37 l0 0 Z" /><glyph glyph-name="" unicode="2" d="M165 108 q-5 -1 -8 0 q-4 1 -6 5 q-1 2 0 4 q1 3 2 4 q23 20 46 41 q23 21 47 40 q27 20 50 43 q24 23 41 51 q11 18 27 32 q28 27 41 61 q12 35 17 72 q3 15 -4 28 q-7 12 -20 21 q-20 15 -46 17 q-48 4 -94 -5 q-46 -8 -90 -31 q-43 -24 -85 -50 q-9 -5 -17 -12 q-8 -6 -16 -13 q-10 -9 -8 -21 q1 -12 13 -21 q9 -7 19 -9 q9 -2 19 2 q23 11 44 24 q14 9 27 18 q14 10 28 18 q33 20 68 28 q36 8 74 3 q8 -2 14 -9 q5 -7 3 -15 q-3 -10 -6 -20 q-3 -10 -8 -18 q-22 -32 -46 -63 q-23 -31 -56 -55 q-17 -12 -32 -26 q-15 -14 -30 -29 q-19 -19 -40 -36 q-21 -16 -43 -31 q-9 -6 -17 -12 q-9 -5 -17 -11 q-7 -5 -12 -12 q-6 -6 -11 -12 q-7 -11 -5 -23 q3 -13 13 -21 q20 -14 41 -21 q22 -6 45 -4 q53 5 106 15 q52 10 103 30 q21 8 42 15 q22 7 44 11 q22 5 44 12 q22 6 44 10 q8 1 16 4 q7 4 15 7 q9 5 13 14 q5 10 3 21 q-3 12 -13 21 q-11 8 -22 7 q-5 0 -9 0 q-4 -1 -8 -2 q-37 -18 -77 -29 q-39 -12 -78 -25 q-32 -11 -64 -19 q-31 -7 -63 -14 q-30 -5 -58 -10 l0 0 Z" /><glyph glyph-name="" unicode="3" d="M269 359 q29 21 54 46 q24 24 46 52 q12 17 22 35 q16 32 6 59 q-10 28 -43 43 q-11 5 -23 8 q-27 4 -53 3 q-27 -1 -53 -10 q-30 -10 -58 -22 q-28 -13 -52 -32 q-33 -25 -66 -50 q-5 -5 -6 -15 q0 -9 4 -16 q15 -22 31 -26 q16 -3 31 8 q17 11 33 24 q17 12 34 24 q20 15 42 26 q21 10 43 14 q22 4 45 0 q6 -1 10 -7 q3 -6 1 -11 q-42 -68 -111 -109 q-36 -23 -73 -45 q-38 -23 -79 -38 q-5 -2 -10 -6 q-5 -4 -9 -9 q-8 -8 -7 -23 q1 -14 10 -21 q14 -9 29 -15 q24 -8 49 -10 q24 -1 49 0 q79 1 157 0 q6 0 12 -2 q6 -2 12 -4 q1 0 2 -2 q1 -2 2 -3 q0 -2 0 -4 q0 -3 -1 -4 q-16 -20 -37 -33 q-22 -12 -43 -24 q-44 -27 -89 -52 q-45 -26 -90 -52 q-14 -8 -27 -19 q-7 -5 -9 -16 q-2 -11 2 -21 q8 -18 23 -23 q15 -6 31 3 q9 5 18 11 q8 5 18 9 q45 21 86 48 q42 27 87 48 q13 6 25 15 q11 8 23 18 q22 18 40 41 q17 23 30 49 q4 7 3 15 q-1 8 -4 16 q-12 24 -36 33 q-23 10 -47 16 q-24 6 -49 6 q-41 0 -82 2 q-3 1 -6 3 q-3 2 -6 4 q13 15 28 25 q16 10 31 20 l0 0 Z" /><glyph glyph-name="" unicode="4" d="M203 74 q2 -62 4 -124 q1 -25 10 -48 q10 -23 25 -43 q4 -4 10 -6 q6 -2 12 -3 q7 0 14 7 q7 8 8 14 q1 4 2 9 q0 4 -1 8 q-9 23 -10 48 q-2 24 -2 49 q1 43 4 86 q4 43 8 86 q4 40 14 78 q9 38 15 76 q1 4 2 8 q2 4 4 8 q3 8 8 14 q6 6 14 9 q48 18 95 39 q48 20 97 34 q8 3 15 8 q9 6 14 15 q5 8 6 19 q0 11 -6 19 q-6 8 -16 13 q-10 5 -20 6 q-10 1 -19 -5 q-32 -19 -67 -33 q-35 -13 -68 -30 q-3 -2 -7 -3 q-4 0 -8 -1 q-5 -1 -12 3 q-6 4 -7 9 q-1 9 -1 17 q-1 8 0 16 q3 14 7 28 q5 14 8 28 q8 43 19 84 q12 42 28 82 q2 4 2 8 q1 4 1 8 q2 14 -10 26 q-12 12 -26 12 q-9 -2 -15 -7 q-6 -5 -9 -13 q-9 -25 -17 -51 q-7 -26 -9 -53 q-2 -29 -15 -55 q-12 -24 -20 -49 q-8 -25 -13 -52 q-6 -48 -20 -64 q-14 -16 -62 -35 q-12 -5 -24 -9 q-11 -3 -24 -4 q-4 0 -8 0 q-4 0 -8 2 q-3 2 -6 5 q-3 4 -3 7 q17 63 36 126 q3 12 -1 26 q-5 13 -21 23 q-12 6 -25 2 q-12 -4 -16 -16 q-13 -52 -32 -102 q-8 -23 -15 -47 q-7 -24 -13 -48 q-4 -21 12 -41 q16 -21 38 -23 q18 -1 37 0 q18 1 36 7 q31 11 63 20 q6 2 11 -3 q4 -4 2 -11 q-23 -84 -22 -172 q1 -20 0 -41 q-1 0 -3 0 l0 0 Z" /><glyph glyph-name="" unicode="5" d="M58 101 q-10 -1 -18 -8 q-8 -7 -11 -18 q-2 -9 1 -16 q4 -8 10 -13 q9 -9 20 -14 q11 -6 24 -7 q14 -1 29 -1 q14 1 28 6 q31 12 62 24 q23 9 43 23 q21 15 39 31 q21 20 40 42 q19 21 36 44 q33 48 20 97 q-12 48 -49 70 q-26 14 -52 23 q-27 9 -57 7 q-14 0 -29 -2 q-14 -1 -28 -6 q-9 -4 -19 -6 q-11 -1 -21 0 q-6 1 -11 6 q-6 5 -5 10 q3 22 14 38 q11 16 35 21 q16 3 32 7 q16 4 32 7 q34 7 68 15 q35 8 70 12 q16 1 32 4 q16 3 33 7 q10 2 18 14 q7 12 7 24 q-1 16 -11 27 q-11 11 -25 10 q-46 -5 -90 -13 q-28 -5 -57 -12 q-28 -6 -56 -10 q-25 -4 -49 -10 q-24 -5 -48 -11 q-24 -6 -40 -21 q-15 -15 -24 -38 q-12 -29 -16 -60 q-5 -30 -7 -61 q0 -25 25 -48 q24 -23 54 -12 q11 5 23 9 q12 4 24 8 q23 8 47 15 q41 11 81 0 q17 -5 26 -20 q8 -14 5 -32 q-3 -12 -8 -23 q-7 -16 -17 -28 q-11 -13 -24 -23 q-31 -24 -64 -45 q-33 -21 -70 -36 q-13 -6 -27 -8 q-14 -3 -29 0 q-8 1 -16 1 l0 0 Z" /><glyph glyph-name="" unicode="6" d="M62 104 q20 -22 33 -48 q5 -11 13 -21 q5 -6 11 -11 q6 -6 15 -8 q10 -2 16 2 q17 15 36 19 q19 5 40 2 q9 0 17 1 q58 2 102 29 q43 27 74 75 q7 11 8 24 q1 12 -5 24 q-16 38 -45 51 q-29 14 -68 3 q-4 -1 -8 -2 q-4 -1 -8 -3 q-34 -15 -66 -34 q-32 -18 -57 -46 q-7 -7 -15 -14 q-8 -6 -17 -11 q-3 -2 -7 -2 q-5 1 -8 3 q-21 15 -24 41 q-5 33 5 65 q10 32 23 62 q72 161 145 323 q2 5 3 11 q2 6 3 12 q1 10 -4 19 q-6 10 -16 14 q-7 2 -16 0 q-9 -2 -14 -7 q-5 -5 -9 -9 q-4 -5 -7 -10 q-10 -23 -19 -46 q-14 -34 -28 -68 q-14 -35 -28 -69 q-20 -43 -40 -86 q-20 -42 -40 -85 q-12 -26 -21 -54 q-4 -12 -6 -23 q-1 -10 -2 -16 q-1 -35 7 -61 q8 -26 27 -46 l0 0 ZM274 139 q21 25 54 29 q1 1 3 -1 q2 -2 3 -3 q0 -2 1 -4 q0 -2 -1 -3 q-10 -14 -23 -21 q-13 -8 -30 -8 q-2 1 -4 2 q-1 1 -3 2 q0 2 -1 4 q0 2 1 3 l0 0 Z" /><glyph glyph-name="" unicode="7" d="M461 640 q-3 27 -26 47 q-24 21 -56 11 q-35 -13 -69 -26 q-46 -19 -93 -35 q-47 -16 -96 -25 q-14 -3 -28 -5 q-14 -2 -28 -4 q-7 -2 -14 -9 q-6 -8 -7 -14 q0 -21 14 -36 q13 -14 31 -13 q27 1 54 5 q26 3 52 12 q38 16 76 31 q42 18 84 35 q4 1 8 1 q4 1 8 1 q5 1 10 -4 q6 -5 7 -11 q1 -21 -5 -41 q-6 -19 -9 -39 q-6 -44 -20 -85 q-14 -40 -32 -80 q-10 -28 -21 -37 q-11 -9 -45 -14 q-30 -5 -60 -11 q-31 -6 -61 -9 q-23 -2 -45 -6 q-23 -3 -45 -6 q-10 -2 -15 -12 q-4 -10 0 -20 q6 -17 18 -27 q11 -10 31 -9 q25 0 49 3 q25 3 49 9 q13 4 27 8 q14 4 28 8 q16 3 33 5 q8 1 15 -5 q6 -7 5 -15 q-7 -23 -15 -46 q-7 -18 -15 -35 q-7 -17 -12 -35 q-8 -32 -19 -63 q-11 -31 -23 -61 q-4 -11 -1 -20 q4 -10 12 -17 q10 -10 23 -9 q13 0 21 10 q6 8 11 17 q6 8 9 18 q20 50 36 101 q16 51 30 102 q8 28 17 56 q3 8 9 14 q6 5 14 8 q12 4 23 7 q12 4 24 7 q20 7 38 16 q4 1 7 4 q2 3 5 7 q1 1 2 3 q1 2 0 4 q-2 4 -4 7 q-2 4 -5 5 q-16 3 -32 4 q-16 2 -33 4 q-4 1 -9 7 q-4 7 -5 12 q0 10 2 20 q3 10 7 19 q18 49 31 99 q12 50 25 100 q2 10 2 18 q1 9 1 11 q0 12 0 18 q0 6 0 10 l0 0 Z" /><glyph glyph-name="" unicode="8" d="M432 622 q6 17 -5 30 q-10 13 -23 18 q-13 4 -28 -1 q-89 -33 -177 -67 q-12 -4 -21 -12 q-10 -8 -16 -19 q-27 -46 -49 -95 q-11 -25 -5 -47 q6 -23 28 -41 q10 -7 20 -14 q11 -6 21 -12 q13 -8 15 -14 q2 -7 -6 -15 q-59 -57 -118 -115 q-27 -27 -37 -63 q-8 -29 3 -57 q1 -4 3 -7 q18 -26 42 -46 q23 -19 54 -28 q30 -9 60 -12 q31 -4 62 6 q11 4 24 5 q35 4 68 17 q32 12 63 28 q25 13 44 31 q19 19 34 41 q18 29 18 67 q0 37 -28 71 q-25 29 -54 50 q-29 22 -66 33 q-2 0 -3 2 q-2 2 -2 3 q2 4 4 7 q2 4 5 6 q14 8 29 15 q15 7 29 15 q41 22 69 58 q8 10 10 22 q3 11 -1 24 q-10 32 -32 57 q-10 10 -21 20 q-10 10 -17 23 q2 8 4 16 l0 0 ZM159 86 q-10 2 -19 6 q-10 5 -18 12 q-11 9 -13 25 q-2 15 7 27 q40 51 90 95 q13 11 30 11 q21 -1 40 9 q17 9 35 10 q18 2 37 0 q44 -3 68 -40 q9 -14 15 -29 q5 -16 1 -33 q-4 -16 -17 -27 q-8 -7 -16 -13 q-8 -6 -17 -11 q-43 -22 -89 -34 q-46 -12 -99 -11 q-6 0 -15 1 q-10 1 -20 2 l0 0 ZM187 440 q-5 3 -6 10 q-2 7 1 12 q3 5 7 10 q3 5 8 8 q22 12 43 23 q22 12 45 20 q21 7 44 10 q22 3 44 5 q13 1 23 -6 q11 -7 18 -18 q3 -6 2 -16 q-1 -10 -5 -15 q-12 -12 -26 -20 q-14 -8 -30 -12 q-26 -7 -52 -11 q-26 -5 -53 -10 q-5 -1 -13 0 q-7 0 -19 0 q-4 1 -13 4 q-8 3 -18 6 l0 0 Z" /><glyph glyph-name="" unicode="9" d="M493 590 q-3 23 -13 43 q-10 20 -25 37 q-4 5 -9 9 q-5 4 -11 6 q-30 11 -60 13 q-30 3 -61 -9 q-21 -8 -41 -18 q-20 -10 -38 -24 q-20 -15 -40 -30 q-40 -33 -76 -70 q-36 -37 -68 -77 q-23 -41 -23 -70 q0 -29 39 -59 q5 -4 10 -8 q5 -4 10 -7 q11 -6 23 -9 q12 -3 24 -1 q82 14 157 50 q37 18 75 34 q4 2 8 0 q3 -1 5 -6 q2 -4 1 -8 q-6 -22 -16 -42 q-11 -20 -22 -40 q-40 -72 -69 -149 q-9 -27 -14 -56 q-2 -13 1 -25 q2 -12 9 -23 q9 -14 22 -23 q13 -10 30 -15 q10 -2 20 4 q10 6 12 16 q0 8 1 16 q1 9 -1 16 q-4 15 -4 29 q1 14 5 28 q12 38 24 75 q12 37 33 71 q13 21 23 43 q10 23 20 45 q21 48 30 100 q8 51 13 106 q-1 5 -2 12 q-1 7 -2 16 l0 0 ZM417 512 q-5 -6 -12 -10 q-57 -31 -114 -58 q-58 -28 -120 -46 q-14 -4 -28 -6 q-14 -2 -29 1 q-5 2 -9 7 q-4 6 -2 12 q2 5 4 11 q2 6 5 11 q31 48 70 87 q39 39 86 70 q15 11 32 19 q17 8 35 11 q47 11 66 3 q19 -7 27 -66 q1 -8 1 -16 q0 -9 -3 -16 q-3 -7 -9 -14 l0 0 Z" /><glyph glyph-name="" unicode=":" d="M118 148 q-4 1 -9 2 q-4 1 -11 3 q-6 -1 -13 -2 q-8 0 -16 -1 q-12 -3 -24 -7 q-10 -4 -14 -14 q-5 -9 -2 -20 q4 -17 16 -28 q6 -6 14 -9 q8 -2 16 0 q20 6 38 17 q7 4 12 11 q4 6 8 14 q3 10 -1 20 q-5 11 -14 14 l0 0 ZM206 411 q-9 14 -21 25 q-4 3 -10 4 q-5 2 -9 3 q-10 -1 -19 -6 q-8 -4 -12 -9 q-7 -11 -6 -26 q0 -15 9 -27 q8 -11 18 -16 q11 -6 24 -4 q8 2 15 6 q12 10 15 23 q3 14 -4 27 l0 0 Z" /><glyph glyph-name="" unicode=";" d="M132 141 q-3 8 -9 13 q-6 6 -13 9 q-8 4 -16 4 q-8 -1 -16 -6 q-7 -5 -11 -11 q-4 -7 -5 -16 q0 -12 3 -24 q17 -64 12 -127 q-6 -62 -31 -123 q-5 -11 -10 -23 q-4 -11 -8 -23 q-1 -3 2 -6 q2 -4 5 -8 q0 0 3 0 q2 1 4 1 q5 1 8 4 q51 44 76 101 q25 57 32 125 q-4 27 -9 55 q-6 28 -17 55 l0 0 ZM78 339 q15 1 27 13 q11 12 15 30 q2 18 -10 35 q-13 16 -30 18 q-6 0 -12 -1 q-6 -2 -11 -5 q-16 -9 -21 -23 q-5 -15 1 -33 q6 -16 17 -25 q10 -9 24 -9 l0 0 Z" /><glyph glyph-name="" unicode="&lt;" d="M223 344 q80 47 158 96 q79 49 163 88 q19 9 36 21 q10 6 19 16 q7 8 9 17 q2 10 0 21 q-3 10 -13 16 q-10 6 -19 4 q-6 -1 -11 -3 q-6 -2 -12 -4 q-22 -11 -44 -22 q-22 -11 -45 -21 q-25 -11 -47 -26 q-22 -15 -45 -29 q-55 -31 -110 -64 q-55 -33 -110 -65 q-24 -15 -48 -32 q-23 -17 -50 -28 q-2 0 -4 -2 q-1 -1 -3 -2 q-12 -9 -16 -23 q-5 -15 -2 -29 q6 -17 19 -26 q14 -10 31 -6 q40 10 79 5 q38 -5 76 -16 q30 -8 58 -19 q29 -12 55 -29 q27 -16 49 -37 q22 -21 35 -51 q7 -19 20 -36 q5 -6 11 -11 q7 -6 14 -8 q12 -4 24 -6 q12 -2 25 -4 q3 0 8 1 q4 1 7 3 q22 13 33 36 q3 9 0 20 q-4 11 -12 15 q-2 1 -4 2 q-2 1 -4 2 q-18 1 -30 10 q-13 8 -22 24 q-21 31 -48 55 q-28 24 -61 43 q-35 19 -70 35 q-35 17 -72 30 q-12 3 -24 8 q-11 4 -21 14 q5 5 9 9 q4 5 9 8 l0 0 Z" /><glyph glyph-name="" unicode="=" d="M616 488 q-8 4 -16 5 q-8 1 -16 0 q-81 -13 -163 -25 q-63 -10 -126 -24 q-62 -14 -124 -27 q-17 -3 -33 -6 q-16 -4 -32 -7 q-10 -3 -20 -7 q-9 -4 -19 -8 q-6 -3 -10 -11 q-4 -9 -3 -16 q2 -8 9 -13 q7 -6 15 -6 q6 -1 13 -1 q6 0 12 1 q50 14 100 24 q50 11 101 22 q68 16 136 32 q68 16 139 21 q7 1 15 4 q8 3 15 8 q4 3 7 8 q3 5 5 8 q2 7 0 11 q-1 4 -5 7 l0 0 ZM447 321 q-4 2 -8 2 q-4 0 -8 0 q-19 -3 -37 -6 q-18 -3 -37 -5 q-74 -8 -145 -25 q-72 -18 -142 -42 q-8 -2 -15 -6 q-8 -4 -15 -8 q-7 -3 -10 -12 q-4 -9 -1 -16 q3 -9 12 -17 q10 -7 18 -7 q4 0 9 0 q4 0 8 1 q31 10 62 22 q30 12 62 21 q31 9 63 18 q76 19 151 41 q20 6 38 16 q2 1 4 6 q2 4 2 7 q-1 3 -4 6 q-4 3 -7 4 l0 0 Z" /><glyph glyph-name="" unicode="&gt;" d="M207 125 q28 35 60 63 q32 29 67 55 q28 21 55 44 q27 23 53 46 q43 38 88 75 q44 37 91 70 q12 9 23 18 q11 10 21 20 q13 15 9 34 q-5 19 -23 28 q-8 3 -16 5 q-8 3 -16 3 q-31 2 -62 3 q-31 1 -62 1 q-52 -1 -103 4 q-51 4 -102 15 q-49 9 -95 25 q-47 16 -87 48 q-9 8 -21 13 q-7 4 -15 6 q-9 3 -20 0 q-10 -3 -17 -11 q-6 -8 -7 -19 q-1 -12 3 -20 q10 -19 28 -30 q59 -36 122 -59 q64 -23 133 -28 q25 -1 49 -6 q45 -9 91 -9 q25 -1 49 -3 q2 0 5 -1 q2 -1 3 -2 q-1 -3 -1 -7 q-1 -4 -3 -6 q-14 -12 -29 -24 q-15 -11 -29 -24 q-75 -68 -153 -132 q-78 -64 -156 -128 q-10 -8 -17 -18 q-13 -18 -5 -39 q5 -14 17 -22 q12 -7 28 -7 q13 1 25 5 q11 4 19 14 l0 0 Z" /><glyph glyph-name="" unicode="?" d="M443 609 q-28 13 -58 17 q-30 4 -62 -5 q-71 -20 -132 -56 q-61 -37 -115 -87 q-2 -1 -3 -3 q0 -2 -2 -4 q-4 -6 -3 -15 q1 -8 8 -14 q9 -9 23 -10 q13 -2 22 5 q26 21 50 43 q41 37 89 60 q48 23 101 34 q6 2 12 1 q6 0 12 -1 q22 -4 34 -22 q12 -18 6 -39 q-8 -30 -23 -57 q-14 -27 -37 -49 q-21 -20 -41 -42 q-14 -15 -30 -27 q-17 -12 -35 -22 q-46 -27 -93 -53 q-47 -25 -97 -45 q-9 -4 -18 -10 q-9 -6 -16 -13 q-8 -9 -7 -21 q1 -13 16 -19 q8 -2 17 -4 q8 -2 16 -1 q20 3 39 10 q20 7 36 20 q23 18 48 33 q24 15 50 28 q11 5 22 12 q11 6 21 12 q45 27 83 61 q38 35 70 76 q16 21 28 46 q11 24 18 50 q2 8 2 15 q1 7 1 9 q0 34 -14 55 q-14 21 -38 32 l0 0 ZM187 -71 q-6 2 -12 3 q-6 1 -11 -1 q-30 -13 -58 -30 q-5 -3 -10 -7 q-4 -5 -8 -10 q-7 -10 -6 -23 q1 -14 9 -22 q10 -8 23 -10 q13 -3 22 4 q29 22 56 47 q4 4 5 9 q2 5 3 8 q1 11 -2 20 q-4 10 -11 12 l0 0 Z" /><glyph glyph-name="" unicode="@" d="M458 459 q-7 17 -26 27 q-20 10 -43 0 q-30 -14 -56 -35 q-26 -20 -51 -40 q-24 -18 -39 -42 q-14 -25 -18 -55 q-1 -8 -4 -16 q-2 -8 -3 -16 q-5 -27 3 -50 q8 -23 24 -42 q11 -14 26 -20 q16 -6 33 -4 q26 2 48 11 q23 9 38 30 q12 19 28 30 q15 12 38 14 q7 1 15 5 q7 4 14 10 q18 14 31 32 q13 18 17 42 q3 14 6 28 q4 14 5 29 q4 61 3 145 q-2 85 -9 143 q-4 28 -12 56 q-7 25 -27 40 q-19 14 -47 15 q-14 1 -28 -1 q-14 -3 -28 -9 q-32 -15 -61 -35 q-28 -19 -49 -49 q-4 -7 -10 -14 q-5 -6 -12 -11 q-21 -14 -36 -34 q-15 -19 -28 -40 q-64 -101 -124 -204 q-32 -56 -42 -116 q-11 -60 -3 -123 q5 -37 23 -65 q18 -29 50 -49 q39 -23 80 -34 q41 -11 85 -12 q66 -1 127 17 q60 17 116 52 q2 1 3 2 q2 2 2 4 q1 3 2 7 q1 4 0 7 q-2 5 -6 6 q-4 2 -8 0 q-36 -11 -72 -20 q-36 -9 -73 -11 q-39 -10 -78 -7 q-39 3 -77 13 q-18 4 -35 13 q-16 9 -30 21 q-33 28 -37 71 q-5 42 1 83 q7 40 24 78 q26 56 54 112 q31 62 72 119 q25 33 53 63 q28 31 57 60 q29 30 70 42 q11 3 20 -1 q9 -4 12 -15 q2 -10 4 -20 q2 -10 3 -20 q6 -64 3 -128 q-2 -64 -9 -128 q-2 10 -4 20 q-2 10 -5 19 l0 0 ZM328 352 q6 6 13 9 q8 2 16 2 q9 -1 14 -8 q6 -8 4 -15 q-7 -27 -20 -50 q-13 -23 -35 -40 q-3 -2 -7 -3 q-5 -1 -8 0 q-2 2 -4 6 q-1 4 -3 8 q-1 4 -1 8 q-2 48 31 83 l0 0 Z" /><glyph glyph-name="" unicode="a" d="M666 528 q-4 1 -8 1 q-4 0 -8 -1 q-6 -1 -12 -2 q-6 -1 -12 -4 q-47 -21 -97 -35 q-49 -13 -98 -30 q-9 -4 -16 0 q-7 5 -8 14 q-5 45 -10 90 q-5 45 -7 90 q-2 55 -23 105 q-7 15 -26 18 q-19 3 -30 -10 q-10 -13 -17 -27 q-25 -51 -42 -104 q-16 -53 -27 -107 q-8 -35 -15 -69 q-8 -34 -19 -67 q-9 -26 -32 -35 q-20 -8 -39 -14 q-20 -6 -39 -13 q-20 -7 -38 -16 q-13 -7 -15 -22 q-2 -16 9 -27 q8 -7 17 -12 q9 -4 20 -2 q10 1 20 4 q10 2 20 5 q8 2 16 3 q8 1 15 -5 q9 -10 5 -19 q-4 -10 -8 -18 q-5 -10 -10 -18 q-6 -9 -11 -18 q-7 -15 -10 -31 q-1 -8 -1 -16 q1 -8 1 -17 q-1 -10 -2 -20 q0 -11 0 -21 q1 -6 4 -11 q3 -6 7 -10 q15 -13 31 -8 q16 4 21 22 q5 24 9 49 q7 43 20 84 q13 41 27 82 q8 25 32 36 q22 11 45 19 q30 13 41 7 q10 -5 14 -36 q5 -28 8 -57 q3 -25 5 -49 q3 -25 7 -49 q5 -26 14 -51 q8 -26 10 -53 q2 -14 17 -25 q15 -11 32 -12 q14 -1 23 8 q10 10 7 22 q-7 30 -14 60 q-7 30 -19 59 q-5 9 -8 19 q-3 10 -3 20 q-1 19 -4 37 q-4 18 -6 37 q-3 20 -3 40 q-1 21 -1 42 q0 9 5 15 q4 7 12 11 q61 26 121 52 q21 9 42 18 q21 9 41 19 q9 4 17 11 q8 6 16 13 q2 3 3 7 q1 4 1 8 q0 6 -5 10 q-6 4 -12 4 l0 0 ZM298 415 q-15 -4 -31 -7 q-1 0 -2 2 q-2 2 -3 4 q-1 4 -1 8 q-1 4 -1 8 q9 50 21 100 q12 49 30 97 q2 4 5 6 q4 2 8 0 q3 -2 6 -5 q3 -3 3 -6 q4 -41 7 -81 q-1 0 -2 0 q1 -33 3 -65 q1 -24 -10 -39 q-11 -15 -33 -22 l0 0 Z" /><glyph glyph-name="" unicode="b" d="M458 396 q-8 3 -16 6 q-8 2 -15 6 q-4 2 -4 6 q0 5 3 8 q4 5 8 10 q4 5 9 8 q37 21 63 52 q27 32 50 66 q9 12 12 26 q3 14 1 29 q-1 11 -7 19 q-5 9 -15 13 q-11 5 -23 10 q-12 4 -24 5 q-18 2 -37 3 q-18 0 -37 -1 q-43 -2 -86 -9 q-43 -7 -85 -17 q-18 -4 -36 -9 q-18 -4 -35 -11 q-76 -34 -144 -80 q-13 -10 -12 -25 q1 -14 15 -24 q9 -6 19 -7 q10 -1 20 4 q29 14 59 29 q9 5 16 1 q7 -3 8 -12 q1 -11 1 -21 q1 -10 1 -21 q-3 -41 -4 -82 q-1 -41 0 -83 q1 -12 -2 -24 q-7 -33 -8 -66 q0 -33 0 -66 q0 -20 0 -41 q0 -12 -1 -25 q0 -12 0 -24 q1 -6 3 -12 q2 -6 5 -12 q6 -11 22 -17 q16 -7 28 -3 q17 6 33 16 q16 10 30 22 q43 32 85 65 q42 33 87 64 q29 19 54 44 q24 25 44 54 q15 21 18 46 q2 23 -15 37 q-20 15 -42 26 q-22 10 -46 17 l0 0 ZM227 540 q1 9 6 15 q6 6 14 9 q6 2 11 5 q6 2 12 3 q101 16 202 32 q2 0 4 -1 q2 0 4 0 q8 -1 13 -9 q5 -8 2 -15 q-7 -18 -19 -32 q-12 -14 -27 -24 q-44 -30 -92 -54 q-47 -23 -98 -39 q-7 -2 -16 2 q-8 5 -11 12 q-2 5 -4 11 q-2 6 -3 12 q-1 8 0 18 q0 11 0 30 q0 -1 0 7 q0 8 2 18 l0 0 ZM476 297 q-10 -16 -23 -29 q-13 -13 -28 -24 q-41 -31 -83 -61 q-41 -31 -85 -58 q-4 -1 -8 -3 q-8 -4 -16 0 q-7 3 -9 11 q-2 29 -4 58 q0 15 0 26 q0 12 0 14 q2 39 3 69 q1 29 2 55 q1 3 4 7 q4 3 6 3 q45 -7 90 -11 q45 -5 90 -10 q14 -2 28 -6 q14 -4 26 -12 q7 -4 9 -13 q2 -9 -2 -16 l0 0 Z" /><glyph glyph-name="" unicode="c" d="M771 334 q-6 0 -13 0 q-6 0 -11 -2 q-39 -15 -76 -33 q-43 -20 -85 -42 q-43 -21 -86 -41 q-45 -20 -90 -40 q-46 -19 -92 -38 q-38 -16 -77 -28 q-44 -14 -90 -7 q-8 2 -16 4 q-8 3 -15 7 q-11 6 -16 18 q-6 13 -4 24 q7 28 19 55 q11 26 27 50 q24 34 46 69 q31 49 65 95 q35 47 75 88 q15 15 28 30 q14 16 29 30 q9 9 18 17 q10 8 20 15 q1 1 4 1 q2 1 3 0 q3 -3 6 -6 q3 -3 3 -6 q1 -15 1 -29 q1 -14 1 -29 q1 -16 6 -32 q6 -16 22 -24 q7 -3 16 0 q9 3 12 10 q2 6 4 12 q2 6 2 12 q2 33 4 66 q0 0 1 0 q0 28 0 57 q0 9 -1 17 q-2 22 -18 34 q-17 13 -40 9 q-8 -2 -16 -4 q-8 -3 -15 -7 q-74 -47 -129 -115 q-50 -62 -98 -127 q-48 -64 -93 -131 q-22 -34 -38 -69 q-16 -36 -31 -72 q-11 -31 2 -65 q14 -33 42 -49 q37 -18 78 -27 q17 -3 33 -3 q16 0 32 3 q48 9 91 27 q44 17 86 41 q28 16 57 32 q30 15 61 26 q12 4 23 10 q10 6 21 13 q106 64 211 129 q2 1 4 2 q1 2 2 4 q2 7 1 14 q0 2 -2 3 q-2 2 -4 2 l0 0 Z" /><glyph glyph-name="" unicode="d" d="M905 524 q-5 6 -11 11 q-7 6 -14 10 q-29 15 -60 27 q-58 22 -119 32 q-61 10 -123 18 q-32 4 -65 8 q-33 3 -66 7 q-10 1 -17 8 q-6 8 -8 20 q-1 8 -1 16 q0 8 -1 17 q-1 8 -5 15 q-6 17 -24 20 q-9 1 -18 -6 q-10 -6 -12 -17 q-3 -11 -5 -24 q-1 -8 -2 -16 q0 -8 -1 -17 q-2 -10 -9 -18 q-8 -8 -18 -9 q-115 -12 -229 -24 q-25 -3 -49 -9 q-15 -4 -19 -19 q-4 -15 5 -28 q9 -10 20 -16 q10 -5 23 -3 q43 8 86 11 q44 2 86 12 q10 3 19 3 q9 1 11 1 q36 1 50 -9 q13 -11 11 -37 q0 -15 -1 -29 q-1 -15 -3 -29 q-8 -64 -10 -127 q-2 -64 -3 -128 q0 -24 -9 -40 q-8 -16 -31 -25 q-7 -3 -14 -7 q-7 -5 -13 -10 q-10 -8 -9 -22 q1 -14 11 -21 q5 -4 11 -7 q5 -3 11 -4 q11 -3 17 -10 q7 -7 10 -18 q2 -6 5 -11 q3 -5 6 -10 q5 -7 13 -9 q9 -3 17 -1 q6 2 10 6 q5 5 7 11 q4 7 5 15 q2 40 15 53 q13 13 44 25 q17 8 34 17 q16 8 33 16 q8 4 15 7 q8 4 16 5 q27 3 51 14 q25 11 49 23 q18 9 37 17 q20 8 39 15 q39 15 71 41 q38 32 77 63 q42 34 68 82 q16 30 13 59 q-3 28 -27 55 l0 0 ZM863 451 q-9 -16 -19 -32 q-10 -15 -23 -28 q-30 -28 -63 -53 q-33 -25 -71 -42 q-41 -18 -83 -37 q-41 -19 -83 -34 q-23 -8 -46 -19 q-22 -11 -45 -20 q-11 -5 -23 -5 q-4 0 -7 2 q-4 3 -5 6 q-4 16 -5 32 q0 49 0 99 q1 0 2 0 q0 12 0 24 q-4 50 2 99 q6 49 14 98 q2 9 10 16 q8 7 19 7 q45 1 91 -2 q41 -3 81 -8 q37 -6 73 -13 q69 -13 135 -35 q16 -5 31 -12 q11 -6 15 -19 q5 -13 0 -24 l0 0 Z" /><glyph glyph-name="" unicode="e" d="M683 326 q-51 -3 -103 -5 q-51 -3 -102 -12 q-47 -9 -93 -18 q-47 -9 -91 -25 q-24 -9 -48 -14 q-24 -5 -49 -9 q-11 -2 -18 6 q-7 7 -6 19 q0 4 1 8 q7 32 15 64 q8 32 17 64 q6 23 19 40 q14 18 35 29 q18 10 36 21 q18 11 36 21 q25 13 53 22 q29 10 59 18 q30 9 59 18 q39 13 77 30 q7 3 14 9 q6 5 11 11 q11 15 7 31 q-5 16 -21 24 q-16 8 -32 0 q-46 -24 -95 -41 q-48 -17 -97 -32 q-8 -3 -16 -5 q-38 -13 -72 -31 q-34 -19 -66 -43 q-52 -36 -71 -98 q-14 -43 -24 -88 q-9 -44 -15 -89 q-3 -26 -15 -42 q-11 -17 -36 -24 q-4 -1 -7 -4 q-3 -3 -7 -6 q-8 -6 -10 -18 q-2 -12 4 -19 q17 -15 29 -34 q13 -18 25 -37 q13 -19 34 -29 q20 -9 45 -7 q31 2 61 4 q31 2 60 4 q26 1 52 2 q25 1 49 1 q48 -1 90 14 q41 15 76 47 q7 6 13 11 q6 6 10 12 q4 5 6 11 q2 6 3 12 q0 7 -8 14 q-8 7 -15 5 q-7 -3 -15 -6 q-8 -3 -15 -7 q-35 -24 -75 -34 q-39 -10 -81 -10 q-43 0 -87 -1 q-43 -1 -86 -2 q-9 0 -17 1 q-8 1 -16 2 q-7 2 -11 11 q-3 9 0 16 q2 4 4 8 q2 3 5 6 q7 5 14 9 q7 5 15 7 q18 4 35 10 q18 6 36 11 q79 23 158 46 q79 24 160 41 q36 7 72 18 q7 2 15 6 q7 5 14 9 q1 1 3 3 q1 1 1 3 q1 5 -1 8 q-2 4 -7 3 l0 0 Z" /><glyph glyph-name="" unicode="f" d="M820 465 q-41 -3 -82 -7 q-41 -4 -81 -15 q-52 -13 -105 -22 q-53 -9 -105 -23 q-4 -1 -11 4 q-6 5 -7 9 q-3 42 -5 83 q-1 20 -4 41 q-1 10 -10 17 q-8 7 -19 7 q-10 -1 -18 -8 q-7 -8 -8 -19 q0 -29 0 -57 q1 0 2 0 q-1 -17 -1 -33 q0 -17 -2 -33 q-1 -18 -9 -32 q-8 -13 -25 -20 q-8 -4 -15 -7 q-8 -3 -16 -6 q-79 -24 -157 -49 q-32 -10 -65 -13 q-8 -1 -16 -3 q-8 -3 -15 -7 q-8 -3 -12 -10 q-4 -7 -5 -16 q0 -9 5 -16 q4 -6 11 -11 q6 -3 11 -5 q6 -2 12 -3 q38 -3 73 10 q79 26 158 50 q6 2 12 3 q6 0 12 1 q5 1 11 -3 q7 -5 9 -9 q2 -8 4 -16 q2 -8 1 -16 q-4 -48 -9 -95 q-4 -47 -16 -93 q-3 -17 -8 -32 q-6 -15 -15 -29 q-3 -5 -5 -11 q-2 -6 -4 -12 q-2 -9 7 -18 q9 -8 19 -7 q9 2 16 6 q29 18 40 50 q13 35 22 71 q8 36 12 74 q7 78 15 156 q2 11 8 19 q6 8 17 11 q46 18 93 34 q19 6 39 11 q20 5 41 8 q16 3 32 7 q16 4 32 9 q33 11 65 24 q33 12 68 18 q2 0 4 2 q1 1 3 2 q6 3 9 9 q3 7 0 12 q-3 3 -6 6 q-4 2 -7 2 l0 0 ZM871 706 q-5 3 -11 6 q-6 2 -12 2 q-55 -2 -111 -3 q-56 -1 -110 -16 q-8 -2 -16 -3 q-50 -2 -98 -14 q-48 -11 -97 -20 q-24 -4 -47 -13 q-24 -8 -46 -18 q-97 -46 -197 -85 q-25 -10 -47 -25 q-22 -15 -41 -34 q-13 -13 -9 -30 q3 -16 21 -22 q6 -2 12 -2 q7 -1 12 2 q66 32 131 68 q77 42 158 70 q82 28 168 43 q32 6 64 12 q33 7 64 16 q91 29 186 35 q12 1 23 6 q3 1 5 5 q3 3 5 6 q-2 4 -3 8 q-2 4 -4 6 l0 0 Z" /><glyph glyph-name="" unicode="g" d="M538 752 q-5 6 -11 12 q-6 6 -13 10 q-11 6 -23 9 q-12 3 -25 2 q-20 -3 -40 -7 q-20 -4 -40 -12 q-128 -54 -216 -161 q-42 -51 -74 -109 q-33 -57 -56 -120 q-18 -48 -10 -97 q8 -49 20 -97 q2 -12 7 -24 q5 -11 11 -21 q27 -40 64 -64 q37 -25 84 -33 q7 0 14 6 q8 7 9 14 q1 5 -3 12 q-3 7 -7 9 q-19 8 -39 15 q-57 23 -75 82 q-4 14 -6 28 q-3 14 -6 28 q-11 47 -4 91 q6 45 23 87 q19 49 47 92 q28 43 67 78 q6 6 12 12 q42 41 91 71 q49 30 103 52 q4 1 8 2 q4 0 8 1 q10 2 20 -4 q10 -6 12 -15 q1 -6 2 -12 q1 -5 1 -7 q1 -31 -4 -58 q-5 -27 -17 -52 q-14 -29 -29 -59 q-15 -30 -32 -57 q-5 -7 -8 -15 q-3 -8 -6 -15 q-2 -5 0 -12 q3 -6 8 -10 q5 -4 10 -6 q6 -1 12 1 q17 5 29 16 q11 12 19 27 q8 14 15 29 q7 15 15 30 q20 34 32 71 q11 38 19 76 q6 28 1 54 q-5 26 -19 50 l0 0 ZM485 287 q-9 5 -19 8 q-10 3 -20 4 q-47 3 -92 6 q-45 3 -82 5 q-29 0 -49 0 q-21 0 -39 0 q-12 -1 -20 -12 q-7 -11 -4 -23 q3 -11 9 -19 q7 -7 18 -10 q34 -9 68 -13 q35 -4 70 1 q29 3 57 1 q29 -3 57 -8 q5 -1 9 -8 q3 -7 2 -11 q-22 -54 -66 -93 q-33 -31 -65 -63 q-6 -6 -8 -14 q-2 -8 -1 -17 q4 -21 24 -32 q20 -11 38 -1 q16 9 30 21 q14 12 24 28 q9 16 20 31 q11 15 22 30 q18 23 31 48 q14 25 23 53 q10 30 2 51 q-9 21 -39 37 l0 0 Z" /><glyph glyph-name="" unicode="h" d="M893 480 q-6 7 -13 10 q-7 4 -16 4 q-33 1 -64 2 q-31 1 -56 1 q-37 -1 -68 -1 q-31 -1 -59 -2 q-13 0 -24 4 q-4 2 -7 5 q-3 3 -4 7 q-1 8 -2 16 q0 8 1 16 q8 53 17 106 q9 53 19 106 q6 30 7 61 q2 31 4 62 q0 2 -1 4 q0 2 -1 4 q-1 7 -7 14 q-6 7 -13 9 q-10 2 -21 -3 q-10 -5 -13 -14 q-3 -8 -6 -16 q-2 -8 -3 -16 q-1 -49 -6 -98 q-6 -49 -17 -98 q-4 -20 -7 -40 q-3 -21 -7 -41 q-3 -14 -6 -28 q-4 -14 -6 -29 q-3 -21 -15 -32 q-12 -12 -33 -15 q-66 -10 -131 -20 q-10 -2 -20 -3 q-10 -2 -21 -2 q-3 0 -6 4 q-4 3 -4 6 q-2 8 -2 17 q0 8 1 16 q16 81 33 161 q2 12 4 25 q1 10 -8 21 q-8 12 -20 15 q-9 2 -19 -4 q-10 -6 -14 -16 q-6 -19 -10 -39 q-19 -98 -35 -195 q-4 -21 -16 -33 q-11 -13 -32 -17 q-32 -7 -64 -14 q-89 -20 -177 -40 q-6 -2 -12 -4 q-5 -3 -11 -6 q-11 -6 -13 -19 q-2 -13 7 -24 q11 -13 25 -20 q14 -6 33 -1 q95 26 191 52 q12 3 24 6 q7 1 14 -6 q6 -7 5 -15 q-12 -51 -12 -102 q0 -52 3 -103 q1 -4 2 -8 q2 -9 11 -17 q8 -7 18 -8 q10 0 19 7 q9 8 11 17 q2 17 3 33 q1 66 2 132 q1 37 14 73 q4 10 11 17 q6 7 17 11 q45 16 92 21 q47 4 94 11 q5 1 11 -3 q7 -5 9 -9 q8 -22 11 -44 q2 -23 -2 -45 q-5 -27 -6 -54 q-1 -26 -1 -53 q-1 -37 -3 -74 q-2 -30 -11 -57 q-9 -27 -27 -51 q-4 -7 -8 -14 q-4 -7 -6 -15 q-1 -3 0 -8 q1 -4 3 -6 q3 -3 7 -4 q4 -1 8 0 q12 2 22 9 q43 28 62 76 q17 42 17 88 q0 29 1 58 q1 29 1 58 q0 29 4 57 q3 29 4 58 q1 31 13 42 q12 12 43 14 q10 0 20 1 q11 1 20 4 q21 6 41 8 q20 2 41 2 q19 1 37 1 q19 1 37 1 q25 1 49 6 q6 1 11 5 q5 3 10 7 q4 2 4 6 q0 4 -2 9 l0 0 Z" /><glyph glyph-name="" unicode="i" d="M631 755 q-2 4 -5 7 q-3 3 -7 3 q-20 5 -41 3 q-20 -2 -41 -7 q-112 -25 -225 -53 q-68 -17 -133 -43 q-65 -26 -131 -50 q-4 -1 -8 -3 q-8 -5 -11 -16 q-3 -11 2 -20 q8 -15 22 -21 q13 -6 26 -1 q26 11 53 22 q27 11 54 22 q11 4 23 7 q12 3 24 6 q8 1 15 -4 q7 -6 8 -15 q1 -74 2 -149 q0 -70 -6 -140 q-7 -70 -11 -140 q-1 -20 -7 -40 q-3 -10 -9 -18 q-7 -8 -17 -12 q-14 -5 -28 -9 q-13 -4 -27 -8 q-12 -3 -23 -9 q-15 -8 -17 -26 q-1 -9 3 -16 q5 -7 12 -11 q11 -8 23 -11 q11 -3 24 -1 q25 5 48 13 q85 31 170 63 q21 8 43 15 q22 7 44 10 q27 3 53 12 q25 8 50 17 q4 1 8 4 q3 2 5 5 q3 4 4 8 q1 4 1 7 q-1 4 -3 8 q-2 3 -5 5 q-11 6 -23 7 q-27 1 -54 -1 q-26 -3 -53 -9 q-69 -14 -136 -34 q-5 -2 -11 3 q-6 4 -6 9 q0 21 1 42 q0 20 4 40 q5 33 7 66 q2 33 2 66 q0 50 0 99 q0 83 2 165 q0 9 5 16 q5 6 13 10 q16 6 31 11 q32 9 64 19 q31 10 63 17 q33 7 63 20 q30 13 60 27 q4 1 6 5 q2 4 0 8 l0 0 Z" /><glyph glyph-name="" unicode="j" d="M679 709 q-2 13 -9 23 q-8 9 -20 16 q-7 4 -16 4 q-9 0 -14 -6 q-4 -5 -6 -10 q-3 -6 -4 -11 q-1 -4 -1 -8 q1 -5 2 -9 q7 -30 8 -61 q1 -31 -1 -62 q-3 -74 -5 -148 q2 0 4 0 q-2 -29 -4 -57 q-3 -29 -3 -58 q0 -29 1 -57 q2 -29 4 -58 q0 -21 -5 -41 q-5 -20 -12 -39 q-8 -28 -27 -46 q-18 -18 -45 -28 q-27 -11 -56 -16 q-28 -4 -57 -1 q-43 5 -85 12 q-43 8 -84 22 q-67 24 -125 62 q-25 17 -35 45 q-8 27 -16 55 q-3 7 -13 8 q-9 1 -15 -5 q-15 -17 -12 -38 q7 -45 30 -77 q24 -32 62 -53 q65 -38 134 -61 q70 -24 146 -24 q17 -1 33 -2 q47 -3 90 9 q43 13 82 37 q58 33 64 100 q3 45 4 90 q0 56 -1 111 q-1 56 -1 112 q0 39 2 78 q1 39 8 78 q5 28 4 57 q-2 29 -6 57 l0 0 Z" /><glyph glyph-name="" unicode="k" d="M823 106 q-3 5 -6 11 q-3 5 -8 8 q-7 4 -15 7 q-8 2 -16 3 q-45 6 -90 14 q-44 8 -90 9 q-21 1 -41 6 q-109 23 -221 28 q-8 0 -16 2 q-8 2 -16 3 q-4 2 -9 8 q-4 6 -5 11 q-1 9 1 17 q2 8 7 15 q11 12 22 25 q10 12 22 23 q36 35 67 74 q30 40 62 78 q9 10 16 23 q7 13 14 26 q14 27 28 55 q13 28 29 55 q27 46 47 96 q20 49 36 101 q6 22 13 44 q6 21 11 43 q1 5 -3 11 q-3 6 -8 10 q-5 5 -15 2 q-9 -2 -14 -8 q-9 -11 -14 -25 q-6 -13 -9 -27 q-19 -72 -54 -138 q-27 -52 -50 -105 q-25 -55 -59 -104 q-33 -49 -71 -96 q-13 -16 -28 -30 q-15 -15 -30 -29 q-2 -1 -6 -1 q-4 0 -8 1 q-1 0 -2 2 q-1 3 -1 5 q-3 82 -6 165 q1 0 2 0 q0 78 0 157 q0 8 -1 16 q-2 8 -3 16 q-2 10 -11 17 q-9 6 -20 6 q-10 -2 -18 -10 q-9 -7 -10 -16 q0 -13 1 -25 q3 -14 5 -28 q3 -14 4 -29 q5 -83 -4 -165 q-7 -61 -8 -123 q1 -46 -9 -62 q-10 -16 -50 -34 q-13 -6 -26 -11 q-13 -6 -27 -11 q-11 -4 -23 -8 q-12 -4 -23 -10 q-9 -5 -17 -11 q-8 -7 -15 -14 q-6 -5 -6 -14 q-1 -10 3 -17 q13 -23 40 -25 q8 -1 16 0 q8 1 17 2 q16 2 32 5 q16 3 33 6 q37 4 36 -32 q0 -8 -1 -16 q0 -9 0 -17 q0 -4 1 -8 q1 -4 2 -8 q1 -4 7 -9 q6 -4 11 -5 q13 -2 22 8 q5 6 8 14 q2 6 3 12 q2 6 3 12 q7 22 17 29 q10 8 30 8 q8 0 16 0 q67 2 133 -5 q65 -8 130 -19 q49 -8 99 -10 q49 -3 99 -3 q8 0 16 1 q8 2 15 5 q5 1 7 5 q2 4 0 8 l0 0 Z" /><glyph glyph-name="" unicode="l" d="M474 153 q0 1 -2 3 q-2 1 -4 1 q-15 3 -29 1 q-14 -1 -28 -6 q-17 -6 -35 -13 q-17 -7 -35 -12 q-16 -4 -31 -10 q-15 -6 -29 -14 q-68 -39 -136 -79 q-11 -5 -22 -9 q-5 -1 -8 1 q-3 2 -5 7 q-5 9 -6 20 q-1 10 -1 20 q-2 109 7 218 q8 109 16 218 q1 6 2 12 q1 6 2 12 q2 21 4 41 q2 21 2 41 q1 33 -4 66 q-2 8 -7 14 q-5 7 -12 11 q-10 5 -20 3 q-11 -3 -16 -11 q-12 -23 -10 -48 q0 -14 2 -28 q1 -15 2 -28 q-1 -22 -1 -42 q-1 -21 -4 -41 q-6 -41 -9 -82 q-2 -41 -5 -83 q-5 -61 -10 -123 q-6 -61 -13 -123 q-3 -31 1 -61 q4 -31 12 -60 q7 -23 28 -34 q21 -11 45 -4 q19 6 37 17 q27 18 55 36 q27 19 54 37 q26 17 53 31 q28 15 58 24 q27 8 53 20 q16 7 29 17 q13 10 21 25 q1 3 1 7 q-1 4 -2 8 l0 0 Z" /><glyph glyph-name="" unicode="m" d="M755 22 q-3 5 -6 11 q-3 5 -6 11 q-12 28 -24 56 q-13 29 -22 58 q-21 71 -32 145 q-8 43 -14 86 q-5 42 -6 86 q0 45 -1 91 q-2 45 -3 91 q0 16 -4 32 q-3 11 -10 17 q-8 7 -19 9 q-10 3 -20 -2 q-11 -4 -16 -12 q-8 -14 -14 -29 q-25 -72 -50 -144 q-24 -73 -56 -142 q-4 -8 -6 -16 q-13 -39 -32 -76 q-19 -36 -38 -73 q-7 -12 -16 -24 q-8 -12 -16 -24 q-1 -2 -3 -3 q-1 -1 -3 -3 q-4 -4 -10 -3 q-7 1 -11 6 q-30 43 -51 90 q-21 47 -35 97 q-12 41 -22 84 q-9 42 -13 85 q-1 21 -7 41 q-5 20 -12 39 q-4 10 -12 16 q-8 7 -19 8 q-9 1 -20 -5 q-10 -6 -14 -15 q-4 -9 -7 -19 q-4 -10 -6 -20 q-12 -60 -23 -121 q-3 -17 -6 -33 q-3 -16 -4 -33 q-6 -63 -15 -127 q-9 -63 -10 -127 q0 -12 -3 -25 q-3 -12 -4 -24 q-4 -37 -6 -74 q0 -15 12 -25 q12 -10 27 -8 q10 3 18 10 q9 8 11 17 q4 28 9 57 q5 29 5 57 q1 104 19 205 q1 13 2 25 q0 12 1 25 q1 8 2 16 q1 9 2 18 q4 -4 7 -7 q2 -3 4 -6 q7 -20 14 -39 q7 -20 12 -40 q18 -60 47 -114 q30 -54 66 -105 q3 -5 8 -9 q4 -4 9 -9 q13 -12 29 -12 q16 -1 30 12 q12 11 22 24 q18 23 31 49 q13 25 25 52 q35 77 68 155 q32 78 57 159 q1 1 3 1 q1 1 3 1 q6 -11 6 -24 q1 -12 1 -24 q-1 -42 3 -83 q4 -41 13 -81 q4 -20 7 -41 q3 -20 6 -41 q8 -47 23 -92 q15 -45 34 -88 q5 -11 12 -22 q7 -10 15 -20 q4 -4 9 -8 q5 -4 10 -7 q10 -7 20 -7 q10 0 18 6 q8 7 10 17 q2 11 -3 21 l0 0 Z" /><glyph glyph-name="" unicode="n" d="M611 650 q1 4 -3 11 q-3 6 -8 8 q-4 2 -8 2 q-4 0 -8 -1 q-4 -1 -7 -3 q-4 -2 -7 -5 q-15 -12 -24 -29 q-9 -16 -12 -34 q-5 -35 -10 -70 q-5 -35 -6 -70 q-5 -103 4 -206 q2 -33 2 -66 q0 -33 0 -66 q0 -8 -3 -16 q-2 -8 -5 -16 q-2 -8 -10 -11 q-8 -4 -16 0 q-37 24 -69 52 q-33 28 -62 60 q-59 63 -86 106 q-26 44 -54 125 q-14 41 -27 82 q-14 41 -27 83 q-8 23 -18 46 q-5 11 -17 16 q-12 4 -25 -1 q-31 -11 -33 -43 q-2 -32 -2 -66 q1 -107 1 -214 q1 -75 -7 -149 q-8 -73 -27 -146 q-6 -19 -9 -40 q0 -4 0 -8 q0 -4 0 -8 q1 -7 7 -14 q6 -7 14 -10 q7 -3 16 0 q9 2 14 7 q17 19 19 44 q3 21 5 42 q1 20 5 40 q13 70 20 139 q7 70 8 140 q-1 11 0 21 q0 10 6 19 q3 -2 7 -4 q3 -3 5 -6 q15 -29 27 -60 q16 -41 39 -77 q23 -37 53 -69 q57 -59 116 -117 q27 -26 57 -47 q31 -22 63 -39 q11 -6 23 -10 q21 -6 40 6 q19 12 23 33 q1 8 1 16 q0 66 0 132 q0 66 -9 132 q-2 14 -3 29 q0 14 -1 29 q-2 70 -3 140 q-1 35 4 70 q6 34 20 67 q4 12 7 24 l0 0 Z" /><glyph glyph-name="" unicode="o" d="M574 358 q0 -1 -1 -2 q1 -1 1 2 l0 0 ZM574 363 q3 30 -6 57 q-8 27 -25 52 q-11 17 -26 32 q-30 31 -65 56 q-35 25 -75 44 q-53 25 -110 31 q-40 4 -70 -14 q-30 -18 -46 -59 q-4 -11 1 -23 q5 -11 17 -18 q3 -2 8 -2 q4 0 7 2 q5 5 10 12 q5 7 10 13 q5 7 12 12 q6 4 15 6 q4 0 8 -1 q4 -1 6 -3 q2 -3 3 -7 q0 -4 1 -8 q0 -4 -3 -7 q-23 -35 -42 -71 q-20 -36 -41 -71 q-32 -51 -59 -105 q-27 -53 -56 -105 q-8 -14 -13 -30 q-4 -16 -7 -32 q-3 -24 9 -49 q12 -24 42 -36 q26 -9 53 -12 q26 -2 53 3 q36 8 71 21 q19 7 38 15 q19 8 38 16 q15 7 29 16 q21 13 41 27 q21 14 42 26 q21 13 40 29 q19 16 36 34 q34 35 42 54 q9 19 10 62 q0 4 1 9 q0 6 1 17 q-1 1 -1 2 q0 2 1 5 l0 0 ZM470 238 q-106 -87 -236 -131 q-18 -6 -36 -9 q-18 -4 -38 -4 q-10 1 -23 3 q-13 2 -21 11 q-8 9 -9 22 q0 30 13 56 q32 64 64 129 q32 64 66 128 q11 22 26 42 q14 20 28 40 q7 10 20 13 q12 4 25 0 q40 -11 71 -39 q17 -15 34 -30 q16 -16 32 -32 q38 -45 33 -103 q-5 -58 -49 -96 l0 0 Z" /><glyph glyph-name="" unicode="p" d="M829 705 q-56 36 -122 46 q-11 1 -21 2 q-10 1 -20 4 q-32 10 -65 12 q-33 2 -66 2 q-14 0 -29 -1 q-14 -1 -29 0 q-39 2 -78 -2 q-39 -5 -77 -15 q-56 -14 -114 -17 q-10 -1 -20 -2 q-10 -1 -20 -4 q-28 -9 -55 -18 q-27 -10 -54 -20 q-4 -1 -8 -3 q-3 -2 -7 -4 q-9 -5 -13 -15 q-5 -11 -2 -20 q3 -13 14 -21 q11 -8 22 -7 q24 5 47 12 q38 13 76 22 q37 10 77 13 q8 1 16 3 q8 2 16 4 q28 5 57 12 q28 6 56 9 q33 4 66 5 q33 1 66 3 q0 -1 0 -3 q33 0 66 1 q35 1 70 -4 q35 -5 69 -14 q20 -5 38 -15 q23 -12 26 -34 q3 -23 -15 -41 q-12 -11 -26 -21 q-13 -10 -27 -18 q-22 -12 -45 -22 q-22 -10 -45 -20 q-27 -11 -53 -22 q-27 -11 -55 -19 q-37 -12 -75 -22 q-37 -10 -75 -20 q-5 -1 -11 4 q-5 5 -6 10 q0 17 0 33 q-1 17 0 33 q2 29 4 58 q2 28 4 57 q0 6 -1 12 q-1 6 -3 12 q-3 9 -13 15 q-10 6 -20 6 q-6 -2 -13 -9 q-7 -6 -8 -14 q-3 -16 -3 -32 q-2 -74 -4 -149 q0 -20 -5 -41 q-1 -8 -7 -14 q-5 -6 -13 -10 q-15 -7 -31 -11 q-16 -3 -32 -6 q-14 -2 -28 -7 q-14 -4 -26 -12 q-6 -4 -10 -12 q-5 -8 -4 -16 q1 -11 8 -20 q7 -9 16 -10 q8 -1 16 -2 q9 -1 17 0 q16 2 32 5 q16 2 33 5 q5 0 10 -5 q5 -5 6 -10 q3 -58 -5 -115 q-10 -66 -7 -132 q3 -65 14 -131 q1 -4 3 -7 q2 -4 4 -7 q10 -13 25 -12 q15 0 24 14 q5 9 6 19 q2 10 0 20 q-9 60 -9 119 q-1 60 10 119 q2 12 3 25 q0 12 0 25 q1 28 1 57 q1 13 2 25 q1 22 10 34 q10 11 33 18 q16 5 32 9 q16 4 32 9 q16 4 32 9 q15 5 31 11 q40 16 79 33 q40 18 80 34 q42 17 75 44 q33 27 62 60 q6 8 10 17 q5 9 9 19 q7 22 -2 48 q-9 27 -28 40 l0 0 Z" /><glyph glyph-name="" unicode="q" d="M510 89 q32 12 58 32 q27 20 49 44 q33 34 50 77 q17 43 17 100 q1 31 -9 66 q-9 35 -31 70 q-9 16 -17 33 q-8 16 -17 33 q-7 15 -19 27 q-11 13 -26 20 q-31 15 -64 27 q-33 13 -68 17 q-16 2 -33 4 q-16 3 -32 4 q-6 1 -13 0 q-6 0 -11 -3 q-53 -24 -104 -50 q-24 -13 -44 -31 q-20 -18 -36 -40 q-4 -6 -6 -14 q-3 -8 -5 -16 q-1 -8 3 -14 q5 -6 15 -10 q11 -3 13 -9 q2 -5 -3 -13 q-26 -38 -50 -76 q-24 -38 -46 -78 q-11 -22 -23 -44 q-11 -22 -21 -45 q-12 -30 -8 -60 q3 -30 17 -59 q3 -6 7 -11 q4 -5 9 -9 q7 -6 16 -12 q8 -6 17 -11 q38 -19 78 -26 q40 -7 82 2 q31 5 61 9 q31 4 61 14 q7 2 16 -2 q8 -4 13 -10 q2 -4 4 -7 q16 -36 32 -72 q16 -35 25 -74 q2 -8 5 -15 q4 -8 8 -15 q6 -11 20 -11 q13 -1 22 9 q12 17 12 39 q1 16 -3 32 q-4 16 -10 32 q-23 57 -44 115 q-1 3 1 8 q2 4 4 6 q13 11 28 17 l0 0 ZM465 132 q-10 -4 -19 0 q-8 4 -14 16 q-11 24 -19 50 q-8 25 -14 52 q-2 7 -6 15 q-4 7 -8 14 q-8 11 -21 12 q-14 1 -22 -9 q-4 -5 -7 -10 q-2 -6 -2 -12 q0 -28 6 -57 q4 -16 9 -31 q6 -16 11 -32 q8 -26 1 -38 q-8 -12 -37 -20 q-16 -4 -33 -5 q-29 -3 -56 -4 q-14 1 -26 1 q-13 1 -25 3 q-17 2 -32 9 q-14 7 -28 17 q-16 14 -19 35 q-3 17 -1 33 q2 17 10 32 q16 31 32 62 q15 32 33 62 q58 95 126 184 q25 32 56 47 q32 15 72 13 q49 -2 86 -24 q38 -22 63 -65 q21 -36 32 -76 q12 -39 16 -80 q2 -17 -1 -33 q-3 -16 -10 -32 q-15 -33 -37 -59 q-23 -25 -56 -42 q-30 -14 -60 -28 l0 0 Z" /><glyph glyph-name="" unicode="r" d="M606 60 q-13 22 -30 43 q-17 21 -34 42 q-32 23 -64 45 q-32 22 -69 37 q-27 11 -53 21 q-27 11 -56 16 q-10 2 -19 6 q-10 4 -20 7 q-7 4 -8 13 q-1 9 5 15 q47 39 95 79 q10 9 21 20 q10 10 22 17 q25 16 44 38 q20 21 39 42 q24 26 50 83 q27 56 37 93 q1 6 2 12 q1 6 0 12 q-2 14 -4 29 q-2 14 -6 28 q-6 20 -19 36 q-13 15 -33 24 q-38 17 -80 20 q-17 -2 -33 -3 q-17 -1 -33 -5 q-37 -10 -75 -22 q-37 -12 -72 -31 q-29 -15 -58 -31 q-29 -16 -57 -32 q-14 -9 -26 -20 q-13 -11 -25 -22 q-4 -4 -8 -9 q-3 -5 -6 -11 q-8 -13 -4 -27 q4 -15 19 -21 q18 -7 26 -19 q7 -13 9 -31 q6 -42 9 -85 q3 -43 -6 -87 q-2 -9 -2 -20 q0 -10 0 -21 q-2 -57 -3 -115 q1 -52 -4 -103 q-5 -50 -27 -99 q-1 -4 2 -10 q4 -7 9 -10 q10 -6 20 -5 q9 1 17 9 q25 29 31 66 q4 21 4 41 q1 21 0 42 q0 12 1 24 q1 13 8 24 q3 5 8 9 q5 4 10 5 q8 2 16 2 q9 0 17 -2 q16 -2 32 -6 q16 -3 32 -6 q69 -12 129 -43 q60 -30 113 -75 q18 -14 29 -33 q11 -20 8 -45 q0 -4 0 -8 q1 -4 1 -8 q2 -11 13 -20 q11 -9 23 -10 q9 0 16 5 q6 5 11 12 q13 18 15 39 q2 20 -9 39 l0 0 ZM169 330 q-4 -2 -11 3 q-6 4 -7 10 q0 8 -1 16 q0 8 1 16 q8 33 8 65 q1 33 -5 66 q-2 14 -2 28 q-1 15 -2 29 q-1 18 -3 37 q-2 18 -8 36 q-2 9 1 16 q4 7 11 12 q47 31 96 55 q49 25 103 41 q18 4 35 6 q17 2 30 3 q14 -1 23 -1 q10 -1 18 -2 q15 -2 28 -14 q13 -12 18 -28 q3 -14 3 -28 q1 -15 -4 -29 q-18 -48 -44 -92 q-26 -43 -64 -80 q-40 -39 -85 -72 q-44 -33 -90 -64 q-12 -8 -24 -15 q-13 -7 -25 -14 l0 0 Z" /><glyph glyph-name="" unicode="s" d="M668 258 q-35 22 -76 31 q-24 5 -48 10 q-21 7 -43 13 q-22 6 -45 4 q-57 14 -114 19 q-57 5 -115 3 q-19 -1 -37 3 q-18 3 -37 7 q-7 2 -15 6 q-7 4 -15 8 q-7 4 -7 13 q-1 10 6 15 q40 29 81 57 q28 18 55 35 q28 18 56 36 q17 11 35 22 q17 11 36 19 q13 5 19 16 q5 11 7 24 q2 10 -4 19 q-5 9 -15 13 q-11 5 -21 3 q-10 -1 -18 -8 q-32 -27 -67 -48 q-35 -22 -70 -44 q-73 -47 -145 -95 q-17 -12 -31 -27 q-9 -10 -11 -27 q-3 -16 3 -28 q13 -24 32 -41 q20 -18 47 -25 q42 -12 62 -14 q20 -3 69 -2 q37 0 74 0 q0 0 0 0 q41 -1 82 0 q48 0 95 -9 q46 -9 91 -24 q4 -1 8 -2 q4 -2 7 -4 q3 -3 6 -6 q2 -4 2 -7 q1 -4 -1 -8 q-2 -4 -5 -6 q-26 -18 -55 -29 q-29 -10 -59 -17 q-54 -13 -109 -24 q-54 -12 -109 -24 q-18 -3 -36 -6 q-19 -2 -37 -6 q-8 -2 -15 -6 q-7 -4 -14 -8 q-6 -4 -8 -14 q-3 -9 -1 -16 q4 -14 14 -21 q10 -7 23 -6 q8 1 16 3 q55 10 109 23 q54 12 108 28 q43 13 87 22 q39 8 75 25 q35 16 67 41 q20 15 27 40 q3 12 -2 25 q-4 12 -14 19 l0 0 Z" /><glyph glyph-name="" unicode="t" d="M880 850 q-3 2 -7 4 q-27 11 -56 12 q-28 1 -57 -1 q-6 -1 -11 -5 q-6 -4 -9 -9 q-9 -15 -22 -23 q-14 -9 -30 -12 q-29 -7 -57 -10 q-29 -2 -58 2 q-21 3 -40 -5 q-56 -22 -113 -39 q-57 -18 -116 -28 q-8 -2 -16 -4 q-8 -2 -16 -4 q-32 -9 -64 -16 q-32 -7 -65 -9 q-6 0 -12 -3 q-6 -2 -12 -4 q-10 -5 -17 -17 q-6 -13 -4 -24 q2 -12 13 -21 q11 -8 22 -8 q4 0 8 1 q61 14 121 26 q61 12 120 31 q31 11 63 19 q8 1 16 2 q9 1 17 1 q8 0 14 -6 q7 -6 8 -14 q3 -26 2 -53 q-1 -27 -7 -53 q-5 -22 -7 -45 q-3 -22 -4 -45 q-1 -12 -2 -25 q0 -12 -2 -24 q-9 -72 -17 -144 q-7 -71 -10 -143 q0 -17 -1 -33 q-1 -17 0 -33 q1 -47 26 -86 q5 -8 15 -11 q11 -2 21 3 q8 4 13 11 q4 8 3 15 q-11 54 -10 107 q1 53 9 107 q2 16 4 32 q2 54 5 107 q2 54 13 107 q1 8 1 16 q1 48 11 94 q9 47 18 93 q5 32 14 42 q9 10 41 20 q16 6 32 8 q37 6 73 13 q37 8 74 10 q12 1 24 4 q12 3 24 7 q5 2 10 6 q6 3 10 7 q12 10 11 26 q-1 16 -14 24 l0 0 Z" /><glyph glyph-name="" unicode="u" d="M575 26 q-6 5 -14 8 q-21 9 -32 26 q-11 17 -15 38 q-6 32 -9 65 q-2 33 5 66 q5 20 7 41 q2 20 -1 41 q0 6 0 12 q1 6 1 12 q7 120 27 238 q6 37 8 74 q1 37 1 74 q0 8 -1 17 q-2 12 -10 22 q-8 9 -20 13 q-12 3 -23 -2 q-12 -6 -19 -17 q-5 -11 -10 -23 q-16 -44 -32 -89 q-16 -44 -31 -89 q-23 -71 -49 -141 q-26 -69 -65 -133 q-4 -19 -15 -34 q-12 -14 -24 -29 q-10 -12 -20 -26 q-10 -13 -21 -25 q-20 -21 -43 -38 q-6 -5 -14 -8 q-8 -2 -16 -5 q-8 -2 -17 2 q-8 3 -12 10 q-3 7 -7 15 q-4 8 -5 15 q-3 35 -5 71 q-2 35 4 69 q5 27 7 54 q2 26 3 53 q1 29 3 58 q2 29 6 57 q6 45 7 91 q0 45 -1 90 q0 6 -2 12 q-3 6 -5 12 q-2 4 -9 7 q-6 3 -12 2 q-11 -3 -19 -9 q-7 -7 -10 -17 q-2 -8 -3 -17 q0 -8 0 -16 q-2 -43 -3 -87 q-1 -43 -4 -86 q-2 -40 -6 -79 q-4 -39 -7 -78 q-3 -28 -10 -57 q-6 -28 -5 -57 q3 -31 6 -62 q4 -30 6 -61 q3 -27 19 -41 q15 -15 40 -18 q12 -1 25 -1 q12 1 24 5 q28 8 53 23 q24 15 44 37 q33 37 62 77 q29 40 50 85 q15 34 32 67 q12 24 22 49 q10 25 17 51 q5 22 12 44 q8 21 21 40 q1 1 4 1 q2 0 2 0 q2 -4 3 -8 q1 -4 1 -8 q-4 -26 -8 -53 q-4 -26 -7 -53 q-5 -49 -8 -98 q-4 -50 -7 -99 q1 0 2 0 q-1 -13 -3 -25 q-4 -34 2 -66 q7 -32 19 -63 q6 -15 16 -29 q16 -21 39 -30 q22 -8 48 -5 q6 1 11 5 q4 4 6 10 q2 6 1 13 q-2 7 -7 10 l0 0 Z" /><glyph glyph-name="" unicode="v" d="M597 652 q-3 1 -7 1 q-4 0 -8 -1 q-5 -2 -11 -6 q-5 -3 -9 -7 q-30 -32 -57 -66 q-26 -34 -46 -73 q-36 -72 -75 -143 q-40 -70 -77 -141 q-8 -17 -18 -33 q-10 -15 -20 -31 q-2 -3 -5 -6 q-3 -3 -6 -5 q-4 -3 -8 -3 q-4 0 -7 5 q-22 37 -40 76 q-18 39 -29 82 q-12 50 -24 100 q-12 50 -22 101 q-6 30 -15 60 q-9 29 -19 59 q-4 11 -16 17 q-11 6 -24 3 q-14 -3 -21 -14 q-7 -10 -4 -22 q19 -72 37 -144 q6 -22 12 -44 q5 -22 8 -44 q5 -33 14 -65 q8 -32 17 -64 q13 -43 34 -84 q21 -40 45 -79 q17 -29 48 -44 q21 -11 40 -5 q20 6 29 26 q17 38 34 76 q16 38 34 75 q16 34 32 67 q17 33 36 65 q18 32 34 66 q16 33 32 67 q13 26 27 51 q14 25 30 49 q16 24 31 49 q2 3 2 7 q0 5 1 9 q-2 3 -4 7 q-2 4 -5 6 l0 0 Z" /><glyph glyph-name="" unicode="w" d="M809 846 q-4 3 -7 3 q-4 -1 -6 -5 q-37 -58 -62 -121 q-26 -63 -42 -130 q-20 -74 -42 -147 q-22 -73 -46 -145 q-9 -30 -20 -48 q-10 -18 -34 -44 q-3 5 -7 10 q-4 5 -6 10 q-16 43 -30 86 q-15 43 -30 86 q-7 19 -18 37 q-10 17 -23 33 q-10 11 -28 13 q-19 2 -32 -12 q-5 -7 -10 -14 q-4 -6 -8 -14 q-8 -19 -15 -38 q-8 -19 -14 -39 q-18 -61 -40 -121 q-23 -60 -45 -120 q-7 -20 -16 -38 q-13 -26 -28 -51 q-5 -7 -10 -10 q-5 -3 -9 0 q-3 3 -6 5 q-3 3 -4 7 q-14 45 -24 92 q-10 46 -19 93 q-9 47 -12 94 q-2 47 -4 95 q-4 70 -16 139 q-1 6 -3 12 q-3 5 -5 11 q-4 8 -15 12 q-11 3 -21 1 q-12 -2 -19 -11 q-7 -8 -5 -18 q9 -38 13 -77 q4 -39 5 -78 q1 -25 2 -50 q4 -89 19 -176 q15 -87 39 -173 q4 -16 11 -31 q7 -14 19 -22 q11 -9 26 -10 q25 -3 45 4 q21 7 35 28 q18 25 33 52 q15 27 24 57 q6 20 14 39 q7 19 15 39 q8 23 17 46 q8 24 14 48 q6 28 17 55 q11 26 24 52 q1 1 3 2 q2 1 3 1 q2 0 4 -1 q2 0 4 -2 q2 -3 5 -6 q3 -3 4 -7 q13 -35 24 -70 q8 -24 15 -47 q7 -24 14 -48 q12 -36 35 -65 q19 -24 46 -24 q26 -1 42 28 q10 20 20 40 q10 21 21 41 q17 33 30 68 q12 35 21 71 q1 6 3 12 q1 6 3 12 q19 53 29 107 q11 55 15 111 q1 16 5 32 q3 16 8 32 q7 26 15 52 q8 25 17 51 q2 8 5 15 q3 8 6 16 q7 28 14 56 q0 2 0 4 q-1 2 -2 3 l0 0 Z" /><glyph glyph-name="" unicode="x" d="M651 9 q-19 22 -41 39 q-23 17 -54 22 q-5 1 -11 4 q-5 3 -11 6 q-83 38 -154 95 q-34 24 -41 39 q-6 15 20 52 q8 12 14 26 q6 13 13 25 q27 52 53 103 q27 51 59 99 q11 17 21 35 q10 18 19 37 q3 6 1 12 q-2 5 -6 11 q-8 10 -21 12 q-12 2 -22 -4 q-13 -9 -21 -20 q-9 -12 -16 -24 q-13 -26 -27 -52 q-13 -25 -27 -50 q-25 -41 -47 -82 q-22 -42 -40 -86 q-3 -8 -8 -14 q-5 -7 -9 -14 q-7 -10 -16 -10 q-10 0 -19 9 q-22 22 -40 46 q-19 25 -33 53 q-9 18 -18 36 q-10 19 -18 38 q-28 68 -50 139 q-3 12 -9 23 q-5 11 -11 22 q-4 8 -11 11 q-7 4 -16 6 q-10 1 -19 -7 q-8 -8 -7 -18 q2 -12 5 -24 q2 -13 6 -24 q6 -22 14 -43 q7 -22 13 -44 q18 -65 51 -121 q33 -57 76 -107 q22 -25 42 -51 q6 -7 6 -15 q0 -8 -4 -16 q-2 -3 -4 -7 q-1 -4 -4 -7 q-33 -37 -63 -76 q-31 -38 -69 -71 q-3 -2 -5 -6 q-1 -4 -3 -8 q-1 -4 2 -11 q4 -7 9 -8 q4 0 8 0 q4 0 8 1 q26 14 48 31 q23 18 43 39 q20 21 40 42 q19 22 38 43 q8 9 17 9 q8 1 19 -8 q16 -12 33 -25 q30 -22 62 -41 q31 -20 65 -35 q21 -8 41 -20 q19 -11 36 -26 q22 -19 50 -30 q7 -2 16 -4 q8 -1 18 6 q10 6 14 15 q4 13 -5 23 l0 0 Z" /><glyph glyph-name="" unicode="y" d="M645 765 q-7 8 -16 13 q-8 5 -19 2 q-18 -4 -36 -9 q-18 -6 -33 -16 q-22 -16 -44 -31 q-22 -16 -41 -34 q-40 -39 -78 -79 q-38 -41 -73 -84 q-18 -23 -39 -43 q-20 -21 -40 -41 q-5 -5 -15 -5 q-10 -1 -16 3 q-9 6 -17 12 q-8 6 -15 14 q-25 31 -43 65 q-18 34 -27 73 q-5 20 -11 40 q-2 3 -4 7 q-2 3 -4 7 q-6 9 -17 10 q-10 1 -17 -8 q-6 -7 -9 -14 q-3 -8 -3 -16 q0 -12 1 -25 q1 -12 4 -24 q11 -40 30 -77 q18 -37 43 -70 q23 -30 53 -50 q31 -19 72 -20 q4 1 8 0 q4 -1 7 -3 q4 -2 6 -6 q3 -3 4 -7 q3 -16 3 -33 q1 -66 0 -131 q0 -50 0 -99 q0 -33 1 -66 q0 -6 2 -12 q1 -6 3 -12 q3 -12 14 -20 q11 -7 23 -5 q10 2 17 10 q8 9 9 18 q1 9 1 17 q-1 107 -1 214 q0 78 2 156 q1 34 12 65 q11 30 32 57 q37 49 79 95 q42 45 87 88 q18 18 39 29 q21 11 48 9 q2 0 4 1 q2 0 4 1 q9 3 13 14 q3 11 -3 20 l0 0 Z" /><glyph glyph-name="" unicode="z" d="M741 117 q-11 5 -24 4 q-124 -6 -244 -35 q-58 -15 -116 -29 q-58 -14 -115 -33 q-12 -4 -24 -6 q-12 -2 -25 -4 q-1 0 -3 1 q-2 1 -4 3 q-3 3 -3 7 q0 3 3 7 q39 39 79 78 q40 39 80 77 q29 26 60 51 q30 25 59 51 q32 29 62 61 q29 31 52 69 q9 14 19 27 q10 13 20 27 q11 17 20 35 q8 19 -1 35 q-10 17 -30 21 q-13 2 -25 2 q-46 -2 -88 -19 q-23 -9 -47 -17 q-115 -34 -220 -91 q-37 -20 -75 -35 q-39 -14 -80 -23 q-12 -2 -23 -7 q-4 -2 -7 -4 q-3 -3 -6 -6 q-8 -6 -7 -18 q0 -11 8 -18 q17 -14 38 -9 q32 8 64 17 q31 10 61 26 q22 11 44 22 q23 10 45 20 q24 11 49 23 q24 11 49 21 q31 12 62 22 q31 11 63 21 q11 3 24 5 q1 0 3 -1 q2 -1 4 -2 q1 -2 2 -4 q1 -2 0 -3 q-25 -52 -66 -94 q-38 -40 -79 -78 q-41 -38 -84 -74 q-38 -31 -74 -65 q-28 -27 -57 -53 q-29 -27 -61 -50 q-19 -14 -32 -32 q-13 -18 -23 -39 q-4 -9 -1 -20 q3 -10 12 -16 q7 -4 14 -7 q8 -4 16 -6 q10 -2 21 -2 q11 -1 24 -2 q15 3 33 6 q18 2 36 7 q56 14 111 31 q47 15 95 27 q48 13 97 22 q52 10 105 22 q52 12 104 24 q4 1 7 4 q3 3 6 6 q1 2 1 4 q1 2 0 4 q-1 3 -3 7 q-2 4 -5 5 l0 0 Z" /><glyph glyph-name="" unicode="[" d="M367 66 q21 -1 41 -1 q12 1 25 3 q16 4 26 23 q10 19 5 37 q-7 17 -23 21 q-8 3 -16 3 q-9 1 -17 1 q-23 -1 -45 -2 q-23 -2 -46 -1 q-31 1 -62 -3 q-30 -4 -60 -12 q-20 -5 -40 -10 q-12 -3 -19 3 q-7 6 -7 19 q0 50 0 99 q0 49 14 98 q1 4 1 8 q0 4 0 8 q2 36 12 69 q11 34 23 67 q7 20 26 30 q55 30 112 53 q58 23 117 42 q7 3 16 4 q8 1 16 2 q8 2 16 5 q9 4 17 10 q8 7 13 17 q3 8 4 15 q1 8 -4 16 q-6 9 -16 15 q-10 6 -18 5 q-20 -5 -40 -11 q-74 -23 -147 -52 q-73 -30 -146 -57 q-21 -9 -34 -24 q-13 -15 -18 -36 q-10 -36 -20 -72 q-16 -62 -26 -125 q-10 -63 -9 -127 q0 -5 0 -9 q0 -24 -1 -49 q-2 -25 -7 -49 q-2 -14 -2 -29 q0 -14 1 -29 q3 -21 22 -33 q19 -12 39 -5 q19 7 38 16 q79 40 107 43 q28 4 100 4 q15 0 32 0 l0 0 Z" /><glyph glyph-name="" unicode="\" d="M658 64 q-22 25 -47 46 q-25 21 -49 43 q-25 23 -47 47 q-16 19 -36 34 q-39 31 -71 68 q-33 37 -63 76 q-51 64 -103 128 q-52 64 -100 130 q-17 24 -37 45 q-9 9 -20 14 q-11 5 -24 7 q-9 1 -19 -5 q-9 -6 -12 -16 q-8 -30 12 -54 q13 -16 26 -31 q14 -16 26 -33 q22 -32 46 -63 q24 -31 51 -59 q20 -21 36 -44 q22 -31 46 -59 q24 -28 47 -57 q36 -45 80 -82 q31 -27 60 -56 q57 -59 114 -119 q9 -8 19 -16 q15 -10 35 -7 q20 3 32 18 q3 4 4 10 q2 6 4 12 q-2 6 -4 12 q-2 6 -6 11 l0 0 Z" /><glyph glyph-name="" unicode="]" d="M211 594 q24 6 46 17 q90 41 180 82 q7 4 15 7 q7 4 15 6 q4 1 8 0 q4 -1 7 -3 q2 -3 4 -7 q1 -4 0 -7 q-34 -76 -46 -158 q-5 -37 -15 -72 q-13 -48 -24 -96 q-10 -48 -11 -98 q-1 -37 -3 -75 q-1 -16 -5 -32 q-1 -6 -5 -11 q-4 -5 -10 -7 q-34 -15 -71 -19 q-13 -1 -25 -2 q-13 -1 -24 -4 q-26 -7 -53 -10 q-27 -4 -53 -5 q-23 -1 -45 -7 q-22 -6 -43 -15 q-3 -2 -7 -5 q-3 -2 -6 -4 q-11 -9 -12 -25 q-1 -16 9 -27 q12 -11 25 -15 q13 -4 28 0 q58 16 116 29 q58 12 117 20 q62 8 120 30 q15 6 23 17 q9 11 10 27 q1 12 0 25 q0 12 -1 24 q-1 38 0 75 q1 37 7 73 q8 41 17 81 q9 40 19 80 q5 22 11 44 q6 22 10 44 q4 25 12 49 q7 23 17 46 q18 46 36 92 q4 12 -1 23 q-5 12 -17 18 q-16 9 -32 10 q-15 1 -32 -6 q-72 -31 -143 -62 q-69 -30 -137 -60 q-30 -14 -62 -18 q-8 -1 -16 -4 q-8 -2 -16 -6 q-7 -4 -11 -11 q-5 -7 -5 -16 q0 -10 7 -19 q6 -10 15 -12 q4 -1 8 -2 q5 -1 11 -2 q8 0 18 1 q10 0 20 2 l0 0 Z" /><glyph glyph-name="" unicode="_" d="M786 134 q6 1 12 3 q6 1 12 3 q12 5 16 17 q4 13 -4 24 q-6 9 -14 15 q-9 5 -20 5 q-39 1 -78 -2 q-39 -3 -77 -12 q-36 -10 -72 -18 q-37 -9 -73 -15 q-86 -14 -169 -39 q-38 -10 -76 -20 q-38 -10 -76 -19 q-12 -3 -24 -4 q-12 -1 -25 -2 q-12 -1 -25 -2 q-12 -1 -24 -2 q-6 -1 -12 -3 q-6 -2 -12 -5 q-9 -4 -14 -14 q-5 -10 -2 -20 q5 -17 22 -21 q19 -4 37 -3 q19 2 37 6 q54 14 108 26 q54 13 107 30 q34 10 68 18 q34 8 68 16 q40 9 81 17 q47 9 93 16 q47 7 95 5 q10 0 21 0 q10 0 20 0 l0 0 Z" /><glyph glyph-name="" unicode="a" d="M699 227 q-2 3 -6 4 q-4 2 -7 3 q-2 1 -4 0 q-2 0 -4 -1 q-45 -25 -91 -49 q-45 -24 -87 -54 q-41 -29 -86 -48 q-13 -5 -23 2 q-11 6 -12 21 q-2 12 -2 24 q0 21 1 41 q1 21 0 42 q-1 29 4 57 q5 28 15 55 q6 14 10 27 q4 14 5 29 q1 12 -6 23 q-7 10 -20 13 q-6 1 -11 1 q-6 0 -11 0 q3 16 15 25 q16 13 34 24 q7 5 14 9 q7 4 14 8 q6 4 9 13 q3 9 1 16 q-3 10 -12 17 q-9 7 -19 5 q-8 -1 -16 -4 q-8 -2 -14 -6 q-22 -13 -40 -30 q-18 -16 -35 -34 q-62 -64 -122 -129 q-61 -64 -120 -130 q-19 -22 -35 -46 q-3 -5 -5 -11 q-2 -5 -4 -11 q-3 -10 1 -20 q5 -10 14 -16 q11 -7 22 -9 q12 -1 25 3 q33 13 62 32 q29 19 57 41 q44 37 88 73 q1 1 3 2 q3 0 4 -1 q2 -1 3 -3 q2 -2 2 -4 q-1 -37 -3 -73 q-1 -23 0 -46 q1 -22 6 -44 q6 -25 28 -40 q22 -15 46 -12 q27 5 52 13 q25 9 47 25 q25 18 51 36 q25 18 52 33 q29 16 54 36 q26 21 53 39 q3 2 5 6 q2 4 3 8 q0 4 -1 8 q-1 4 -4 7 l0 0 ZM210 226 q-31 -27 -68 -45 q0 -1 -2 1 q-2 2 -3 4 q0 1 0 4 q1 2 2 3 q26 29 52 58 q27 28 51 58 q23 27 48 50 q26 24 51 48 q3 3 8 4 q5 2 10 3 q-27 -55 -65 -101 q-38 -47 -84 -87 l0 0 Z" /><glyph glyph-name="" unicode="b" d="M431 300 q-60 23 -120 -1 q-43 -17 -82 -40 q-38 -23 -72 -54 q-15 -15 -30 -28 q-2 -1 -4 -1 q-3 -1 -4 0 q-3 3 -6 6 q-2 4 -2 7 q1 22 3 45 q1 22 5 44 q4 19 7 37 q2 18 3 37 q0 45 1 90 q0 13 0 25 q1 13 4 24 q6 22 7 47 q2 25 1 60 q0 0 0 10 q-1 10 -3 22 q-2 12 -13 22 q-10 10 -29 10 q-10 -1 -19 -9 q-9 -7 -10 -16 q0 -4 0 -8 q-1 -4 0 -8 q7 -58 6 -115 q-1 -58 -11 -115 q-2 -14 -3 -28 q0 -15 -1 -29 q-1 -13 -1 -25 q0 -12 -2 -25 q-5 -43 -12 -85 q-6 -43 -12 -86 q-4 -29 -4 -57 q0 -11 6 -19 q6 -8 16 -13 q8 -4 16 -2 q8 2 15 6 q14 9 25 22 q10 12 19 26 q32 47 72 85 q41 37 90 65 q22 13 46 18 q23 5 49 1 q11 -2 17 -11 q6 -9 2 -19 q-5 -9 -9 -19 q-5 -9 -12 -16 q-15 -14 -31 -27 q-16 -13 -33 -24 q-40 -27 -81 -49 q-42 -21 -90 -31 q-8 -2 -14 -7 q-10 -8 -17 -18 q-4 -7 -3 -16 q1 -8 7 -14 q6 -6 14 -9 q7 -3 15 -3 q11 1 21 3 q10 2 20 5 q41 18 82 38 q41 19 79 45 q48 32 86 75 q24 29 36 64 q10 29 -1 53 q-12 24 -39 35 l0 0 Z" /><glyph glyph-name="" unicode="c" d="M414 101 q-1 4 -4 7 q-2 4 -5 5 q-6 1 -12 1 q-7 1 -13 0 q-35 -2 -69 -9 q-34 -7 -69 -12 q-40 -7 -81 -12 q-8 0 -16 1 q-8 1 -16 2 q-10 3 -16 12 q-6 9 -4 19 q6 23 16 43 q10 20 26 37 q12 12 27 23 q15 11 31 22 q3 2 7 2 q4 1 8 0 q8 -2 15 -5 q8 -4 16 -6 q6 -2 12 0 q6 2 10 6 q9 8 15 19 q27 52 -27 70 q-33 11 -63 -6 q-33 -19 -60 -43 q-28 -25 -51 -54 q-22 -25 -38 -54 q-16 -28 -23 -61 q-4 -16 0 -28 q3 -13 14 -24 q22 -22 48 -32 q26 -9 57 -8 q20 3 41 6 q20 3 40 7 q48 10 95 25 q21 7 42 16 q21 9 42 17 q4 2 5 6 q2 4 0 8 l0 0 Z" /><glyph glyph-name="" unicode="d" d="M652 107 q-3 3 -7 5 q-3 2 -7 2 q-16 -3 -31 -10 q-72 -30 -144 -61 q-19 -8 -38 -14 q-20 -5 -41 -7 q-18 -2 -32 6 q-13 7 -23 23 q-7 11 -10 22 q-3 12 -1 25 q4 24 8 49 q4 24 13 47 q13 35 23 70 q10 36 21 71 q4 14 8 28 q5 14 10 27 q24 57 40 117 q16 60 34 119 q4 15 -6 26 q-10 10 -27 8 q-11 -2 -19 -7 q-9 -6 -13 -16 q-5 -15 -9 -31 q-4 -16 -9 -32 q-5 -18 -10 -36 q-5 -18 -11 -35 q-9 -27 -20 -54 q-11 -27 -20 -54 q-5 -13 -12 -22 q-7 -9 -19 -15 q-48 -21 -90 -50 q-43 -29 -85 -59 q-20 -14 -39 -30 q-18 -16 -37 -33 q-9 -8 -14 -19 q-6 -12 -7 -24 q-2 -22 12 -35 q13 -13 33 -10 q37 9 70 24 q33 15 59 40 q13 10 24 19 q12 9 23 18 q2 1 4 0 q2 0 3 -1 q1 -1 2 -3 q1 -2 1 -4 q-4 -18 -7 -36 q-4 -18 -7 -37 q-4 -34 3 -65 q6 -31 30 -58 q27 -28 65 -32 q21 -2 42 1 q20 2 40 9 q111 35 205 103 q5 3 9 8 q5 4 9 9 q2 3 3 7 q1 2 2 4 q0 3 -1 3 l0 0 Z" /><glyph glyph-name="" unicode="e" d="M125 110 q69 37 138 74 q24 13 45 29 q21 16 38 38 q33 42 54 92 q4 8 4 16 q1 8 -1 16 q-4 14 -9 27 q-5 14 -12 27 q-12 23 -35 33 q-24 10 -49 2 q-31 -10 -59 -27 q-28 -16 -52 -41 q-40 -45 -73 -94 q-34 -50 -65 -100 q-18 -30 -35 -61 q-17 -30 -42 -56 q-3 -3 -2 -11 q2 -8 5 -11 q16 -11 31 -21 q15 -10 29 -22 q13 -12 29 -15 q16 -3 33 0 q39 6 77 16 q37 10 73 27 q26 13 52 25 q26 12 52 24 q23 11 44 24 q2 2 4 6 q2 4 1 8 q-1 3 -4 6 q-4 3 -6 3 q-21 -4 -41 -8 q-20 -4 -40 -10 q-25 -8 -50 -17 q-25 -10 -50 -20 q-23 -8 -47 -15 q-24 -6 -51 -5 q-3 0 -7 0 q-3 0 -7 1 q-10 3 -9 11 q0 2 1 4 q0 2 2 3 q8 6 17 12 q8 6 17 10 l0 0 ZM121 208 q18 28 36 55 q17 28 37 54 q22 30 51 53 q29 23 65 35 q10 3 19 -2 q8 -6 11 -17 q1 -9 2 -16 q2 -24 -7 -45 q-8 -20 -24 -37 q-10 -11 -21 -20 q-11 -9 -23 -17 q-32 -23 -66 -42 q-34 -19 -69 -35 q-5 -2 -9 -1 q-4 1 -6 5 q-1 3 -2 7 q-1 4 0 8 q1 8 6 15 l0 0 Z" /><glyph glyph-name="" unicode="f" d="M706 650 q0 12 -4 24 q-12 35 -26 70 q-8 20 -33 36 q-25 16 -54 11 q-19 -4 -36 -11 q-16 -7 -31 -20 q-20 -18 -38 -37 q-18 -19 -33 -42 q-16 -25 -29 -50 q-14 -25 -25 -52 q-5 -13 -11 -26 q-5 -14 -13 -26 q-8 -12 -13 -26 q-4 -13 -8 -28 q-24 -87 -51 -174 q-2 -8 -8 -14 q-6 -6 -15 -8 q-48 -12 -95 -25 q-48 -13 -98 -18 q-12 -1 -24 -5 q-8 -2 -15 -5 q-7 -3 -12 -10 q-6 -8 -6 -16 q0 -9 8 -18 q7 -9 17 -10 q25 -2 49 -1 q25 1 49 7 q18 5 36 10 q17 6 35 10 q20 5 41 7 q8 1 15 -5 q8 -5 9 -12 q2 -13 3 -25 q1 -12 1 -24 q-1 -56 5 -112 q6 -55 16 -110 q5 -27 6 -53 q2 -27 -4 -53 q0 -2 1 -4 q1 -2 2 -3 q2 -4 6 -5 q2 -1 4 -1 q2 1 4 2 q10 8 16 18 q5 11 8 24 q6 26 7 53 q1 26 -1 53 q-8 116 -3 231 q1 8 2 17 q0 8 3 15 q2 6 7 11 q4 5 9 7 q20 6 40 6 q56 2 111 11 q55 9 110 16 q4 0 7 3 q4 3 7 5 q1 2 2 4 q1 2 1 4 q0 1 -1 3 q-1 2 -2 3 q-15 9 -31 13 q-16 4 -32 5 q-41 3 -82 3 q-42 0 -83 -7 q-8 -1 -16 -2 q-8 0 -16 0 q-6 0 -11 6 q-6 5 -5 10 q5 24 10 48 q8 56 25 108 q18 53 44 102 q15 28 29 55 q15 27 31 54 q9 16 24 27 q15 11 33 18 q13 5 24 2 q12 -4 18 -15 q11 -21 17 -42 q6 -22 5 -45 q0 -21 -1 -41 q-1 -21 0 -42 q0 -7 3 -15 q2 -8 6 -16 q6 -11 19 -12 q13 -1 22 9 q5 7 9 14 q4 8 6 15 q5 29 6 58 q0 29 -2 58 l0 0 Z" /><glyph glyph-name="" unicode="g" d="M544 335 q-8 3 -16 2 q-8 -1 -15 -6 q-15 -11 -29 -23 q-14 -12 -29 -23 q-124 -83 -261 -140 q-8 -3 -16 -3 q-8 -1 -17 -2 q-1 0 -3 1 q-2 1 -4 2 q-4 2 -5 6 q-1 3 2 7 q12 15 24 29 q12 14 22 29 q16 25 38 45 q21 19 44 36 q29 23 60 44 q11 8 26 13 q14 5 33 6 q2 -2 5 -7 q3 -5 7 -9 q17 -12 35 -8 q18 3 29 21 q4 8 4 15 q0 8 -3 16 q-10 20 -36 33 q-27 12 -48 8 q-53 -11 -98 -42 q-48 -35 -92 -76 q-44 -41 -84 -85 q-26 -27 -42 -61 q-9 -19 -3 -39 q6 -21 25 -33 q8 -6 18 -9 q10 -3 20 -3 q17 1 33 5 q16 3 32 10 q34 15 67 31 q88 45 171 99 q1 1 3 1 q2 -1 3 -2 q2 -1 3 -3 q1 -2 1 -4 q-8 -43 -12 -86 q-5 -42 -4 -86 q2 -124 3 -247 q0 -17 0 -33 q0 -17 0 -33 q1 -34 -9 -65 q-10 -31 -28 -60 q-24 -40 -64 -63 q-46 -25 -95 -40 q-48 -15 -102 -14 q-18 0 -37 0 q-18 0 -37 0 q-25 1 -49 6 q-24 6 -47 16 q-24 11 -48 23 q-24 11 -43 32 q-3 3 -7 1 q-4 -1 -7 -5 q-2 -4 -3 -8 q-1 -3 -1 -7 q1 -4 3 -8 q2 -3 4 -6 q6 -6 13 -11 q6 -6 11 -12 q26 -29 59 -44 q34 -15 71 -22 q10 -2 21 -2 q10 -1 20 -4 q26 -9 52 -9 q27 0 53 8 q6 1 12 2 q7 0 13 1 q39 4 76 17 q37 14 72 31 q64 32 108 88 q22 28 37 59 q15 32 17 68 q2 31 3 62 q2 31 2 62 q-1 49 -2 99 q-2 49 -2 98 q-1 69 12 136 q12 66 45 128 q2 3 3 7 q1 4 2 8 q3 9 -3 19 q-5 10 -16 13 l0 0 Z" /><glyph glyph-name="" unicode="h" d="M497 85 q-3 5 -9 9 q-7 3 -12 2 q-8 -3 -16 -6 q-8 -3 -16 -4 q-24 -5 -48 -6 q-19 0 -32 10 q-13 10 -17 27 q-10 44 -18 89 q-5 33 -21 62 q-10 19 -30 27 q-20 7 -41 0 q-27 -11 -48 -32 q-18 -19 -36 -39 q-19 -20 -37 -39 q-2 -2 -6 -3 q-4 0 -8 -1 q0 1 -2 3 q-1 2 -1 4 q-3 31 -1 62 q1 31 7 62 q4 24 6 49 q2 24 3 49 q2 58 8 115 q2 19 2 37 q1 19 -2 37 q-2 15 -3 29 q0 15 -2 29 q-1 12 -4 24 q-3 12 -16 17 q-12 4 -24 -2 q-12 -8 -17 -18 q-5 -11 -3 -24 q14 -83 3 -165 q-5 -43 -9 -86 q-3 -43 -6 -87 q0 -8 -1 -16 q0 -8 -2 -16 q-9 -31 -10 -61 q-1 -31 0 -62 q0 -29 0 -58 q1 -12 3 -25 q4 -14 18 -21 q15 -7 28 1 q8 5 17 11 q9 6 16 13 q26 27 49 56 q11 12 21 26 q10 13 20 25 q6 6 13 11 q7 4 14 9 q7 3 15 0 q9 -4 12 -11 q6 -18 7 -37 q0 -18 1 -37 q1 -14 6 -28 q5 -13 12 -26 q12 -20 29 -35 q17 -14 38 -24 q5 -3 12 -4 q6 -1 12 0 q28 4 56 12 q28 8 52 26 q10 7 17 17 q3 5 3 11 q1 6 -2 12 l0 0 Z" /><glyph glyph-name="" unicode="i" d="M139 407 q-1 9 -10 16 q-9 8 -18 7 q-8 0 -15 -6 q-6 -6 -8 -14 q-16 -92 -30 -185 q-3 -16 -4 -33 q-1 -16 -2 -32 q0 -13 -4 -24 q-4 -12 -8 -23 q-2 -6 -3 -12 q0 -6 0 -12 q1 -15 11 -27 q11 -11 24 -12 q15 0 28 10 q13 9 15 22 q6 40 8 81 q0 16 1 33 q1 16 5 32 q8 28 9 56 q1 29 5 57 q-2 33 -4 66 l0 0 ZM102 641 q0 2 1 5 q0 2 0 5 q-3 4 -7 9 q-4 4 -9 7 q-17 7 -34 -2 q-17 -8 -24 -27 q-3 -7 1 -15 q4 -7 12 -10 q19 -6 35 2 q17 7 25 26 l0 0 Z" /><glyph glyph-name="" unicode="j" d="M404 383 q-2 10 -11 17 q-8 8 -18 8 q-10 0 -19 -7 q-10 -7 -12 -16 q-3 -12 -4 -24 q-1 -17 -2 -33 q0 -17 -3 -33 q-12 -65 -21 -130 q-8 -65 -13 -131 q-2 -29 -9 -57 q-8 -28 -19 -55 q-8 -18 -20 -31 q-12 -14 -29 -22 q-23 -11 -46 -20 q-5 -3 -11 -4 q-7 -1 -13 0 q-17 1 -32 8 q-14 6 -26 19 q-7 10 -14 21 q-6 10 -13 21 q-7 10 -17 16 q-3 2 -8 3 q-4 0 -7 -1 q-4 -2 -6 -5 q-3 -4 -3 -8 q-1 -6 0 -12 q1 -6 4 -11 q6 -11 13 -21 q8 -10 13 -21 q15 -30 39 -42 q24 -12 56 -11 q4 0 8 0 q0 0 0 1 q8 -1 16 -1 q9 0 17 1 q25 3 48 12 q23 9 41 26 q26 25 45 54 q18 29 27 65 q7 30 12 60 q6 30 4 62 q0 8 1 16 q0 8 2 17 q13 93 27 187 q3 20 4 41 q1 21 -1 41 l0 0 ZM247 622 q17 -8 31 -1 q14 7 17 25 q3 21 -12 36 q-16 16 -36 15 q-19 -2 -27 -16 q-7 -13 0 -30 q9 -19 27 -29 l0 0 Z" /><glyph glyph-name="" unicode="k" d="M596 153 q-4 2 -8 3 q-4 2 -7 2 q-23 0 -46 0 q-23 0 -45 -2 q-49 -7 -98 -8 q-31 0 -62 -2 q-31 -3 -61 -10 q-6 -2 -12 -2 q-7 -1 -13 -1 q-14 -1 -21 7 q-8 9 -6 24 q1 8 3 16 q2 8 6 16 q16 31 38 58 q21 28 43 55 q21 28 43 55 q22 28 53 47 q3 2 6 5 q3 3 5 6 q19 22 40 42 q21 19 46 35 q7 5 8 17 q1 11 -4 21 q-6 10 -16 14 q-9 5 -18 2 q-8 -3 -16 -6 q-8 -3 -14 -8 q-39 -28 -75 -59 q-35 -31 -68 -66 q-17 -20 -34 -41 q-17 -20 -34 -41 q-6 -8 -12 -4 q-3 3 -4 7 q-17 81 -17 164 q1 45 0 90 q-1 25 -5 50 q-1 6 -3 12 q-2 5 -4 11 q-5 12 -20 20 q-14 8 -28 3 q-12 -5 -18 -15 q-5 -10 -2 -25 q8 -39 11 -78 q3 -39 3 -78 q0 -45 1 -91 q2 -45 8 -90 q2 -16 3 -33 q0 -16 1 -33 q1 -25 -14 -46 q-15 -23 -32 -43 q-18 -20 -37 -39 q-15 -15 -27 -31 q-5 -7 -5 -15 q-1 -8 2 -17 q4 -9 13 -16 q9 -7 18 -8 q4 0 8 0 q5 -1 9 0 q28 4 58 9 q5 -12 9 -23 q3 -6 5 -11 q2 -6 5 -11 q7 -11 20 -11 q14 0 22 10 q7 11 12 22 q2 6 3 12 q1 6 2 12 q2 9 7 15 q5 6 14 8 q18 4 36 9 q18 5 36 6 q46 3 91 9 q44 7 90 10 q29 1 56 10 q27 9 54 18 q3 1 6 5 q2 4 3 8 q2 5 -2 11 q-4 6 -9 8 l0 0 Z" /><glyph glyph-name="" unicode="l" d="M123 9 q-14 18 -20 40 q-5 21 -4 44 q2 128 4 256 q0 8 1 16 q8 55 10 111 q2 55 4 111 q0 24 2 49 q1 24 7 49 q4 13 -2 24 q-6 10 -16 18 q-9 7 -18 9 q-10 3 -21 -1 q-10 -5 -15 -14 q-5 -8 -5 -19 q-1 -4 -1 -8 q0 -46 -1 -91 q0 -45 -2 -90 q-2 -47 -5 -94 q-3 -47 -4 -95 q-1 -35 -4 -69 q-3 -33 -5 -63 q1 -36 2 -68 q1 -32 3 -63 q1 -12 4 -24 q2 -12 6 -24 q4 -12 11 -21 q8 -10 18 -18 q7 -5 15 -7 q8 -2 16 -1 q13 1 21 12 q7 11 3 23 q-1 2 -2 4 q0 2 -2 4 l0 0 Z" /><glyph glyph-name="" unicode="m" d="M698 158 q-4 5 -10 8 q-6 2 -12 1 q-10 -2 -20 -5 q-9 -3 -19 -6 q-13 -2 -25 4 q-12 6 -17 16 q-19 38 -22 79 q-1 13 -1 25 q-1 13 -3 25 q-3 20 -7 40 q-5 21 -11 40 q-11 31 -40 39 q-29 7 -54 -13 q-21 -20 -39 -43 q-26 -32 -46 -69 q-19 -36 -36 -74 q-5 -13 -12 -26 q-6 -13 -13 -25 q-1 -2 -3 -3 q-2 -1 -4 -2 q-8 -1 -8 10 q-1 27 -2 53 q-1 27 -2 54 q-1 12 -4 24 q-3 12 -6 24 q-4 11 -15 19 q-10 7 -24 8 q-11 0 -20 -4 q-9 -4 -15 -13 q-20 -32 -37 -65 q-23 -44 -45 -88 q-3 -4 -6 -6 q-3 -1 -6 1 q-1 1 -2 3 q-1 2 -1 4 q-1 29 0 58 q2 29 7 58 q3 16 4 32 q0 17 0 33 q0 8 -4 16 q-4 7 -10 13 q-12 11 -26 10 q-15 -1 -24 -14 q-5 -7 -9 -15 q-3 -7 -1 -15 q5 -29 3 -58 q-2 -29 -6 -57 q-5 -43 -9 -86 q-4 -44 -8 -87 q-2 -25 9 -48 q12 -22 36 -26 q25 -4 40 14 q18 23 30 49 q14 28 27 56 q12 28 25 56 q4 8 8 14 q5 7 14 10 q5 -7 5 -16 q1 -8 2 -16 q5 -33 12 -65 q3 -12 9 -22 q7 -10 17 -19 q18 -14 39 -12 q20 2 35 19 q14 18 24 38 q10 20 17 42 q10 32 22 62 q12 31 28 60 q7 15 18 27 q16 19 33 36 q1 2 4 3 q2 0 3 0 q3 -2 7 -5 q3 -3 4 -6 q4 -45 8 -90 q3 -45 22 -87 q11 -25 30 -40 q18 -15 43 -23 q26 -7 49 -1 q22 7 43 23 q4 4 7 10 q3 5 5 11 q2 6 1 12 q-2 6 -6 11 l0 0 Z" /><glyph glyph-name="" unicode="n" d="M390 45 q-11 17 -25 32 q-14 14 -23 30 q-9 16 -12 34 q-6 31 -11 61 q-6 30 -5 62 q1 29 -3 57 q-3 25 -10 49 q-7 20 -24 26 q-17 6 -36 -5 q-7 -4 -14 -9 q-7 -4 -12 -10 q-17 -18 -32 -38 q-15 -20 -27 -42 q-9 -18 -19 -36 q-11 -18 -21 -35 q-1 -2 -3 -3 q-2 -1 -4 -1 q-7 1 -8 11 q-2 19 -1 37 q1 19 4 37 q3 16 3 33 q-1 17 -15 27 q-14 10 -32 6 q-9 -2 -16 -11 q-8 -8 -9 -18 q-2 -33 -3 -67 q-2 -34 -4 -72 q0 -24 0 -52 q0 -28 0 -57 q0 -16 8 -27 q8 -11 22 -19 q3 -2 7 -3 q14 -7 25 -4 q12 3 18 14 q21 39 42 76 q22 37 40 77 q7 15 15 30 q7 14 16 28 q2 3 6 5 q4 1 8 2 q0 0 2 -2 q1 -2 2 -4 q4 -34 7 -69 q2 -35 12 -69 q15 -53 50 -94 q7 -8 15 -13 q9 -6 18 -11 q7 -4 15 -5 q8 0 17 3 q12 4 18 16 q5 13 -1 23 l0 0 Z" /><glyph glyph-name="" unicode="o" d="M409 275 q-36 40 -83 68 q-10 5 -14 14 q-4 8 0 20 q3 12 2 24 q-2 15 -16 23 q-13 9 -27 4 q-23 -9 -41 -25 q-15 -14 -31 -28 q-15 -14 -33 -24 q-13 -8 -22 -19 q-9 -11 -15 -24 q-4 -9 -9 -19 q-5 -9 -11 -17 q-25 -38 -42 -80 q-17 -42 -35 -83 q-8 -20 -1 -40 q7 -20 25 -32 q23 -16 50 -24 q27 -9 66 -8 q12 -1 31 4 q20 5 41 15 q17 7 34 16 q16 8 33 15 q14 5 26 13 q12 7 22 18 q14 15 30 28 q16 14 26 32 q10 17 15 38 q7 25 2 48 q-5 23 -23 43 l0 0 ZM357 162 q-3 -3 -6 -5 q-45 -36 -96 -56 q-51 -20 -107 -28 q-4 0 -7 0 q-9 1 -17 3 q-8 2 -12 10 q-5 8 -4 15 q9 30 23 58 q13 27 31 53 q15 19 30 38 q16 19 32 38 q6 6 14 9 q7 3 16 3 q10 -1 20 -2 q11 -1 20 -4 q40 -12 68 -44 q19 -21 17 -44 q-1 -22 -22 -44 l0 0 Z" /><glyph glyph-name="" unicode="p" d="M718 311 q-10 24 -31 38 q-33 21 -68 38 q-36 17 -71 33 q-41 8 -81 16 q-40 9 -82 10 q-20 0 -41 2 q-45 6 -90 5 q-46 -1 -91 -4 q-25 0 -49 2 q-45 3 -91 6 q-6 0 -12 -1 q-6 -1 -12 -2 q-9 -1 -16 -10 q-7 -9 -8 -20 q0 -7 6 -13 q5 -6 15 -9 q24 -8 48 -12 q24 -4 49 -3 q15 0 29 -1 q14 -1 29 -2 q4 -1 9 -7 q5 -7 5 -11 q0 -4 0 -8 q1 -5 0 -9 q-11 -52 -18 -105 q-7 -53 -13 -106 q-1 -4 -2 -8 q-2 -7 -6 -11 q-4 -5 -10 -6 q-8 -2 -16 -3 q-9 -1 -16 -4 q-16 -5 -30 -14 q-14 -9 -13 -24 q0 -15 14 -23 q11 -5 22 -10 q12 -4 23 -9 q17 -8 18 -26 q2 -56 -3 -111 q-5 -55 -19 -109 q-3 -8 -5 -16 q-3 -8 -5 -16 q0 -3 1 -8 q1 -4 3 -7 q9 -15 23 -17 q14 -1 25 11 q14 16 23 34 q8 19 10 40 q7 98 15 197 q2 16 5 32 q2 7 6 11 q5 5 10 7 q6 3 12 4 q6 2 12 2 q33 1 65 9 q32 7 64 16 q38 11 75 22 q38 12 76 19 q46 9 86 29 q40 21 77 47 q21 16 33 37 q12 21 16 46 q2 9 0 17 q-1 8 -5 15 l0 0 ZM670 269 q-6 -8 -12 -16 q-7 -8 -15 -13 q-24 -17 -51 -29 q-26 -12 -53 -20 q-69 -22 -139 -39 q-70 -18 -141 -28 q-10 -2 -20 -4 q-10 -2 -20 -2 q-3 0 -7 3 q-3 3 -6 6 q-1 1 -1 3 q-1 2 -1 4 q1 117 38 227 q5 13 14 20 q10 7 23 7 q17 0 34 0 q17 0 36 0 q54 1 108 -8 q54 -10 108 -23 q26 -6 50 -18 q24 -12 47 -26 q10 -6 12 -20 q3 -13 -4 -24 l0 0 Z" /><glyph glyph-name="" unicode="q" d="M500 262 q-7 8 -17 10 q-10 2 -20 -3 q-9 -5 -18 -10 q-9 -6 -18 -10 q-7 -2 -15 -4 q-7 -1 -14 -2 q13 24 16 49 q3 26 0 52 q-4 31 -27 50 q-23 18 -54 15 q-13 -1 -25 -4 q-12 -3 -23 -8 q-42 -22 -80 -51 q-38 -28 -71 -62 q-24 -26 -45 -54 q-21 -28 -43 -56 q-5 -6 -9 -14 q-4 -7 -6 -15 q-4 -12 -3 -24 q2 -12 10 -22 q8 -10 18 -17 q11 -6 23 -8 q54 -8 107 4 q6 1 12 3 q6 2 11 5 q33 23 70 36 q37 12 72 30 q3 1 7 0 q4 -1 8 -2 q3 -3 3 -7 q0 -4 -3 -8 q-27 -39 -49 -81 q-22 -42 -43 -84 q-17 -36 -27 -74 q-9 -38 -16 -77 q-4 -23 -1 -45 q4 -22 15 -43 q4 -7 10 -13 q5 -6 12 -11 q11 -8 23 -4 q12 3 18 16 q3 5 4 12 q1 6 -1 11 q-13 31 -11 61 q3 30 15 59 q7 20 15 39 q8 19 14 38 q13 38 30 73 q18 34 40 67 q18 28 37 55 q19 27 37 54 q12 17 20 36 q4 11 2 20 q-2 10 -10 18 l0 0 ZM382 223 q-10 -8 -21 -14 q-11 -6 -22 -10 q-106 -35 -212 -68 q-4 -1 -8 0 q-5 2 -7 4 q-2 3 -2 7 q0 4 1 7 q16 29 37 55 q20 26 46 47 q27 22 55 44 q27 22 60 36 q5 2 11 4 q6 2 12 3 q8 2 16 -4 q8 -6 8 -13 q-1 -17 -3 -33 q-2 -19 6 -29 q7 -10 29 -17 q3 -1 6 -1 q-3 -5 -6 -10 q-2 -5 -6 -8 l0 0 Z" /><glyph glyph-name="" unicode="r" d="M433 300 q-7 21 -29 26 q-25 5 -49 1 q-24 -4 -47 -15 q-40 -19 -75 -41 q-35 -23 -59 -50 q-17 -17 -31 -30 q-13 -12 -25 -23 q-2 -2 -6 -3 q-4 0 -8 -1 q0 0 -1 3 q-2 2 -2 4 q1 25 1 50 q0 25 3 49 q5 34 2 66 q-4 33 -8 65 q-1 5 -5 10 q-5 5 -9 10 q-4 3 -11 3 q-8 1 -12 -3 q-5 -4 -9 -8 q-5 -5 -6 -10 q-4 -33 -4 -66 q1 -45 0 -90 q-2 -46 -9 -91 q-3 -22 -4 -45 q-1 -23 -2 -45 q-1 -13 2 -25 q3 -13 12 -21 q8 -8 21 -13 q8 -3 19 1 q10 3 17 12 q16 20 30 40 q6 8 11 17 q5 9 12 17 q33 34 67 67 q35 32 74 60 q22 16 46 27 q24 11 51 14 q8 2 16 4 q8 3 15 6 q7 2 10 11 q4 9 2 17 l0 0 Z" /><glyph glyph-name="" unicode="s" d="M523 414 q-19 7 -39 14 q-24 8 -48 8 q-25 0 -49 -8 q-20 -5 -39 -13 q-53 -24 -103 -52 q-50 -28 -97 -62 q-5 -4 -10 -8 q-4 -5 -8 -9 q-7 -9 -8 -23 q0 -14 6 -24 q20 -24 44 -42 q25 -18 56 -26 q40 -10 80 -20 q40 -10 80 -21 q5 -2 10 -5 q5 -4 10 -8 q5 -3 5 -7 q0 -3 -5 -7 q-4 -3 -9 -7 q-6 -3 -11 -5 q-71 -18 -142 -23 q-72 -4 -145 0 q-2 0 -4 1 q-2 0 -3 1 q-3 3 -6 5 q-3 3 -4 6 q-1 4 -1 8 q1 5 1 9 q-2 9 -9 13 q-7 4 -15 1 q-18 -7 -33 -17 q-15 -11 -28 -25 q-4 -6 -4 -15 q-1 -10 3 -16 q9 -15 24 -22 q15 -7 31 -10 q16 -3 33 -4 q28 -1 59 -2 q30 -1 64 -2 q25 2 55 4 q30 2 61 3 q42 2 81 14 q38 13 72 38 q4 2 7 5 q27 19 26 43 q-1 24 -29 43 q-59 38 -128 55 q-44 10 -88 21 q-8 2 -16 6 q-7 3 -15 7 q-7 3 -8 13 q-1 9 5 15 q3 3 6 5 q38 30 81 49 q43 20 87 38 q13 6 28 7 q14 1 29 -1 q10 -1 20 -3 q11 -1 21 -2 q3 0 7 2 q4 3 7 6 q8 9 13 20 q4 8 1 17 q-3 8 -9 12 l0 0 Z" /><glyph glyph-name="" unicode="t" d="M529 117 q-7 7 -15 1 q-2 -1 -4 -2 q-1 -1 -3 -2 q-20 -26 -47 -40 q-26 -14 -57 -21 q-22 -5 -37 2 q-16 6 -25 25 q-18 38 -20 79 q-4 100 22 196 q12 48 26 95 q5 17 22 24 q26 10 53 21 q9 5 6 14 q-1 2 -3 4 q-1 1 -3 1 q-8 1 -16 1 q-9 0 -17 0 q-7 1 -13 8 q-7 8 -7 15 q0 4 0 8 q1 4 1 8 q12 48 24 96 q9 32 18 64 q9 31 18 63 q5 14 6 28 q2 14 -2 29 q-2 7 -8 14 q-6 6 -14 8 q-7 1 -16 -2 q-9 -3 -13 -10 q-4 -7 -8 -14 q-4 -7 -5 -15 q-13 -57 -29 -112 q-16 -55 -32 -111 q-7 -28 -15 -56 q-3 -10 -10 -17 q-7 -7 -18 -10 q-8 -2 -16 -4 q-44 -9 -89 -17 q-44 -8 -90 -9 q-17 0 -32 -4 q-6 -2 -11 -6 q-4 -5 -6 -11 q-2 -13 6 -23 q2 -4 5 -6 q16 -11 34 -15 q18 -4 37 0 q28 6 56 13 q28 7 56 13 q8 2 16 3 q8 1 16 1 q14 1 20 -6 q7 -6 3 -18 q-20 -51 -30 -102 q-11 -51 -10 -101 q-2 -33 0 -63 q1 -29 12 -57 q4 -9 7 -19 q3 -10 6 -20 q7 -21 21 -35 q13 -15 33 -24 q24 -11 48 -12 q23 -1 47 11 q11 6 23 10 q12 4 23 9 q11 5 20 14 q16 17 27 36 q10 20 12 44 q0 1 -1 3 q-1 2 -2 3 l0 0 Z" /><glyph glyph-name="" unicode="u" d="M466 103 q-12 5 -24 4 q-13 -1 -25 -1 q-25 0 -37 13 q-13 12 -14 38 q-1 29 -1 58 q0 28 0 57 q1 29 0 58 q0 16 -3 33 q-2 16 -4 32 q-3 12 -14 18 q-12 7 -25 5 q-11 -2 -19 -7 q-9 -6 -13 -16 q-7 -17 -13 -34 q-6 -18 -11 -36 q-16 -45 -36 -87 q-21 -43 -47 -82 q-13 -19 -28 -36 q-15 -17 -35 -29 q-1 -1 -4 -2 q-2 -1 -3 0 q-3 2 -6 5 q-2 3 -3 6 q-2 21 -2 41 q-2 103 -4 206 q0 17 -4 33 q-3 16 -12 30 q-4 8 -12 11 q-7 4 -16 3 q-8 -1 -15 -7 q-6 -6 -7 -13 q-2 -41 -1 -83 q1 -24 2 -49 q2 -25 3 -50 q-2 -82 -3 -164 q0 -21 11 -35 q10 -14 29 -23 q20 -9 39 1 q6 3 11 6 q5 4 10 8 q29 26 55 55 q26 29 46 63 q21 35 44 70 q2 2 5 4 q4 1 7 2 q1 -2 2 -3 q1 -2 1 -4 q-5 -29 -1 -57 q3 -28 17 -55 q25 -49 78 -51 q24 -1 44 7 q21 9 39 23 q3 3 5 7 q2 3 4 7 q2 5 -2 11 q-3 7 -8 9 l0 0 Z" /><glyph glyph-name="" unicode="v" d="M541 491 q-20 18 -46 9 q-27 -10 -51 -25 q-24 -16 -44 -37 q-31 -34 -60 -68 q-28 -35 -52 -75 q-24 -40 -51 -79 q-26 -40 -49 -81 q-1 -2 -3 -3 q-2 -1 -3 -3 q-4 -5 -10 -4 q-6 0 -10 6 q-17 24 -29 49 q-13 26 -23 53 q-12 31 -26 61 q-8 17 -25 20 q-17 4 -31 -4 q-6 -4 -10 -12 q-4 -9 -3 -16 q3 -8 5 -16 q23 -69 55 -133 q32 -64 70 -126 q4 -7 11 -12 q7 -5 15 -7 q7 -2 16 1 q25 7 36 31 q7 15 11 31 q8 30 21 58 q12 29 30 54 q24 36 46 73 q22 37 47 72 q32 46 71 86 q38 39 91 63 q1 1 3 2 q2 2 3 3 q2 8 3 16 q-1 3 -3 7 q-2 4 -5 6 l0 0 Z" /><glyph glyph-name="" unicode="w" d="M670 432 q-11 12 -27 12 q-15 0 -24 -13 q-41 -64 -78 -130 q-38 -67 -64 -139 q-3 -8 -7 -15 q-4 -7 -8 -14 q-5 -9 -14 -3 q-13 7 -23 18 q-9 11 -16 24 q-11 20 -20 40 q-10 21 -20 41 q-8 17 -16 34 q-8 16 -16 33 q-9 14 -32 19 q-22 5 -41 -12 q-21 -22 -38 -48 q-16 -26 -29 -55 q-4 -9 -7 -19 q-4 -10 -8 -19 q-10 -18 -21 -35 q-6 -9 -15 -5 q-1 1 -3 3 q-1 1 -2 3 q-11 46 -22 92 q-11 46 -19 93 q-3 18 -17 27 q-13 8 -32 4 q-10 -2 -17 -11 q-7 -9 -6 -19 q6 -40 13 -81 q8 -38 17 -77 q9 -38 15 -77 q3 -20 10 -39 q6 -20 13 -40 q5 -11 13 -21 q8 -9 17 -17 q9 -7 20 -7 q11 0 18 8 q7 8 13 16 q6 9 10 18 q18 41 35 83 q17 42 35 84 q4 9 10 17 q6 9 13 16 q3 4 8 4 q4 -1 6 -4 q26 -47 50 -95 q16 -30 42 -50 q13 -10 27 -19 q14 -10 28 -17 q11 -6 23 -8 q12 -3 23 -6 q7 3 13 5 q7 2 12 5 q8 6 14 15 q7 8 8 19 q8 47 25 91 q16 45 37 87 q9 19 16 38 q10 30 24 57 q14 27 35 51 q7 8 6 19 q-1 11 -7 19 l0 0 Z" /><glyph glyph-name="" unicode="x" d="M519 71 q-3 2 -7 4 q-3 3 -7 4 q-26 8 -49 22 q-23 13 -45 28 q-53 33 -104 67 q-7 5 -13 10 q-8 7 -11 18 q-3 11 2 20 q24 46 51 89 q28 43 67 78 q7 5 12 11 q8 9 9 23 q1 13 -5 23 q-8 10 -20 11 q-13 1 -24 -7 q-7 -5 -13 -10 q-38 -33 -70 -70 q-32 -38 -55 -83 q-2 -3 -4 -7 q-7 -11 -16 -12 q-10 -2 -18 7 q-50 55 -81 123 q-14 30 -31 59 q-6 10 -19 12 q-13 2 -26 -5 q-8 -5 -12 -15 q-4 -10 -1 -21 q4 -11 8 -23 q25 -55 55 -106 q31 -51 72 -96 q6 -6 11 -12 q5 -6 9 -11 q0 -6 1 -11 q1 -4 0 -8 q-4 -18 -11 -35 q-7 -17 -16 -34 q-23 -48 -44 -98 q-4 -9 -7 -19 q-2 -10 -4 -20 q-1 -6 2 -12 q3 -6 9 -9 q6 -2 12 -1 q6 1 11 5 q6 6 12 12 q6 5 10 12 q13 23 26 47 q13 23 26 47 q16 29 33 57 q3 5 9 6 q7 1 13 -2 q5 -3 11 -5 q6 -3 10 -7 q30 -22 63 -40 q33 -17 65 -35 q16 -9 34 -16 q17 -7 35 -13 q5 -2 11 -2 q7 0 13 0 q7 1 15 8 q7 6 9 13 q1 7 -3 16 q-4 9 -10 13 l0 0 Z" /><glyph glyph-name="" unicode="y" d="M427 484 q-15 12 -31 10 q-16 -3 -24 -19 q-8 -15 -12 -31 q-9 -32 -16 -64 q-9 -45 -28 -86 q-41 -93 -129 -146 q-10 -6 -23 -3 q-13 3 -20 14 q-5 6 -9 13 q-13 26 -23 53 q-9 28 -16 56 q-4 16 -10 31 q-4 8 -15 13 q-11 4 -21 3 q-9 -2 -16 -11 q-7 -9 -6 -19 q0 -7 1 -13 q0 -6 1 -12 q3 -14 7 -28 q3 -14 6 -28 q4 -27 15 -52 q11 -24 26 -47 q10 -16 25 -26 q14 -10 33 -15 q20 -6 37 -3 q17 3 33 14 q17 12 35 23 q9 8 18 16 q9 9 21 13 q8 -9 8 -20 q1 -10 -3 -19 q-19 -48 -32 -98 q-12 -50 -27 -100 q-9 -30 -10 -61 q-2 -31 -6 -61 q3 -16 6 -33 q3 -16 8 -31 q4 -12 14 -20 q9 -8 22 -12 q19 -3 32 8 q12 11 9 29 q-13 45 -12 90 q1 44 12 89 q16 62 31 124 q15 62 32 124 q21 78 37 157 q16 78 31 157 q1 7 -2 12 q-3 5 -9 9 l0 0 Z" /><glyph glyph-name="" unicode="z" d="M665 217 q-2 0 -4 1 q-3 0 -4 0 q-115 -34 -229 -68 q-58 -18 -113 -35 q-55 -17 -103 -32 q-19 -3 -32 -6 q-12 -2 -21 -4 q-2 0 -4 1 q-2 1 -3 3 q-1 1 -1 3 q1 2 2 4 q39 36 84 65 q9 6 17 11 q9 6 17 13 q21 18 43 38 q21 19 44 36 q22 17 41 36 q19 19 37 38 q22 23 36 50 q15 27 24 57 q1 3 0 7 q-1 5 -3 8 q-6 15 -17 23 q-11 8 -27 10 q-29 4 -57 3 q-29 -2 -57 -10 q-34 -10 -68 -20 q-33 -10 -66 -20 q-28 -9 -55 -20 q-27 -10 -53 -21 q-6 -2 -12 -5 q-5 -3 -10 -7 q-4 -4 -7 -10 q-3 -5 -4 -11 q-1 -14 11 -26 q11 -11 25 -11 q6 1 13 1 q6 1 11 4 q48 20 97 35 q49 14 98 32 q17 6 35 8 q19 2 37 -3 q5 -1 7 -5 q2 -3 1 -8 q-2 -5 -4 -11 q-3 -6 -6 -10 q-38 -41 -80 -78 q-42 -36 -88 -67 q-73 -48 -144 -97 q-20 -14 -38 -32 q-6 -6 -7 -14 q-1 -8 2 -17 q6 -25 28 -38 q11 -7 22 -11 q12 -5 24 -6 q19 -3 37 -3 q19 0 37 5 q40 11 80 20 q40 10 77 30 q10 6 22 9 q66 18 129 42 q64 24 129 45 q11 4 23 9 q11 5 22 10 q7 4 12 11 q5 6 8 15 q2 7 -3 15 q-5 9 -12 8 l0 0 Z" /><glyph glyph-name="" unicode="{" d="M156 393 q7 0 14 -7 q6 -6 8 -14 q1 -8 1 -16 q-1 -9 -4 -16 q-6 -11 -11 -22 q-6 -11 -13 -21 q-17 -24 -31 -49 q-14 -25 -27 -51 q-29 -59 -58 -119 q-3 -7 -6 -15 q-3 -11 1 -24 q4 -13 14 -20 q12 -8 26 -13 q13 -5 28 -6 q23 -1 45 3 q22 4 44 11 q51 17 103 29 q52 12 104 24 q52 14 106 18 q3 1 7 3 q4 2 7 4 q1 1 2 3 q1 2 2 4 q1 4 0 8 q-2 3 -7 4 q-39 6 -78 6 q-39 0 -77 -7 q-13 -2 -25 -5 q-12 -2 -24 -3 q-36 -2 -70 -9 q-34 -7 -68 -16 q-12 -4 -24 -2 q-3 0 -6 4 q-3 5 -2 7 q13 37 31 72 q18 35 40 67 q11 15 21 31 q10 15 18 32 q15 27 23 56 q9 30 -1 62 q-2 6 1 12 q3 5 8 10 q11 9 22 18 q12 9 23 18 q14 13 25 27 q11 15 18 32 q16 37 14 72 q-2 36 -26 69 q-13 16 -26 32 q-13 17 -27 32 q-17 18 -29 40 q-11 21 -18 45 q-4 13 -4 25 q1 12 7 23 q6 11 13 21 q6 11 15 20 q28 29 61 55 q34 28 73 45 q38 17 84 16 q9 0 14 7 q6 6 9 14 q1 4 2 8 q2 19 -10 31 q-11 13 -29 11 q-14 -3 -28 -5 q-14 -3 -28 -6 q-28 -4 -52 -15 q-24 -11 -46 -27 q-53 -40 -103 -83 q-38 -33 -56 -80 q-3 -8 -5 -16 q-2 -8 -2 -16 q2 -34 11 -65 q9 -31 31 -58 q32 -38 62 -77 q5 -6 10 -13 q5 -7 7 -14 q11 -38 2 -65 q-10 -26 -37 -44 q-10 -6 -22 -11 q-11 -4 -23 -8 q-10 -3 -20 -4 q-10 -1 -21 -3 q-18 -4 -36 -9 q-18 -4 -35 -10 q-8 -2 -15 -7 q-7 -5 -12 -10 q-4 -5 -6 -11 q-2 -6 -2 -12 q0 -7 6 -15 q6 -7 13 -9 q13 -2 23 -4 q10 -1 14 -2 q15 1 23 2 q8 1 14 1 l0 0 Z" /><glyph glyph-name="" unicode="|" d="M123 474 q0 54 -1 107 q1 29 -2 58 q-1 15 -6 28 q-4 14 -12 26 q-5 7 -12 11 q-8 4 -16 3 q-10 0 -19 -8 q-10 -7 -11 -16 q-1 -2 -1 -4 q-1 -2 -1 -4 q1 -23 1 -46 q0 -22 3 -45 q5 -27 5 -53 q1 -27 -5 -53 q-2 -10 -2 -21 q0 -10 -1 -20 q-3 -46 -5 -91 q-2 -45 -9 -90 q-1 -13 -1 -25 q0 -13 2 -25 q5 -35 5 -70 q1 -35 -5 -70 q-1 -12 2 -24 q3 -12 10 -23 q6 -11 20 -16 q15 -5 31 -2 q8 2 16 11 q7 8 10 18 q4 23 4 45 q0 23 -4 45 q-8 50 -9 99 q-1 49 9 98 q2 10 2 21 q1 10 1 20 q0 58 0 116 q0 0 1 0 l0 0 Z" /><glyph glyph-name="" unicode="}" d="M220 708 q-25 -26 -51 -49 q-26 -23 -56 -42 q-17 -11 -32 -25 q-8 -8 -10 -18 q-2 -10 1 -21 q2 -10 8 -19 q6 -8 17 -11 q31 -8 64 -15 q10 -2 20 -2 q11 0 18 -8 q8 -12 3 -23 q-6 -12 -8 -23 q-2 -12 -2 -25 q-1 -21 14 -37 q12 -13 25 -21 q14 -9 31 -12 q22 -5 44 -12 q21 -8 40 -21 q5 -3 8 -8 q3 -6 4 -12 q0 -9 -1 -17 q-3 -24 -14 -43 q-12 -18 -31 -33 q-29 -23 -60 -44 q-30 -20 -65 -35 q-60 -26 -120 -53 q-16 -6 -29 -17 q-6 -5 -9 -13 q-2 -7 -1 -16 q4 -19 17 -28 q14 -8 32 -3 q64 23 125 53 q61 31 120 64 q5 3 10 6 q5 4 10 8 q47 32 75 76 q27 45 39 99 q1 8 -1 17 q-5 20 -12 39 q-4 8 -10 13 q-5 6 -13 9 q-15 7 -31 12 q-20 6 -40 11 q-20 5 -39 11 q-16 5 -20 14 q-4 10 4 23 q9 14 18 28 q6 10 12 21 q7 15 1 32 q-6 17 -20 26 q-17 9 -35 12 q-18 3 -37 5 q-10 1 -10 9 q0 2 1 4 q0 2 1 4 q24 20 45 42 q22 22 41 46 q18 24 27 51 q13 35 20 71 q4 23 5 45 q0 23 -5 45 q-12 44 -29 86 q-15 37 -40 68 q-24 30 -56 54 q-30 22 -63 28 q-34 6 -70 -1 q-12 -2 -18 -14 q-7 -12 -3 -24 q4 -11 11 -17 q7 -7 18 -9 q8 -2 16 -2 q8 -1 17 -2 q47 -6 77 -43 q30 -36 47 -77 q16 -41 14 -89 q2 -44 -13 -81 q-15 -37 -46 -67 l0 0 Z" /><glyph glyph-name="" unicode="~" d="M522 106 q30 37 62 72 q32 35 68 65 q5 5 5 14 q0 9 -5 16 q-5 6 -11 7 q-6 2 -11 0 q-8 -1 -16 -4 q-8 -3 -15 -7 q-17 -11 -34 -23 q-16 -12 -32 -26 q-18 -16 -36 -34 q-17 -18 -34 -35 q-17 -17 -36 -28 q-20 -11 -42 -17 q-17 -5 -33 0 q-16 5 -26 19 q-16 24 -33 47 q-17 23 -29 49 q-6 11 -14 21 q-17 22 -46 25 q-28 2 -49 -16 q-4 -5 -9 -9 q-4 -4 -7 -10 q-48 -72 -94 -145 q-5 -9 -9 -18 q-4 -10 -7 -20 q-4 -13 3 -26 q8 -14 22 -21 q9 -4 21 -1 q11 3 15 11 q13 25 24 52 q11 27 24 53 q12 25 30 49 q14 20 24 21 q10 1 22 -21 q6 -13 13 -26 q7 -12 15 -24 q11 -15 22 -30 q11 -15 24 -28 q11 -13 27 -20 q16 -7 38 -8 q47 2 90 19 q44 17 79 57 l0 0 Z" /><glyph glyph-name="" unicode="" d="" /><glyph glyph-name="" unicode="" d="M599 621 q23 15 41 34 q19 18 31 43 q2 5 0 11 q-1 7 -5 11 q-4 3 -11 3 q-6 1 -11 -1 q-11 -7 -20 -15 q-10 -7 -20 -15 q-58 -41 -121 -67 q-64 -25 -139 -15 q-25 3 -49 -3 q-24 -6 -46 -18 q-22 -12 -45 -21 q-21 -8 -36 -4 q-16 4 -28 23 q-13 18 -23 38 q-10 21 -23 40 q-5 7 -14 13 q-10 6 -18 6 q-8 -1 -17 -9 q-8 -7 -12 -16 q-4 -10 -5 -23 q-1 -12 1 -24 q3 -28 17 -50 q15 -23 35 -41 q15 -15 22 -33 q6 -18 3 -41 q-5 -35 -7 -70 q-2 -35 -1 -70 q2 -40 -6 -78 q-8 -37 -26 -73 q-17 -33 -30 -67 q-3 -8 -5 -16 q-1 -8 -1 -16 q0 -16 12 -25 q13 -10 27 -5 q11 5 22 12 q10 7 18 16 q12 14 22 30 q10 16 16 33 q13 44 41 70 q28 25 74 32 q12 2 24 7 q11 5 23 8 q20 6 31 0 q12 -6 21 -25 q11 -22 22 -44 q10 -23 23 -44 q11 -18 27 -31 q16 -12 38 -14 q10 0 19 4 q10 4 17 11 q3 4 3 13 q-1 10 -4 17 q-10 18 -21 35 q-11 17 -21 35 q-17 31 -20 62 q-4 32 10 65 q9 21 18 42 q9 21 19 41 q22 42 10 87 q-3 12 -6 25 q-4 13 -10 31 q31 21 59 39 q28 19 55 37 l0 0 ZM356 531 q27 -2 49 -25 q23 -22 24 -51 q1 -16 -3 -33 q-4 -16 -13 -29 q-28 -37 -65 -62 q-37 -24 -84 -33 q-34 -5 -54 11 q-21 17 -22 51 q0 66 52 118 q51 52 116 53 l0 0 Z" /><glyph glyph-name="" unicode="" d="M446 306 q18 16 27 36 q10 20 14 43 q1 8 1 16 q0 9 -3 16 q-11 31 -27 60 q-25 43 -52 84 q-5 7 -13 10 q-8 4 -16 2 q-39 -4 -77 -10 q-39 -7 -73 -29 q-3 -3 -7 -3 q-5 -1 -9 -1 q-6 0 -12 1 q-6 0 -12 3 q-15 7 -25 19 q-11 13 -15 30 q-3 16 3 28 q6 13 21 19 q15 6 31 11 q35 11 70 22 q12 4 22 12 q5 4 9 9 q4 5 6 10 q2 5 2 11 q0 7 0 13 q-1 4 -8 7 q-7 2 -14 2 q-38 -6 -76 -15 q-38 -9 -74 -25 q-24 -11 -42 -27 q-17 -16 -30 -38 q-6 -9 -7 -20 q-2 -10 1 -20 q9 -30 21 -58 q12 -28 32 -52 q15 -16 16 -33 q1 -16 -11 -34 q-12 -17 -23 -34 q-30 -47 -22 -103 q3 -20 13 -34 q10 -14 29 -22 q36 -14 72 -17 q36 -3 74 5 q16 3 30 7 q4 -5 7 -8 q3 -4 4 -7 q25 -70 48 -141 q1 -6 2 -12 q0 -6 0 -12 q0 -13 -7 -24 q-7 -11 -19 -15 q-23 -8 -46 -17 q-24 -8 -48 -14 q-42 -10 -84 -17 q-42 -7 -86 3 q-4 1 -8 -1 q-4 -1 -8 -3 q-15 -7 -19 -25 q-1 -8 2 -16 q4 -8 10 -12 q9 -6 19 -10 q9 -3 20 -2 q21 1 41 3 q21 2 41 2 q50 1 98 11 q48 11 95 27 q16 5 31 13 q14 8 27 18 q14 11 21 25 q8 14 8 32 q1 14 0 29 q-1 14 -4 28 q-9 42 -19 84 q-9 42 -27 82 q-3 6 -4 12 q-2 6 -4 13 q32 27 63 53 l0 0 ZM176 288 q-13 14 -14 30 q-1 17 9 30 q29 33 61 61 q32 28 70 50 q14 9 29 15 q8 3 20 1 q13 -3 18 -9 q7 -10 15 -20 q7 -10 13 -21 q13 -24 7 -52 q-5 -28 -27 -44 q-54 -38 -117 -59 q-8 -2 -15 -3 q-7 0 -9 0 q-21 0 -36 5 q-14 5 -24 16 l0 0 Z" /><glyph glyph-name="" unicode="" d="M947 466 q-15 19 -30 39 q-48 67 -110 116 q-62 50 -137 84 q-24 11 -50 19 q-25 8 -50 17 q-27 11 -55 19 q-27 8 -57 8 q-21 1 -38 14 q-14 12 -29 14 q-16 3 -33 3 q-30 -2 -56 -12 q-27 -11 -50 -29 q-23 -17 -46 -35 q-22 -18 -45 -36 q-12 -10 -24 -23 q-8 -9 -14 -20 q-2 -3 -2 -7 q-1 -4 -2 -8 q0 -5 4 -6 q5 -2 17 -2 q24 0 16 -17 q-12 -26 -25 -52 q-34 -73 -59 -149 q-25 -76 -39 -155 q-5 -25 -5 -49 q0 -32 10 -61 q10 -29 29 -54 q5 -7 11 -12 q7 -6 14 -10 q43 -30 91 -46 q48 -16 102 -16 q24 0 49 0 q64 1 127 10 q63 9 123 35 q7 3 15 5 q8 2 16 4 q49 11 94 30 q45 20 90 41 q7 3 14 9 q6 5 13 10 q25 21 50 42 q31 28 60 56 q6 6 11 13 q5 7 8 14 q8 21 14 43 q6 22 8 45 q4 60 -30 109 l0 0 ZM922 294 q-2 -8 -5 -16 q-3 -8 -8 -14 q-15 -19 -33 -36 q-18 -17 -41 -28 q-5 -3 -11 -5 q-6 -3 -10 -7 q-32 -25 -69 -39 q-36 -13 -74 -22 q-44 -12 -87 -27 q-118 -40 -243 -45 q-101 -1 -190 49 q-22 12 -33 35 q-13 25 -17 52 q-4 26 3 52 q15 52 27 104 q12 52 32 102 q11 25 23 49 q12 24 20 50 q11 36 31 67 q19 32 38 64 q4 7 11 11 q7 5 15 7 q47 12 93 13 q47 1 95 -8 q60 -12 114 -36 q54 -23 105 -56 q18 -11 35 -22 q49 -32 88 -75 q38 -43 70 -91 q19 -28 22 -62 q2 -17 2 -33 q0 -17 -3 -33 l0 0 ZM567 392 q-12 -2 -23 -7 q-88 -35 -176 -70 q-5 -2 -11 -3 q-6 0 -12 4 q-4 3 -4 8 q0 6 4 14 q21 33 42 66 q20 33 37 69 q2 3 4 7 q3 3 5 6 q4 5 10 7 q6 1 12 -2 q7 -5 14 -9 q6 -5 13 -9 q7 -3 16 1 q9 5 11 11 q2 8 3 15 q1 7 1 11 q-1 13 -1 22 q-1 9 -1 17 q-1 8 -3 17 q-5 22 -28 31 q-22 9 -44 -2 q-32 -20 -52 -52 q-23 -37 -46 -73 q-23 -37 -45 -74 q-12 -21 -23 -44 q-10 -22 -20 -44 q-9 -20 -3 -36 q6 -16 25 -26 q12 -7 23 -10 q12 -3 25 -2 q36 5 72 13 q36 9 68 30 q27 18 55 36 q27 18 54 37 q5 3 8 8 q4 6 6 11 q2 3 1 8 q-1 4 -3 7 q-2 3 -6 5 q-4 2 -8 2 l0 0 Z" /><glyph glyph-name="" unicode="" d="M1017 382 q-6 20 -15 38 q-8 19 -21 35 q-22 30 -47 58 q-25 28 -52 52 q-38 33 -79 59 q-42 26 -91 41 q-43 13 -87 25 q-11 4 -23 6 q-13 3 -25 4 q-32 3 -65 7 q-33 3 -66 -2 q-6 -1 -12 -1 q-7 1 -13 1 q-10 0 -20 4 q-9 4 -16 12 q-14 18 -30 20 q-17 3 -36 -5 q-27 -10 -54 -22 q-26 -11 -49 -30 q-9 -8 -20 -14 q-38 -20 -73 -46 q-35 -26 -71 -50 q-10 -7 -19 -16 q-2 -2 -4 -6 q-2 -4 -1 -8 q1 -4 5 -5 q4 -1 9 1 q13 6 26 13 q12 7 27 7 q3 0 7 -3 q4 -3 4 -6 q0 -6 -2 -12 q-2 -6 -4 -11 q-22 -54 -38 -109 q-16 -55 -22 -113 q-7 -58 4 -104 q10 -45 42 -92 q16 -24 41 -39 q36 -21 72 -40 q19 -10 38 -17 q20 -6 40 -8 q27 -3 53 -4 q27 -1 52 -2 q70 -1 117 4 q46 5 106 19 q45 12 118 43 q72 30 116 58 q28 17 55 36 q27 18 52 41 q38 33 49 53 q12 20 24 71 q7 29 -2 57 l0 0 ZM960 298 q-5 -11 -12 -22 q-7 -10 -15 -19 q-28 -31 -61 -56 q-32 -25 -71 -42 q-33 -16 -67 -31 q-34 -16 -69 -28 q-76 -27 -155 -39 q-79 -12 -161 -3 q-50 6 -95 24 q-46 19 -84 53 q-20 18 -36 39 q-16 21 -25 48 q-7 20 -9 40 q-2 21 3 41 q6 24 9 48 q3 25 6 50 q0 6 1 12 q1 6 3 12 q16 43 35 84 q19 41 47 77 q20 25 45 42 q24 17 57 21 q17 2 33 6 q16 3 32 5 q14 2 29 1 q14 0 27 0 q45 3 88 -6 q43 -8 85 -16 q34 -6 68 -18 q33 -11 64 -27 q42 -20 79 -46 q36 -25 68 -59 q39 -43 73 -90 q17 -24 19 -49 q1 -26 -11 -52 l0 0 ZM570 166 q-3 2 -7 3 q-4 2 -8 2 q-43 2 -86 11 q-42 10 -85 14 q-3 0 -6 4 q-2 3 -5 7 q0 1 0 3 q1 2 2 3 q19 14 37 27 q18 13 38 25 q33 19 56 47 q23 29 40 62 q4 8 6 15 q2 8 4 15 q-1 8 -2 14 q-1 6 -2 12 q-5 21 -16 38 q-12 17 -27 31 q-27 24 -58 39 q-32 16 -66 25 q-8 2 -16 1 q-8 -1 -16 -5 q-37 -17 -39 -58 q-3 -82 -5 -165 q-1 -12 -1 -25 q0 -12 -2 -24 q-3 -31 -28 -49 q-9 -5 -18 -10 q-9 -5 -17 -11 q-5 -3 -9 -8 q-4 -5 -7 -11 q-4 -7 -3 -16 q1 -9 7 -14 q10 -7 21 -13 q10 -5 15 -13 q6 -8 10 -18 q7 -16 19 -21 q11 -6 27 -1 q6 1 12 3 q6 2 11 5 q13 8 27 10 q14 2 29 1 q39 -4 78 -5 q39 -1 77 -11 q11 -3 21 7 q11 9 13 22 q1 9 -5 19 q-6 10 -16 13 l0 0 ZM369 288 q-2 25 4 48 q6 24 7 49 q-1 25 2 49 q2 25 4 49 q1 3 4 6 q4 4 7 4 q23 -3 43 -11 q21 -9 38 -25 q5 -5 9 -13 q4 -7 6 -15 q4 -14 2 -28 q-2 -15 -10 -27 q-18 -28 -41 -51 q-24 -22 -54 -37 q-3 -2 -7 -3 q-5 0 -9 -1 q-1 1 -3 3 q-2 1 -2 3 l0 0 Z" /><glyph glyph-name="" unicode="" d="M606 143 q7 -30 13 -61 q7 -30 8 -61 q1 -2 1 -4 q1 -2 2 -4 q3 -10 12 -17 q9 -7 18 -6 q10 2 20 9 q9 7 11 15 q1 4 2 8 q3 22 2 45 q-1 22 -6 45 q-8 32 -14 64 q-5 29 -9 57 q-5 29 -12 57 q-13 47 -3 62 q11 14 51 31 q9 5 19 8 q9 4 19 8 q41 19 81 39 q3 2 5 6 q2 4 4 8 q1 4 -5 5 q-7 1 -17 -2 q-31 -10 -63 -20 q-31 -9 -63 -20 q-25 -9 -33 -4 q-8 6 -9 37 q0 17 -1 33 q0 17 -3 33 q-9 41 -6 82 q3 41 11 82 q3 14 11 21 q7 7 22 6 q4 -1 8 2 q4 2 6 5 q6 19 9 39 q0 4 -3 7 q-2 4 -5 7 q-13 12 -31 9 q-16 -3 -31 -10 q-15 -7 -29 -16 q-25 -15 -51 -26 q-26 -12 -56 -14 q-10 -1 -19 -6 q-9 -6 -15 -15 q-18 -26 -42 -46 q-23 -19 -50 -35 q-14 -9 -28 -18 q-13 -10 -27 -19 q-80 -52 -149 -117 q-32 -32 -62 -67 q-29 -34 -58 -69 q-3 -5 -6 -11 q-3 -5 -5 -11 q-4 -11 0 -25 q4 -14 13 -19 q40 -22 81 -41 q14 -6 28 -9 q14 -2 29 0 q38 6 77 13 q39 6 75 21 q35 15 70 25 q36 11 70 25 q5 2 10 -2 q6 -5 7 -11 q1 -25 1 -50 q1 -25 6 -49 q6 -31 8 -61 q3 -31 4 -62 q0 -10 2 -20 q3 -10 6 -20 q5 -15 16 -23 q11 -9 27 -11 q10 -1 19 6 q10 7 9 17 q-2 16 -5 32 q-3 17 -5 33 q-2 29 -5 57 q-3 29 -8 58 q-5 30 -6 61 q0 31 3 62 q1 3 3 5 q2 3 5 7 q13 -43 20 -85 q8 -43 16 -85 l0 0 ZM432 320 q-41 -13 -83 -23 q-41 -11 -83 -21 q-32 -8 -65 -9 q-10 0 -20 2 q-10 2 -20 5 q-23 7 -28 23 q-5 15 10 33 q57 71 127 128 q42 34 85 65 q44 31 89 60 q10 6 18 2 q9 -5 11 -17 q1 -4 2 -8 q1 -8 2 -16 q0 -25 2 -49 q2 -25 8 -49 q3 -12 3 -23 q0 -11 0 -17 q0 -41 -10 -58 q-11 -17 -48 -28 l0 0 ZM549 642 q2 5 5 7 q4 1 8 0 q2 -1 4 -2 q1 -2 2 -3 q9 -41 -8 -78 q-1 -2 -2 -3 q-2 -1 -4 -2 q-1 0 -3 1 q-1 1 -2 1 q-3 20 -6 42 q3 18 6 37 l0 0 ZM570 405 q0 -2 -1 -4 q-2 -2 -2 -4 q-2 1 -3 3 q-2 1 -2 2 q-9 21 -12 45 q-4 23 1 52 q12 -26 17 -49 q5 -22 2 -45 l0 0 Z" /><glyph glyph-name="" unicode="" d="M281 685 q-1 13 -6 24 q-5 11 -13 21 q-42 49 -104 32 q-14 -3 -27 -9 q-13 -6 -25 -14 q-12 -9 -20 -21 q-8 -11 -8 -27 q0 -19 -5 -37 q-6 -17 -16 -33 q-6 -11 -11 -22 q-4 -12 -9 -23 q-5 -12 -8 -24 q-5 -24 8 -43 q14 -19 39 -22 q20 -2 41 1 q16 3 31 9 q15 7 30 15 q23 14 42 33 q19 19 36 40 q14 16 21 35 q7 19 6 40 q-1 13 -2 25 l0 0 ZM197 616 q-12 -17 -28 -29 q-16 -12 -35 -20 q-5 -2 -8 -1 q-4 0 -6 4 q-1 2 -1 4 q-1 2 0 3 q8 19 17 37 q8 18 18 36 q4 9 12 15 q8 7 17 12 q6 2 12 0 q6 -2 8 -7 q3 -8 5 -16 q0 -21 -11 -38 l0 0 Z" /><glyph glyph-name="" unicode="" d="M466 124 q-17 84 -35 167 q-5 23 -7 47 q-1 24 2 50 q5 2 11 4 q5 2 11 5 q11 6 19 15 q9 10 6 21 q-4 10 -16 14 q-10 2 -21 4 q-11 1 -23 3 q-3 10 -7 19 q-3 9 -4 18 q-2 42 -11 82 q-9 40 -18 80 q-8 41 -26 78 q-18 36 -42 70 q-14 19 -36 16 q-21 -4 -28 -25 q-12 -43 -24 -85 q-13 -43 -25 -85 q-8 -33 -15 -65 q-8 -32 -16 -64 q-5 -20 -11 -40 q-6 -19 -11 -39 q-5 -23 -18 -37 q-13 -13 -37 -16 q-4 0 -9 0 q-5 -1 -9 -2 q-12 -4 -20 -11 q-8 -7 -9 -19 q-1 -11 4 -18 q6 -8 15 -13 q18 -11 36 -23 q-25 -87 -64 -159 q2 -6 4 -11 q2 -5 4 -9 q5 -13 14 -20 q10 -8 24 -7 q13 2 19 11 q6 9 9 20 q15 41 32 82 q17 41 24 85 q2 15 10 26 q8 12 24 17 q18 5 36 11 q18 5 37 9 q19 6 37 13 q19 7 39 6 q3 -4 6 -7 q2 -3 3 -6 q8 -59 19 -118 q11 -59 23 -117 q2 -14 -2 -24 q-4 -11 -13 -22 q-12 -17 -5 -33 q7 -15 28 -19 q16 -3 34 -3 q18 0 37 7 q2 10 4 21 q2 10 1 21 q-2 38 -10 75 l0 0 ZM201 392 q-3 38 10 73 q14 35 20 72 q5 37 20 73 q15 36 36 73 q25 -62 39 -123 q14 -62 17 -128 q-37 -12 -71 -25 q-33 -14 -71 -15 l0 0 ZM110 1143 q53 -62 106 -123 q3 -4 7 -7 q4 -4 8 -5 q6 -1 12 -1 q7 0 11 3 q4 3 6 10 q2 7 1 12 q-19 36 -39 71 q-21 35 -49 65 q-11 12 -24 15 q-14 4 -31 5 q-3 -2 -9 -4 q-5 -3 -8 -7 q-2 -4 -1 -11 q1 -6 3 -12 q1 -3 3 -6 q2 -2 4 -5 l0 0 Z" /><glyph glyph-name="" unicode="" d="M571 443 q-2 9 -9 12 q-7 2 -16 1 q-7 0 -13 -2 q-31 -10 -62 -20 q-32 -10 -64 -21 q-4 6 -8 11 q-4 6 -5 11 q-9 56 -19 112 q-10 57 -15 113 q-4 42 -15 81 q-10 40 -20 80 q-4 16 -15 28 q-10 12 -24 19 q-7 3 -16 3 q-8 0 -13 -4 q-8 -7 -15 -16 q-6 -9 -10 -19 q-4 -10 -4 -22 q-1 -11 0 -22 q-1 -46 -14 -91 q-12 -44 -15 -90 q-18 -31 -24 -66 q-5 -34 -9 -68 q-6 -44 -18 -87 q-12 -43 -33 -84 q-18 -6 -37 -13 q-18 -6 -35 -12 q-7 -17 -5 -28 q3 -11 16 -19 q7 -5 15 -11 q7 -5 16 -12 q-9 -12 -17 -22 q-8 -11 -14 -22 q-7 -12 -14 -25 q-6 -12 -10 -26 q-6 -21 6 -39 q12 -18 39 -27 q22 -7 43 30 q8 17 14 35 q6 15 11 29 q6 15 9 31 q10 62 27 72 q16 10 65 34 q20 11 43 19 q23 7 50 4 q3 -6 5 -9 q2 -4 3 -6 q13 -57 26 -114 q12 -57 24 -115 q3 -13 2 -28 q0 -14 1 -28 q1 -9 3 -18 q3 -9 6 -19 q15 -3 29 -6 q14 -3 28 -4 q13 -1 23 8 q9 9 10 23 q1 12 -3 24 q-5 15 -11 30 q-6 15 -11 30 q-10 35 -19 70 q-10 35 -18 70 q-6 25 -9 50 q-3 25 -6 50 q-1 9 0 18 q1 9 2 17 q23 10 43 18 q21 9 41 19 q15 7 30 16 q15 9 28 19 q5 4 6 13 q2 8 1 15 l0 0 ZM200 344 q19 87 38 173 q19 86 38 170 q4 2 8 3 q2 -6 3 -11 q2 -6 3 -11 q5 -44 11 -87 q6 -44 17 -87 q6 -24 7 -50 q2 -25 4 -51 q-28 -23 -60 -35 q-31 -13 -69 -14 l0 0 ZM232 925 q17 -2 31 5 q14 6 26 17 q32 28 64 57 q31 28 68 50 q12 8 15 21 q4 12 4 29 q-4 4 -10 8 q-5 5 -12 6 q-7 1 -15 -2 q-7 -2 -14 -7 q-88 -61 -175 -123 q-10 -7 -12 -18 q-3 -11 1 -22 q4 -9 11 -14 q8 -5 18 -7 l0 0 Z" /><glyph glyph-name="" unicode="" d="M478 92 q-1 5 -3 9 q-1 5 -4 9 q-10 16 -14 35 q-5 18 -9 37 q-10 41 -21 82 q-11 41 -21 83 q-9 29 -14 57 q-5 29 13 56 q-22 28 -29 42 q-6 15 -12 50 q-7 41 -15 81 q-7 41 -22 79 q-10 25 -20 50 q-10 25 -27 46 q-13 15 -27 17 q-14 3 -32 -8 q-6 -22 -13 -44 q-7 -23 -10 -46 q-7 -47 -19 -93 q-11 -47 -11 -95 q1 -6 -2 -12 q-13 -27 -15 -55 q-3 -28 -3 -57 q-1 -29 -11 -50 q-11 -22 -47 -24 q-1 0 -2 -1 q-2 -1 -3 -2 q-16 -9 -16 -25 q-1 -16 14 -27 q9 -5 19 -10 q10 -5 20 -11 q-1 -13 -1 -24 q-1 -12 -4 -22 q-14 -40 -23 -82 q-9 -42 -30 -79 q-14 -23 -6 -49 q6 -18 24 -23 q18 -5 32 8 q6 5 11 12 q4 6 7 13 q12 33 20 67 q9 37 17 74 q8 37 17 74 q5 20 10 40 q5 20 14 38 q17 32 47 49 q30 17 68 31 q13 -45 19 -89 q7 -45 17 -87 q11 -44 21 -88 q11 -44 21 -87 q5 -2 8 -4 q4 -2 6 -2 q41 -10 55 4 q15 15 6 53 l0 0 ZM307 444 q-44 -17 -88 -34 q-8 17 -8 33 q0 16 5 30 q13 44 18 89 q5 45 5 91 q0 13 4 25 q4 12 18 24 q21 -57 28 -114 q6 -57 20 -112 q1 -7 0 -15 q-1 -8 -2 -17 l0 0 ZM133 876 q-1 38 8 73 q9 36 24 74 q10 -5 16 -8 q7 -3 12 -7 q19 -16 38 -32 q19 -16 37 -34 q11 -10 22 -13 q11 -4 24 -4 q22 1 31 13 q10 11 4 32 q-6 20 -19 33 q-13 12 -32 19 q-32 12 -57 32 q-24 20 -37 54 q-2 6 -6 11 q-4 5 -8 10 q-18 17 -37 15 q-20 -3 -32 -23 q-3 -6 -5 -12 q-2 -6 -4 -12 q-10 -32 -20 -63 q-11 -31 -20 -63 q-5 -20 -12 -39 q-7 -18 -24 -33 q-4 -5 -7 -13 q-2 -8 -1 -15 q2 -19 18 -33 q15 -14 33 -16 q25 -1 40 12 q14 14 14 42 l0 0 Z" /><glyph glyph-name="" unicode="" d="M371 26 q-41 79 -46 169 q-1 20 -4 41 q-3 20 -9 40 q-11 36 -11 71 q0 35 12 71 q-12 29 -18 60 q-7 31 -9 63 q-3 38 -5 76 q-3 37 -6 75 q-2 24 -6 47 q-4 24 -9 47 q-2 12 -11 18 q-8 7 -21 8 q-14 2 -24 -4 q-10 -6 -14 -21 q-6 -20 -10 -40 q-4 -20 -8 -40 q-8 -37 -14 -75 q-6 -33 -12 -65 q-6 -33 -9 -66 q-2 -30 -9 -58 q-7 -28 -16 -53 q-19 -8 -36 -15 q-17 -7 -32 -14 q-9 -5 -13 -13 q-4 -9 -3 -19 q2 -22 23 -27 q10 -3 21 -5 q11 -3 25 -6 q-2 -22 -2 -43 q-1 -21 -7 -39 q-16 -46 -23 -93 q-7 -46 -21 -92 q-4 -14 0 -28 q5 -13 16 -24 q15 -13 36 -8 q20 6 26 25 q4 17 6 34 q3 17 3 35 q0 62 12 123 q13 60 21 121 q2 22 18 33 q16 11 46 15 q2 -4 5 -8 q2 -5 3 -9 q3 -22 6 -44 q3 -22 4 -44 q1 -58 17 -112 q15 -55 33 -109 q4 -13 11 -26 q7 -13 13 -25 q14 -28 43 -35 q6 -2 13 -2 q7 0 10 3 q5 6 8 14 q2 8 1 14 q-4 15 -11 30 q-6 14 -13 28 l0 1 ZM194 424 q-2 4 -4 8 q-3 4 -2 8 q11 68 23 136 q4 0 9 1 q2 -60 4 -120 q1 -14 -6 -23 q-7 -9 -24 -10 l0 0 ZM450 1042 q-11 4 -18 -2 q-7 -5 -14 -12 q-27 -24 -50 -25 q-23 -1 -51 21 q-5 4 -9 8 q-5 4 -10 8 q-28 17 -56 35 q-28 17 -57 33 q-23 11 -40 3 q-18 -7 -24 -30 q-7 -31 -19 -60 q-12 -29 -27 -57 q-6 -11 -9 -22 q-4 -12 -7 -22 q15 -19 24 -24 q8 -6 30 -12 q18 11 28 28 q10 17 17 37 q7 19 14 38 q6 19 19 36 q9 -3 16 -5 q8 -3 15 -7 q9 -6 18 -12 q9 -7 18 -13 q13 -11 27 -22 q14 -11 28 -21 q44 -27 86 -10 q43 17 63 48 q2 3 4 8 q1 5 2 9 q2 15 -3 27 q-5 12 -15 17 l0 0 Z" /><glyph glyph-name="" unicode="" d="M430 465 q-14 -7 -30 -8 q-16 0 -33 13 q-3 41 -6 83 q-2 43 -4 85 q-2 54 -2 108 q-1 54 -2 108 q0 19 -4 37 q-4 18 -15 35 q-9 15 -18 20 q-10 6 -22 4 q-13 -4 -18 -13 q-4 -10 -6 -21 q-22 -105 -44 -210 q-4 -22 -9 -43 q-8 -28 -16 -55 q-8 -28 -11 -56 q-5 -48 -18 -93 q-12 -45 -27 -89 q-31 -14 -40 -21 q-9 -8 -18 -26 q16 -18 32 -36 q-2 -6 -3 -11 q-1 -4 -3 -9 q-27 -61 -46 -124 q-20 -63 -35 -128 q-5 -16 -4 -31 q0 -15 9 -30 q10 -15 26 -16 q17 -1 26 14 q7 14 13 28 q5 15 9 30 q8 30 14 59 q6 29 14 58 q11 37 23 72 q12 36 22 73 q5 16 14 29 q9 12 23 19 q21 10 42 19 q22 9 46 9 q5 -32 9 -64 q5 -31 10 -62 q5 -25 11 -50 q6 -24 13 -48 q5 -23 12 -46 q6 -23 13 -46 q6 -17 24 -26 q18 -9 37 -6 q9 2 14 8 q5 6 4 15 q-1 8 -3 15 q-2 8 -6 15 q-13 20 -20 42 q-8 23 -12 46 q-8 42 -16 84 q-7 42 -14 84 q-2 16 -1 32 q1 16 1 34 q18 9 38 16 q19 8 34 21 q16 11 37 14 q20 3 32 25 q-24 13 -47 19 q-23 6 -49 -5 l0 0 ZM298 425 q-17 -7 -33 -12 q-17 -5 -36 -3 q0 33 5 63 q5 31 17 61 q10 29 18 61 q9 33 19 73 q7 -66 12 -126 q4 -59 -2 -117 l0 0 ZM404 1076 q17 0 31 13 q13 13 14 30 q-1 24 -13 39 q-12 14 -35 13 q-21 -1 -33 -11 q-12 -10 -12 -29 q1 -22 15 -38 q14 -17 33 -17 l0 0 ZM198 1035 q21 -1 37 14 q17 15 18 35 q-1 20 -18 34 q-17 15 -38 13 q-10 -1 -17 -7 q-7 -5 -11 -15 q-6 -15 0 -36 q5 -22 17 -33 q5 -4 12 -5 l0 0 Z" /><glyph glyph-name="" unicode="" d="M343 645 q8 6 16 11 q9 5 16 11 q13 11 26 23 q13 11 23 25 q25 36 27 76 q1 40 -22 72 q-16 19 -34 36 q-19 18 -42 29 q-33 16 -68 26 q-34 10 -70 15 q-13 2 -25 1 q-13 0 -25 -3 q-22 -5 -35 -20 q-13 -15 -20 -36 q-7 -20 2 -34 q9 -13 24 -25 q-7 -18 -13 -34 q-7 -16 -12 -32 q-19 -56 0 -96 q18 -39 67 -59 q10 -4 21 -8 q11 -4 23 -8 q-11 -32 -22 -62 q-11 -29 -21 -59 q-10 -33 -25 -64 q-15 -30 -46 -51 q-3 -2 -5 -5 q-6 -10 -9 -20 q-2 -11 7 -20 q13 -14 14 -28 q0 -14 -7 -30 q-7 -20 -14 -41 q-7 -21 -15 -42 q-12 -26 -24 -51 q-13 -26 -25 -51 q-5 -15 2 -30 q7 -16 21 -23 q14 -6 29 -3 q15 3 22 15 q12 22 24 44 q11 22 17 48 q9 46 22 92 q12 45 24 91 q8 31 24 57 q17 25 53 37 q9 -23 15 -45 q6 -23 8 -46 q7 -69 25 -137 q9 -30 13 -61 q5 -31 -8 -63 q-5 -14 7 -24 q13 -9 29 -5 q31 10 43 30 q11 20 4 53 q-4 17 -10 33 q-5 17 -8 34 q-9 50 -16 100 q-7 50 -16 100 q-6 27 -5 52 q0 26 11 50 q-18 22 -23 32 q-4 10 -8 31 q-1 8 -3 16 q-1 8 -4 15 q-6 20 0 35 q7 14 21 26 l0 0 ZM279 689 q-17 -4 -35 -3 q-17 1 -35 2 q-16 2 -25 12 q-9 11 -7 27 q7 55 35 96 q27 41 73 70 q30 -9 52 -25 q22 -16 40 -36 q14 -14 16 -29 q2 -16 -7 -35 q-16 -34 -45 -53 q-28 -18 -62 -26 l0 0 Z" /><glyph glyph-name="" unicode="" d="M433 227 q18 9 35 20 q17 11 34 23 q67 48 131 98 q17 13 32 27 q14 14 29 29 q3 4 5 11 q1 7 0 12 q-4 8 -12 9 q-7 1 -15 -2 q-19 -9 -38 -17 q-19 -8 -36 -19 q-30 -18 -59 -37 q-29 -19 -59 -37 q-9 -6 -19 -10 q-10 -5 -22 -11 q-9 46 -13 91 q-4 44 5 88 q13 8 26 15 q12 8 24 14 q46 25 92 50 q45 25 91 51 q12 7 23 16 q11 8 21 18 q3 4 5 11 q1 7 -1 12 q-3 4 -10 6 q-7 3 -12 1 q-39 -11 -78 -23 q-39 -11 -74 -36 q-12 -9 -26 -17 q-14 -8 -28 -14 q-15 -7 -31 -13 q-17 -7 -36 -3 q-5 43 -5 86 q0 43 4 86 q20 14 40 27 q19 14 39 26 q48 27 98 52 q49 25 101 46 q16 6 31 15 q15 8 29 19 q11 8 13 20 q2 11 -11 25 q-17 -5 -35 -11 q-18 -6 -36 -9 q-37 -6 -70 -19 q-34 -13 -66 -30 q-50 -27 -101 -51 q-18 -10 -37 -16 q-20 -6 -41 -3 q-8 1 -17 1 q-10 -1 -14 -5 q-14 -15 -32 -18 q-19 -3 -33 -11 q-10 -14 -11 -29 q-1 -14 -2 -28 q-4 -40 -13 -78 q-9 -38 -27 -74 q-14 -28 -25 -58 q-11 -29 -22 -59 q-44 -108 -88 -216 q-8 -21 -14 -42 q-9 -29 -16 -58 q-8 -29 -18 -57 q-9 -25 -10 -50 q-1 -24 1 -50 q1 -8 6 -15 q5 -6 14 -6 q7 0 16 2 q8 3 12 8 q8 13 15 27 q7 15 12 29 q13 38 25 75 q12 38 25 75 q13 34 27 68 q13 34 27 67 q8 19 15 38 q7 18 12 33 q29 12 55 22 q26 10 53 21 q3 -59 5 -116 q2 -56 4 -114 q32 -17 45 -19 q13 -1 36 11 l0 0 ZM345 549 q-14 -17 -31 -23 q-17 -6 -39 -5 q16 47 32 96 q16 49 34 105 q5 -51 4 -93 q-1 -42 0 -80 l0 0 Z" /><glyph glyph-name="" unicode="" d="M531 220 q-4 7 -14 6 q-9 -2 -25 -12 q-38 -27 -80 -43 q-42 -17 -89 -21 q-29 -1 -59 0 q-30 2 -61 3 q-26 35 -32 50 q-6 15 -1 36 q9 53 20 105 q11 53 30 103 q7 18 12 36 q6 18 13 36 q22 56 52 108 q30 52 69 98 q5 6 12 9 q7 4 18 -1 q14 -29 22 -60 q7 -32 13 -65 q5 -24 6 -49 q1 -24 -11 -48 q-6 -14 -5 -28 q1 -14 6 -28 q6 -14 18 -21 q12 -7 28 -6 q15 2 25 11 q9 10 10 27 q1 17 0 34 q-1 18 0 35 q1 62 -18 119 q-18 57 -41 113 q-9 21 -29 31 q-21 10 -44 6 q-16 -2 -30 -8 q-14 -6 -27 -18 q-30 -28 -52 -63 q-22 -34 -41 -70 q-52 -94 -80 -198 q-8 -32 -18 -63 q-10 -32 -19 -64 q-9 -36 -10 -72 q-1 -36 4 -73 q3 -21 14 -38 q10 -18 28 -30 q46 -29 95 -34 q49 -6 100 7 q22 7 44 16 q22 10 44 17 q29 10 50 28 q22 19 41 39 q8 8 12 18 q4 10 0 22 l0 0 ZM292 47 q-20 15 -39 -2 q-21 -18 -20 -45 q3 -72 6 -144 q1 -48 -30 -83 q-32 -36 -80 -40 q-12 0 -25 2 q-12 2 -25 3 q-7 2 -15 4 q-8 2 -15 2 q-9 -1 -15 -6 q-6 -5 -6 -14 q0 -5 3 -12 q3 -6 8 -9 q25 -12 53 -18 q28 -5 56 -5 q20 -1 38 3 q18 4 34 16 q9 7 18 12 q10 5 20 10 q14 6 23 17 q9 10 16 23 q16 29 19 60 q4 31 2 62 q-1 23 -1 45 q-1 22 4 43 q7 26 -1 44 q-8 18 -28 32 l0 0 Z" /><glyph glyph-name="" unicode="" d="M545 695 q-15 -6 -29 -13 q-14 -7 -27 -16 q-67 -48 -142 -82 q-48 -22 -92 -50 q-44 -28 -90 -51 q-45 -21 -69 -55 q-23 -33 -26 -82 q-2 -18 -4 -37 q-1 -15 -1 -29 q-1 -15 -5 -28 q-5 -12 -14 -23 q-9 -11 -17 -23 q-1 -1 -1 -3 q0 -1 0 -3 q1 -3 1 -6 q1 -3 3 -5 q20 -19 28 -42 q8 -23 6 -50 q0 -9 3 -18 q4 -17 14 -29 q10 -12 25 -17 q25 -8 51 -7 q25 2 49 10 q19 6 37 16 q18 10 36 19 q26 12 51 24 q26 11 55 17 q29 6 57 16 q29 9 57 19 q16 5 24 17 q9 12 8 25 q-3 13 -16 19 q-13 6 -30 1 q-60 -20 -121 -37 q-60 -17 -116 -49 q-22 -14 -48 -21 q-25 -7 -53 2 q-5 9 -9 18 q-5 9 -7 18 q-9 27 -3 42 q7 15 35 28 q34 17 68 33 q35 15 69 31 q17 8 35 16 q17 8 33 18 q9 5 16 14 q7 8 4 22 q-12 8 -24 8 q-12 0 -24 -5 q-86 -32 -171 -66 q-8 -3 -17 -7 q-9 -3 -21 -8 q-1 10 -2 16 q-1 7 0 13 q2 10 5 21 q4 11 5 22 q2 35 19 59 q17 24 48 39 q23 12 45 24 q23 12 43 26 q21 16 43 27 q22 12 45 23 q41 22 84 44 q42 21 83 44 q14 7 20 20 q6 12 5 28 q-1 11 -11 19 q-10 7 -20 4 l0 0 ZM240 679 q4 -1 9 -1 q5 1 9 1 q8 1 13 9 q5 7 2 15 q-2 5 -5 11 q-3 6 -8 9 q-51 39 -113 53 q-8 2 -17 -2 q-9 -3 -18 -5 q-1 -7 -2 -12 q-1 -5 -1 -9 q1 -6 2 -13 q2 -6 4 -14 q62 -21 125 -42 l0 0 Z" /><glyph glyph-name="" unicode="" d="M498 659 q-11 8 -23 9 q-12 2 -25 -1 q-33 -6 -64 -15 q-32 -9 -64 -18 q-52 -16 -101 -37 q-49 -21 -94 -51 q-22 -15 -37 -34 q-16 -19 -25 -43 q-22 -56 -32 -113 q-11 -56 1 -116 q2 -11 2 -22 q0 -11 2 -22 q1 -8 3 -16 q3 -7 7 -14 q21 -30 48 -48 q28 -18 67 -16 q29 2 57 6 q28 3 53 19 q9 6 20 10 q10 4 21 8 q26 8 48 23 q22 15 44 30 q14 9 22 22 q8 14 12 30 q4 14 -1 26 q-5 13 -20 21 q-5 2 -12 1 q-7 -2 -10 -5 q-6 -11 -10 -23 q-5 -13 -10 -27 q-8 -4 -14 -7 q-6 -3 -11 -6 q-34 -24 -73 -38 q-39 -13 -78 -25 q-29 -9 -49 1 q-21 10 -34 37 q-4 10 -7 21 q-3 11 -4 22 q-5 35 30 50 q35 14 70 29 q81 35 162 70 q4 2 9 3 q5 2 8 5 q4 5 7 10 q3 6 2 11 q-2 4 -7 8 q-6 3 -11 6 q-3 1 -6 -1 q-3 -1 -7 -1 q-39 -5 -76 -19 q-37 -14 -74 -28 q-49 -17 -102 -35 q-1 7 -3 13 q-1 5 0 9 q4 17 9 33 q5 17 9 34 q4 16 14 28 q10 12 25 19 q28 17 57 34 q28 17 61 24 q14 3 27 7 q14 4 26 11 q34 17 69 23 q35 6 72 -1 q4 0 9 0 q5 1 9 3 q5 2 8 5 q4 3 7 6 q9 16 5 30 q-3 15 -18 25 l0 0 ZM217 678 q2 1 6 2 q4 2 9 4 q55 31 106 67 q52 35 102 74 q5 4 8 9 q3 6 5 12 q3 7 -1 15 q-5 7 -13 8 q-5 1 -9 1 q-5 0 -9 -2 q-56 -25 -110 -55 q-53 -30 -103 -66 q-10 -7 -16 -16 q-5 -10 -8 -20 q-2 -12 8 -23 q11 -11 25 -10 l0 0 Z" /><glyph glyph-name="" unicode="" d="M612 600 q-4 13 -14 17 q-10 4 -21 4 q-29 0 -58 1 q-28 0 -56 -4 q-64 -11 -126 -27 q-63 -15 -123 -39 q-67 -26 -102 -73 q-34 -47 -34 -119 q-1 -15 -1 -31 q-1 -15 -2 -30 q-13 -11 -24 -20 q-11 -10 -19 -21 q-4 -5 -4 -14 q0 -8 2 -15 q2 -8 9 -11 q7 -3 16 -1 q6 1 12 2 q7 0 14 0 q4 -18 9 -35 q4 -17 9 -34 q8 -27 18 -53 q10 -27 27 -51 q10 -15 23 -26 q13 -11 31 -13 q36 -5 72 -4 q35 1 69 23 q15 11 33 18 q17 7 34 15 q42 20 80 45 q39 24 75 52 q5 4 9 9 q4 5 7 11 q2 7 3 15 q1 7 0 15 q-2 7 -8 12 q-7 4 -19 3 q-19 -19 -43 -33 q-24 -14 -46 -30 q-43 -32 -92 -51 q-48 -18 -95 -41 q-19 -10 -36 -4 q-17 5 -31 22 q-6 7 -12 15 q-6 8 -9 17 q-16 54 -26 110 q-2 10 0 21 q2 11 4 20 q12 7 22 13 q10 6 20 9 q42 16 83 30 q42 15 84 28 q38 11 68 33 q3 3 5 10 q2 6 5 13 q-21 0 -39 1 q-17 0 -34 -1 q-13 -2 -25 -5 q-12 -4 -24 -7 q-41 -12 -82 -26 q-40 -13 -86 -18 q-1 14 -3 26 q-1 13 -1 25 q1 29 14 50 q13 21 44 30 q23 6 45 14 q22 8 44 16 q66 26 134 37 q68 11 140 -1 q5 5 11 10 q6 5 11 11 q7 7 10 16 q2 9 -1 19 l0 0 ZM237 723 q8 9 15 20 q7 11 11 22 q5 17 12 33 q7 16 20 30 q7 -4 14 -9 q6 -4 11 -9 q16 -16 34 -28 q18 -12 37 -23 q18 -12 36 -13 q17 -2 36 5 q10 4 21 8 q11 4 20 9 q10 7 20 15 q9 8 17 18 q3 4 0 12 q-2 8 -3 17 q-14 -2 -26 -3 q-11 -2 -22 -3 q-37 -7 -68 4 q-30 10 -51 44 q-5 7 -12 15 q-6 7 -11 14 q-25 36 -66 24 q-6 -2 -12 -3 q-5 -2 -9 -3 q-27 -37 -45 -76 q-18 -39 -35 -77 q-5 -11 -2 -22 q2 -11 11 -18 q10 -9 24 -10 q14 -1 23 7 l0 0 Z" /><glyph glyph-name="" unicode="" d="M631 185 q-3 4 -10 6 q-7 1 -11 -1 q-10 -4 -20 -10 q-9 -7 -18 -13 q-16 -12 -33 -25 q-16 -13 -34 -23 q-45 -21 -91 -41 q-47 -20 -94 -37 q-24 -10 -51 -16 q-26 -5 -54 -3 q-42 3 -70 25 q-27 22 -40 62 q-5 16 -6 30 q-1 15 6 31 q4 12 6 24 q2 13 2 26 q2 42 15 53 q13 11 53 22 q6 2 12 2 q7 1 13 1 q50 3 96 20 q46 16 91 33 q4 1 5 3 q2 3 3 6 q1 3 1 6 q0 3 -2 6 q-2 2 -4 3 q-12 3 -25 3 q-40 0 -79 -5 q-39 -4 -78 -13 q-15 -4 -32 -6 q-16 -1 -37 6 q2 26 10 48 q9 23 16 45 q11 35 36 51 q25 16 59 19 q6 1 13 0 q6 -1 12 -1 q109 -3 213 26 q15 4 26 11 q12 7 20 20 q5 8 6 18 q1 9 -4 18 q-6 9 -14 13 q-9 4 -19 3 q-22 -3 -42 -11 q-41 -15 -83 -21 q-42 -6 -85 -4 q-38 0 -76 -1 q-36 0 -60 -17 q-25 -17 -39 -49 q-17 -38 -34 -77 q-17 -39 -24 -82 q-3 -15 -10 -29 q-8 -15 -19 -26 q-13 -13 -17 -26 q-4 -14 5 -30 q6 -12 6 -24 q0 -12 -3 -24 q-3 -11 -5 -22 q-3 -11 -4 -22 q-2 -25 -1 -50 q1 -26 12 -50 q35 -68 98 -95 q63 -27 129 -10 q74 20 143 50 q69 30 134 71 q25 16 48 36 q22 20 39 45 q3 4 3 11 q0 7 -3 11 l0 0 ZM265 745 q15 -1 29 16 q14 16 16 36 q0 19 -12 32 q-13 13 -31 14 q-18 0 -31 -15 q-13 -14 -14 -36 q0 -16 13 -30 q13 -14 30 -17 l0 0 ZM464 781 q21 17 28 25 q7 9 8 19 q4 17 -5 30 q-8 13 -25 17 q-21 5 -34 -3 q-14 -8 -17 -27 q-4 -22 5 -34 q8 -12 40 -27 l0 0 Z" /><glyph glyph-name="" unicode="" d="M692 229 q-2 3 -7 4 q-5 2 -10 2 q-21 1 -42 3 q-21 1 -40 -4 q-43 -11 -87 -18 q-43 -7 -86 -18 q-17 -5 -34 -9 q-17 -4 -36 -9 q-1 10 -2 18 q-2 8 -1 15 q5 70 11 139 q7 85 14 171 q1 11 1 22 q1 11 3 22 q4 22 2 44 q-2 22 -16 45 q29 16 54 27 q26 11 53 11 q10 1 19 3 q9 3 18 6 q14 6 18 20 q4 14 -5 28 q-8 12 -20 16 q-11 4 -24 0 q-53 -11 -105 -25 q-7 -2 -14 -6 q-8 -3 -14 -8 q-40 -24 -80 -42 q-41 -17 -85 -18 q-5 -3 -7 -5 q-2 -1 -2 -2 q-10 -14 -12 -29 q-3 -14 8 -30 q16 -22 58 -5 q8 3 15 7 q7 4 14 6 q12 4 23 8 q12 3 25 7 q2 -7 5 -12 q2 -4 3 -9 q0 -18 -2 -37 q-3 -37 -7 -73 q-3 -36 -5 -72 q-3 -67 -9 -133 q-6 -66 -20 -133 q-30 -14 -62 -22 q-32 -9 -65 -12 q-38 -3 -75 -10 q-16 -4 -25 -15 q-10 -12 -9 -25 q1 -10 11 -21 q9 -11 21 -15 q6 -2 13 -2 q19 0 38 0 q19 1 37 6 q33 11 66 18 q34 7 66 22 q44 19 92 31 q48 11 94 27 q10 4 21 5 q11 1 22 3 q8 1 17 2 q8 0 14 3 q23 13 48 17 q25 4 50 7 q13 2 25 4 q13 2 25 5 q5 2 10 7 q5 6 5 10 q0 7 -3 15 q-3 7 -8 13 l0 0 ZM190 1013 q13 -25 26 -51 q13 -25 28 -48 q14 -23 31 -44 q17 -20 34 -40 q5 -5 14 -7 q8 -2 15 0 q7 4 13 12 q6 7 12 14 q-5 11 -8 20 q-4 9 -9 16 q-10 16 -21 32 q-10 15 -20 31 q-14 23 -27 46 q-13 24 -26 47 q-7 11 -16 19 q-8 9 -21 13 q-15 3 -27 -7 q-12 -10 -10 -24 q4 -15 12 -29 l0 0 Z" /><glyph glyph-name="" unicode="" d="M624 228 q-2 4 -5 7 q-4 4 -8 5 q-4 2 -9 2 q-4 -1 -9 -1 q-68 -2 -135 -16 q-66 -14 -131 -32 q-19 -5 -39 -10 q-20 -5 -42 -4 q-3 52 -2 101 q1 50 6 98 q6 44 8 88 q2 44 -3 89 q-2 21 -9 40 q-7 18 -23 34 q-22 0 -43 0 q-5 -11 -6 -23 q-1 -12 2 -25 q6 -31 7 -62 q1 -32 -3 -64 q-1 -17 -2 -34 q0 -18 0 -35 q-1 -49 -2 -98 q-1 -49 0 -98 q0 -26 -10 -43 q-10 -17 -34 -25 q-12 -4 -24 -7 q-13 -4 -24 -8 q-21 -7 -40 -18 q-11 -7 -14 -16 q-4 -10 -1 -22 q5 -23 34 -23 q14 1 28 1 q14 1 28 4 q14 3 27 8 q13 6 28 11 q3 -16 7 -31 q3 -10 10 -16 q7 -6 17 -7 q11 -2 19 4 q8 5 12 13 q5 10 7 20 q3 11 4 22 q1 7 0 15 q-1 8 -2 18 q13 5 25 9 q12 5 24 8 q145 44 289 88 q18 5 33 16 q3 3 4 8 q2 5 1 9 l0 0 ZM230 665 q38 18 76 36 q39 19 79 33 q41 16 80 35 q39 19 82 31 q13 4 26 9 q14 5 26 11 q6 3 12 6 q5 4 8 8 q3 5 4 12 q1 7 -1 12 q-2 4 -8 8 q-5 3 -11 5 q-4 1 -9 1 q-5 -1 -10 -2 q-29 -8 -57 -16 q-29 -9 -58 -18 q-59 -19 -118 -42 q-32 -13 -64 -25 q-32 -13 -62 -30 q-33 -20 -67 -35 q-35 -15 -70 -29 q-26 -10 -50 -25 q-4 -3 -7 -10 q-2 -6 -1 -12 q4 -16 19 -24 q14 -8 29 -4 q51 15 102 30 q9 14 22 22 q14 7 28 13 l0 0 ZM180 630 q0 0 -1 -1 q1 0 1 0 q0 1 1 2 q-1 0 -1 -1 l0 0 ZM215 834 q36 20 69 44 q33 24 66 48 q8 6 15 12 q7 7 12 14 q6 8 9 16 q3 8 5 13 q0 15 -10 24 q-9 9 -20 7 q-12 -4 -22 -12 q-61 -40 -121 -80 q-12 -8 -24 -16 q-11 -8 -22 -17 q-11 -8 -11 -21 q0 -13 9 -24 q10 -11 20 -13 q11 -2 25 5 l0 0 Z" /><glyph glyph-name="" unicode="" d="M598 264 q-4 7 -12 13 q-8 6 -16 10 q-11 4 -22 1 q-11 -2 -21 -8 q-13 -8 -27 -16 q-14 -8 -28 -15 q-26 -11 -52 -21 q-26 -10 -54 -13 q-7 29 -14 57 q-6 28 -12 55 q-5 22 -4 44 q1 37 3 73 q1 37 5 73 q4 47 9 96 q6 49 12 104 q10 5 22 12 q12 6 25 12 q34 13 68 25 q34 13 68 26 q21 8 39 20 q11 9 11 21 q1 13 -9 24 q-14 14 -32 16 q-18 2 -36 -12 q-17 -13 -36 -21 q-18 -9 -38 -14 q-53 -16 -105 -33 q-53 -16 -105 -37 q-42 -17 -85 -31 q-44 -15 -87 -30 q-15 -6 -27 -16 q-8 -7 -10 -16 q-1 -9 2 -19 q3 -10 10 -16 q8 -5 18 -4 q13 1 25 3 q13 3 24 7 q33 12 65 25 q32 13 65 25 q11 4 24 7 q12 3 26 7 q5 -20 5 -38 q-1 -17 -5 -34 q-2 -9 -5 -18 q-2 -10 -3 -19 q-4 -82 -8 -165 q-5 -82 1 -164 q1 -11 0 -23 q0 -11 0 -22 q0 -12 0 -24 q0 -12 0 -22 q-53 -25 -105 -46 q-52 -21 -107 -29 q-3 0 -6 -2 q-13 -5 -19 -18 q-5 -12 -3 -29 q3 -14 13 -21 q9 -8 24 -5 q24 4 47 9 q23 4 45 12 q34 13 67 28 q33 15 66 30 q27 13 54 27 q27 14 54 25 q34 13 69 24 q34 11 68 23 q27 10 50 27 q10 7 12 18 q2 12 -3 22 l0 0 ZM144 933 q13 -4 25 -1 q12 3 20 14 q25 37 49 74 q8 13 18 26 q9 12 26 22 q16 -15 28 -30 q13 -15 31 -23 q23 -10 45 -22 q22 -12 44 -25 q13 -8 26 -10 q14 -1 28 2 q9 3 14 12 q4 9 1 18 q-5 13 -14 21 q-9 8 -20 15 q-41 24 -79 52 q-38 27 -68 65 q-4 5 -9 9 q-14 12 -28 13 q-15 2 -28 -9 q-13 -11 -25 -24 q-12 -12 -23 -26 q-19 -27 -37 -54 q-17 -28 -35 -55 q-7 -12 -9 -24 q-1 -12 3 -25 q2 -5 7 -9 q5 -5 10 -6 l0 0 Z" /><glyph glyph-name="" unicode="" d="M682 760 q-72 -26 -146 -49 q-74 -23 -145 -55 q-13 -6 -26 -9 q-14 -3 -28 -3 q-8 0 -17 -1 q-8 -1 -13 -6 q-20 -22 -47 -32 q-26 -10 -52 -20 q-38 -16 -76 -31 q-37 -16 -79 -19 q-13 -1 -20 -13 q-7 -13 -5 -26 q3 -13 14 -21 q10 -8 23 -7 q19 3 37 9 q62 24 123 49 q16 8 32 11 q16 3 33 -6 q-18 -114 -26 -228 q-8 -113 -4 -229 q-15 -7 -29 -14 q-14 -7 -27 -15 q-31 -19 -62 -38 q-31 -19 -61 -39 q-16 -12 -16 -25 q1 -14 17 -27 q16 -12 28 -13 q13 0 30 11 q58 38 115 76 q6 -3 10 -5 q5 -3 9 -5 q25 -17 38 -14 q13 3 23 30 q8 18 21 28 q13 10 30 16 q12 4 24 6 q13 3 25 6 q47 12 94 25 q47 14 97 16 q29 1 51 20 q8 7 9 16 q2 9 -2 19 q-5 9 -11 15 q-6 7 -16 9 q-15 4 -29 3 q-14 0 -27 -7 q-18 -11 -38 -15 q-20 -5 -41 -6 q-10 -1 -21 -4 q-11 -3 -22 -6 q-57 -16 -115 -31 q-4 0 -9 1 q-5 2 -12 3 q-1 11 -3 22 q-1 11 -1 21 q0 11 2 22 q1 11 2 22 q11 152 22 303 q1 13 2 26 q0 12 2 25 q2 18 11 32 q9 13 28 20 q98 36 194 75 q25 10 50 21 q24 12 48 23 q9 4 15 10 q7 6 5 18 q-2 10 -12 13 q-9 2 -26 -3 l0 0 ZM271 759 q13 6 21 15 q8 10 8 24 q0 10 -2 21 q-3 11 -7 20 q-3 7 -10 12 q-7 4 -14 7 q-16 5 -28 -2 q-13 -6 -23 -24 q-7 -10 -5 -22 q2 -12 13 -24 q19 -22 47 -27 l0 0 ZM408 838 q19 -11 37 -8 q18 4 28 21 q2 4 4 8 q1 5 1 9 q-3 20 -21 36 q-17 15 -41 16 q-5 -3 -14 -7 q-9 -5 -15 -12 q-11 -15 -5 -33 q7 -18 26 -30 l0 0 Z" /><glyph glyph-name="" unicode="" d="M574 653 q-11 3 -21 0 q-10 -3 -18 -12 q-16 -19 -22 -41 q-7 -22 -5 -47 q2 -32 -2 -63 q-7 -52 -14 -103 q-7 -52 -7 -105 q0 -39 -6 -78 q-5 -39 -15 -78 q-22 2 -36 14 q-15 12 -27 26 q-127 125 -209 284 q-8 15 -17 29 q-9 15 -19 29 q-10 13 -23 17 q-13 4 -28 0 q-16 -3 -24 -15 q-8 -11 -11 -26 q-2 -14 -3 -28 q-1 -14 -5 -28 q-10 -35 -14 -71 q-3 -36 -5 -73 q-2 -42 -3 -85 q-1 -43 -9 -85 q-4 -17 -3 -34 q0 -18 1 -36 q1 -19 10 -28 q8 -10 29 -15 q12 -3 22 2 q9 4 12 17 q6 27 7 56 q0 44 -1 89 q0 44 1 88 q2 32 7 63 q5 31 10 63 q1 2 4 4 q3 2 6 5 q5 -7 11 -14 q6 -7 10 -15 q35 -62 78 -118 q43 -56 92 -108 q39 -41 83 -71 q45 -31 102 -44 q5 3 10 7 q6 3 10 8 q4 6 7 13 q4 8 6 15 q2 6 2 12 q1 7 1 13 q4 76 5 152 q2 75 12 151 q6 47 11 94 q5 47 17 93 q5 22 7 44 q0 11 -8 20 q-7 9 -18 13 l0 0 ZM175 701 q14 -1 22 6 q9 8 12 23 q2 12 2 26 q1 13 3 31 q9 -4 15 -6 q6 -2 9 -5 q22 -19 47 -31 q26 -11 53 -20 q55 -18 77 -5 q23 13 38 53 q12 30 30 58 q18 28 46 48 q4 3 6 7 q3 4 5 8 q4 10 1 21 q-3 11 -11 20 q-16 14 -35 4 q-29 -14 -52 -34 q-24 -20 -38 -49 q-5 -10 -10 -20 q-4 -11 -10 -20 q-9 -16 -20 -19 q-12 -3 -27 6 q-20 13 -39 27 q-19 14 -38 28 q-9 7 -17 14 q-9 7 -18 12 q-17 9 -31 6 q-14 -3 -25 -18 q-21 -31 -27 -67 q-5 -35 -8 -71 q0 -14 11 -23 q11 -9 29 -10 l0 0 Z" /><glyph glyph-name="" unicode="" d="M512 418 q-18 40 -45 73 q-27 32 -59 61 q-6 6 -15 9 q-9 4 -18 5 q-11 2 -22 1 q-12 0 -23 0 q0 1 0 2 q-16 -1 -31 -2 q-16 -1 -32 -2 q-16 -1 -31 -7 q-15 -5 -27 -16 q-42 -39 -77 -83 q-36 -43 -54 -100 q-7 -24 -15 -48 q-8 -24 -18 -47 q-15 -35 -16 -71 q-2 -36 -1 -72 q1 -21 9 -37 q9 -17 24 -29 q14 -11 29 -20 q15 -10 31 -14 q51 -13 100 -6 q49 6 94 37 q57 39 110 84 q40 34 65 77 q25 42 35 94 q5 28 2 55 q-3 28 -15 56 l0 0 ZM446 263 q-1 -6 -4 -11 q-3 -6 -8 -10 q-19 -21 -38 -42 q-20 -21 -42 -38 q-35 -25 -72 -44 q-38 -19 -80 -29 q-51 -11 -80 20 q-30 30 -24 76 q10 54 28 104 q19 50 48 96 q26 41 63 71 q38 30 90 40 q18 3 33 -1 q15 -5 24 -16 q23 -25 44 -53 q21 -27 28 -63 q2 -13 4 -24 q-3 -20 -6 -38 q-4 -19 -8 -38 l0 0 ZM201 706 q20 -12 40 -25 q20 -12 41 -22 q16 -6 26 4 q11 10 8 27 q-1 8 -5 15 q-3 8 -9 11 q-34 21 -57 49 q-23 29 -31 69 q-1 1 -1 3 q-1 1 -2 2 q-7 6 -13 11 q-6 5 -10 7 q-15 1 -24 -4 q-8 -4 -12 -15 q-2 -5 -4 -12 q-1 -6 -1 -12 q3 -32 13 -61 q11 -28 41 -47 l0 0 Z" /><glyph glyph-name="" unicode="" d="M492 417 q-9 27 -17 54 q-13 43 -30 83 q-18 41 -44 78 q-17 25 -41 34 q-23 8 -52 -3 q-16 -6 -31 -15 q-16 -9 -28 -21 q-25 -24 -49 -49 q-24 -25 -47 -51 q-21 -22 -30 -47 q-8 -25 -1 -50 q-22 -43 -42 -84 q-21 -40 -40 -79 q-12 -23 -12 -46 q-1 -23 10 -46 q7 -14 12 -29 q6 -20 20 -32 q13 -13 31 -20 q14 -5 27 -9 q14 -4 28 -9 q20 -7 40 -6 q20 0 40 6 q37 10 71 25 q34 16 66 38 q26 18 49 39 q23 21 42 46 q31 44 39 93 q7 48 -11 100 l0 0 ZM376 229 q-27 -21 -58 -38 q-31 -17 -61 -33 q-21 -10 -43 -10 q-22 -1 -44 1 q-32 2 -48 21 q-17 20 -13 51 q3 14 7 27 q5 14 11 26 q27 62 63 117 q36 55 78 107 q7 10 16 20 q9 9 20 14 q15 8 24 22 q9 13 20 29 q34 -49 54 -101 q20 -52 30 -107 q7 -44 -7 -81 q-15 -38 -49 -65 l0 0 ZM397 728 q17 -4 30 1 q12 5 17 18 q18 44 33 88 q3 8 5 15 q1 7 2 13 q-2 15 -7 26 q-6 12 -19 17 q-13 6 -26 -1 q-13 -6 -20 -21 q-20 -50 -38 -100 q-2 -6 -3 -12 q0 -7 0 -13 q0 -12 7 -20 q7 -9 19 -11 l0 0 Z" /><glyph glyph-name="" unicode="" d="M526 358 q-18 74 -43 145 q-15 44 -47 70 q-31 27 -74 40 q-24 8 -50 8 q-26 1 -49 -11 q-31 -15 -59 -35 q-28 -20 -48 -51 q-24 -37 -48 -74 q-24 -37 -47 -75 q-17 -30 -25 -63 q-8 -34 -8 -70 q0 -38 16 -68 q17 -29 45 -50 q29 -23 62 -35 q34 -12 71 -7 q42 -1 80 8 q38 10 75 25 q38 16 68 40 q29 24 50 59 q20 33 30 69 q11 36 1 75 l0 0 ZM459 311 q-2 -32 -15 -57 q-13 -26 -41 -44 q-45 -31 -95 -48 q-50 -17 -106 -13 q-31 4 -62 30 q-32 26 -39 55 q-2 9 -1 19 q1 9 4 18 q14 35 29 70 q16 34 41 64 q6 7 10 15 q4 9 9 17 q11 15 22 30 q11 16 23 30 q5 6 12 10 q7 4 14 5 q21 0 36 12 q15 11 27 30 q40 -13 65 -36 q25 -23 37 -59 q11 -29 17 -58 q7 -29 11 -58 q3 -16 2 -32 l0 0 ZM157 664 q7 6 12 14 q5 9 10 17 q16 26 33 54 q18 28 38 62 q13 -14 23 -24 q10 -10 17 -20 q21 -25 48 -36 q28 -10 58 -14 q11 -1 24 2 q12 4 24 10 q12 5 17 17 q6 13 3 25 q-3 13 -13 18 q-9 5 -21 4 q-31 -2 -52 12 q-21 15 -37 38 q-20 25 -41 48 q-17 20 -33 21 q-17 1 -36 -15 q-40 -35 -69 -78 q-28 -43 -51 -90 q-6 -12 -7 -25 q0 -12 3 -25 q5 -17 21 -22 q16 -5 29 7 l0 0 Z" /><glyph glyph-name="" unicode="" d="M569 328 q-9 22 -16 44 q-7 23 -15 45 q-5 12 -10 23 q-5 12 -11 23 q-25 40 -54 78 q-37 50 -85 70 q-49 21 -112 8 q-69 -12 -105 -46 q-37 -35 -52 -103 q-3 -12 -6 -24 q-4 -13 -10 -23 q-14 -20 -24 -41 q-11 -21 -20 -43 q-15 -32 -19 -66 q-4 -33 0 -69 q9 -66 62 -98 q35 -22 74 -35 q39 -13 88 -5 q34 -3 69 9 q35 12 72 23 q55 15 97 48 q43 33 71 85 q13 25 15 48 q2 24 -9 49 l0 0 ZM483 230 q-9 -9 -18 -18 q-9 -9 -20 -15 q-36 -20 -74 -34 q-38 -15 -81 -16 q-15 0 -31 -3 q-15 -2 -31 -4 q-51 -4 -83 18 q-32 22 -43 61 q-2 8 -2 16 q-1 8 1 15 q14 53 40 100 q26 47 60 89 q10 13 25 23 q15 10 31 16 q26 10 37 27 q11 17 6 44 q25 13 44 6 q20 -7 37 -23 q36 -33 59 -74 q24 -40 40 -85 q8 -22 16 -45 q7 -22 7 -47 q0 -15 -5 -28 q-4 -13 -15 -23 l0 0 ZM85 709 q7 2 14 6 q6 5 11 10 q3 3 4 8 q0 5 2 10 q17 47 34 94 q5 15 15 24 q10 10 27 15 q10 -27 18 -52 q8 -25 20 -46 q38 -64 93 -74 q56 -11 111 41 q32 32 46 72 q13 39 15 83 q0 3 -1 6 q-1 3 -3 6 q-3 8 -11 10 q-9 3 -14 -3 q-9 -13 -17 -27 q-8 -13 -17 -26 q-13 -18 -26 -36 q-13 -18 -28 -33 q-21 -20 -45 -16 q-25 4 -39 29 q-9 15 -16 31 q-7 16 -10 33 q-4 22 -16 38 q-12 16 -25 31 q-10 13 -24 16 q-13 3 -27 -2 q-28 -9 -51 -26 q-23 -16 -36 -43 q-15 -30 -24 -62 q-9 -31 -11 -65 q0 -16 4 -31 q2 -10 10 -16 q8 -7 17 -5 l0 0 Z" /><glyph glyph-name="" unicode="" d="M650 482 q-20 43 -49 80 q-30 36 -77 55 q-7 3 -14 6 q-7 4 -15 7 q-53 22 -102 15 q-49 -6 -91 -46 q-28 -26 -58 -48 q-30 -23 -61 -45 q-23 -16 -43 -37 q-21 -20 -36 -43 q-20 -32 -35 -67 q-15 -34 -32 -69 q-8 -18 -9 -37 q-1 -18 4 -37 q6 -28 17 -54 q11 -26 29 -49 q10 -12 23 -20 q39 -25 80 -40 q41 -16 83 -11 q56 -4 105 6 q49 10 94 29 q46 19 87 49 q41 29 73 70 q27 35 41 74 q15 39 14 83 q0 34 -7 67 q-6 32 -21 62 l0 0 ZM553 215 q-28 -26 -60 -47 q-32 -21 -68 -34 q-58 -19 -117 -23 q-59 -5 -119 14 q-46 16 -70 61 q-23 45 -6 93 q19 47 45 89 q26 43 69 74 q5 3 11 5 q15 -3 30 -7 q3 2 6 4 q3 1 5 3 q6 8 11 15 q5 8 12 15 q12 14 27 25 q15 10 36 12 q26 2 48 13 q21 11 33 35 q19 3 34 -2 q15 -4 29 -14 q31 -22 54 -50 q24 -28 32 -69 q4 -20 10 -39 q7 -19 8 -40 q1 -41 -15 -75 q-15 -33 -45 -58 l0 0 ZM146 744 q9 -5 20 -8 q10 -3 22 -7 q8 9 15 17 q8 8 14 17 q7 12 6 23 q-2 12 -11 23 q-10 12 -20 15 q-10 3 -24 -2 q-9 -3 -17 -7 q-22 -13 -24 -35 q-1 -21 19 -36 l0 0 ZM439 768 q16 0 27 13 q12 14 12 35 q-1 22 -11 33 q-10 10 -30 10 q-21 0 -31 -11 q-9 -11 -9 -33 q2 -17 14 -31 q12 -13 28 -16 l0 0 Z" /><glyph glyph-name="" unicode="" d="M640 870 q-15 9 -31 13 q-17 5 -34 -5 q-24 -14 -46 -31 q-23 -17 -40 -41 q-29 -43 -62 -85 q-32 -42 -67 -87 q-24 11 -47 9 q-23 -1 -46 -5 q-46 -5 -85 -24 q-38 -20 -75 -44 q-19 -13 -27 -31 q-8 -17 0 -39 q10 -24 5 -44 q-4 -20 -14 -40 q-10 -20 -19 -40 q-9 -21 -15 -42 q-14 -43 -7 -84 q7 -40 40 -74 q6 -7 12 -14 q6 -7 11 -12 q-5 -29 -10 -57 q-4 -27 -8 -53 q-2 -19 0 -37 q2 -9 7 -15 q6 -5 15 -4 q7 1 14 4 q7 3 13 8 q3 2 5 7 q1 5 3 10 q8 27 16 53 q7 27 14 51 q21 11 41 14 q19 4 38 4 q13 0 25 2 q13 1 25 6 q47 20 85 52 q37 33 69 74 q3 5 5 11 q19 56 25 113 q7 57 -7 117 q-6 25 -18 46 q-12 21 -24 42 q17 35 41 64 q23 28 44 57 q26 40 59 69 q33 29 79 38 q5 15 4 26 q-2 12 -13 18 l0 0 ZM121 212 q-24 28 -27 55 q-3 27 7 53 q7 18 15 35 q8 17 15 34 q7 24 22 42 q15 17 41 28 q-1 31 12 54 q14 24 39 40 q18 13 38 21 q20 9 47 -1 q-7 -26 -23 -47 q-17 -20 -30 -42 q-25 -44 -50 -88 q-27 -46 -53 -92 q-12 -22 -25 -44 q-13 -22 -28 -48 l0 0 ZM395 300 q-13 -26 -34 -46 q-20 -20 -45 -33 q-24 -14 -51 -24 q-28 -10 -64 -1 q4 12 6 22 q3 10 7 18 q39 74 81 149 q41 74 92 145 q17 -17 24 -36 q7 -20 8 -40 q5 -40 -1 -79 q-5 -38 -23 -75 l0 0 Z" /><glyph glyph-name="" unicode="" d="M495 90 q-16 42 -25 85 q-10 43 -10 88 q0 60 0 120 q0 19 0 38 q0 19 -1 38 q-2 14 -10 23 q-8 9 -22 13 q-12 2 -26 -6 q-14 -8 -20 -20 q-2 -3 -3 -6 q-1 -3 -1 -6 q-3 -26 -11 -50 q-8 -24 -13 -48 q-8 -48 -24 -92 q-17 -45 -37 -87 q-23 -49 -60 -82 q-37 -34 -89 -49 q-17 8 -24 21 q-7 12 -10 26 q-3 12 -6 25 q-3 12 -4 25 q-5 45 -5 91 q0 46 5 91 q6 49 10 98 q4 49 7 97 q1 11 -3 22 q-4 11 -8 21 q-5 10 -15 14 q-11 4 -23 2 q-8 -3 -13 -9 q-4 -7 -5 -15 q-1 -7 -1 -15 q0 -8 0 -16 q-5 -76 -10 -151 q-3 -33 -6 -66 q-3 -33 -4 -67 q-1 -46 5 -91 q5 -46 20 -90 q6 -21 18 -40 q12 -20 32 -30 q19 -11 41 -16 q16 -3 30 5 q13 8 26 18 q65 46 111 111 q17 25 30 52 q13 27 26 54 q3 7 9 11 q5 5 16 -1 q6 -28 10 -58 q5 -29 14 -58 q10 -29 27 -46 q18 -17 45 -26 q13 13 13 26 q0 12 -6 26 l0 0 ZM248 664 q5 -1 11 1 q6 2 11 5 q6 6 6 14 q-1 7 -7 15 q-5 7 -11 14 q-6 8 -13 14 q-21 20 -38 42 q-18 22 -33 46 q-8 14 -18 25 q-10 11 -29 11 q-17 -2 -25 -14 q-9 -13 -19 -29 q18 -23 35 -45 q16 -21 34 -41 q19 -22 43 -36 q25 -13 53 -22 l0 0 Z" /><glyph glyph-name="" unicode="" d="M511 0 q-41 74 -31 159 q7 53 10 107 q1 22 1 44 q1 22 -2 44 q-3 26 -3 51 q-1 25 4 50 q6 39 -2 76 q-8 37 -18 73 q-3 11 -11 19 q-8 8 -21 9 q-12 0 -20 -8 q-9 -7 -15 -16 q-5 -8 -7 -18 q-12 -45 -25 -91 q-13 -46 -21 -92 q-9 -58 -26 -114 q-16 -56 -36 -110 q-19 -49 -48 -89 q-29 -41 -68 -75 q-11 -9 -23 -7 q-12 2 -19 15 q-5 8 -9 16 q-5 9 -7 18 q-4 22 -8 44 q-4 22 -5 44 q-3 66 1 132 q5 66 15 132 q5 36 6 73 q2 36 3 72 q1 13 -6 21 q-6 9 -17 13 q-10 5 -22 2 q-12 -3 -18 -13 q-5 -7 -7 -16 q-3 -9 -3 -19 q-2 -44 -3 -88 q-1 -45 -8 -88 q-6 -40 -9 -79 q-2 -39 -4 -78 q-3 -50 4 -98 q7 -48 24 -95 q4 -12 11 -22 q7 -11 14 -21 q24 -30 59 -33 q36 -3 62 26 q4 5 9 9 q5 4 9 9 q28 41 59 82 q30 40 46 89 q2 6 4 12 q3 6 7 11 q10 13 13 28 q4 15 4 31 q0 13 2 26 q1 13 5 24 q31 76 45 156 q1 5 4 11 q4 6 10 15 q2 -10 3 -16 q1 -6 1 -10 q-6 -167 -13 -335 q-1 -32 1 -63 q3 -32 13 -62 q7 -20 23 -26 q15 -6 33 -8 q14 -2 23 7 q8 9 12 23 q-1 4 -2 8 q-1 5 -3 9 l0 0 ZM243 705 q32 21 62 40 q29 19 57 39 q19 14 37 29 q18 16 35 32 q5 4 8 9 q4 6 6 11 q4 8 3 16 q-1 8 -9 13 q-5 3 -12 4 q-6 1 -11 -1 q-48 -27 -97 -52 q-49 -24 -92 -60 q-36 -29 -34 -45 q2 -16 47 -35 l0 0 Z" /><glyph glyph-name="" unicode="" d="M479 167 q-8 33 -9 65 q-1 33 8 65 q2 8 1 16 q0 8 -1 16 q-4 104 -9 208 q0 6 -1 12 q-5 17 -20 24 q-15 6 -30 -2 q-23 -13 -32 -38 q-15 -42 -34 -81 q-19 -40 -34 -82 q-14 -38 -33 -75 q-18 -37 -33 -75 q-18 -47 -46 -86 q-29 -40 -58 -79 q-4 -6 -11 -10 q-7 -4 -17 -1 q-2 4 -5 7 q-2 4 -3 8 q-7 82 -13 164 q-1 10 -2 19 q0 10 3 19 q10 34 11 69 q2 34 4 69 q3 28 2 57 q0 28 -1 57 q-1 12 -13 20 q-11 9 -24 8 q-12 -1 -23 -8 q-11 -8 -12 -22 q0 -19 -1 -38 q-4 -79 -8 -158 q-5 -63 -7 -126 q-2 -64 8 -127 q2 -14 5 -28 q4 -13 9 -26 q14 -28 38 -37 q25 -10 52 1 q16 7 30 16 q14 10 23 27 q9 17 19 33 q11 15 21 31 q21 34 42 67 q21 33 35 70 q18 52 38 103 q21 52 41 103 q1 1 3 2 q2 1 6 3 q1 -9 2 -16 q1 -7 1 -14 q-1 -53 -2 -105 q-1 -52 -1 -104 q0 -32 3 -63 q4 -31 16 -60 q9 -5 16 -9 q7 -4 14 -7 q19 -8 28 -4 q10 5 23 28 q-5 24 -10 48 q-4 23 -9 46 l0 0 ZM70 728 q20 -12 37 -7 q17 4 27 23 q8 16 15 33 q7 16 15 36 q24 -26 44 -49 q21 -23 42 -44 q8 -10 19 -16 q10 -7 24 -8 q15 -2 27 3 q12 4 16 14 q7 17 3 35 q-5 17 -19 27 q-6 3 -12 5 q-25 6 -42 22 q-17 15 -29 36 q-12 19 -24 38 q-11 18 -22 38 q-8 15 -19 25 q-11 10 -29 9 q-16 -1 -24 -12 q-8 -11 -13 -25 q-13 -39 -22 -79 q-8 -40 -25 -78 q-4 -7 0 -14 q4 -8 11 -12 l0 0 Z" /><glyph glyph-name="" unicode="" d="M430 228 q1 36 7 72 q6 36 16 71 q7 27 10 55 q4 29 6 57 q1 15 -8 24 q-8 10 -21 12 q-13 2 -27 -5 q-14 -7 -20 -19 q-4 -9 -5 -18 q-8 -47 -21 -92 q-14 -46 -34 -89 q-16 -34 -36 -66 q-19 -33 -37 -66 q-18 -35 -44 -62 q-26 -27 -56 -50 q-6 -4 -14 -5 q-7 -1 -15 -2 q-27 62 -30 125 q-4 63 1 126 q11 26 10 53 q0 26 1 53 q2 36 -32 49 q-34 -9 -42 -25 q-8 -16 -6 -42 q1 -38 1 -76 q-1 -38 -4 -76 q-3 -27 -2 -53 q0 -27 3 -54 q3 -22 10 -43 q8 -21 12 -42 q4 -27 19 -43 q16 -15 38 -25 q13 -6 24 -6 q12 1 24 7 q22 11 37 29 q16 17 31 35 q29 34 55 69 q26 35 37 80 q3 11 11 23 q9 12 21 31 q-1 -25 -1 -43 q0 -18 1 -33 q0 -35 1 -69 q1 -25 10 -36 q9 -11 33 -16 q17 -4 27 4 q11 7 11 25 q1 14 0 29 q-1 14 -4 28 q-4 17 -6 33 q-1 17 4 35 q3 7 3 15 q1 8 1 16 l0 0 ZM91 734 q21 6 30 22 q8 16 -2 35 q-6 13 -16 22 q-11 10 -28 14 q-7 -6 -15 -13 q-8 -7 -15 -14 q-7 -9 -7 -20 q0 -12 8 -21 q8 -11 18 -20 q10 -9 27 -5 l0 0 ZM282 754 q14 -6 29 -3 q15 3 23 14 q14 23 2 48 q-5 11 -16 15 q-11 3 -26 3 q-4 0 -11 -1 q-7 -1 -14 -4 q-5 -3 -9 -8 q-4 -6 -5 -11 q-3 -16 6 -31 q8 -15 21 -22 l0 0 Z" /><glyph glyph-name="" unicode="&#x104;" d="M416 236 q-2 -4 -6 -8 q-4 -5 -7 -10 q-11 -20 -3 -36 q8 -16 30 -19 q19 -1 37 3 q16 3 24 13 q8 11 8 28 q1 16 -4 31 q-6 15 -13 29 q-23 45 -37 94 q-13 48 -19 99 q-2 11 -1 22 q2 11 15 20 q21 3 44 6 q22 4 46 7 q9 1 15 5 q5 4 7 13 q2 10 -3 16 q-5 7 -17 11 q-12 5 -24 5 q-12 1 -25 -1 q-17 -4 -34 -4 q-18 0 -34 10 q-3 13 -4 25 q-7 97 -11 193 q-4 97 -2 194 q1 25 -1 50 q-1 9 -6 15 q-5 5 -14 7 q-19 5 -32 -1 q-12 -6 -18 -24 q-5 -18 -8 -36 q-3 -19 -8 -37 q-17 -63 -32 -126 q-15 -63 -36 -124 q-14 -39 -25 -78 q-11 -40 -21 -80 q-6 -22 -18 -36 q-13 -15 -36 -19 q-15 -3 -30 -10 q-18 -10 -20 -30 q-3 -19 12 -34 q7 -6 15 -11 q8 -4 16 -8 q-7 -26 -13 -51 q-6 -24 -15 -48 q-17 -47 -36 -94 q-19 -47 -38 -94 q-3 -10 -5 -21 q-1 -11 -1 -22 q0 -4 2 -9 q2 -4 6 -7 q21 -17 41 -12 q21 4 30 28 q9 27 17 55 q7 27 15 54 q23 82 46 165 q17 69 34 88 q16 19 85 40 q25 10 37 4 q11 -5 19 -31 q3 -10 5 -21 q2 -11 3 -22 q2 -12 4 -25 q2 -12 5 -24 q9 -29 19 -58 q10 -29 20 -59 l0 0 ZM233 524 q6 17 10 27 q3 11 7 19 q10 23 17 47 q7 24 8 50 q5 43 22 83 q17 41 29 88 q5 -75 9 -144 q4 -70 8 -139 q-25 -8 -52 -15 q-26 -7 -58 -16 l0 0 ZM671 18 q-2 3 -8 4 q-5 1 -9 0 q-12 -4 -23 -10 q-12 -6 -24 -7 q-34 -3 -69 -5 q-36 -1 -73 6 q-9 23 -8 44 q2 21 8 40 q5 16 0 28 q-5 13 -17 23 q-12 11 -26 9 q-13 -1 -22 -15 q-6 -9 -12 -19 q-5 -10 -9 -20 q-24 -80 13 -125 q37 -45 109 -46 q42 1 82 15 q41 14 78 37 q5 3 9 8 q4 5 6 11 q1 5 -1 11 q-1 7 -4 11 l0 0 Z" /><glyph glyph-name="" unicode="&#x106;" d="M525 196 q-2 3 -7 4 q-5 2 -9 2 q-4 0 -9 -2 q-4 -2 -8 -5 q-40 -33 -89 -47 q-48 -15 -91 -41 q-5 -3 -12 -3 q-7 -1 -13 -1 q-19 -1 -38 -2 q-19 -1 -38 0 q-17 2 -34 6 q-17 4 -34 9 q-16 5 -27 17 q-10 12 -12 28 q-2 22 -3 45 q0 23 7 43 q23 62 47 123 q25 61 60 118 q7 10 13 22 q6 11 11 23 q18 48 52 86 q34 39 75 77 q9 -45 10 -101 q1 -56 -5 -90 q-7 -40 -6 -81 q0 -9 5 -18 q4 -8 10 -16 q3 -4 10 -6 q6 -3 11 -2 q5 2 10 7 q4 5 5 11 q3 20 3 41 q1 21 6 40 q16 55 16 110 q-1 55 -1 110 q-2 37 -37 56 q-34 20 -71 0 q-20 -13 -37 -30 q-17 -17 -31 -36 q-11 -14 -20 -28 q-10 -15 -20 -28 q-65 -84 -109 -177 q-45 -94 -76 -194 q-6 -18 -9 -37 q-4 -18 -1 -38 q14 -91 73 -129 q59 -39 143 -33 q32 2 62 10 q31 9 59 24 q36 19 72 38 q37 19 67 48 q13 14 23 30 q1 3 0 8 q0 5 -3 9 l0 0 ZM393 850 q7 39 14 75 q9 44 24 85 q15 42 31 83 q6 15 6 28 q0 14 -10 26 q-7 9 -15 16 q-9 6 -22 5 q-13 -2 -20 -11 q-6 -9 -8 -19 q-4 -19 -11 -37 q-6 -17 -15 -34 q-23 -40 -29 -83 q-7 -44 -6 -88 q0 -11 3 -22 q3 -11 6 -24 q13 0 25 0 q13 0 27 0 l0 0 Z" /><glyph glyph-name="" unicode="&#x108;" d="M578 132 q-2 3 -7 6 q-4 3 -8 2 q-19 -2 -37 -8 q-13 -6 -26 -12 q-13 -7 -26 -9 q-50 -7 -100 -15 q-50 -8 -101 -6 q-30 2 -59 6 q-28 5 -56 19 q-30 16 -45 40 q-14 24 -9 56 q9 50 32 95 q27 49 59 94 q32 45 50 98 q1 3 3 5 q43 57 91 110 q47 52 105 95 q9 7 22 13 q12 5 28 14 q6 -36 5 -65 q-2 -30 -7 -58 q-4 -15 -5 -31 q-2 -16 -3 -31 q-1 -15 7 -24 q8 -9 20 -14 q9 -4 16 -2 q7 2 12 9 q4 5 7 11 q2 6 2 12 q-2 19 2 37 q3 18 8 37 q9 35 8 72 q-1 36 -11 72 q-8 24 -27 35 q-18 10 -42 3 q-12 -3 -24 -9 q-11 -6 -21 -13 q-76 -54 -140 -118 q-65 -65 -117 -141 q-57 -83 -111 -168 q-17 -26 -27 -53 q-11 -28 -16 -59 q-8 -57 12 -102 q21 -45 76 -77 q27 -15 56 -23 q28 -8 57 -15 q34 -9 68 -9 q34 -1 68 14 q11 5 24 7 q13 2 26 2 q26 1 50 10 q23 9 46 20 q17 10 33 23 q15 14 31 27 q2 3 2 8 q0 6 -1 10 l0 0 ZM193 736 q3 -2 8 -2 q5 0 10 -1 q20 20 31 45 q11 24 23 48 q12 25 22 52 q9 27 20 55 q9 -3 13 -5 q4 -2 6 -4 q34 -22 68 -45 q10 -6 22 -5 q11 1 18 9 q20 27 11 57 q-8 31 -39 39 q-23 5 -41 15 q-19 11 -33 29 q-5 6 -11 11 q-6 5 -12 10 q-21 16 -35 14 q-14 -2 -26 -24 q-5 -8 -9 -17 q-3 -9 -4 -18 q-4 -52 -23 -98 q-19 -46 -41 -91 q-15 -32 -12 -45 q3 -13 34 -29 l0 0 Z" /><glyph glyph-name="" unicode="&#x114;" d="M243 563 q17 1 34 3 q18 3 35 6 q23 3 47 6 q23 3 46 9 q55 14 107 35 q16 7 17 24 q1 17 -13 29 q-6 4 -14 8 q-7 3 -18 9 q-36 -26 -74 -35 q-39 -10 -78 -15 q-44 -7 -88 -13 q-43 -6 -87 -13 q-27 -4 -38 -17 q-11 -13 -17 -42 q-19 -92 -42 -184 q-15 -57 -23 -115 q-9 -57 -9 -116 q0 -29 4 -57 q8 -44 38 -63 q30 -18 73 -6 q18 6 35 13 q18 7 36 14 q68 29 133 65 q65 36 135 63 q10 4 19 11 q8 7 16 14 q6 6 7 14 q1 8 -5 15 q-4 3 -10 5 q-7 1 -12 2 q-2 1 -3 0 q-2 -1 -3 -1 q-37 -15 -74 -30 q-36 -15 -73 -30 q-90 -39 -179 -79 q-12 -6 -24 -8 q-12 -2 -27 4 q-9 36 -8 73 q0 38 5 76 q22 9 42 18 q21 8 41 16 q45 17 89 33 q44 17 86 39 q13 6 25 14 q12 8 22 17 q8 7 7 16 q-2 9 -14 17 q-33 -11 -66 -23 q-34 -11 -69 -21 q-34 -11 -67 -23 q-34 -13 -71 -14 q-1 7 -3 13 q-1 5 0 9 q18 96 37 191 q17 11 35 17 q18 6 38 7 l0 0 ZM535 936 q-7 7 -15 8 q-7 2 -14 -2 q-35 -22 -67 -48 q-24 -19 -49 -34 q-25 -15 -53 -26 q-38 -17 -71 -15 q-32 3 -61 34 q-10 10 -21 14 q-12 4 -25 3 q-17 1 -25 -9 q-8 -10 -6 -27 q1 -5 2 -10 q1 -5 3 -9 q17 -28 63 -51 q45 -23 78 -21 q6 2 13 4 q58 14 108 43 q50 29 95 67 q13 11 24 24 q12 13 23 27 q5 6 5 14 q-1 8 -7 14 l0 0 Z" /><glyph glyph-name="" unicode="&#x11c;" d="M530 580 q-3 7 -8 13 q-5 7 -11 12 q-24 21 -52 23 q-27 2 -55 -7 q-38 -12 -73 -30 q-35 -17 -67 -42 q-73 -57 -131 -128 q-32 -39 -57 -83 q-25 -44 -40 -93 q-8 -24 -8 -47 q-1 -24 8 -47 q17 -46 51 -76 q33 -30 79 -44 q35 -10 71 -9 q37 0 73 8 q14 3 23 11 q9 8 16 19 q3 5 0 12 q-3 7 -8 7 q-7 1 -13 1 q-7 1 -12 -1 q-38 -14 -73 -7 q-35 7 -68 24 q-51 26 -69 70 q-18 45 2 87 q9 18 17 38 q7 19 18 36 q23 32 45 64 q23 32 51 61 q28 27 58 49 q31 22 64 41 q14 8 32 12 q17 4 34 5 q26 3 37 -6 q12 -10 13 -35 q2 -19 6 -38 q4 -18 12 -35 q4 -9 13 -12 q9 -3 19 0 q17 5 26 18 q8 12 12 28 q-8 26 -17 51 q-8 25 -18 50 l0 0 ZM463 210 q-47 8 -94 4 q-48 -5 -95 -5 q-11 -1 -17 -7 q-6 -7 -8 -18 q-2 -12 2 -22 q4 -11 15 -14 q21 -7 43 -7 q25 -1 50 -1 q26 1 51 0 q7 0 13 -4 q7 -3 13 -6 q-11 -45 -32 -82 q-21 -38 -49 -70 q-23 -28 -41 -60 q-18 -31 -36 -66 q6 -8 9 -14 q4 -6 8 -11 q14 -14 25 -14 q12 -1 22 13 q18 23 32 47 q13 24 26 47 q13 24 27 46 q20 30 37 62 q17 32 33 65 q8 16 10 33 q3 17 2 34 q-2 24 -12 35 q-10 11 -34 15 l0 0 ZM212 704 q13 -6 26 2 q13 8 21 28 q5 13 10 27 q4 14 20 24 q3 -8 7 -17 q3 -8 6 -16 q6 -21 15 -42 q8 -20 23 -37 q23 -22 42 -17 q19 5 28 35 q5 15 3 29 q-2 15 -11 25 q-11 13 -17 27 q-5 15 -10 29 q-17 44 -34 88 q-6 15 -17 23 q-11 7 -27 9 q-13 0 -21 -7 q-8 -7 -13 -17 q-39 -65 -75 -131 q-10 -19 -3 -36 q7 -17 27 -26 l0 0 Z" /><glyph glyph-name="" unicode="&#x124;" d="M502 561 q-1 9 -7 14 q-5 5 -14 6 q-17 4 -28 -2 q-11 -7 -15 -23 q-3 -14 -5 -28 q-1 -14 -4 -28 q-2 -11 -5 -21 q-3 -10 -6 -20 q-16 -3 -31 -5 q-15 -2 -28 -6 q-23 -9 -46 -19 q-23 -10 -47 -19 q-8 -3 -17 -3 q-10 -1 -21 -2 q-2 25 -2 47 q0 23 3 45 q3 28 2 57 q-1 10 -9 16 q-7 6 -17 8 q-11 2 -19 -1 q-9 -4 -13 -13 q-5 -12 -9 -24 q-4 -12 -4 -24 q2 -32 -2 -63 q-5 -32 -9 -63 q-3 -22 -13 -38 q-10 -16 -31 -26 q-17 -8 -33 -19 q-16 -10 -31 -21 q-13 -9 -13 -20 q-1 -12 10 -23 q5 -5 12 -10 q6 -4 12 -8 q15 8 29 16 q15 9 31 18 q1 -11 2 -20 q1 -8 1 -15 q0 -43 0 -86 q0 -43 -2 -86 q-2 -34 9 -65 q11 -31 22 -62 q3 -9 9 -16 q7 -8 14 -14 q8 -6 17 -8 q9 -2 18 3 q8 4 12 14 q4 10 -1 19 q-10 21 -12 43 q-2 21 -3 44 q-2 37 -5 75 q-2 38 -4 76 q-1 57 3 114 q1 11 5 22 q5 11 12 17 q19 14 39 26 q20 12 41 23 q18 9 38 16 q19 7 38 13 q8 3 16 4 q8 1 17 2 q2 -7 4 -14 q3 -6 3 -11 q-4 -70 -10 -139 q-4 -40 -6 -79 q-2 -39 12 -78 q4 -8 4 -18 q0 -10 1 -19 q2 -14 3 -29 q2 -14 3 -28 q0 -15 -1 -30 q-1 -15 -2 -29 q18 -10 31 -4 q12 5 19 19 q12 20 18 43 q6 22 1 47 q-4 19 -6 38 q-2 19 -2 38 q0 73 1 146 q1 73 1 145 q0 16 6 28 q5 13 16 23 q5 5 10 11 q5 6 10 12 q-12 14 -19 28 q-6 14 -4 31 q2 16 1 32 l0 0 ZM570 736 q-12 19 -24 37 q-12 19 -23 38 q-18 31 -34 64 q-17 32 -34 64 q-12 20 -32 23 q-20 3 -37 -14 q-4 -4 -8 -10 q-3 -5 -6 -10 q-44 -109 -87 -218 q-6 -18 -3 -34 q3 -17 13 -32 q10 -13 24 -13 q15 0 24 12 q4 6 6 12 q2 6 4 11 q14 37 28 76 q14 39 31 84 q9 -13 15 -22 q6 -9 11 -16 q9 -19 18 -37 q9 -19 20 -36 q14 -25 33 -46 q13 -13 28 -11 q16 1 28 14 q13 14 14 31 q2 16 -9 33 l0 0 Z" /><glyph glyph-name="" unicode="&#x134;" d="M442 428 q-1 7 -3 13 q-8 26 -9 53 q-1 26 2 53 q5 47 9 95 q1 15 -4 28 q-5 13 -18 22 q-22 15 -49 1 q-5 -14 -11 -28 q-5 -15 -12 -29 q-7 -15 -7 -31 q0 -15 8 -30 q11 -20 14 -42 q3 -21 4 -44 q0 -19 1 -38 q1 -19 5 -37 q9 -55 14 -110 q4 -55 6 -110 q0 -25 -8 -47 q-8 -23 -20 -43 q-18 -30 -42 -37 q-23 -6 -54 9 q-26 13 -48 30 q-23 17 -41 40 q-50 61 -102 121 q-6 6 -14 12 q-8 5 -16 8 q-7 3 -13 -4 q-7 -8 -6 -15 q2 -6 5 -11 q21 -35 43 -70 q21 -35 45 -68 q32 -43 73 -73 q40 -31 94 -42 q52 -10 88 5 q37 15 61 60 q18 34 29 71 q10 36 3 75 q-9 53 -16 106 q-8 54 -11 107 l0 0 ZM480 913 q-8 4 -17 8 q-9 3 -18 4 q-26 1 -45 14 q-18 12 -33 32 q-23 31 -46 29 q-22 -1 -44 -33 q-7 -11 -12 -22 q-26 -64 -51 -129 q-9 -23 -16 -47 q-5 -19 1 -34 q7 -15 24 -25 q10 -5 22 -2 q12 3 17 12 q5 12 8 24 q10 38 24 75 q15 36 31 71 q31 -13 61 -26 q30 -13 61 -25 q15 -5 29 0 q14 6 20 18 q6 14 1 31 q-4 16 -17 25 l0 0 Z" /><glyph glyph-name="" unicode="&#x141;" d="M626 296 q-2 9 -11 15 q-8 6 -17 3 q-9 -4 -17 -8 q-9 -5 -15 -12 q-20 -23 -43 -41 q-24 -18 -50 -33 q-32 -18 -61 -40 q-28 -23 -52 -50 q-6 -7 -14 -13 q-9 -7 -20 -16 q-2 9 -3 15 q-1 6 -1 10 q0 162 2 323 q0 22 10 39 q10 17 30 28 q14 8 27 18 q12 10 23 21 q5 5 8 13 q2 7 3 15 q0 5 -4 11 q-3 5 -6 11 q-22 -3 -40 -13 q-19 -10 -39 -8 q-9 16 -7 32 q1 16 1 32 q-2 27 -4 53 q-1 27 -4 54 q-3 24 -17 38 q-14 14 -29 10 q-16 -5 -24 -21 q-8 -16 -3 -37 q11 -50 11 -100 q-1 -51 4 -102 q-8 -7 -15 -13 q-7 -7 -15 -11 q-50 -27 -97 -59 q-46 -32 -91 -67 q-19 -15 -18 -30 q0 -16 19 -31 q11 -9 23 -11 q13 -1 24 5 q29 13 53 33 q25 20 49 39 q25 19 50 36 q4 -4 7 -7 q3 -2 4 -5 q0 -45 1 -91 q1 -46 -5 -91 q-7 -51 -7 -102 q-1 -50 -2 -101 q-1 -6 1 -12 q1 -6 3 -12 q9 -23 30 -31 q22 -7 43 6 q24 15 43 36 q66 73 148 127 q17 11 35 21 q18 11 35 22 q31 19 41 43 q10 23 3 59 l0 0 Z" /><glyph glyph-name="" unicode="&#x143;" d="M569 653 q-14 2 -29 -9 q-14 -10 -18 -25 q-3 -15 -3 -31 q-2 -86 -10 -171 q-9 -85 -20 -170 q-1 -12 -6 -21 q-5 -10 -19 -17 q-13 11 -28 23 q-15 11 -26 26 q-40 53 -75 109 q-36 56 -57 120 q-5 18 -13 36 q-7 17 -15 35 q-4 8 -9 16 q-5 9 -11 15 q-11 11 -24 15 q-14 3 -29 0 q-24 -6 -29 -30 q-17 -91 -33 -181 q-6 -28 -10 -56 q-6 -37 -13 -74 q-6 -38 -15 -74 q-6 -25 -9 -50 q-4 -25 -11 -49 q-7 -23 -13 -46 q-6 -23 -13 -46 q-6 -20 -1 -33 q5 -13 25 -24 q5 -3 11 -4 q7 -1 15 -3 q7 9 15 17 q8 9 10 18 q4 27 11 53 q7 26 13 52 q9 54 17 109 q8 55 16 110 q12 75 27 149 q1 5 5 9 q4 5 7 9 q5 -4 9 -6 q3 -2 4 -4 q19 -56 47 -107 q29 -50 66 -96 q29 -37 62 -68 q34 -30 71 -56 q16 -11 33 -18 q18 -7 37 -8 q15 15 21 32 q5 18 5 38 q0 17 -1 35 q0 18 4 34 q11 50 15 100 q4 51 8 101 q1 16 3 31 q2 16 4 32 q7 50 14 100 q1 6 0 12 q-2 15 -12 27 q-10 12 -23 14 l0 0 ZM679 1000 q-2 4 -8 8 q-6 3 -12 3 q-18 1 -34 -6 q-16 -6 -30 -16 q-16 -11 -31 -23 q-15 -11 -32 -19 q-54 -29 -100 -67 q-47 -37 -95 -72 q-13 -9 -16 -24 q-3 -14 3 -27 q7 -12 19 -17 q12 -4 28 -6 q8 4 17 8 q10 5 18 11 q50 44 103 83 q53 40 108 77 q17 12 32 29 q15 17 29 34 q3 4 4 12 q0 7 -3 12 l0 0 Z" /><glyph glyph-name="" unicode="&#x150;" d="M523 361 q-6 27 -14 55 q-13 45 -37 84 q-23 38 -58 70 q-30 28 -65 38 q-36 9 -75 -5 q-68 -27 -121 -73 q-53 -45 -90 -108 q-11 -18 -11 -36 q0 -17 16 -34 q3 -3 5 -7 q3 -5 6 -10 q-22 -65 -44 -131 q-18 -59 7 -107 q25 -48 84 -68 q45 -14 87 -5 q43 10 85 23 q61 37 113 84 q52 47 91 108 q18 29 23 59 q4 31 -2 63 l0 0 ZM442 244 q-38 -53 -90 -88 q-51 -35 -108 -63 q-23 -1 -47 -2 q-24 -1 -47 1 q-17 3 -29 23 q-13 20 -12 42 q2 15 4 31 q3 16 8 31 q15 45 31 89 q15 45 34 88 q12 25 29 48 q17 23 34 46 q11 15 23 30 q11 15 24 31 q31 8 56 -4 q25 -12 46 -37 q26 -31 43 -66 q16 -36 26 -74 q17 -66 -25 -126 l0 0 ZM227 651 q9 -8 20 -9 q11 -1 22 3 q11 4 15 12 q4 9 3 18 q-2 21 2 41 q4 19 16 37 q2 2 4 3 q3 1 5 2 q15 -13 27 -23 q21 4 33 15 q12 10 14 31 q2 11 5 21 q4 10 7 21 q2 16 1 31 q-1 9 -6 14 q-6 6 -15 7 q-9 0 -19 0 q-10 0 -17 -4 q-8 -6 -14 -15 q-7 -9 -13 -17 q-15 9 -30 11 q-15 3 -33 -4 q-22 -32 -31 -69 q-10 -38 -17 -76 q-4 -16 3 -28 q6 -12 18 -22 l0 0 Z" /><glyph glyph-name="" unicode="&#x15a;" d="M516 593 q-5 10 -15 17 q-10 7 -20 5 q-25 -5 -48 -16 q-64 -30 -123 -69 q-60 -38 -117 -80 q-15 -11 -29 -24 q-14 -13 -26 -28 q-18 -23 -10 -49 q8 -26 35 -38 q39 -14 78 -25 q40 -10 82 -11 q26 0 49 -10 q22 -11 40 -34 q-5 -7 -10 -14 q-4 -7 -10 -11 q-34 -23 -70 -41 q-38 -18 -78 -27 q-40 -9 -80 -18 q-26 -8 -52 -5 q-27 3 -49 24 q-3 3 -8 5 q-5 2 -11 4 q-15 -11 -16 -21 q-1 -11 8 -20 q20 -21 44 -35 q24 -13 55 -12 q37 -1 72 0 q36 2 69 22 q39 5 73 22 q34 17 68 33 q22 10 35 28 q12 17 19 39 q9 24 1 47 q-8 23 -31 35 q-18 9 -36 19 q-17 9 -38 14 q-33 7 -65 15 q-32 8 -66 10 q-10 0 -17 6 q-6 6 -7 20 q26 19 51 40 q26 20 54 38 q44 28 88 56 q43 29 92 48 q3 1 6 3 q10 6 13 17 q4 11 0 21 l0 0 ZM381 737 q45 44 91 88 q10 10 14 21 q4 12 2 25 q-1 6 -2 12 q-3 10 -12 14 q-9 4 -18 -2 q-24 -17 -48 -35 q-24 -18 -48 -37 q-10 -9 -19 -20 q-9 -12 -16 -24 q-8 -13 -4 -26 q4 -13 16 -24 q10 -8 21 -6 q11 1 23 14 l0 0 Z" /><glyph glyph-name="" unicode="&#x15c;" d="M495 611 q-1 4 -4 10 q-3 5 -7 15 q-15 -3 -28 -5 q-13 -2 -24 -7 q-164 -72 -328 -146 q-18 -9 -35 -21 q-16 -12 -29 -30 q-7 -10 -9 -20 q-3 -11 4 -21 q19 -26 41 -49 q22 -22 53 -33 q25 -9 51 -16 q26 -6 52 -13 q68 -18 128 -54 q26 -17 28 -40 q1 -22 -23 -44 q-2 -2 -5 -4 q-28 -24 -61 -39 q-33 -16 -67 -27 q-24 -7 -49 -5 q-24 2 -48 17 q-18 12 -33 24 q-16 13 -30 28 q-9 11 -18 9 q-9 -1 -26 -15 q10 -16 20 -32 q9 -16 22 -30 q30 -31 67 -48 q37 -16 80 -15 q51 3 97 23 q46 20 89 49 q28 19 41 47 q13 28 17 64 q-4 8 -9 17 q-5 10 -11 19 q-22 30 -52 50 q-30 20 -64 33 q-31 12 -63 21 q-32 9 -64 19 q-22 7 -43 16 q-22 9 -40 29 q7 7 13 13 q5 5 12 9 q17 11 35 22 q17 10 36 18 q64 26 126 57 q62 31 129 51 q20 6 27 19 q6 13 2 35 l0 0 ZM192 709 q9 8 18 17 q9 9 16 20 q13 21 30 40 q17 20 40 40 q13 -20 23 -37 q10 -17 20 -33 q14 -21 32 -39 q9 -9 20 -11 q11 -1 20 4 q9 5 12 14 q4 8 4 18 q2 12 -2 22 q-4 9 -11 18 q-24 27 -39 57 q-16 31 -26 65 q-8 22 -28 28 q-19 5 -39 -8 q-5 -4 -9 -8 q-59 -71 -118 -141 q-8 -11 -10 -23 q-1 -12 2 -25 q4 -15 18 -21 q13 -6 27 3 l0 0 Z" /><glyph glyph-name="" unicode="&#x160;" d="M623 202 q-10 10 -22 19 q-11 8 -23 16 q-24 16 -52 22 q-27 7 -55 14 q-61 18 -124 19 q-37 1 -72 10 q-35 9 -70 18 q-4 1 -7 5 q-3 5 -5 8 q3 14 14 21 q11 7 22 13 q16 11 33 20 q16 9 31 20 q22 19 48 29 q28 11 56 22 q28 11 56 22 q64 26 126 55 q5 3 8 12 q3 8 3 16 q0 8 -5 14 q-6 5 -15 6 q-11 1 -22 2 q-11 0 -22 -3 q-24 -8 -48 -15 q-24 -8 -47 -16 q-38 -15 -75 -33 q-37 -19 -73 -37 q-27 -14 -52 -31 q-25 -16 -52 -28 q-15 -6 -27 -16 q-13 -11 -24 -22 q-25 -23 -24 -40 q1 -17 22 -41 q17 -21 41 -34 q23 -13 51 -18 q48 -7 97 -14 q48 -7 97 -11 q40 -3 77 -15 q38 -11 74 -35 q-2 -9 -2 -15 q0 -6 -3 -8 q-12 -11 -24 -21 q-12 -10 -26 -15 q-44 -14 -88 -26 q-44 -12 -88 -24 q-9 -3 -19 -2 q-33 -1 -67 -2 q-33 0 -66 2 q-39 1 -68 19 q-29 17 -39 60 q-1 4 -3 9 q-3 4 -6 7 q-5 3 -11 5 q-6 1 -12 1 q-3 -1 -7 -5 q-3 -4 -4 -8 q-7 -36 9 -70 q15 -33 47 -47 q51 -23 104 -35 q53 -12 110 1 q8 2 16 3 q8 2 16 2 q46 0 90 14 q43 14 88 24 q11 3 21 6 q11 4 20 10 q19 11 38 24 q18 12 34 27 q21 21 20 45 q0 24 -20 45 l0 0 ZM236 602 q20 -17 39 -20 q19 -4 42 3 q15 36 31 70 q16 40 39 75 q23 35 66 53 q2 1 5 4 q2 2 4 5 q7 7 5 17 q-1 10 -10 15 q-5 3 -11 6 q-6 2 -12 2 q-26 -2 -49 -12 q-22 -9 -38 -31 q-41 -56 -82 -112 q-28 22 -40 39 q-13 17 -26 50 q-11 26 -27 49 q-3 4 -10 5 q-7 1 -12 -1 q-21 -11 -29 -30 q-7 -18 2 -38 q20 -43 48 -81 q27 -37 65 -68 l0 0 Z" /><glyph glyph-name="" unicode="&#x16c;" d="M520 482 q-6 32 -7 63 q-1 32 0 63 q0 14 -2 28 q-2 15 -5 28 q-3 10 -11 15 q-8 4 -19 5 q-11 0 -19 -5 q-8 -4 -12 -14 q-15 -45 -28 -90 q-6 -18 -11 -37 q-6 -18 -9 -36 q-9 -67 -29 -130 q-20 -64 -42 -126 q-9 -28 -25 -51 q-17 -23 -38 -42 q-11 -10 -23 -18 q-12 -8 -25 -14 q-20 -9 -39 -2 q-19 6 -31 26 q-3 4 -4 9 q-2 4 -4 8 q-26 58 -31 119 q-5 61 -4 123 q0 49 2 99 q1 49 3 98 q1 16 -6 27 q-6 12 -17 22 q-8 6 -17 6 q-9 0 -18 -7 q-12 -9 -15 -20 q-3 -12 1 -25 q10 -39 8 -79 q-3 -39 -9 -78 q-6 -41 -6 -82 q0 -41 7 -81 q7 -37 16 -74 q9 -36 24 -71 q17 -39 45 -59 q29 -21 70 -22 q24 -1 44 7 q20 7 37 23 q20 17 38 37 q17 20 30 44 q22 40 40 82 q18 42 27 87 q5 26 16 51 q11 24 21 50 q0 -91 0 -181 q0 -10 -1 -19 q0 -10 1 -19 q2 -13 12 -21 q10 -8 24 -9 q12 -2 20 4 q9 5 14 19 q3 8 6 18 q2 9 1 18 q-6 40 -4 79 q3 39 5 79 q1 19 2 38 q0 19 -3 37 l0 0 ZM252 769 q55 -1 97 17 q42 18 76 51 q16 15 22 31 q7 16 9 35 q2 16 -4 28 q-6 12 -16 14 q-13 3 -22 -3 q-9 -6 -15 -16 q-16 -28 -41 -43 q-25 -15 -53 -26 q-18 -8 -36 -8 q-19 0 -38 6 q-6 2 -11 5 q-6 3 -12 5 q-13 3 -22 -3 q-8 -7 -15 -16 q-7 -9 -7 -20 q1 -11 8 -21 q17 -21 38 -30 q21 -9 42 -6 l0 0 Z" /><glyph glyph-name="" unicode="&#x2c6;" d="M233 495 q11 -26 21 -53 q10 -27 21 -54 q18 -46 43 -89 q25 -43 52 -84 q9 -11 24 -13 q15 -3 29 6 q7 4 12 10 q6 7 7 15 q5 24 5 49 q0 18 -8 31 q-8 13 -27 18 q-13 3 -21 11 q-9 8 -14 20 q-24 49 -47 97 q-23 48 -37 100 q-6 22 -16 42 q-9 21 -19 41 q-3 5 -9 8 q-6 3 -12 3 q-20 -1 -35 -10 q-15 -10 -22 -30 q-17 -44 -33 -88 q-17 -44 -32 -89 q-15 -48 -33 -93 q-19 -46 -44 -89 q-3 -5 -5 -11 q-2 -6 -5 -11 q-2 -7 2 -15 q4 -9 11 -14 q7 -4 16 -3 q9 0 14 6 q6 5 11 12 q28 34 47 72 q19 39 33 80 q18 51 34 101 q4 12 9 23 q6 12 15 22 q4 -5 7 -10 q4 -5 6 -11 l0 0 Z" /><glyph glyph-name="" unicode="&#x2019;" d="M111 642 q0 17 0 33 q-1 17 -3 33 q0 6 -4 11 q-3 6 -8 9 q-9 7 -19 8 q-10 0 -20 -4 q-10 -5 -16 -13 q-6 -8 -7 -19 q0 -16 2 -33 q2 -16 -2 -32 q-11 -42 -3 -82 q7 -40 20 -80 q4 -9 16 -11 q11 -2 19 5 q4 5 8 10 q4 5 6 10 q3 8 5 16 q3 8 3 16 q1 22 2 45 q1 23 1 45 q1 17 0 33 l0 0 Z" /><glyph glyph-name="" unicode="&#x2020;" d="M321 143 q-1 -78 -2 -157 q1 -4 2 -8 q1 -4 2 -8 q2 -9 11 -15 q10 -7 20 -6 q14 2 24 9 q10 8 12 20 q2 18 3 37 q2 18 2 37 q-2 74 -4 148 q-2 75 -3 149 q0 60 2 120 q1 60 3 119 q0 12 6 20 q6 8 17 12 q21 8 42 16 q22 8 43 16 q15 5 30 12 q15 7 27 18 q3 3 2 7 q0 4 -4 7 q-6 7 -14 9 q-7 3 -16 3 q-16 -1 -32 -5 q-16 -5 -32 -9 q-16 -5 -32 -10 q-37 -10 -39 26 q-2 37 -2 75 q-1 18 -4 37 q-2 18 -9 35 q-2 6 -5 11 q-3 6 -6 11 q-4 6 -14 9 q-9 2 -16 -1 q-13 -5 -20 -14 q-7 -10 -8 -23 q-2 -23 -1 -45 q1 -23 7 -45 q7 -22 8 -45 q1 -22 -2 -45 q-1 -9 -5 -16 q-5 -6 -13 -10 q-61 -24 -123 -46 q-24 -8 -48 -13 q-24 -5 -49 -5 q-8 1 -16 -1 q-8 -2 -16 -5 q-10 -3 -16 -12 q-6 -10 -5 -20 q1 -9 7 -15 q5 -5 13 -9 q10 -5 20 -6 q10 -1 20 1 q43 6 85 17 q42 10 82 28 q9 4 19 7 q10 4 20 7 q7 2 15 -4 q7 -5 9 -13 q0 -2 1 -4 q0 -2 0 -4 q1 -44 1 -87 q-1 -43 -7 -86 q-2 -10 -1 -21 q0 -10 1 -20 q1 -15 2 -29 q2 -14 2 -29 q2 -66 3 -132 q1 0 1 0 l0 0 Z" /><glyph glyph-name="" unicode="&#x2021;" d="M356 502 q-4 -27 -11 -39 q-7 -12 -41 -27 q-17 -8 -34 -14 q-17 -6 -35 -10 q-42 -9 -85 -18 q-42 -9 -85 -14 q-4 -1 -8 -2 q-4 -2 -8 -3 q-9 -3 -15 -13 q-7 -9 -6 -19 q1 -10 9 -19 q7 -9 16 -11 q4 -1 8 -2 q4 -1 8 -1 q63 -1 123 11 q60 12 117 39 q11 6 22 11 q10 4 20 -1 q9 -5 10 -15 q2 -42 3 -83 q1 -35 -1 -70 q-1 -35 -11 -69 q-2 -8 -2 -16 q1 -8 1 -17 q1 -12 11 -20 q11 -9 24 -9 q21 1 35 13 q13 11 15 32 q2 41 6 82 q3 41 7 82 q1 20 0 41 q-1 21 -2 41 q0 6 -1 12 q-1 7 -1 13 q0 8 4 15 q5 7 11 13 q6 5 14 9 q38 16 75 34 q37 18 75 33 q27 10 53 22 q26 13 53 25 q1 1 3 2 q1 2 3 3 q4 3 6 11 q2 7 0 11 q-4 6 -9 9 q-5 3 -11 2 q-13 -1 -25 -4 q-12 -3 -24 -4 q-61 -8 -119 -33 q-22 -10 -46 -17 q-24 -7 -47 -15 q-6 -1 -12 3 q-7 4 -8 9 q0 16 0 33 q0 16 1 33 q1 8 6 15 q5 7 13 10 q20 10 40 19 q21 10 42 18 q66 24 130 53 q64 29 124 65 q10 7 19 15 q1 2 1 4 q0 2 0 4 q-1 2 -2 4 q-2 1 -4 2 q-12 5 -24 4 q-13 -1 -24 -5 q-22 -6 -44 -14 q-21 -8 -43 -13 q-20 -4 -40 -10 q-19 -6 -38 -15 q-7 -5 -15 -6 q-32 -3 -61 -12 q-29 -10 -58 -21 q-8 -2 -16 3 q-7 4 -9 13 q-1 12 -3 24 q-8 53 -16 106 q-3 10 -15 18 q-12 8 -24 7 q-9 -1 -18 -9 q-9 -8 -10 -17 q-2 -12 -3 -25 q-2 -37 8 -73 q4 -16 6 -33 q1 -16 -2 -32 q-1 -9 -6 -16 q-4 -7 -12 -10 q-35 -14 -70 -24 q-24 -7 -48 -13 q-24 -7 -46 -18 q-34 -16 -71 -20 q-13 -1 -24 -5 q-10 -4 -18 -10 q-7 -7 -9 -18 q-2 -11 8 -21 q9 -10 22 -12 q6 -2 12 -3 q7 -1 13 0 q14 1 28 3 q15 2 28 6 q88 22 176 46 q6 2 11 -5 q5 -6 4 -23 q0 -2 -1 -12 q0 -10 -3 -23 l0 0 Z" /><glyph glyph-name="" unicode="&#x2022;" d="M163 326 q25 25 24 55 q-1 31 -27 52 q-23 18 -48 32 q-5 2 -11 1 q-7 0 -13 -2 q-5 -2 -10 -5 q-5 -4 -10 -8 q-17 -13 -24 -32 q-8 -18 -14 -38 q-7 -30 11 -54 q17 -25 43 -27 q25 -1 44 5 q19 7 35 21 l0 0 Z" /><glyph glyph-name="" unicode="&#x20ac;" d="M469 437 q-33 1 -66 3 q-5 1 -9 8 q-3 6 -2 11 q19 54 47 101 q29 48 63 92 q13 19 31 33 q17 14 39 23 q9 3 20 -1 q12 -3 17 -11 q3 -6 6 -11 q3 -6 4 -11 q7 -37 12 -74 q3 -17 15 -27 q13 -9 32 -9 q8 1 15 7 q7 6 8 14 q1 6 1 12 q1 6 0 12 q-4 22 -9 45 q-5 22 -12 43 q-3 12 -9 23 q-5 11 -12 22 q-16 28 -42 37 q-25 9 -57 -2 q-28 -9 -52 -25 q-24 -16 -43 -38 q-25 -27 -47 -57 q-22 -30 -38 -64 q-22 -45 -43 -89 q-13 -26 -27 -52 q-4 -7 -11 -12 q-7 -4 -15 -6 q-49 -7 -98 -15 q-65 -10 -131 -21 q-4 0 -8 -2 q-4 -2 -6 -4 q-5 -4 -8 -9 q-4 -5 -6 -10 q-1 -7 2 -12 q4 -5 9 -9 q8 -7 18 -10 q10 -3 20 -2 q31 5 61 10 q31 6 61 10 q15 3 29 4 q14 1 28 -4 q3 -1 6 -5 q3 -3 4 -7 q1 -8 -1 -16 q-2 -8 -5 -16 q-11 -30 -41 -37 q-60 -15 -120 -30 q-16 -4 -31 -10 q-6 -2 -10 -7 q-3 -5 -4 -12 q-1 -8 2 -16 q4 -8 11 -11 q11 -6 23 -8 q29 -5 58 1 q24 6 48 12 q7 1 15 -5 q7 -6 8 -14 q0 -12 1 -25 q0 -12 1 -24 q2 -24 8 -45 q7 -22 24 -38 q27 -28 60 -43 q33 -16 72 -18 q29 -2 57 1 q28 2 57 11 q30 8 60 13 q31 5 60 14 q45 15 90 32 q44 18 86 39 q9 4 18 10 q9 6 17 12 q3 3 5 6 q3 3 5 7 q1 2 1 4 q0 3 -1 4 q-3 3 -7 5 q-4 3 -6 2 q-47 -21 -97 -33 q-50 -13 -99 -28 q-12 -4 -24 -6 q-12 -3 -25 -4 q-22 -4 -45 -7 q-22 -3 -44 -8 q-61 -14 -123 -7 q-25 4 -42 17 q-18 13 -29 34 q-6 11 -8 23 q-3 17 -2 33 q0 17 4 33 q4 13 12 21 q8 9 20 15 q12 4 24 6 q39 5 76 16 q38 12 74 26 q11 5 21 13 q4 3 4 7 q0 4 -4 7 q-6 7 -13 9 q-8 3 -17 3 q-45 2 -90 -6 q-14 -3 -28 -4 q-15 0 -29 -1 q-6 0 -9 6 q-3 5 -2 12 q3 8 5 16 q4 18 15 29 q11 10 30 11 q33 2 65 11 q32 10 64 16 q4 0 7 3 q4 2 7 5 q2 3 3 7 q1 4 1 8 q-1 3 -5 6 q-3 4 -6 4 q-12 1 -24 1 q-13 0 -25 0 q0 -2 0 -3 l0 0 Z" /><glyph glyph-name="" unicode="&#x20b5;" d="M315 450 q-2 -1 -4 0 q-2 1 -3 2 q-1 2 -2 4 q-1 2 -1 3 q13 42 21 84 q9 42 13 86 q0 6 2 12 q2 6 3 12 q1 4 1 8 q0 4 0 8 q0 8 -8 16 q-8 8 -19 12 q-7 1 -15 -3 q-8 -5 -12 -12 q-3 -6 -5 -11 q-3 -6 -4 -12 q-12 -63 -30 -124 q-18 -62 -28 -125 q-5 -34 -33 -55 q-11 -9 -22 -19 q-11 -9 -23 -18 q-32 -23 -59 -52 q-26 -28 -49 -60 q-10 -14 -10 -27 q0 -13 7 -27 q9 -17 23 -29 q13 -12 32 -18 q14 -5 28 -8 q14 -4 28 -8 q7 -2 12 -9 q6 -8 6 -15 q-1 -19 -2 -37 q-2 -19 -5 -37 q-8 -46 -3 -91 q5 -44 14 -89 q2 -10 6 -19 q5 -10 10 -19 q1 -4 4 -7 q3 -3 7 -5 q6 -4 14 -5 q5 0 11 5 q6 5 8 10 q1 3 2 7 q1 4 1 8 q-1 17 -2 33 q-1 17 -4 33 q-3 18 -4 37 q-1 18 -3 37 q-2 39 6 78 q8 38 11 77 q0 4 3 7 q2 4 5 8 q2 3 6 4 q21 7 43 13 q22 6 44 10 q54 8 102 32 q48 24 94 51 q6 4 11 11 q5 7 10 14 q3 5 2 12 q-1 7 -6 10 q-3 2 -7 3 q-4 2 -8 1 q-19 -7 -37 -16 q-48 -26 -99 -41 q-51 -16 -104 -26 q-8 -1 -16 -3 q-15 -2 -22 6 q-7 8 -3 23 q7 24 11 49 q3 24 5 49 q1 8 3 16 q2 8 5 16 q5 16 15 29 q10 13 25 21 q22 12 44 24 q21 12 45 19 q5 2 8 1 q4 0 7 -3 q1 -1 1 -3 q0 -3 -1 -4 q-2 -8 -4 -16 q-3 -8 -4 -16 q-1 -10 8 -18 q8 -7 19 -6 q6 2 12 4 q6 2 10 5 q19 18 29 40 q10 21 9 48 q-1 12 -10 23 q-8 10 -20 13 q-8 1 -16 2 q-25 3 -50 -4 q-24 -7 -48 -22 q-9 -3 -19 -8 q-11 -5 -22 -9 l0 0 ZM182 182 q-3 -11 -11 -17 q-8 -6 -19 -6 q-10 0 -20 1 q-10 2 -18 8 q-2 3 -4 7 q-2 4 -1 7 q2 6 5 11 q2 6 6 10 q25 27 52 52 q6 6 12 8 q6 1 8 -2 q2 -8 3 -17 q-6 -30 -13 -62 l0 0 Z" /><glyph glyph-name="" unicode="&#x2122;" d="M863 55 q-3 3 -6 6 q-3 3 -6 5 q-14 9 -19 22 q-6 12 -6 27 q0 34 2 67 q1 32 9 65 q6 27 2 53 q-4 26 -15 51 q-4 10 -11 16 q-8 7 -19 10 q-11 2 -23 -3 q-12 -5 -20 -16 q-6 -11 -12 -21 q-6 -11 -10 -23 q-7 -20 -15 -38 q-8 -19 -19 -37 q-15 -25 -34 -46 q-7 -7 -16 -13 q-8 -6 -18 -10 q-26 -10 -43 -2 q-17 7 -25 28 q-9 21 -16 42 q-6 22 -9 44 q-1 13 -3 25 q-2 12 -5 24 q-3 10 -8 19 q-5 9 -10 18 q-4 6 -14 8 q-9 3 -16 0 q-15 -4 -25 -13 q-11 -9 -17 -24 q-4 -11 -7 -23 q-11 -35 -22 -71 q-11 -35 -16 -72 q-1 -12 -6 -24 q-4 -11 -9 -23 q-7 -15 -14 -30 q-8 -14 -15 -29 q-6 -15 -9 -32 q-1 -3 1 -8 q1 -4 3 -7 q16 -21 40 -20 q23 1 36 22 q10 18 16 38 q19 54 37 109 q3 -1 5 -1 q3 1 3 0 q8 -10 15 -20 q25 -39 60 -55 q35 -16 80 1 q4 1 8 1 q33 7 57 31 q6 6 12 12 q5 6 12 11 q2 2 6 2 q4 1 8 1 q1 0 2 -3 q1 -2 1 -4 q1 -17 2 -33 q0 -17 2 -33 q1 -13 7 -24 q6 -10 15 -19 q18 -18 39 -22 q21 -4 45 2 q12 3 16 16 q5 14 -3 23 l0 0 ZM249 207 q1 21 0 41 q1 28 -3 42 q-3 13 -16 45 q1 2 2 4 q1 1 3 2 q56 25 112 50 q57 25 116 42 q2 1 4 2 q1 2 3 3 q4 2 7 8 q2 6 1 13 q0 6 -5 11 q-5 6 -10 7 q-6 1 -12 1 q-7 1 -12 0 q-61 -13 -120 -31 q-59 -18 -115 -45 q-11 -5 -23 -10 q-11 -5 -23 -9 q-23 -9 -45 -19 q-23 -9 -46 -19 q-9 -4 -17 -11 q-8 -6 -16 -13 q-6 -5 -6 -14 q-1 -9 4 -16 q9 -13 22 -18 q14 -5 28 -1 q13 5 27 11 q13 5 26 10 q15 5 28 -5 q12 -9 11 -25 q0 -8 -2 -16 q-1 -8 -3 -16 q-12 -87 16 -171 q4 -12 12 -21 q8 -9 19 -16 q23 -10 38 -1 q14 10 14 30 q0 17 -2 33 q-2 17 -6 32 q-12 45 -11 90 l0 0 Z" /><glyph glyph-name="" unicode="&#xff04;" d="M214 -79 q4 -34 30 -57 q4 -4 10 -6 q6 -2 12 0 q6 1 11 6 q4 5 5 10 q0 2 1 4 q1 3 1 5 q-5 58 4 115 q8 57 14 114 q1 8 4 16 q6 17 22 24 q19 7 39 11 q39 9 74 26 q35 18 69 36 q4 2 7 5 q3 3 5 6 q6 9 8 19 q2 10 -3 20 q-4 10 -11 17 q-7 7 -18 10 q-51 15 -105 21 q-10 1 -20 4 q-10 2 -20 5 q-6 2 -10 7 q-4 5 -5 11 q-2 20 3 36 q6 17 24 28 q16 10 32 18 q17 9 33 18 q6 3 10 7 q5 3 10 7 q8 7 9 18 q1 10 -5 20 q-11 18 -23 21 q-12 4 -32 -5 q-15 -7 -30 -13 q-5 -1 -11 4 q-6 4 -7 10 q-1 4 -1 8 q-1 45 -1 90 q0 46 8 91 q3 12 -1 24 q-3 12 -11 22 q-4 5 -13 8 q-9 2 -17 1 q-6 -2 -10 -7 q-4 -4 -7 -10 q-3 -7 -4 -15 q-3 -50 -8 -99 q-5 -49 -4 -99 q0 -14 -2 -29 q-1 -14 -3 -28 q-1 -9 -6 -16 q-4 -6 -11 -11 q-11 -7 -22 -12 q-56 -27 -111 -54 q-18 -10 -35 -22 q-8 -6 -8 -18 q-1 -12 5 -19 q4 -5 8 -9 q5 -5 10 -8 q19 -13 40 -21 q21 -9 43 -13 q14 -3 28 -5 q15 -2 29 -5 q4 -1 6 -4 q2 -4 1 -9 q-1 -8 -2 -16 q-3 -19 -14 -29 q-10 -11 -29 -14 q-15 -2 -29 -4 q-14 -2 -28 -6 q-17 -4 -33 -3 q-15 1 -31 8 q-8 3 -16 0 q-8 -2 -14 -9 q-15 -20 -28 -40 q-5 -9 1 -20 q5 -10 15 -14 q6 -1 12 -3 q6 -1 12 -1 q41 4 82 11 q10 1 20 3 q10 2 20 4 q19 2 28 -6 q10 -8 8 -26 q-2 -24 -5 -49 q-2 -18 -5 -35 q-2 -17 -4 -29 q0 -17 0 -29 q-1 -12 0 -22 l0 0 ZM339 227 q-6 -2 -10 3 q-3 5 -2 13 q2 8 5 16 q3 8 8 14 q6 5 15 6 q23 1 35 -2 q11 -3 41 -18 q-21 -14 -45 -19 q-24 -6 -47 -13 l0 0 ZM248 360 q3 0 6 -3 q4 -2 5 -5 q2 -4 0 -7 q-2 -4 -7 -5 q-9 -3 -15 -3 q-5 1 -22 5 q12 17 33 18 l0 0 Z" /><glyph glyph-name="" unicode="&#xffe1;" d="M424 414 q3 -33 3 -66 q0 -20 1 -41 q0 -21 -5 -41 q-1 -5 -7 -11 q-5 -6 -9 -6 q-4 -1 -8 -2 q-4 -1 -8 -1 q-76 1 -147 -18 q-71 -19 -141 -46 q-13 -5 -26 -11 q-13 -7 -26 -14 q-5 -3 -9 -7 q-4 -5 -8 -10 q-8 -10 -6 -24 q3 -14 14 -19 q19 -7 38 -13 q20 -7 39 -14 q41 -15 78 -36 q37 -22 68 -55 q5 -6 11 -12 q6 -6 12 -10 q24 -17 50 -29 q8 -3 16 -2 q9 2 16 7 q8 7 15 14 q8 7 13 15 q23 37 44 74 q21 38 31 81 q2 8 5 16 q5 16 15 22 q11 5 30 -1 q10 -3 19 -8 q10 -4 19 -7 q41 -15 81 -32 q40 -16 83 -24 q26 -5 52 -11 q26 -5 53 -9 q43 -5 86 -5 q44 0 87 4 q4 1 8 2 q3 2 7 4 q12 8 15 28 q3 19 -5 32 q-7 10 -17 18 q-16 11 -28 12 q-11 0 -24 -11 q-9 -7 -17 -12 q-9 -5 -19 -6 q-35 -2 -70 -1 q-35 1 -69 11 q-8 3 -16 4 q-9 2 -17 4 q-60 13 -118 34 q-58 20 -115 46 q-13 6 -19 15 q-7 9 -7 23 q-1 37 0 74 q2 41 4 82 q1 10 9 18 q8 9 17 12 q57 11 113 23 q40 8 81 17 q3 1 5 4 q3 3 5 6 q1 5 -4 10 q-6 5 -13 5 q-6 0 -12 0 q-6 -1 -12 0 q-33 5 -66 4 q-33 -1 -65 -9 q-6 -1 -12 -1 q-7 1 -13 2 q-8 1 -14 8 q-6 6 -6 14 q0 19 1 37 q1 19 5 37 q4 20 11 39 q6 20 15 39 q9 22 27 35 q18 13 43 13 q13 0 25 0 q12 0 25 -2 q14 -2 27 -8 q13 -6 23 -18 q10 -13 16 -28 q7 -15 6 -32 q-1 -17 -1 -33 q0 -7 7 -14 q7 -6 15 -8 q11 -1 20 4 q10 6 14 15 q5 12 5 24 q1 12 0 24 q-5 43 -28 72 q-23 29 -63 45 q-32 13 -64 15 q-33 3 -66 -1 q-17 -2 -32 -9 q-14 -7 -27 -18 q-14 -12 -25 -27 q-11 -15 -17 -33 q-10 -27 -15 -55 q-5 -29 -10 -57 q-4 -29 -9 -57 q-2 -17 -12 -27 q-9 -10 -25 -11 q-37 -4 -74 -5 q-16 -1 -33 -1 q-16 0 -33 -2 q-7 -1 -15 -5 q-7 -3 -14 -8 q-7 -4 -10 -12 q-3 -8 -1 -17 q2 -6 6 -11 q4 -4 10 -7 q7 -3 15 -5 q8 -2 16 -2 q37 0 74 1 q37 2 74 7 q3 -4 6 -7 q3 -4 3 -7 l0 0 ZM391 75 q-8 -13 -15 -25 q-8 -12 -16 -24 q-14 -21 -28 -24 q-14 -2 -32 14 q-19 17 -39 31 q-20 14 -42 27 q-16 9 -31 20 q-15 11 -30 22 q-3 2 -2 6 q1 4 5 7 q7 5 15 7 q68 17 136 32 q23 5 45 7 q23 1 45 -3 q4 -1 6 -4 q3 -4 6 -7 q-2 -22 -6 -44 q-5 -22 -17 -42 l0 0 Z" /></font>
</defs>
</svg>
