<?xml version="1.0" encoding="utf-8"?>
<!-- Generator: Adobe Illustrator 21.1.0, SVG Export Plug-In . SVG Version: 6.00 Build 0)  -->
<svg version="1.1" id="Layer_1" xmlns="http://www.w3.org/2000/svg" xmlns:xlink="http://www.w3.org/1999/xlink" x="0px" y="0px"
	 viewBox="0 0 30 30" enable-background="new 0 0 30 30" xml:space="preserve">
<g>
	<path fill="#393D4E" d="M14.1,0c0.6,0,1.2,0,1.8,0C16,0,16,0,16.1,0c2.3,0.2,4.5,0.8,6.5,2.1c3.9,2.4,6.3,5.8,7.1,10.3
		c0.1,0.6,0.2,1.1,0.2,1.7c0,0.6,0,1.2,0,1.8c0,0.2,0,0.4-0.1,0.6c-0.4,3.2-1.5,6-3.7,8.4c-2.8,3.2-6.4,4.9-10.6,5.1
		c-3,0.1-5.7-0.5-8.3-2.1c-3.9-2.4-6.3-5.8-7.1-10.3C0.1,17,0.1,16.4,0,15.9c0-0.6,0-1.2,0-1.8c0-0.2,0-0.4,0.1-0.6
		C0.4,10.3,1.7,7.4,3.8,5C6.1,2.4,9,0.8,12.4,0.2C13,0.1,13.6,0.1,14.1,0z M23.5,15c0-1.7,0-3.4,0-5c0-0.3,0-0.6-0.1-0.8
		c-0.3-1.6-1.7-2.7-3.4-2.7c-3.4,0-6.8,0-10.2,0c-0.3,0-0.5,0-0.8,0.1C7.5,6.9,6.5,8.2,6.5,9.9c0,3.4,0,6.8,0,10.2
		c0,0.3,0,0.5,0.1,0.8c0.3,1.6,1.7,2.6,3.4,2.6c3.4,0,6.8,0,10.1,0c0.3,0,0.5,0,0.8-0.1c1.6-0.3,2.6-1.7,2.7-3.4
		C23.5,18.4,23.5,16.7,23.5,15z"/>
	<path fill="#EEEEDC" d="M23.5,15c0,1.7,0,3.4,0,5.1c0,1.7-1.1,3-2.7,3.4c-0.3,0.1-0.5,0.1-0.8,0.1c-3.4,0-6.8,0-10.1,0
		c-1.7,0-3-1-3.4-2.6c-0.1-0.3-0.1-0.5-0.1-0.8c0-3.4,0-6.8,0-10.2c0-1.7,1.1-3,2.7-3.4c0.3-0.1,0.5-0.1,0.8-0.1c3.4,0,6.8,0,10.2,0
		c1.7,0,3,1,3.4,2.7c0.1,0.3,0.1,0.6,0.1,0.8C23.5,11.7,23.5,13.3,23.5,15z M8.1,13.3c0,0.1,0,0.2,0,0.3c0,2.2,0,4.4,0,6.5
		c0,1.1,0.7,1.8,1.8,1.8c3.4,0,6.8,0,10.1,0c1.1,0,1.8-0.7,1.8-1.8c0-2.2,0-4.3,0-6.5c0-0.1,0-0.2,0-0.3c-0.9,0-1.7,0-2.5,0
		c0.4,1,0.4,2,0.1,3.1c-0.3,1-0.9,1.9-1.8,2.5c-1.6,1-3.3,1.2-4.9,0.2c-2.2-1.3-2.8-3.3-2.1-5.8C9.8,13.3,9,13.3,8.1,13.3z M18,15
		c0-1.7-1.4-3-3-3c-1.7,0-3,1.4-3,3.1c0,1.6,1.4,2.9,3,2.9C16.7,18,18,16.6,18,15z M21.5,11.3c0-1,0-1.9,0-2.9c-1,0-1.9,0-2.8,0
		c0,1,0,1.9,0,2.9C19.7,11.3,20.6,11.3,21.5,11.3z"/>
	<path fill="#393D4E" d="M8.1,13.3c0.9,0,1.7,0,2.5,0c-0.7,2.4-0.1,4.4,2.1,5.8c1.6,1,3.3,0.8,4.9-0.2c0.9-0.6,1.5-1.5,1.8-2.5
		c0.3-1,0.3-2.1-0.1-3.1c0.9,0,1.7,0,2.5,0c0,0.1,0,0.2,0,0.3c0,2.2,0,4.3,0,6.5c0,1.1-0.7,1.8-1.8,1.8c-3.4,0-6.8,0-10.1,0
		c-1.1,0-1.8-0.7-1.8-1.8c0-2.2,0-4.4,0-6.5C8.1,13.5,8.1,13.4,8.1,13.3z"/>
	<path fill="#393D4E" d="M18,15c0,1.6-1.3,3-3,3c-1.6,0-3-1.3-3-2.9c0-1.7,1.3-3,3-3.1C16.6,12,18,13.3,18,15z"/>
	<path fill="#393D4E" d="M21.5,11.3c-1,0-1.9,0-2.8,0c0-1,0-1.9,0-2.9c0.9,0,1.9,0,2.8,0C21.5,9.4,21.5,10.3,21.5,11.3z"/>
</g>
</svg>
