<?xml version="1.0" encoding="utf-8"?>
<!-- Generator: Adobe Illustrator 21.0.0, SVG Export Plug-In . SVG Version: 6.00 Build 0)  -->
<svg version="1.1" id="Layer_1" xmlns="http://www.w3.org/2000/svg" xmlns:xlink="http://www.w3.org/1999/xlink" x="0px" y="0px"
	 viewBox="0 0 60 60" style="enable-background:new 0 0 60 60;" xml:space="preserve">
<style type="text/css">
	.st0{fill:#393D4E;}
	.st1{fill:#EEEEDC;}
</style>
<g>
	<circle class="st0" cx="30" cy="30" r="30"/>
	<path class="st1" d="M26.6,43c0,0,0.2-0.2,0.2-0.3c0-4.1,0.2-8.3,0.2-12.4c0-0.1,0-0.3,0-0.3c-1,0-2.1,0-3,0c0-1,0-3,0-4
		c0.9,0,1.7,0,2.6,0c0-1,0-0.4,0-0.5c0-1,0-2.1,0-3.1c0-1.1,0.3-2.2,0.9-3.1c0.5-0.9,1.3-1.5,2.3-1.7c0.5-0.1,1.1-0.3,1.6-0.4
		c0.1,0,0.1-0.1,0.2-0.1c1.4,0,2.9,0,4.3,0c0,1,0,2.8,0,4.2c0,0.1,0,0.2,0,0.3c0,0-0.2,0-0.3,0c-0.8,0-1.6,0-2.4,0
		c-0.2,0-0.3,0-0.5,0.1c-0.5,0.1-0.7,0.7-0.8,1.1C32,23.8,32,25,32,26c1.4,0,2.7,0,4,0c-0.2,1-0.3,3-0.5,4c-1.2,0-2.5,0-3.5,0
		c0,0,0,0.2,0,0.3c0,4.1,0,8.2,0,12.2c0,0.1,0,0.4,0,0.4C30.2,43,28.4,43,26.6,43z"/>
</g>
</svg>
