<svg version="1.1" xmlns="http://www.w3.org/2000/svg" xmlns:xlink="http://www.w3.org/1999/xlink" x="0px" y="0px" viewBox="0 0 100 100" enable-background="new 0 0 100 100" xml:space="preserve"><g><circle fill="#FF4949" cx="50.167" cy="50" r="49.333"/><path fill-rule="evenodd" clip-rule="evenodd" fill="#FFFFFF" d="M49.841,72.54c-2.379-2.476-4.643-4.89-6.969-7.242c-4.088-4.131-8.217-8.222-12.322-12.335c-4.557-4.566-4.711-11.435-0.365-15.982c4.309-4.508,11.301-4.677,15.994-0.322c1.281,1.189,2.404,2.552,3.781,4.032c1.387-1.465,2.521-2.748,3.744-3.937c3.563-3.458,8.771-4.266,13.043-2.074c4.438,2.276,6.814,6.846,6.102,11.819c-0.328,2.289-1.285,4.32-2.916,5.958C63.351,59.069,56.737,65.65,49.841,72.54z"/></g></svg>