<svg id="svg" xmlns="http://www.w3.org/2000/svg" xmlns:xlink="http://www.w3.org/1999/xlink" width="400" height="387.78625954198475" viewBox="0, 0, 400,387.78625954198475"><g id="svgg"><path id="path0" d="M11.639 260.717 C 11.319 260.924,10.438 261.097,9.681 261.100 C 8.509 261.105,8.308 261.235,8.326 261.979 C 8.358 263.338,8.881 263.952,9.540 263.405 C 9.971 263.047,10.087 263.078,10.087 263.548 C 10.087 263.876,10.252 264.203,10.454 264.274 C 10.655 264.345,10.857 265.583,10.903 267.026 C 10.975 269.318,11.633 270.982,12.281 270.514 C 13.422 269.690,13.939 270.542,14.048 273.424 L 14.161 276.431 15.599 276.550 L 17.038 276.670 17.151 279.460 L 17.265 282.250 18.720 282.371 L 20.175 282.491 20.175 285.571 L 20.175 288.652 21.726 288.652 L 23.278 288.652 23.324 291.271 C 23.350 292.711,23.350 294.020,23.324 294.180 C 23.299 294.340,23.453 294.493,23.666 294.520 C 23.880 294.547,24.229 294.612,24.442 294.665 C 24.656 294.719,25.092 294.784,25.412 294.811 C 25.795 294.843,25.994 295.274,25.994 296.068 C 25.994 296.979,26.372 297.622,27.531 298.686 C 28.768 299.821,29.087 300.401,29.166 301.649 C 29.276 303.404,29.613 303.768,31.135 303.777 C 32.120 303.782,32.202 303.902,32.202 305.335 C 32.202 306.513,32.355 306.887,32.836 306.887 C 34.089 306.887,35.234 308.675,35.373 310.849 C 35.454 312.121,35.687 312.919,35.986 312.949 C 36.252 312.975,36.906 313.019,37.439 313.046 C 38.226 313.085,38.410 313.296,38.415 314.161 C 38.421 315.249,38.879 316.291,39.326 316.231 C 41.198 315.980,41.513 316.199,41.513 317.750 L 41.513 319.302 43.065 319.302 L 44.617 319.302 44.617 320.854 C 44.617 322.368,44.649 322.405,45.975 322.405 C 47.248 322.405,47.333 322.484,47.333 323.666 C 47.333 324.644,47.640 325.172,48.699 326.017 C 49.451 326.617,50.002 327.228,49.925 327.375 C 49.775 327.660,51.057 329.023,51.277 328.813 C 51.348 328.745,51.744 329.152,52.156 329.718 L 52.905 330.747 52.059 330.008 C 51.593 329.601,51.212 329.464,51.212 329.703 C 51.212 330.197,52.725 331.110,53.033 330.802 C 53.404 330.431,54.201 331.491,54.033 332.132 C 53.826 332.927,55.013 334.158,55.724 333.885 C 56.017 333.773,56.256 333.850,56.256 334.057 C 56.256 334.263,56.535 334.433,56.876 334.433 C 57.218 334.433,57.986 334.956,58.584 335.597 C 59.182 336.237,59.526 336.760,59.350 336.760 C 59.173 336.760,58.639 336.280,58.163 335.694 C 57.641 335.049,57.399 334.908,57.553 335.337 C 57.693 335.728,57.808 336.116,57.808 336.200 C 57.808 336.636,60.277 337.536,61.474 337.536 C 62.822 337.536,62.852 337.569,62.852 339.088 L 62.852 340.640 64.403 340.640 L 65.955 340.640 65.955 342.192 C 65.955 343.740,65.959 343.744,67.484 343.744 C 68.970 343.744,69.016 343.784,69.133 345.199 C 69.243 346.527,69.363 346.664,70.514 346.775 C 71.208 346.842,71.790 347.017,71.807 347.163 C 71.825 347.310,71.883 347.822,71.936 348.302 C 72.069 349.499,72.294 349.654,74.168 349.842 C 75.597 349.984,78.812 351.891,77.624 351.891 C 77.395 351.891,76.836 351.520,76.382 351.067 C 75.929 350.613,75.634 350.483,75.726 350.776 C 75.972 351.554,78.369 352.666,79.802 352.667 C 80.952 352.667,81.048 352.770,81.160 354.122 C 81.274 355.503,81.360 355.587,82.832 355.771 C 84.043 355.922,84.371 356.123,84.324 356.681 C 84.255 357.505,85.419 358.813,86.190 358.777 C 86.477 358.764,87.541 358.780,88.555 358.814 L 90.398 358.875 90.398 360.427 L 90.398 361.979 93.284 361.979 L 96.170 361.979 96.291 363.434 C 96.408 364.848,96.460 364.894,98.157 365.082 C 99.580 365.241,99.903 365.420,99.903 366.052 C 99.903 367.216,100.464 367.857,101.261 367.604 C 101.652 367.480,102.084 367.560,102.221 367.782 C 102.358 368.005,103.246 368.186,104.194 368.186 C 105.594 368.186,105.917 368.317,105.917 368.885 C 105.917 369.269,106.135 369.818,106.402 370.105 C 106.794 370.528,106.782 370.569,106.342 370.317 C 105.989 370.116,105.889 370.155,106.058 370.429 C 106.202 370.662,106.622 370.862,106.991 370.873 C 107.794 370.897,110.425 371.257,111.625 371.507 C 112.153 371.617,112.406 371.890,112.282 372.214 C 111.996 372.958,113.262 374.103,114.122 373.878 C 114.517 373.775,114.840 373.849,114.840 374.042 C 114.840 374.236,116.149 374.394,117.750 374.394 C 120.754 374.394,120.859 374.459,120.626 376.193 C 120.546 376.792,121.829 377.098,124.442 377.104 C 127.345 377.110,127.505 377.212,127.289 378.932 C 127.224 379.451,128.553 380.279,129.296 380.183 C 131.654 379.879,136.519 380.273,136.335 380.753 C 135.696 382.419,137.838 383.235,143.008 383.293 C 148.256 383.352,148.773 383.454,148.426 384.358 C 148.216 384.905,149.179 386.722,149.571 386.518 C 150.776 385.891,163.725 386.512,163.725 387.197 C 163.725 387.967,163.983 387.973,200.194 387.973 C 236.405 387.973,236.663 387.967,236.663 387.197 C 236.663 386.451,236.938 386.419,243.647 386.372 C 247.488 386.346,250.849 386.302,251.115 386.275 C 251.604 386.227,251.657 386.058,251.746 384.287 L 251.794 383.317 257.032 383.317 C 260.152 383.317,262.270 383.165,262.270 382.941 C 262.270 382.735,262.532 382.666,262.852 382.789 C 263.183 382.916,263.459 382.785,263.493 382.486 C 263.525 382.196,263.592 381.785,263.642 381.571 C 263.691 381.358,263.752 380.965,263.777 380.698 C 263.809 380.346,264.880 380.213,267.701 380.213 C 270.029 380.213,271.581 380.058,271.581 379.825 C 271.581 379.612,271.799 379.481,272.066 379.534 C 272.333 379.588,272.507 379.413,272.454 379.146 C 272.401 378.880,272.552 378.661,272.790 378.661 C 273.032 378.661,273.134 378.319,273.020 377.886 C 272.829 377.155,273.009 377.110,276.079 377.110 L 279.340 377.110 279.340 375.752 L 279.340 374.394 281.959 374.365 C 286.281 374.317,287.709 373.836,288.096 372.294 C 288.290 371.522,288.634 371.348,290.331 371.168 C 293.902 370.790,294.699 370.333,294.258 368.916 C 294.101 368.410,294.463 368.238,296.110 368.037 C 297.236 367.900,298.506 367.725,298.933 367.649 C 299.360 367.572,299.859 367.487,300.042 367.460 C 300.224 367.433,300.274 367.148,300.151 366.828 C 300.028 366.508,300.096 366.246,300.303 366.246 C 300.510 366.246,300.679 365.984,300.679 365.664 C 300.679 365.308,301.042 365.082,301.617 365.082 C 303.302 365.082,303.783 364.686,303.783 363.295 L 303.783 361.979 306.402 361.973 C 309.432 361.966,309.752 361.808,309.932 360.233 C 310.100 358.773,309.852 358.912,312.435 358.827 C 313.651 358.788,314.646 358.608,314.646 358.427 C 314.646 358.247,314.841 358.143,315.079 358.196 C 315.318 358.249,315.566 357.974,315.631 357.584 C 315.887 356.059,316.190 355.771,317.544 355.771 C 318.883 355.771,318.914 355.737,318.914 354.219 C 318.914 352.707,318.948 352.667,320.258 352.667 C 321.951 352.667,324.267 351.585,324.561 350.657 C 324.685 350.269,325.167 349.931,325.632 349.907 C 326.098 349.882,326.654 349.821,326.867 349.772 C 327.081 349.722,327.436 349.655,327.658 349.623 C 327.879 349.590,328.103 349.005,328.155 348.323 C 328.269 346.816,328.135 346.945,329.777 346.758 C 330.524 346.673,331.157 346.396,331.183 346.143 C 331.210 345.891,331.254 345.258,331.280 344.737 C 331.321 343.934,331.549 343.773,332.784 343.670 C 334.160 343.556,334.245 343.471,334.359 342.095 C 334.466 340.797,334.594 340.640,335.542 340.640 C 336.898 340.640,337.536 339.995,337.536 338.623 C 337.536 337.619,337.651 337.536,339.047 337.536 C 340.589 337.536,342.000 336.545,343.344 334.518 C 343.689 333.998,344.165 333.738,344.550 333.860 C 345.358 334.116,346.161 333.177,345.843 332.348 C 345.709 331.999,345.793 331.717,346.030 331.717 C 346.266 331.717,346.460 331.471,346.460 331.171 C 346.460 330.838,346.730 330.696,347.154 330.807 C 348.009 331.031,349.353 329.636,349.048 328.841 C 348.911 328.484,349.117 328.173,349.589 328.023 C 350.008 327.890,350.293 327.663,350.223 327.518 C 350.153 327.373,350.500 326.869,350.993 326.396 C 352.021 325.413,352.215 325.673,351.249 326.740 C 350.835 327.197,350.773 327.449,351.075 327.449 C 351.689 327.449,352.667 325.074,352.667 323.582 C 352.667 322.552,352.803 322.405,353.754 322.405 C 355.126 322.405,355.771 321.767,355.771 320.411 C 355.771 319.463,355.928 319.335,357.226 319.228 C 358.602 319.114,358.687 319.029,358.801 317.653 C 358.904 316.415,359.059 316.198,359.841 316.198 C 361.025 316.198,361.979 315.233,361.979 314.036 C 361.979 313.164,362.414 312.945,363.778 313.127 C 364.282 313.195,364.683 312.080,364.689 310.593 C 364.695 309.012,366.185 306.887,367.289 306.887 C 367.625 306.887,367.798 306.357,367.798 305.335 L 367.798 303.783 369.350 303.783 L 370.902 303.783 370.902 301.999 C 370.902 300.516,371.099 300.030,372.066 299.127 C 372.706 298.529,373.230 298.184,373.230 298.361 C 373.230 298.538,372.770 299.045,372.208 299.487 C 371.129 300.335,371.246 300.550,372.439 299.911 C 373.253 299.475,374.006 297.581,374.006 295.965 C 374.006 294.901,374.397 294.652,375.805 294.820 C 376.186 294.866,376.652 294.200,376.931 293.210 C 376.976 293.050,377.034 291.970,377.061 290.809 L 377.110 288.699 378.565 288.578 L 380.019 288.458 380.133 285.451 L 380.246 282.444 381.546 282.444 C 383.106 282.444,383.317 282.025,383.317 278.921 C 383.317 276.743,383.367 276.622,384.287 276.576 C 386.517 276.465,386.297 276.844,386.372 272.982 L 386.421 270.503 387.779 270.249 L 389.137 269.994 389.143 266.617 C 389.147 264.263,389.264 263.416,389.531 263.822 C 389.838 264.289,389.977 264.304,390.239 263.898 C 390.419 263.620,390.812 263.445,391.112 263.510 C 391.415 263.575,391.606 263.384,391.541 263.081 C 391.477 262.781,391.646 262.397,391.918 262.229 C 392.610 261.802,392.150 261.462,390.219 260.976 C 388.012 260.419,12.496 260.163,11.639 260.717 M26.770 298.693 C 26.770 299.071,28.279 300.483,28.441 300.256 C 28.504 300.169,28.154 299.710,27.663 299.238 C 27.172 298.765,26.770 298.520,26.770 298.693 M342.234 335.518 C 341.732 336.457,340.769 336.878,340.769 336.159 C 340.769 335.868,340.909 335.717,341.080 335.823 C 341.251 335.928,341.608 335.667,341.874 335.241 C 342.484 334.264,342.782 334.493,342.234 335.518 " stroke="none" fill="#fbcb04" fill-rule="evenodd"></path><path id="path1" d="M7.921 131.490 C 7.832 131.579,7.759 132.041,7.759 132.515 C 7.759 133.116,7.460 133.454,6.773 133.626 C 5.534 133.937,4.873 135.406,5.684 136.044 C 6.058 136.338,6.113 136.579,5.843 136.746 C 5.617 136.886,5.429 136.772,5.426 136.492 C 5.421 136.121,5.314 136.141,5.028 136.566 C 4.812 136.887,4.660 138.283,4.690 139.670 C 4.812 145.357,4.797 145.427,3.408 145.562 C 2.048 145.695,1.044 148.030,2.067 148.680 C 2.397 148.891,2.380 148.971,2.005 148.976 C 1.619 148.980,1.507 149.642,1.564 151.600 C 1.733 157.428,1.630 158.224,0.679 158.407 L -0.194 158.575 0.679 158.628 C 1.758 158.693,1.848 159.457,0.776 159.457 C -0.289 159.457,-0.208 160.527,0.873 160.735 L 1.746 160.903 0.873 160.956 L 0.000 161.009 -0.000 193.765 L -0.000 226.522 0.873 226.690 L 1.746 226.858 0.873 226.911 C -0.197 226.976,-0.310 228.128,0.753 228.128 C 1.167 228.128,1.598 228.277,1.711 228.460 C 1.824 228.643,1.485 228.709,0.958 228.609 C 0.402 228.502,0.000 228.607,0.000 228.859 C 0.000 229.097,0.349 229.292,0.776 229.292 C 1.629 229.292,1.645 229.355,1.556 232.321 C 1.519 233.541,1.703 234.638,2.008 235.014 C 2.437 235.544,2.435 235.596,1.993 235.330 C 1.557 235.067,1.500 235.607,1.671 238.414 C 1.888 241.986,2.220 242.619,3.736 242.361 C 4.530 242.226,4.565 242.373,4.629 246.124 C 4.666 248.271,4.818 250.120,4.967 250.232 C 5.116 250.345,5.265 251.015,5.298 251.723 C 5.364 253.137,6.368 254.511,7.335 254.509 C 7.854 254.509,7.936 254.960,7.847 257.322 C 7.698 261.223,9.172 262.171,11.176 259.463 C 11.916 258.464,387.913 258.386,388.912 259.385 C 389.246 259.718,389.911 259.937,390.390 259.870 C 390.958 259.790,391.263 259.950,391.266 260.330 C 391.268 260.650,391.445 260.912,391.659 260.912 C 391.887 260.912,392.047 259.548,392.047 257.598 L 392.047 254.284 393.115 254.441 C 394.356 254.624,395.448 252.675,395.331 250.485 C 395.027 244.811,395.317 242.655,396.394 242.565 C 398.157 242.419,398.254 242.043,398.254 235.359 L 398.254 229.049 399.127 229.216 C 399.607 229.307,400.000 229.200,400.000 228.976 C 400.000 228.753,399.607 228.494,399.127 228.402 L 398.254 228.234 399.127 228.181 L 400.000 228.128 400.000 194.595 L 400.000 161.063 399.127 160.895 L 398.254 160.726 399.127 160.674 C 400.212 160.608,400.304 159.457,399.224 159.457 C 398.166 159.457,398.240 158.775,399.321 158.567 L 400.194 158.399 399.321 158.346 C 398.420 158.291,398.194 155.750,398.442 148.498 C 398.514 146.397,397.881 145.490,396.342 145.490 L 395.344 145.490 395.300 141.707 C 395.275 139.627,395.288 137.608,395.328 137.222 C 395.368 136.836,395.189 136.264,394.929 135.952 C 394.670 135.639,394.555 135.286,394.675 135.167 C 394.971 134.870,393.675 133.545,393.290 133.752 C 393.121 133.843,392.740 133.716,392.443 133.470 C 392.026 133.124,391.746 133.182,391.200 133.728 C 390.522 134.406,12.386 134.727,11.709 134.050 C 11.603 133.944,11.275 134.058,10.979 134.303 C 10.575 134.639,10.332 134.638,9.993 134.300 C 9.384 133.691,8.415 133.719,8.763 134.336 C 8.964 134.690,8.914 134.708,8.580 134.400 C 6.851 132.813,-1.485 132.875,199.519 132.986 C 396.517 133.095,392.241 133.117,392.241 132.000 C 392.241 131.372,8.549 130.863,7.921 131.490 " stroke="none" fill="#dc1c04" fill-rule="evenodd"></path><path id="path2" d="M163.725 0.776 C 163.725 1.524,163.466 1.552,156.575 1.552 C 148.818 1.552,148.206 1.710,148.206 3.713 C 148.206 4.655,148.203 4.656,143.647 4.702 C 137.522 4.763,136.851 4.929,136.389 6.499 L 136.018 7.759 132.897 7.805 C 128.301 7.873,127.495 8.116,127.256 9.509 C 127.058 10.664,127.042 10.670,123.955 10.863 L 120.854 11.057 120.733 12.512 L 120.613 13.967 117.364 13.967 C 113.308 13.967,112.276 14.331,111.935 15.884 C 111.681 17.043,111.621 17.071,109.409 17.071 C 106.665 17.071,105.917 17.322,105.917 18.245 C 105.917 19.888,105.518 20.175,103.233 20.175 C 100.761 20.175,99.823 20.681,99.639 22.114 C 99.532 22.954,99.294 23.100,97.866 23.204 C 96.273 23.319,96.217 23.368,96.217 24.642 L 96.217 25.960 93.404 26.074 L 90.592 26.188 90.474 27.592 L 90.357 28.997 87.617 29.193 C 84.767 29.397,84.207 29.742,84.196 31.305 C 84.191 32.006,83.935 32.176,82.735 32.275 C 81.359 32.389,81.274 32.475,81.160 33.851 C 81.046 35.223,80.965 35.306,79.718 35.306 C 77.869 35.306,75.757 36.399,75.481 37.498 C 75.290 38.258,75.003 38.409,73.749 38.409 C 72.159 38.409,71.775 38.831,71.775 40.575 C 71.775 41.388,71.595 41.513,70.417 41.513 C 69.091 41.513,69.059 41.550,69.059 43.065 L 69.059 44.617 67.507 44.617 L 65.955 44.617 65.955 46.169 L 65.955 47.721 64.403 47.721 C 62.889 47.721,62.852 47.753,62.852 49.079 C 62.852 50.375,62.790 50.436,61.474 50.436 C 59.654 50.436,57.955 51.354,57.249 52.719 C 56.877 53.440,56.264 53.907,55.489 54.062 C 54.544 54.251,54.250 54.549,54.058 55.512 C 53.880 56.401,53.509 56.830,52.666 57.124 C 51.924 57.383,51.325 57.985,50.974 58.824 C 50.628 59.651,50.076 60.211,49.450 60.369 C 48.312 60.654,47.333 62.631,47.333 64.645 C 47.333 65.884,47.259 65.955,45.975 65.955 C 44.649 65.955,44.617 65.992,44.617 67.507 L 44.617 69.059 43.065 69.059 L 41.513 69.059 41.513 70.611 L 41.513 72.163 39.961 72.163 C 38.446 72.163,38.409 72.195,38.409 73.521 C 38.409 74.698,38.285 74.879,37.471 74.879 C 35.606 74.879,35.306 75.225,35.306 77.374 C 35.306 79.457,34.575 80.612,32.881 81.210 C 32.411 81.376,32.202 81.864,32.202 82.797 C 32.202 84.073,32.125 84.150,30.747 84.264 C 29.340 84.380,29.288 84.438,29.174 85.996 C 29.077 87.335,28.896 87.648,28.110 87.846 C 27.011 88.122,25.994 90.197,25.994 92.166 C 25.994 93.334,25.878 93.464,24.733 93.574 L 23.472 93.695 23.359 96.486 L 23.245 99.276 21.807 99.396 L 20.369 99.515 20.255 102.522 L 20.142 105.529 18.606 105.529 L 17.071 105.529 17.071 108.632 L 17.071 111.736 15.519 111.736 L 13.967 111.736 13.967 114.817 L 13.967 117.897 12.512 118.017 L 11.057 118.138 10.944 121.145 C 10.836 124.004,10.786 124.151,9.924 124.151 C 8.721 124.151,8.283 124.769,7.999 126.867 C 7.869 127.827,7.892 128.351,8.052 128.031 C 8.462 127.207,10.213 127.100,11.592 127.813 C 13.396 128.746,386.778 128.736,388.555 127.803 C 389.257 127.434,390.219 127.272,390.980 127.393 C 392.145 127.579,392.241 127.513,392.241 126.529 C 392.241 125.150,391.517 124.238,390.301 124.082 C 389.372 123.963,389.326 123.830,389.217 120.951 L 389.104 117.944 387.779 117.944 L 386.454 117.944 386.340 114.937 L 386.227 111.930 384.788 111.811 L 383.349 111.691 383.236 108.707 L 383.123 105.723 381.684 105.603 L 380.245 105.484 380.132 102.499 L 380.019 99.515 378.565 99.395 L 377.110 99.274 377.110 97.002 C 377.110 93.940,376.893 93.501,375.376 93.501 C 374.129 93.501,374.112 93.476,373.890 91.328 C 373.654 89.037,372.817 87.682,371.640 87.682 C 371.102 87.682,370.920 87.313,370.827 86.033 C 370.712 84.432,370.665 84.381,369.253 84.264 C 367.839 84.147,367.798 84.101,367.798 82.615 C 367.798 81.539,367.632 81.086,367.236 81.086 C 365.879 81.086,364.694 79.322,364.694 77.301 C 364.694 75.290,364.364 74.879,362.747 74.879 C 362.219 74.879,361.996 74.544,361.906 73.618 C 361.795 72.467,361.658 72.346,360.330 72.237 C 358.915 72.119,358.875 72.074,358.875 70.588 C 358.875 69.063,358.871 69.059,357.323 69.059 L 355.771 69.059 355.771 67.507 C 355.771 65.965,355.762 65.955,354.273 65.955 L 352.776 65.955 352.553 63.795 C 352.305 61.389,351.907 60.709,350.548 60.368 C 349.928 60.212,349.474 59.683,349.170 58.761 C 348.827 57.722,348.448 57.333,347.619 57.167 C 346.848 57.013,346.447 56.644,346.266 55.925 C 345.904 54.483,345.347 53.928,344.258 53.928 C 343.562 53.928,343.211 53.627,342.914 52.776 C 342.446 51.433,340.707 50.436,338.835 50.436 C 337.610 50.436,337.536 50.360,337.536 49.079 C 337.536 47.753,337.499 47.721,335.984 47.721 L 334.433 47.721 334.433 46.169 C 334.433 44.621,334.429 44.617,332.904 44.617 C 331.418 44.617,331.372 44.577,331.255 43.162 C 331.142 41.791,331.053 41.700,329.702 41.588 C 328.356 41.476,328.262 41.382,328.150 40.036 C 328.035 38.653,327.974 38.599,326.406 38.485 C 325.075 38.388,324.760 38.214,324.660 37.517 C 324.509 36.459,322.351 35.350,320.392 35.324 C 319.022 35.306,318.955 35.243,318.840 33.851 C 318.730 32.524,318.609 32.385,317.464 32.275 C 316.421 32.174,316.154 31.945,315.890 30.929 C 315.534 29.553,314.735 29.198,311.857 29.137 C 310.042 29.098,310.037 29.094,309.917 27.643 L 309.796 26.188 306.790 26.075 L 303.783 25.962 303.783 24.620 C 303.783 23.313,303.742 23.278,302.231 23.278 C 300.846 23.278,300.679 23.177,300.679 22.336 C 300.679 20.730,299.725 20.175,296.965 20.175 C 294.704 20.175,294.471 20.100,294.471 19.373 C 294.471 17.489,293.840 17.071,290.992 17.071 C 288.366 17.071,288.313 17.051,288.193 16.013 C 288.015 14.482,286.676 13.979,282.759 13.973 L 279.387 13.967 279.267 12.512 L 279.146 11.057 276.216 10.945 C 273.285 10.833,273.285 10.833,272.918 9.587 C 272.481 8.104,271.717 7.873,267.022 7.805 C 263.924 7.761,263.822 7.730,263.822 6.837 C 263.822 5.154,262.944 4.874,257.174 4.715 L 251.794 4.568 251.794 3.295 C 251.794 1.580,251.661 1.552,243.615 1.552 C 236.922 1.552,236.663 1.523,236.663 0.776 C 236.663 0.006,236.405 0.000,200.194 0.000 C 163.983 0.000,163.725 0.006,163.725 0.776 " stroke="none" fill="#040404" fill-rule="evenodd"></path><path id="path3" d="M8.333 133.431 C 8.217 133.733,8.328 134.169,8.580 134.400 C 8.914 134.708,8.964 134.690,8.763 134.336 C 8.415 133.719,9.384 133.691,9.993 134.300 C 10.332 134.638,10.575 134.639,10.979 134.303 C 11.275 134.058,11.603 133.944,11.709 134.050 C 12.386 134.727,390.522 134.406,391.200 133.728 C 391.763 133.164,392.018 133.117,392.470 133.492 C 392.989 133.923,393.786 133.715,393.337 133.266 C 392.794 132.723,8.542 132.887,8.333 133.431 M393.999 133.830 C 393.860 134.055,393.801 134.252,393.867 134.268 C 394.918 134.529,395.362 134.485,395.245 134.135 C 395.043 133.527,394.299 133.345,393.999 133.830 M4.662 136.081 C 4.666 136.913,4.751 137.020,5.044 136.566 C 5.317 136.144,5.421 136.123,5.426 136.492 C 5.429 136.772,5.629 136.878,5.869 136.730 C 6.168 136.545,6.104 136.345,5.667 136.101 C 5.315 135.904,5.129 135.579,5.252 135.379 C 5.376 135.178,5.293 135.015,5.067 135.015 C 4.841 135.015,4.658 135.495,4.662 136.081 M0.000 157.905 C 0.000 158.118,0.349 158.293,0.776 158.293 C 1.203 158.293,1.552 158.118,1.552 157.905 C 1.552 157.692,1.203 157.517,0.776 157.517 C 0.349 157.517,0.000 157.692,0.000 157.905 M398.448 157.905 C 398.448 158.118,398.797 158.293,399.224 158.293 C 399.651 158.293,400.000 158.118,400.000 157.905 C 400.000 157.692,399.651 157.517,399.224 157.517 C 398.797 157.517,398.448 157.692,398.448 157.905 M0.000 159.069 C 0.000 159.282,0.349 159.457,0.776 159.457 C 1.203 159.457,1.552 159.282,1.552 159.069 C 1.552 158.855,1.203 158.681,0.776 158.681 C 0.349 158.681,0.000 158.855,0.000 159.069 M398.448 159.069 C 398.448 159.282,398.797 159.457,399.224 159.457 C 399.651 159.457,400.000 159.282,400.000 159.069 C 400.000 158.855,399.651 158.681,399.224 158.681 C 398.797 158.681,398.448 158.855,398.448 159.069 M398.331 229.547 C 398.551 230.120,400.000 230.275,400.000 229.725 C 400.000 229.537,399.579 229.302,399.065 229.204 C 398.396 229.076,398.188 229.173,398.331 229.547 M0.000 229.635 C 0.000 229.823,0.421 230.058,0.935 230.156 C 1.604 230.284,1.812 230.187,1.669 229.813 C 1.449 229.240,-0.000 229.085,0.000 229.635 M1.605 241.375 C 1.574 241.967,1.798 242.494,2.134 242.623 C 2.454 242.746,2.716 242.678,2.716 242.471 C 2.716 242.264,2.553 242.095,2.355 242.095 C 2.156 242.095,1.918 241.702,1.826 241.222 C 1.676 240.444,1.652 240.461,1.605 241.375 M397.979 241.587 C 397.855 242.060,397.367 242.492,396.844 242.591 C 396.010 242.749,396.025 242.770,397.005 242.818 C 398.090 242.871,398.674 242.192,398.359 241.245 C 398.268 240.973,398.100 241.124,397.979 241.587 M5.173 253.912 C 5.173 254.484,6.156 255.079,6.512 254.723 C 6.740 254.495,5.852 253.346,5.449 253.346 C 5.297 253.346,5.173 253.601,5.173 253.912 M11.176 259.466 C 10.897 259.844,10.233 260.369,9.699 260.632 C 8.815 261.069,8.867 261.088,10.281 260.850 C 12.498 260.478,388.296 260.511,389.816 260.884 C 390.669 261.094,391.077 261.054,391.077 260.762 C 391.077 259.955,390.884 259.760,390.201 259.876 C 389.826 259.940,389.246 259.718,388.912 259.385 C 387.911 258.383,11.915 258.464,11.176 259.466 M8.337 263.054 C 8.114 263.414,8.380 263.581,9.020 263.480 C 9.180 263.454,9.311 263.608,9.311 263.822 C 9.311 264.035,9.486 264.210,9.699 264.210 C 10.335 264.210,10.141 263.654,9.329 263.147 C 8.852 262.849,8.484 262.814,8.337 263.054 M26.241 298.155 C 26.363 298.474,26.649 298.620,26.877 298.479 C 27.129 298.323,27.201 298.456,27.060 298.822 C 26.764 299.594,27.468 300.297,28.239 300.001 C 28.632 299.850,28.741 299.927,28.557 300.225 C 28.402 300.475,28.461 300.679,28.687 300.679 C 29.453 300.679,29.103 299.988,27.727 298.779 C 26.188 297.429,25.919 297.315,26.241 298.155 M371.969 299.132 C 370.827 300.277,370.657 300.679,371.313 300.679 C 371.539 300.679,371.604 300.486,371.458 300.249 C 371.281 299.963,371.457 299.904,371.985 300.071 C 372.420 300.209,372.888 300.143,373.023 299.923 C 373.177 299.675,373.006 299.623,372.571 299.786 C 371.958 300.016,371.937 299.968,372.401 299.398 C 372.692 299.040,373.083 298.842,373.269 298.957 C 373.456 299.073,373.505 298.896,373.378 298.565 C 373.251 298.234,373.122 297.986,373.091 298.013 C 373.061 298.040,372.556 298.544,371.969 299.132 M47.576 325.692 C 47.700 326.016,47.970 326.177,48.175 326.050 C 48.381 325.923,48.493 326.142,48.426 326.537 C 48.355 326.952,48.508 327.214,48.788 327.158 C 49.054 327.105,49.273 327.246,49.273 327.472 C 49.273 327.698,49.459 327.768,49.686 327.627 C 50.143 327.345,49.168 326.076,48.025 325.464 C 47.499 325.183,47.400 325.233,47.576 325.692 M350.864 326.495 C 350.072 327.354,350.054 327.837,350.815 327.837 C 351.005 327.837,351.066 327.682,350.949 327.493 C 350.675 327.051,351.680 326.203,352.045 326.568 C 352.196 326.719,352.205 326.543,352.064 326.176 C 351.924 325.809,351.783 325.528,351.753 325.550 C 351.722 325.573,351.322 325.998,350.864 326.495 M51.083 328.872 C 50.700 329.255,50.769 329.857,51.168 329.610 C 51.629 329.325,52.447 330.344,52.082 330.748 C 51.924 330.922,52.024 330.933,52.305 330.771 C 52.710 330.537,52.670 330.304,52.115 329.641 C 51.730 329.182,51.398 328.763,51.378 328.710 C 51.358 328.657,51.225 328.729,51.083 328.872 M347.945 329.823 C 347.427 330.357,347.402 330.533,347.819 330.694 C 348.462 330.940,349.232 330.094,348.862 329.549 C 348.693 329.299,348.353 329.401,347.945 329.823 M57.032 334.843 C 57.032 335.069,57.225 335.135,57.462 334.989 C 57.748 334.812,57.807 334.987,57.640 335.515 C 57.502 335.951,57.568 336.418,57.788 336.554 C 58.036 336.708,58.088 336.537,57.925 336.102 C 57.695 335.489,57.743 335.468,58.313 335.931 C 58.671 336.222,58.869 336.613,58.753 336.800 C 58.638 336.987,58.789 337.045,59.089 336.930 C 59.504 336.771,59.378 336.447,58.565 335.577 C 57.433 334.365,57.032 334.173,57.032 334.843 M341.879 335.234 C 341.610 335.663,341.237 335.920,341.049 335.804 C 340.862 335.688,340.752 335.890,340.805 336.253 C 340.946 337.213,341.568 337.276,342.352 336.410 C 342.811 335.902,342.927 335.454,342.702 335.052 C 342.412 334.533,342.300 334.558,341.879 335.234 M75.267 350.362 C 75.267 350.588,75.453 350.658,75.681 350.517 C 75.929 350.364,76.045 350.549,75.972 350.979 C 75.883 351.495,76.051 351.663,76.567 351.574 C 76.993 351.501,77.182 351.618,77.031 351.861 C 76.879 352.108,77.012 352.181,77.367 352.045 C 77.832 351.866,77.723 351.623,76.846 350.885 C 75.628 349.860,75.267 349.740,75.267 350.362 M323.743 350.630 C 323.580 351.004,323.478 351.454,323.518 351.630 C 323.557 351.806,323.192 351.841,322.706 351.708 C 321.920 351.493,321.901 351.515,322.532 351.908 C 323.265 352.366,323.750 352.158,323.781 351.374 C 323.791 351.125,324.003 350.963,324.252 351.014 C 324.508 351.066,324.609 350.855,324.484 350.529 C 324.200 349.790,324.105 349.803,323.743 350.630 M136.472 382.023 C 136.740 382.131,136.844 382.406,136.703 382.634 C 136.551 382.879,136.630 382.936,136.894 382.772 C 137.141 382.620,137.342 382.709,137.342 382.971 C 137.342 383.233,137.455 383.334,137.592 383.197 C 137.918 382.871,136.987 381.756,136.422 381.796 C 136.149 381.815,136.168 381.901,136.472 382.023 " stroke="none" fill="#e92404" fill-rule="evenodd"></path><path id="path4" d="M7.983 128.209 C 7.866 128.644,7.768 129.563,7.765 130.250 L 7.759 131.499 195.750 131.517 C 299.145 131.526,385.654 131.418,387.991 131.276 L 392.241 131.018 392.241 129.372 C 392.241 127.177,390.856 126.607,388.502 127.835 C 386.797 128.724,13.346 128.720,11.626 127.830 C 10.051 127.016,8.253 127.202,7.983 128.209 " stroke="none" fill="#6c0c04" fill-rule="evenodd"></path></g></svg>