<svg version="1.1" xmlns="http://www.w3.org/2000/svg" xmlns:xlink="http://www.w3.org/1999/xlink" x="0px" y="0px" viewBox="0 0 75 75" enable-background="new 0 0 75 75" xml:space="preserve">
<g>
	<circle fill="#FFFFFF" stroke="#323953" stroke-width="2" stroke-miterlimit="10" cx="37.5" cy="37.5" r="35.916"/>
	<path fill="#323953" d="M63.3,41.396L15.585,60.404c2.188,2.133,4.684,3.745,7.417,5.168l40.585-22.428l3.27-1.842L25.88,66.719
		c3.594,1.433,7.515,2.615,11.62,2.615c16.309,0,29.713-12.938,31.263-27.938H63.3z"/>
	<path fill="#323953" d="M59.332,41.396H6.237c0.319,3,1.149,5.997,2.397,8.9l48.852-8.768L59.332,41.396z"/>
	<path fill="#323953" d="M63.189,41.396h-3.423L9.896,52.895c1.031,1.896,2.248,3.471,3.632,5.105l46.863-15.942L63.189,41.396z"/>
	<polygon fill="#FFFFFF" points="61.153,40.253 59.332,40.584 59.766,40.584 	"/>
	<path fill="#46547A" d="M59.332,41.396l-1.846-0.07L8.634,50.094c0.382,0.889,0.803,2.06,1.261,2.902l49.871-11.6H59.332z"/>
	<polygon fill="#FFFFFF" points="63.915,40.334 63.189,40.584 63.3,40.584 	"/>
	<path fill="#46547A" d="M63.189,41.396l-2.798,0.559L13.528,58c0.65,0.768,1.338,1.806,2.058,2.507L63.3,41.396H63.189z"/>
	<path fill="#46547A" d="M63.588,43.043L23.003,65.37c0.934,0.487,1.892,0.932,2.877,1.324l40.978-25.441L63.588,43.043z"/>
	<g>
		<path fill="#323953" d="M24.808,18.538v8.578c0,1.418-0.463,2.506-1.389,3.265s-2.136,1.138-3.63,1.138
			c-1.465,0-2.651-0.381-3.56-1.143s-1.362-1.849-1.362-3.261v-8.578h2.136v8.571c0,0.896,0.252,1.569,0.756,2.02
			s1.181,0.676,2.03,0.676c0.879,0,1.579-0.226,2.101-0.676s0.782-1.124,0.782-2.02v-8.571H24.808z"/>
		<path fill="#323953" d="M34.292,28.038c0-0.531-0.198-0.965-0.593-1.304s-1.094-0.642-2.096-0.91c-1.43-0.375-2.53-0.872-3.3-1.49
			s-1.156-1.428-1.156-2.43c0-1.031,0.426-1.881,1.279-2.549s1.953-1.002,3.3-1.002c1.406,0,2.536,0.379,3.388,1.138
			s1.264,1.668,1.235,2.729l-0.018,0.053h-2.048c0-0.656-0.223-1.188-0.668-1.595s-1.081-0.611-1.907-0.611
			c-0.779,0-1.378,0.169-1.797,0.509c-0.419,0.339-0.628,0.777-0.628,1.315c0,0.485,0.227,0.889,0.681,1.21
			c0.454,0.322,1.206,0.625,2.254,0.912c1.377,0.369,2.423,0.879,3.138,1.529s1.072,1.479,1.072,2.487
			c0,1.066-0.426,1.915-1.279,2.544s-1.973,0.945-3.362,0.945c-1.336,0-2.508-0.356-3.516-1.068s-1.497-1.683-1.468-2.914
			l0.018-0.053h2.057c0,0.779,0.27,1.361,0.809,1.745s1.239,0.576,2.101,0.576c0.791,0,1.406-0.159,1.846-0.477
			C34.072,29.01,34.292,28.58,34.292,28.038z"/>
		<path fill="#323953" d="M38.677,31.334V18.538h4.148c1.623,0,2.943,0.507,3.959,1.521s1.525,2.317,1.525,3.911v1.942
			c0,1.6-0.508,2.903-1.525,3.911s-2.336,1.512-3.959,1.512H38.677z M40.813,20.251v9.369h1.951c1.061,0,1.894-0.345,2.5-1.036
			s0.91-1.583,0.91-2.678v-1.958c0-1.083-0.303-1.97-0.91-2.661s-1.44-1.036-2.5-1.036H40.813z"/>
		<path fill="#323953" d="M57.249,28.346h-5.01l-1.02,2.988h-2.162l4.702-12.797h2.021l4.649,12.797h-2.171L57.249,28.346z
			 M52.854,26.562h3.788l-1.854-5.467h-0.053L52.854,26.562z"/>
	</g>
	<g>
		<path fill="#FFFFFF" d="M17.842,52.522c0-0.938,0.254-1.71,0.762-2.317s1.197-0.911,2.068-0.911c0.879,0,1.573,0.303,2.083,0.908
			s0.765,1.379,0.765,2.32v0.129c0,0.945-0.254,1.719-0.762,2.32s-1.199,0.902-2.074,0.902s-1.567-0.302-2.077-0.905
			s-0.765-1.376-0.765-2.317V52.522z M18.996,52.648c0,0.671,0.142,1.225,0.425,1.662s0.704,0.655,1.263,0.655
			c0.551,0,0.969-0.218,1.254-0.655s0.428-0.991,0.428-1.662v-0.129c0-0.663-0.144-1.215-0.431-1.656
			c-0.287-0.44-0.708-0.661-1.263-0.661c-0.551,0-0.968,0.221-1.251,0.661c-0.283,0.441-0.425,0.993-0.425,1.656V52.648z"/>
		<path fill="#FFFFFF" d="M27.932,50.43l-0.592-0.035c-0.305,0-0.562,0.072-0.771,0.217s-0.37,0.348-0.483,0.609v4.529h-1.154v-6.34
			h1.031l0.111,0.926c0.18-0.328,0.401-0.584,0.665-0.768s0.567-0.275,0.911-0.275c0.086,0,0.168,0.007,0.246,0.021
			s0.143,0.028,0.193,0.044L27.932,50.43z"/>
		<path fill="#FFFFFF" d="M28.682,52.698c0-1.02,0.223-1.842,0.668-2.467s1.061-0.938,1.846-0.938c0.402,0,0.756,0.081,1.061,0.243
			s0.559,0.396,0.762,0.7l0.141-0.826h0.92v6.375c0,0.813-0.236,1.437-0.709,1.872s-1.154,0.653-2.045,0.653
			c-0.305,0-0.634-0.042-0.987-0.126s-0.665-0.198-0.935-0.343l0.293-0.896c0.207,0.117,0.457,0.212,0.75,0.284
			s0.582,0.108,0.867,0.108c0.563,0,0.972-0.128,1.228-0.384s0.384-0.646,0.384-1.169v-0.715c-0.207,0.266-0.455,0.466-0.744,0.601
			s-0.621,0.202-0.996,0.202c-0.777,0-1.389-0.281-1.834-0.844s-0.668-1.299-0.668-2.209V52.698z M29.836,52.821
			c0,0.637,0.135,1.148,0.404,1.535s0.68,0.58,1.23,0.58c0.348,0,0.639-0.079,0.873-0.237s0.428-0.382,0.58-0.671V51.11
			c-0.148-0.27-0.342-0.483-0.58-0.642s-0.525-0.237-0.861-0.237c-0.551,0-0.963,0.23-1.236,0.691s-0.41,1.053-0.41,1.775V52.821z"
			/>
		<path fill="#FFFFFF" d="M39.65,55.75c-0.039-0.191-0.069-0.36-0.091-0.507s-0.034-0.294-0.038-0.442
			c-0.215,0.305-0.495,0.56-0.841,0.765s-0.718,0.308-1.116,0.308c-0.66,0-1.163-0.169-1.509-0.507s-0.519-0.804-0.519-1.397
			c0-0.605,0.245-1.079,0.735-1.421s1.155-0.513,1.995-0.513h1.254v-0.627c0-0.371-0.113-0.665-0.34-0.882s-0.547-0.325-0.961-0.325
			c-0.371,0-0.673,0.095-0.905,0.284s-0.349,0.417-0.349,0.683h-1.102l-0.012-0.035c-0.023-0.461,0.194-0.883,0.653-1.266
			s1.052-0.574,1.778-0.574c0.719,0,1.297,0.183,1.734,0.548s0.656,0.892,0.656,1.579v3.053c0,0.227,0.012,0.445,0.035,0.656
			s0.066,0.418,0.129,0.621H39.65z M37.734,54.901c0.418,0,0.795-0.107,1.131-0.321s0.555-0.459,0.656-0.736v-1.028h-1.295
			c-0.465,0-0.837,0.117-1.116,0.351s-0.419,0.508-0.419,0.824c0,0.281,0.088,0.502,0.264,0.667
			C37.131,54.819,37.391,54.901,37.734,54.901z"/>
		<path fill="#FFFFFF" d="M43.383,49.411l0.082,0.943c0.211-0.336,0.476-0.597,0.794-0.782s0.681-0.278,1.087-0.278
			c0.684,0,1.213,0.2,1.588,0.601s0.563,1.019,0.563,1.854v4.002h-1.154v-3.979c0-0.559-0.11-0.955-0.331-1.189
			S45.453,50.231,45,50.231c-0.332,0-0.626,0.08-0.882,0.24s-0.46,0.379-0.612,0.656v4.623h-1.154v-6.34H43.383z"/>
		<path fill="#FFFFFF" d="M50.42,47.788h-1.154V46.61h1.154V47.788z M50.42,55.75h-1.154v-6.34h1.154V55.75z"/>
		<path fill="#FFFFFF" d="M54.773,54.965c0.383,0,0.72-0.118,1.011-0.354s0.437-0.526,0.437-0.87h1.037l0.012,0.035
			c0.02,0.547-0.224,1.033-0.729,1.459s-1.095,0.639-1.767,0.639c-0.922,0-1.627-0.301-2.115-0.902s-0.732-1.357-0.732-2.268v-0.246
			c0-0.902,0.245-1.655,0.735-2.259s1.194-0.905,2.112-0.905c0.742,0,1.349,0.219,1.819,0.656s0.698,0.975,0.683,1.611l-0.012,0.035
			h-1.043c0-0.387-0.137-0.716-0.41-0.987s-0.619-0.407-1.037-0.407c-0.605,0-1.038,0.218-1.298,0.652
			c-0.26,0.435-0.39,0.969-0.39,1.601v0.246c0,0.647,0.129,1.187,0.387,1.618S54.164,54.965,54.773,54.965z"/>
	</g>
</g>
</svg>
