<?xml version="1.0" encoding="UTF-8"?>
<svg width="301px" height="300px" viewBox="0 0 301 300" version="1.1" xmlns="http://www.w3.org/2000/svg" xmlns:xlink="http://www.w3.org/1999/xlink">
    <title>organic</title>
    <defs>
        <path d="M0.335117057,0.0237623762 C0.335117057,71.3772277 58.348495,129.223762 129.910033,129.223762 C201.476589,129.223762 259.495987,71.3772277 259.495987,0.0237623762 L0.335117057,0.0237623762 Z" id="path-1"></path>
    </defs>
    <g id="Icons" stroke="none" stroke-width="1" fill="none" fill-rule="evenodd">
        <g id="Desktop-HD" transform="translate(-167.000000, -67.000000)">
            <g id="organic" transform="translate(167.384953, 67.337437)">
                <path d="M149.976923,292.831683 C111.588963,292.831683 75.4996656,277.928713 48.3481605,250.858416 C21.2026756,223.793069 6.24882943,187.806931 6.24882943,149.532673 C6.24882943,70.5138614 70.7227425,6.23267327 149.976923,6.23267327 C188.371906,6.23267327 224.466221,21.1356436 251.611706,48.2059406 C278.758194,75.2712871 293.70602,111.252475 293.70602,149.532673 C293.70602,187.811881 278.758194,223.793069 251.611706,250.858416 C224.466221,277.928713 188.371906,292.831683 149.976923,292.831683" id="Shape" fill="#FFFFFF" fill-rule="nonzero"></path>
                <g id="Group" opacity="0.5" transform="translate(20.066890, 149.504950)" fill="#231F20" fill-rule="nonzero">
                    <path d="M259.49699,0.0247524752 C259.49699,71.3782178 201.483612,129.223762 129.911037,129.223762 C58.3494983,129.223762 0.336120401,71.3782178 0.336120401,0.0247524752 L259.49699,0.0247524752 Z" id="Shape"></path>
                </g>
                <g id="Clipped" transform="translate(20.066890, 149.504950)">
                    <mask id="mask-2" fill="white">
                        <use xlink:href="#path-1"></use>
                    </mask>
                    <g id="Shape"></g>
                    <g id="Group" mask="url(#mask-2)" fill="#1F2A44" fill-rule="nonzero">
                        <g transform="translate(-6.020067, 0.000000)" id="Shape">
                            <polygon points="265.517057 0.0247524752 0.32909699 0.0247524752 11.1280936 42.529703"></polygon>
                            <polygon points="265.517057 0.0247524752 13.5 48.7158416 35.2685619 87.3891089"></polygon>
                            <polygon points="265.517057 0.0247524752 41.5896321 91.8306931 81.1946488 121.271287 265.517057 0.0247524752"></polygon>
                            <polygon points="265.517057 0.0247524752 89.3989967 124.073267 144.718395 137.110891"></polygon>
                            <polygon points="265.517057 0.0247524752 158.761204 131.783168 260.734114 131.051485"></polygon>
                        </g>
                    </g>
                </g>
                <path d="M149.976923,11.9623762 C73.9003344,11.9623762 11.9979933,73.6742574 11.9979933,149.529703 C11.9979933,225.386139 73.9003344,287.09802 149.976923,287.09802 C226.060535,287.09802 287.961873,225.386139 287.961873,149.529703 C287.961873,73.6742574 226.060535,11.9623762 149.976923,11.9623762 M149.976923,299.060396 C109.922408,299.060396 72.2608696,283.508911 43.9264214,255.264356 C15.60301,227.025743 0,189.471287 0,149.529703 C0,67.0782178 67.2782609,0 149.976923,0 C190.043478,0 227.704013,15.5564356 256.033445,43.8009901 C284.356856,72.0405941 299.954849,109.589109 299.954849,149.529703 C299.954849,189.471287 284.356856,227.025743 256.033445,255.264356 C227.704013,283.508911 190.043478,299.060396 149.976923,299.060396" id="Shape" fill="#1F2A44" fill-rule="nonzero"></path>
                <path d="M72.6993311,77.9574257 L85.8411371,77.9574257 L85.8411371,120.086139 C85.8411371,122.761386 86.6638796,125.071287 90.3963211,125.071287 C93.8287625,125.071287 94.8732441,122.09703 94.8732441,119.715842 L94.8732441,77.9574257 L108.010033,77.9574257 L108.010033,118.375248 C108.010033,127.828713 103.76087,135.122772 90.3180602,135.122772 C79.1979933,135.122772 72.6993311,129.839604 72.6993311,118.375248 L72.6993311,77.9574257 Z" id="Shape" fill="#1F2A44" fill-rule="nonzero"></path>
                <path d="M124.438796,115.1 L124.438796,119.043564 C124.438796,122.244554 125.482274,125.074257 129.660201,125.074257 C132.720401,125.074257 134.064883,122.315842 134.064883,119.492079 C134.064883,114.80099 130.18796,113.017822 126.749498,110.929703 C122.716054,108.620792 119.283612,106.466337 116.822408,103.635644 C114.434448,100.805941 113.012709,97.3831683 113.012709,92.4762376 C113.012709,81.9762376 119.361873,76.6158416 129.515719,76.6158416 C140.941806,76.6158416 146.763211,84.2079208 146.163211,94.7029703 L134.064883,94.7029703 C133.920401,91.429703 134.064883,86.960396 129.737458,86.6673267 C127.054515,86.4455446 125.482274,87.929703 125.188294,90.3891089 C124.811037,93.7336634 126.526756,95.450495 129.143478,97.2336634 C134.064883,100.363366 138.325084,102.29604 141.386288,105.125743 C144.446488,107.950495 146.235452,111.672277 146.235452,118.444554 C146.235452,129.167327 140.269565,135.120792 129.365217,135.120792 C117.345151,135.120792 112.273244,128.424752 112.273244,121.053465 L112.273244,115.1 L124.438796,115.1 Z" id="Shape" fill="#1F2A44" fill-rule="nonzero"></path>
                <path d="M169.52709,133.780198 C173.565552,133.780198 177.742475,133.408911 181.174916,131.177228 C184.980602,128.79604 186.702341,124.70297 186.768562,119.120792 L186.768562,94.3316832 C186.768562,88.9712871 185.952843,83.5376238 180.874916,80.5584158 C176.620736,78.1049505 170.871572,77.9554455 166.094649,77.9554455 L151.835117,77.9554455 L151.835117,133.780198 L169.52709,133.780198 Z M164.977926,88.0069307 C171.399331,88.1564356 173.565552,88.5277228 173.637793,95.0792079 L173.637793,113.310891 C173.859532,120.754455 173.787291,124.326733 164.977926,123.733663 L164.977926,88.0069307 Z" id="Shape" fill="#1F2A44" fill-rule="nonzero"></path>
                <path d="M203.799331,133.780198 L205.365552,122.913861 L215.6699,122.913861 L217.53612,133.780198 L230.817391,133.780198 L218.652843,77.9554455 L202.82107,77.9554455 L190.579264,133.780198 L203.799331,133.780198 Z M214.397659,113.090099 L206.782274,113.090099 L210.592977,88.0792079 L210.742475,88.0792079 L214.397659,113.090099 Z" id="Shape" fill="#1F2A44" fill-rule="nonzero"></path>
                <path d="M78.2648829,177.844554 C78.2648829,169.80396 73.6153846,165.339604 64.9886288,165.339604 C56.373913,165.339604 51.5518395,169.80396 51.5518395,177.844554 L51.5518395,194.875248 C51.5518395,204.305941 55.0234114,209.218812 64.9886288,209.218812 C74.9598662,209.218812 78.2648829,204.305941 78.2648829,194.875248 L78.2648829,177.844554 Z M68.4110368,195.710891 C68.4110368,198.108911 68.1882943,201.681188 64.9886288,201.681188 C61.8010033,201.681188 61.4117057,198.108911 61.4117057,195.710891 L61.4117057,178.514851 C61.4117057,175.945545 61.8010033,172.877228 64.9394649,172.877228 C68.1882943,172.877228 68.4110368,175.945545 68.4110368,178.514851 L68.4110368,195.710891 Z" id="Shape" fill="#FFFFFF" fill-rule="nonzero"></path>
                <path d="M92.6508361,191.690099 L95.8996656,191.690099 C98.1943144,191.856436 98.9829431,193.534653 99.2608696,196.09901 C99.5377926,198.668317 99.3100334,202.129703 99.4826087,205.812871 C99.5377926,206.654455 99.7605351,207.429703 100.043478,208.215842 L110.797324,208.215842 L110.797324,207.651485 C110.347826,207.269307 110.0699,206.759406 109.848161,206.205941 C109.281271,203.525743 109.226087,196.320792 108.948161,192.969307 C108.775585,190.073267 106.820067,188.168317 104.076923,187.559406 L104.076923,187.448515 C108.220736,185.548515 109.281271,182.364356 109.281271,177.9 C109.281271,169.582178 105.253846,166.342574 97.1829431,166.342574 L82.8020067,166.342574 L82.8020067,208.215842 L92.6508361,208.215842 L92.6508361,191.690099 Z M92.6508361,173.880198 C97.4658863,173.769307 99.5377926,173.99604 99.5377926,178.963366 C99.5377926,181.533663 98.8665552,184.153465 96.0110368,184.153465 L92.6508361,184.153465 L92.6508361,173.880198 Z" id="Shape" fill="#FFFFFF" fill-rule="nonzero"></path>
                <path d="M133.52408,208.269307 L133.079599,204.530693 L132.963211,204.530693 C130.952508,208.10297 128.714047,209.216832 124.453846,209.216832 C116.110033,209.216832 113.42709,203.468317 113.42709,195.875248 L113.42709,178.684158 C113.42709,169.585149 117.62709,165.343564 126.64214,165.343564 C135.035117,165.343564 140.023746,168.914851 140.023746,177.455446 L140.023746,180.578218 L130.168896,180.578218 L130.168896,178.291089 C130.168896,174.719802 129.719398,172.935644 127.086622,172.875248 C124.009365,172.819802 123.280936,174.492079 123.280936,177.233663 L123.280936,197.940594 C123.280936,200.289109 124.347492,201.684158 126.925084,201.684158 C130.280268,201.684158 130.396656,199.00396 130.396656,196.323762 L130.396656,193.028713 L126.86388,193.028713 L126.86388,185.49703 L140.245485,185.49703 L140.245485,208.269307 L133.52408,208.269307 Z" id="Shape" fill="#FFFFFF" fill-rule="nonzero"></path>
                <path d="M153.123411,208.214851 L154.301338,200.063366 L162.03311,200.063366 L163.427759,208.214851 L173.386957,208.214851 L164.266555,166.341584 L152.395987,166.341584 L143.214381,208.214851 L153.123411,208.214851 Z M161.077926,192.692079 L155.361873,192.692079 L158.222408,173.939604 L158.327759,173.939604 L161.077926,192.692079 Z" id="Shape" fill="#FFFFFF" fill-rule="nonzero"></path>
                <polygon id="Shape" fill="#FFFFFF" fill-rule="nonzero" points="184.813043 184.767327 184.701672 184.878218 185.601672 208.215842 176.247492 208.215842 176.247492 166.342574 186.379264 166.342574 193.994649 189.735644 194.167224 189.735644 193.217057 166.342574 202.566221 166.342574 202.566221 208.215842 192.489632 208.215842"></polygon>
                <rect id="Rectangle-path" fill="#FFFFFF" x="207.828763" y="166.342574" width="9.84882943" height="41.8742574"></rect>
                <path d="M239.519398,180.970297 L239.519398,178.290099 C239.519398,174.717822 238.231104,172.874257 236.386957,172.874257 C233.303679,172.818812 232.576254,174.49703 232.576254,177.232673 L232.52107,197.939604 C232.52107,200.288119 233.471237,201.683168 236.047826,201.683168 C239.40301,201.683168 239.686957,198.221782 239.686957,195.652475 L239.686957,191.858416 L249.540803,191.858416 L249.540803,196.993069 C249.540803,204.19802 245.402007,209.220792 235.320401,209.220792 C226.244147,209.220792 222.728428,204.419802 222.728428,195.874257 L222.728428,178.683168 C222.728428,169.584158 226.921405,165.342574 235.931438,165.342574 C244.335452,165.342574 249.374247,168.913861 249.374247,177.454455 L249.374247,180.970297 L239.519398,180.970297 Z" id="Shape" fill="#FFFFFF" fill-rule="nonzero"></path>
            </g>
        </g>
    </g>
</svg>