<?xml version="1.0" encoding="UTF-8"?>
<svg width="300px" height="300px" viewBox="0 0 300 300" version="1.1" xmlns="http://www.w3.org/2000/svg" xmlns:xlink="http://www.w3.org/1999/xlink">
    <!-- Generator: Sketch 50.2 (55047) - http://www.bohemiancoding.com/sketch -->
    <title>paleo</title>
    <desc>Created with Sketch.</desc>
    <defs></defs>
    <g id="Icons" stroke="none" stroke-width="1" fill="none" fill-rule="evenodd">
        <g id="Desktop-HD" transform="translate(-576.000000, -418.000000)" fill="#1F2A44" fill-rule="nonzero">
            <g id="paleo" transform="translate(575.975258, 417.527584)">
                <path d="M139.859236,96.6649682 C139.698726,97.5687898 139.576433,97.9347134 139.576433,98.3063694 C139.576433,117.473885 139.60414,136.641401 139.565924,155.815605 C139.560191,157.655732 140.380892,158.088535 141.988854,158.088535 C147.549363,158.088535 153.122293,158.442994 158.661783,158.138217 C165.946815,157.744586 172.827707,156.175796 178.921338,151.446497 C184.577389,147.038217 187.427389,141.071656 188.746815,134.662739 C190.110191,128.03121 189.949682,121.211465 187.160828,114.479618 C183.590446,105.874204 177.707006,100.457006 168.869427,98.0398089 C159.342994,95.4343949 149.657006,96.9917197 139.859236,96.6649682 M139.681529,185.734395 L139.681529,225.927707 L108.027707,225.927707 L108.027707,69.2522293 C108.42707,69.1356688 108.858917,68.9025478 109.29172,68.9025478 C127.976752,68.9971338 146.684713,68.5585987 165.331529,69.4624204 C173.454459,69.8512739 181.704459,72.2961783 189.417516,75.1242038 C195.040127,77.1869427 200.185032,80.8404459 204.720382,85.1933121 C209.361783,89.6512739 213.325796,94.4694268 216.126115,100.23535 C221.853822,112.007006 223.33949,124.36051 221.493631,137.290127 C220.340446,145.396815 217.495223,152.892994 213.032484,159.502548 C207.986943,166.982484 201.266561,172.859236 193.181847,177.350637 C185.879618,181.409236 178.156051,183.394586 170.094268,184.170382 C161.678025,184.980573 153.189172,185.096178 144.732803,185.512739 C143.207962,185.584395 141.688854,185.651274 139.681529,185.734395" id="Shape"></path>
                <path d="M123.875159,27.1996815 C130.988217,26.6283439 138.052548,25.5143312 145.044268,24.133758 C145.226752,25.5754777 145.410191,27.0171975 145.587898,28.4636943 C142.848726,28.5974522 140.131529,29.0292994 137.420064,29.4563694 C138.418471,35.2671975 138.77293,41.194586 140.287261,46.922293 C138.590446,47.155414 136.893631,47.3875796 135.191083,47.6149682 C134.409554,41.7878981 133.633758,35.960828 132.663057,30.1605096 C129.93535,30.5933121 127.123567,30.6764331 124.518153,31.6748408 C124.318471,30.177707 124.051911,28.6968153 123.875159,27.1996815" id="Shape"></path>
                <path d="M152.881529,43.3901274 C153.136624,37.5009554 153.597134,31.6184713 153.801592,25.7245223 C155.454459,25.8792994 157.112102,25.9853503 158.764013,26.0732484 C157.838217,33.1767516 157.804777,40.3509554 157.411146,47.4984076 C155.698089,47.4257962 153.973567,47.3703822 152.26051,47.3541401 C152.665605,46.0681529 152.853822,44.7315287 152.881529,43.3901274" id="Shape"></path>
                <path d="M164.777389,47.5318471 C166.923248,40.6394904 168.281847,33.5369427 169.834395,26.4955414 C175.368153,27.8149682 180.906688,29.1009554 186.440446,30.4098726 C186.235032,31.5458599 186.03535,32.672293 185.836624,33.8025478 C181.843949,33.1156051 177.979299,31.8066879 173.95414,31.2859873 C172.800955,32.510828 172.690127,34.2802548 172.95,35.8652866 C176.033121,36.6028662 179.094268,37.5009554 182.265287,37.7952229 C181.899363,39.1643312 181.578344,40.5449045 181.289809,41.9312102 C178.162739,40.922293 174.990764,39.9238854 171.69172,39.7194268 C170.809873,42.6468153 170.172611,45.6410828 169.673885,48.6573248 C168.038217,48.2799363 166.407325,47.9025478 164.777389,47.5318471" id="Shape"></path>
                <path d="M192.262739,33.4968153 C193.736943,34.1235669 195.217834,34.7388535 196.720701,35.3101911 C194.014968,42.0133758 191.236624,48.6888535 188.902548,55.5315287 C187.272611,54.8933121 185.636943,54.283758 183.978344,53.7401274 C187.156051,47.1697452 189.257006,40.1398089 192.262739,33.4968153" id="Shape"></path>
                <path d="M106.261146,42.8866242 C105.73949,41.3780255 105.235032,39.8589172 104.75828,38.3398089 C107.91879,37.2191083 111.007643,35.861465 114.261783,35.0187898 C115.992038,34.8515924 116.480255,36.8980892 117.040127,38.1229299 C114.095541,40.9289809 109.898408,41.439172 106.261146,42.8866242 M118.747452,43.0910828 C121.458917,40.5792994 122.429618,35.9226115 119.83949,32.9894904 C117.882803,30.7767516 114.506369,30.8264331 111.905732,31.6968153 C107.513694,33.2713376 103.150318,34.9299363 98.7420382,36.4433121 C101.714331,43.0356688 103.876433,49.95 106.338535,56.7477707 C107.88535,56.1716561 109.443631,55.610828 111.001911,55.0566879 C109.659554,52.3232484 108.678344,49.4398089 107.780255,46.5286624 C109.293631,45.9630573 110.807962,45.3984076 112.32707,44.8375796 C115.493312,46.8783439 118.503822,49.1512739 121.725478,51.0926752 C123.632484,50.5041401 125.489809,49.7952229 127.364331,49.1187898 C124.514331,47.0780255 121.642357,45.0649682 118.747452,43.0910828" id="Shape"></path>
                <path d="M208.555414,40.1187898 C213.822611,43.6843949 219.201592,47.088535 224.379936,50.7869427 C223.786624,51.7796178 223.17707,52.7493631 222.533121,53.7143312 C218.519427,50.8977707 214.393949,48.2579618 210.341083,45.4968153 C209.35414,46.9557325 208.344268,48.4079618 207.479618,49.9442675 C210.385032,51.7843949 213.129936,53.8863057 216.213057,55.4273885 C215.564331,56.5423567 214.920382,57.6621019 214.294586,58.7875796 C211.300318,56.8633758 208.394904,54.7901274 205.355732,52.9270701 C204.380255,54.4070064 203.404777,55.8878981 202.428344,57.3630573 C206.448726,60.0687898 210.457643,62.7850318 214.538217,65.3971338 C213.861783,66.5665605 213.157643,67.7254777 212.436306,68.8738854 C207.214013,65.0751592 201.50828,61.9652866 196.523885,57.8455414 C200.776433,52.1006369 204.524522,46.0127389 208.555414,40.1187898" id="Shape"></path>
                <path d="M73.4321656,52.816242 C78.8761146,49.1789809 84.1719745,45.3095541 89.4171975,41.3780255 C90.1213376,42.4041401 90.8254777,43.4292994 91.5296178,44.455414 C87.2598726,47.1219745 83.3235669,50.2719745 79.1541401,53.0942675 C80.1181529,54.5742038 81.122293,56.0378981 82.1703822,57.4691083 C85.0146497,55.4226115 87.8923567,53.4324841 90.6363057,51.2531847 C91.4292994,52.3070064 92.2280255,53.3656051 93.0095541,54.4242038 C89.9273885,56.1878981 87.0601911,58.3117834 84.2990446,60.5570064 C85.3585987,61.9652866 86.439172,63.3735669 87.5092357,64.7818471 C91.5955414,61.8047771 95.7047771,58.8544586 99.8187898,55.9165605 C100.589809,56.9808917 101.365605,58.0394904 102.142357,59.1152866 C96.7528662,62.9302548 91.3853503,66.7834395 86.0292994,70.6423567 C82.0089172,64.5716561 77.5509554,58.8105096 73.4321656,52.816242" id="Shape"></path>
                <path d="M61.5840764,62.7525478 C63.7022293,60.5732484 66.5417197,59.3703822 69.0477707,57.7404459 C69.5130573,59.2710191 69.9850318,60.8006369 70.483758,62.3254777 C66.1480892,62.9856688 62.5156051,66.2570064 60.8197452,70.2047771 C59.2442675,74.8012739 63.4863057,80.0856688 68.2605096,79.8248408 C70.1178344,79.6968153 71.7697452,78.6601911 73.1952229,77.5289809 C76.156051,75.0955414 78.0687898,71.0914013 77.1649682,67.2324841 C78.5455414,67.3490446 79.9318471,67.4598726 81.3124204,67.5764331 C81.9334395,75.4280255 75.6955414,83.1907643 67.8716561,84.1719745 C62.1057325,84.7041401 56.5328025,79.5640127 56.5328025,73.7703822 C56.316879,69.544586 58.5735669,65.5748408 61.5840764,62.7525478" id="Shape"></path>
                <path d="M228.915287,78.4394904 C225.638217,76.5257962 223.530573,73.243949 220.719745,70.7703822 C224.091401,67.6270701 227.351274,64.3671975 230.644586,61.156051 C233.140127,63.7404459 236.022611,66.0191083 237.946815,69.0850318 C238.933758,74.0646497 233.955096,79.3318471 228.915287,78.4394904 M239.887261,65.5089172 C236.821338,62.0101911 233.361783,58.8888535 230.223248,55.4512739 C225.144268,60.4414013 220.043312,65.4143312 214.953822,70.393949 C218.241401,73.3882166 221.224204,76.6872611 224.340764,79.8525478 C226.924204,82.6194268 231.321019,83.2404459 234.71465,81.7156051 C239.105732,79.7751592 242.355096,75.0286624 241.894586,70.1493631 C241.706369,68.4535032 241.073885,66.7624204 239.887261,65.5089172" id="Shape"></path>
                <path d="M200.617834,246.738535 C196.248726,246.738535 192.705096,250.054777 192.705096,254.13535 C192.705096,258.221656 196.248726,261.532166 200.617834,261.532166 C204.986943,261.532166 208.53535,258.221656 208.53535,254.13535 C208.53535,250.054777 204.986943,246.738535 200.617834,246.738535 Z M213.309554,254.13535 C213.309554,260.688535 207.631529,265.994904 200.617834,265.994904 C193.608917,265.994904 187.931847,260.688535 187.931847,254.13535 C187.931847,247.586943 193.608917,242.274841 200.617834,242.274841 C207.631529,242.274841 213.309554,247.586943 213.309554,254.13535 Z M186.750955,271.340446 L185.974204,267.708917 L169.977707,271.11879 L168.729936,265.263057 L179.420064,262.990127 L178.65,259.358599 L167.95414,261.642994 L166.840127,256.414013 L182.697134,253.03758 L181.92707,249.406051 L166.074841,252.788217 L166.063376,252.749045 L161.611146,253.696815 L161.622611,253.735987 L161.611146,253.74172 L162.382166,257.361783 L162.386943,257.361783 L166.302229,275.698089 L166.435032,275.66465 L186.750955,271.340446 Z M117.175796,261.409873 L122.903503,263.189809 L121.856369,256.070064 C121.856369,256.070064 118.67293,259.56879 117.175796,261.409873 Z M121.035669,249.461465 L126.336306,250.986306 L130.07293,275.415287 L124.390127,273.724204 L123.646815,267.697452 L114.514968,264.869427 L110.400955,269.593949 L105.327707,268.135032 C105.327707,268.135032 115.878344,255.749045 121.035669,249.461465 Z M137.741083,253.619427 L137.624522,276.031529 L158.234713,276.192038 L158.234713,271.744586 L142.875478,271.82293 L143.086624,253.625159 L137.741083,253.619427 Z M94.4101911,247.503822 C94.4101911,247.503822 98.6627389,249.549363 101.639809,250.85828 C103.308917,251.590127 104.661783,251.030255 105.15,249.960191 C106.026115,248.025478 104.224204,246.954459 103.075796,246.411783 C100.442675,245.180255 96.2732484,243.257006 96.2732484,243.257006 L94.4101911,247.503822 Z M93.6,237.567516 C93.6,237.567516 102.992675,242.009236 107.578662,244.443631 C109.391083,245.330255 110.478344,247.349045 110.373248,249.350637 C110.361783,250.309873 110.106688,251.240446 109.701592,252.100318 C108.210191,255.249363 105.383121,257.046497 101.301592,255.321975 C97.3815287,253.664331 92.5356688,251.384713 92.5356688,251.384713 L88.35,259.857325 L83.7363057,257.667516 C83.7363057,257.667516 90.4070064,244.315605 93.6,237.567516 Z" id="Shape"></path>
                <path d="M150.001665,12.434792 C73.9250766,12.434792 12.0227355,74.1466732 12.0227355,150.002119 C12.0227355,225.858554 73.9250766,287.570436 150.001665,287.570436 C226.085277,287.570436 287.986615,225.858554 287.986615,150.002119 C287.986615,74.1466732 226.085277,12.434792 150.001665,12.434792 M150.001665,299.532812 C109.94715,299.532812 72.2856117,283.981327 43.9511636,255.736772 C15.6277522,227.498158 0.0247421567,189.943703 0.0247421567,150.002119 C0.0247421567,67.5506336 67.303003,0.472415748 150.001665,0.472415748 C190.06822,0.472415748 227.728756,16.0288514 256.058187,44.2734058 C284.381598,72.5130098 299.979592,110.061525 299.979592,150.002119 C299.979592,189.943703 284.381598,227.498158 256.058187,255.736772 C227.728756,283.981327 190.06822,299.532812 150.001665,299.532812" id="Shape"></path>
            </g>
        </g>
    </g>
</svg>