<?xml version="1.0" encoding="UTF-8"?>
<svg width="301px" height="300px" viewBox="0 0 301 300" version="1.1" xmlns="http://www.w3.org/2000/svg" xmlns:xlink="http://www.w3.org/1999/xlink">
    <!-- Generator: Sketch 50.2 (55047) - http://www.bohemiancoding.com/sketch -->
    <title>paleo friendly</title>
    <desc>Created with Sketch.</desc>
    <defs></defs>
    <g id="Icons" stroke="none" stroke-width="1" fill="none" fill-rule="evenodd">
        <g id="Desktop-HD" transform="translate(-167.000000, -417.000000)" fill="#1F2A44">
            <g id="paleo-friendly" transform="translate(167.384953, 417.527584)">
                <path d="M67.4398089,225.893312 C66.8522293,226.707325 65.743949,226.762739 64.8248408,226.879299 C63.4729299,224.857643 62.0656051,222.884713 60.6420382,220.924204 C61.5334395,220.203822 62.4477707,219.522611 63.3621019,218.851911 C64.5535032,220.619427 65.8996815,222.292357 67.0242038,224.115287 C67.3289809,224.635987 67.7436306,225.267516 67.4398089,225.893312 M70.8076433,223.383439 C68.4812102,220.342357 65.9656051,217.467516 63.5780255,214.475159 C59.3570064,218.004459 55.1522293,221.55 50.7812102,224.879618 C51.583758,225.843631 52.3872611,226.807643 53.1964968,227.771656 C54.9802548,226.29172 56.7028662,224.719108 58.6031847,223.394904 C60.9296178,225.428025 62.1429936,228.712739 65.1573248,229.926115 C67.3949045,230.912102 70.1369427,229.688217 71.1621019,227.528025 C71.8547771,226.225796 71.743949,224.535669 70.8076433,223.383439" id="Shape" fill-rule="nonzero"></path>
                <path d="M149.976923,12.0564388 C73.9003344,12.0564388 11.9979933,73.76832 11.9979933,149.623766 C11.9979933,225.480201 73.9003344,287.192082 149.976923,287.192082 C226.060535,287.192082 287.961873,225.480201 287.961873,149.623766 C287.961873,73.76832 226.060535,12.0564388 149.976923,12.0564388 M149.976923,299.154459 C109.922408,299.154459 72.2608696,283.602973 43.9264214,255.358419 C15.60301,227.119805 5.68434189e-14,189.56535 5.68434189e-14,149.623766 C5.68434189e-14,67.1722804 67.2782609,0.0940625591 149.976923,0.0940625591 C190.043478,0.0940625591 227.704013,15.6504982 256.033445,43.8950527 C284.356856,72.1346566 299.954849,109.683171 299.954849,149.623766 C299.954849,189.56535 284.356856,227.119805 256.033445,255.358419 C227.704013,283.602973 190.043478,299.154459 149.976923,299.154459" id="Shape" fill-rule="nonzero"></path>
                <path d="M95.2633758,113.937898 C95.1525478,114.524522 95.0742038,114.768153 95.0742038,115.011783 C95.0799363,127.609873 95.0971338,140.207962 95.0694268,152.805096 C95.0694268,154.012739 95.6063694,154.295541 96.6649682,154.295541 C100.315605,154.301274 103.977707,154.528662 107.616879,154.334713 C112.409236,154.068153 116.929299,153.043949 120.929618,149.930255 C124.651911,147.038217 126.524522,143.116242 127.389172,138.905732 C128.286306,134.546178 128.18121,130.058599 126.342038,125.637898 C123.998408,119.986624 120.131847,116.424841 114.325796,114.835032 C108.065924,113.128662 101.695223,114.148089 95.2633758,113.937898 M95.1468153,172.466561 L95.1468153,198.880892 L74.344586,198.880892 L74.344586,95.9159236 C74.6044586,95.8442675 74.8872611,95.6894904 75.1757962,95.6942675 C87.4576433,95.7496815 99.75,95.4621019 111.999363,96.0544586 C117.339172,96.3095541 122.763057,97.9156051 127.826752,99.777707 C131.52707,101.129618 134.906369,103.533439 137.887261,106.397771 C140.934076,109.322293 143.543312,112.491401 145.382484,116.280573 C149.143949,124.01465 150.119427,132.135669 148.911783,140.628344 C148.146497,145.957643 146.279618,150.882803 143.349363,155.226115 C140.03121,160.139809 135.615287,164.007325 130.303185,166.953822 C125.505096,169.624204 120.430892,170.926433 115.135032,171.435669 C109.600318,171.973567 104.021656,172.045223 98.4649682,172.322293 C97.4627389,172.371975 96.4652866,172.411146 95.1468153,172.466561" id="Shape" fill-rule="nonzero"></path>
                <path d="M224.185032,95.0025478 C224.256688,95.5557325 224.356051,95.9828025 224.356051,96.4041401 C224.367516,101.810828 224.361783,107.211783 224.361783,112.851592 L183.32293,112.851592 L183.32293,143.714331 L185.721019,143.714331 C195.476752,143.714331 205.243949,143.753503 215.005414,143.686624 C216.688854,143.670382 217.30414,144.102229 217.264968,145.89172 C217.149363,151.043312 217.221019,156.201592 217.221019,161.592038 L183.13949,161.592038 C183.13949,162.932484 183.133758,164.035032 183.13949,165.142357 C183.145223,175.469427 183.117516,185.801274 183.200637,196.127389 C183.212102,197.766879 182.773567,198.31051 181.100637,198.293312 C174.874204,198.204459 168.646815,198.259873 162.232166,198.259873 C162.192994,197.57293 162.12707,196.958599 162.12707,196.354777 C162.121338,163.353822 162.12707,130.351911 162.12707,97.3452229 C162.12707,94.9242038 162.13758,94.9136943 164.647452,94.9136943 C183.85414,94.9079618 203.060828,94.9136943 222.267516,94.9136943 C222.888535,94.9136943 223.503822,94.9691083 224.185032,95.0025478" id="Shape" fill-rule="nonzero"></path>
                <path d="M207.754777,242.994268 L214.075796,251.35414 L200.093312,247.414968 L198.060191,248.822293 C200.525159,252.328662 203.765924,257.829936 206.137261,261.464331 L208.590764,259.98535 C207.511146,258.041083 203.998089,253.043312 202.83535,251.143949 L217.023248,255.214968 L219.061146,253.735987 L210.280892,241.448408 L207.754777,242.994268 Z" id="Shape" fill-rule="nonzero"></path>
                <path d="M155.26051,259.824841 L155.26051,262.700637 C152.03121,262.461783 148.911783,262.23535 145.560191,261.99172 L145.383439,265.592675 C147.100318,265.86879 150.152866,265.902229 152.00828,266.030255 L152.00828,268.251592 C150.164331,268.135032 148.424522,268.063376 146.690446,267.913376 L145.194268,267.786306 L145.028025,274.250637 C143.95414,274.250637 142.823885,274.21242 141.72707,274.21242 C141.921019,269.403822 142.16465,264.090764 142.363376,259.077707 L155.26051,259.824841 Z" id="Shape" fill-rule="nonzero"></path>
                <polygon id="Shape" points="182.146815 269.83758 178.968153 270.788217 174.780573 256.784713 177.959236 255.834076"></polygon>
                <path d="M167.130573,264.293312 C165.064013,264.836943 161.314013,265.135987 161.314013,265.135987 L160.837261,261.64586 L162.084076,261.507325 C163.945223,261.329618 165.994586,261.074522 167.855732,261.135669 C167.855732,261.135669 169.191401,261.385032 169.191401,262.703503 C169.191401,264.027707 167.130573,264.293312 167.130573,264.293312 M169.351911,266.935987 C169.329936,266.953185 171.252229,265.700637 171.252229,265.611783 C172.775159,264.360191 172.481847,262.582166 172.000318,261.080255 C171.473885,259.440764 170.149682,258.42707 168.249363,258.571338 C165.05828,258.803503 157.53535,259.844904 157.53535,259.844904 L157.800955,262.493312 C158.210828,266.349363 158.610191,270.204459 159.008599,274.054777 L162.056369,273.706051 L161.807006,270.132803 L161.524204,267.800637 L165.224522,267.252229 L166.122611,268.315605 C167.00828,269.340764 169.185669,271.861146 170.038854,272.914013 L173.960828,272.209873 C172.432166,270.443312 170.78121,268.576433 169.351911,266.935987" id="Shape" fill-rule="nonzero"></path>
                <path d="M125.142994,266.268153 C123.38121,268.694904 119.724841,269.088535 117.248408,267.576115 C115.276433,266.462102 114.201592,264.008599 114.639172,261.803503 C115.343312,258.800637 118.760828,256.961465 121.692038,257.764968 C125.292994,258.429936 127.397771,263.276752 125.142994,266.268153 M126.943949,256.844904 C125.946497,255.876115 124.644268,255.31051 123.303822,255.011465 C120.245541,254.207962 116.68949,254.30828 114.118471,256.341401 C110.202229,259.227707 110.01879,265.675796 113.50414,268.966242 C116.960828,272.091401 122.721975,272.750637 126.511146,269.836624 C130.400637,266.750637 130.472293,260.224204 126.943949,256.844904" id="Shape" fill-rule="nonzero"></path>
                <path d="M98.5041401,246.094586 C103.129299,248.293949 107.85,250.305096 112.597452,252.215924 C112.165605,253.047134 111.732803,253.872611 111.306688,254.708599 C107.805096,253.003185 104.20414,251.507006 100.625159,249.978344 C100.088217,251.190764 99.5398089,252.40414 99.0076433,253.617516 C101.44586,254.725796 103.839172,255.994586 106.458917,256.648089 C106.02707,257.578662 105.62293,258.520701 105.217834,259.473248 C102.869427,258.166242 100.33758,257.229936 97.8888535,256.133121 C97.3624204,257.41242 96.8140127,258.68121 96.2656051,259.955732 C100.038535,261.450955 103.584076,263.600637 107.583439,264.487261 C106.973885,265.48949 106.448408,266.530892 105.927707,267.583758 C101.406688,265.184713 96.5980892,263.42293 91.9557325,261.290446 C94.2878981,256.293631 96.5484076,251.257643 98.5041401,246.094586" id="Shape" fill-rule="nonzero"></path>
                <path d="M84.2484076,236.924522 C85.3729299,237.6 86.5203822,238.237261 87.694586,238.841083 C85.1961783,242.592038 83.2461783,246.674522 81.0191083,250.585987 C84.3257962,252.39172 87.516879,254.436306 91.0012739,255.909554 C90.4700637,256.867834 89.9436306,257.815605 89.4171975,258.773885 C85.0738854,256.170382 80.5538217,253.882166 76.1875796,251.328344 C79.2850318,246.763376 81.8216561,241.860191 84.2484076,236.924522" id="Shape" fill-rule="nonzero"></path>
                <path d="M73.5955414,239.764968 C72.5713376,238.700637 71.5519108,237.631529 70.5324841,236.573885 C72.15,235.920382 73.7732484,235.265924 75.4576433,234.800637 C74.8700637,236.463057 74.293949,238.135987 73.5955414,239.764968 M76.7092357,229.892675 C71.2691083,232.402548 65.8289809,234.911465 60.3,237.233121 C61.2802548,238.069108 62.2442675,238.93949 63.1920382,239.825159 C64.5878981,239.183121 66.0009554,238.562102 67.4407643,238.008917 C69.1089172,239.648408 70.8869427,241.199045 72.5761146,242.817516 C72.177707,244.257325 71.7458599,245.680892 71.1420382,247.05 C72.193949,248.052229 73.2802548,249.027707 74.3713376,249.996497 C75.5961783,245.199363 77.1917197,240.517834 78.5101911,235.748408 C78.7920382,234.657325 79.1914013,233.592994 79.7226115,232.595541 C78.7261146,231.692675 77.7066879,230.795541 76.7092357,229.892675" id="Shape" fill-rule="nonzero"></path>
                <path d="M182.592038,253.570701 C187.162739,252.174841 191.666561,250.585032 196.136943,248.912102 C196.358599,249.759554 196.585987,250.596497 196.813376,251.432484 C193.333758,252.469108 189.921975,253.698726 186.497771,254.906369 C186.885669,256.074841 187.285032,257.254777 187.677707,258.429936 C190.049045,257.65414 192.492038,257.016879 194.707643,255.820701 C194.996178,256.734076 195.311465,257.637898 195.633439,258.540764 C193.190446,259.122611 190.863057,260.069427 188.486943,260.861465 C188.935032,262.069108 189.356369,263.288217 189.777707,264.512102 C193.317516,263.161146 197.100955,262.413057 200.414331,260.507006 C200.624522,261.576115 200.917834,262.634713 201.217834,263.676115 C196.603185,264.872293 192.187261,266.683758 187.65,268.140764 C186.115605,263.232803 184.503822,258.346815 182.592038,253.570701" id="Shape" fill-rule="nonzero"></path>
                <path d="M229.092038,242.421019 C227.512739,244.515287 225.08121,245.68949 223.158917,247.412102 C221.274841,244.842038 219.302866,242.343631 217.374841,239.811783 C219.347771,238.321338 221.147771,236.526115 223.414013,235.457006 C226.908917,235.185669 230.121975,239.035987 229.092038,242.421019 M231.812102,238.709236 C230.842357,235.540127 227.845223,232.920382 224.465924,232.837261 C223.285987,232.831529 222.067834,233.119108 221.120064,233.833758 C218.466879,235.646178 216.040127,237.767197 213.425159,239.634076 C216.433758,243.529299 219.425159,247.435032 222.422293,251.339809 C224.748726,249.329618 227.258599,247.550637 229.684395,245.678025 C231.79586,244.133121 232.582166,241.163694 231.812102,238.709236" id="Shape" fill-rule="nonzero"></path>
                <path d="M226.603185,227.959873 C227.396178,227.100955 228.149045,226.220064 228.885669,225.305732 C231.706051,228.153822 234.901911,230.58535 237.91051,233.228025 C240.076433,230.674204 242.420064,228.26465 244.336624,225.499682 C245.073248,226.13121 245.809873,226.757962 246.547452,227.38949 C243.494904,230.701911 240.69172,234.225478 237.683121,237.559873 C234.270382,234.053503 230.459236,230.962739 226.603185,227.959873" id="Shape" fill-rule="nonzero"></path>
                <polygon id="Shape" fill-rule="nonzero" points="250.38535 222.766242 244.41879 219.392675 234.419427 220.422611 235.710191 217.635669 243.072611 216.433758 240.275159 209.841401 242.446815 206.888217 245.820382 215.669427 252.119427 219.913376 250.38535 222.766242"></polygon>
            </g>
        </g>
    </g>
</svg>