<?xml version="1.0" encoding="UTF-8" standalone="no"?>
<svg width="22px" height="22px" viewBox="0 0 22 22" version="1.1" xmlns="http://www.w3.org/2000/svg" xmlns:xlink="http://www.w3.org/1999/xlink">
    <!-- Generator: Sketch 46.2 (44496) - http://www.bohemiancoding.com/sketch -->
    <title>search</title>
    <desc>Created with Sketch.</desc>
    <defs></defs>
    <g id="style-guide" stroke="none" stroke-width="1" fill="none" fill-rule="evenodd">
        <g id="elements" transform="translate(-1223.000000, -39.000000)" fill-rule="nonzero" fill="#000000">
            <g id="header">
                <g id="icons" transform="translate(1223.000000, 39.000000)">
                    <g id="search">
                        <path d="M16.0318993,14.6176858 L21.7071068,20.2928932 C22.0976311,20.6834175 22.0976311,21.3165825 21.7071068,21.7071068 C21.3165825,22.0976311 20.6834175,22.0976311 20.2928932,21.7071068 L14.6176858,16.0318993 C13.078015,17.2635272 11.1250137,18 9,18 C4.02943725,18 0,13.9705628 0,9 C0,4.02943725 4.02943725,0 9,0 C13.9705628,0 18,4.02943725 18,9 C18,11.1250137 17.2635272,13.078015 16.0318993,14.6176858 L16.0318993,14.6176858 Z M9,16 C12.8659933,16 16,12.8659933 16,9 C16,5.13400675 12.8659933,2 9,2 C5.13400675,2 2,5.13400675 2,9 C2,12.8659933 5.13400675,16 9,16 Z" id="Combined-Shape"></path>
                    </g>
                </g>
            </g>
        </g>
    </g>
</svg>