<?xml version="1.0" encoding="UTF-8"?>
<svg width="34px" height="16px" viewBox="0 0 34 16" version="1.1" xmlns="http://www.w3.org/2000/svg" xmlns:xlink="http://www.w3.org/1999/xlink">
    <defs></defs>
    <g id="Modules" stroke="none" stroke-width="1" fill="none" fill-rule="evenodd">
        <g id="noun_1605408_cc-copy-18" transform="translate(0.655104, -6.302248)" fill="#253237" fill-rule="nonzero">
            <g id="Group" transform="translate(0.000000, 6.000000)">
                <path d="M31.6172171,6.74979974 L15.7196157,6.76499905 C14.803206,3.36295755 11.4384069,0.38866826 8.49165728,0.38866826 C5.5878847,0.38866826 2.18618609,3.42896601 1.29235028,6.79496342 L0.678516453,6.79626622 C0.43845273,6.79670049 0.24483895,6.99125175 0.245273062,7.23140097 C0.254389406,11.8932488 3.94564046,15.6865641 8.47472693,15.6869984 C8.47516104,15.6869984 8.49122317,15.6869984 8.49165728,15.6869984 C10.6917349,15.6826557 12.7585403,14.7954499 14.3096211,13.1886649 C15.1917359,12.2749688 15.8381281,11.1884347 16.2375108,10.0067963 L31.6237287,9.97639769 C32.4411609,9.97466063 33.1057858,9.24987032 33.1057858,8.35919032 C33.1040494,7.47198445 32.437688,6.74979974 31.6172171,6.74979974 Z M8.49165728,1.25763495 C10.9743416,1.25763495 13.9154478,3.85150704 14.8127565,6.76717038 L2.1979071,6.79366062 C3.07871957,3.90579031 6.04804301,1.25763495 8.49165728,1.25763495 Z M13.6853686,12.5850348 C12.298382,14.0215875 10.4534077,14.8145576 8.48948672,14.818466 L8.47429282,14.818466 C4.56468362,14.8180317 1.35225768,11.6465855 1.12565142,7.66393011 L15.8238024,7.63309721 C15.7269956,9.50391605 14.9764166,11.2483634 13.6853686,12.5850348 Z M31.6224264,9.10786527 L16.4827839,9.13782964 C16.5917459,8.65232001 16.658165,8.1550852 16.6829093,7.6487308 L31.62069,7.61833216 C31.9597311,7.61833216 32.2366943,7.95184861 32.2379967,8.36049312 C32.2379967,8.77174322 31.9619017,9.10699674 31.6224264,9.10786527 Z" id="Shape"></path>
            </g>
        </g>
    </g>
</svg>