<?xml version="1.0" encoding="UTF-8"?>
<svg width="314px" height="314px" viewBox="0 0 314 314" version="1.1" xmlns="http://www.w3.org/2000/svg" xmlns:xlink="http://www.w3.org/1999/xlink">
    <!-- Generator: Sketch 50.2 (55047) - http://www.bohemiancoding.com/sketch -->
    <title>vegan.org</title>
    <desc>Created with Sketch.</desc>
    <defs></defs>
    <g id="Icons" stroke="none" stroke-width="1" fill="none" fill-rule="evenodd">
        <g id="Desktop-HD" transform="translate(-178.000000, -1221.000000)" fill="#1F2A44" fill-rule="nonzero">
            <g id="vegan.org" transform="translate(178.204293, 1221.758428)">
                <path d="M154.592,107.623 C155.618,106.04 156.581,104.55 157.538,103.065 C167,88.466 186.267,80.673 203.226,82.807 C219.884,84.906 235.057,96.345 241.667,111.78 C247.244,124.819 246.543,140.289 240.188,152.922 C237.608,158.03 233.903,162.228 230.303,166.612 C220.214,178.874 210.12,191.125 200.02,203.382 C188.847,216.938 177.674,230.5 166.501,244.055 C162.53,248.868 158.639,253.767 154.586,258.504 C154.418,258.585 78.586,166.362 77.722,165.319 C66.126,151.253 60.044,133.917 65.929,115.85 C71.31,99.331 86.222,86.303 103.309,83.201 C121.857,79.839 143.338,88.483 152.94,105.106 C153.375,105.86 153.902,106.556 154.273,107.35 C154.32,107.46 154.47,107.518 154.592,107.623 Z M154.32,240.461 L216.556,117.978 L186.429,117.978 L154.256,187.067 L122.17,117.978 L91.806,117.978 L154.32,240.461 Z M249.419,241.058 L246.328,238.217 L253.669,230.227 L260.98,236.947 C261.015,238.414 260.644,240.148 259.861,242.142 C259.078,244.142 258,245.899 256.608,247.407 C254.846,249.326 252.903,250.63 250.793,251.315 C248.676,252.005 246.531,252.016 244.374,251.361 C242.218,250.7 240.258,249.558 238.501,247.946 C236.593,246.189 235.26,244.229 234.506,242.061 C233.758,239.893 233.7,237.678 234.326,235.405 C234.796,233.665 235.84,231.92 237.446,230.175 C239.539,227.891 241.655,226.557 243.789,226.145 C245.917,225.745 247.992,226.134 250.022,227.322 L247.326,231.63 C246.189,231.062 245.035,230.894 243.858,231.126 C242.676,231.364 241.597,232.013 240.617,233.086 C239.127,234.697 238.46,236.46 238.605,238.356 C238.756,240.258 239.835,242.131 241.858,243.992 C244.038,245.992 246.114,247.007 248.091,247.041 C250.074,247.07 251.784,246.305 253.222,244.734 C253.935,243.963 254.498,243.035 254.909,241.98 C255.321,240.919 255.57,239.91 255.651,238.953 L253.321,236.814 L249.419,241.058 Z M220.579,258.597 L223.641,256.486 C225.635,255.112 226.818,254.173 227.195,253.669 C227.578,253.164 227.763,252.608 227.757,251.999 C227.757,251.396 227.543,250.787 227.125,250.172 C226.644,249.482 226.076,249.053 225.415,248.874 C224.754,248.705 224.047,248.798 223.304,249.146 C222.928,249.332 221.907,250.004 220.226,251.164 L216.996,253.39 L220.579,258.597 Z M224.586,273.295 L210.456,252.764 L219.182,246.763 C221.374,245.25 223.096,244.34 224.342,244.021 C225.589,243.708 226.841,243.818 228.088,244.351 C229.334,244.879 230.372,245.748 231.207,246.966 C232.262,248.508 232.691,250.085 232.483,251.72 C232.262,253.344 231.34,254.904 229.723,256.411 C230.981,256.318 232.112,256.376 233.126,256.602 C234.141,256.828 235.689,257.397 237.782,258.313 L243.041,260.591 L238.084,264.006 L232.019,261.6 C229.85,260.736 228.424,260.232 227.751,260.087 C227.073,259.942 226.464,259.942 225.919,260.087 C225.374,260.238 224.626,260.638 223.67,261.293 L222.835,261.873 L228.731,270.442 L224.586,273.295 Z M195.103,272.802 C196.141,275.423 197.532,277.174 199.277,278.055 C201.028,278.93 202.832,279 204.699,278.264 C206.566,277.522 207.83,276.246 208.496,274.431 C209.157,272.611 208.96,270.361 207.899,267.671 C206.85,265.015 205.481,263.27 203.8,262.418 C202.118,261.571 200.321,261.531 198.39,262.29 C196.46,263.056 195.167,264.325 194.512,266.123 C193.851,267.908 194.053,270.135 195.103,272.802 Z M190.343,274.866 C189.409,272.5 188.98,270.384 189.05,268.5 C189.114,267.114 189.415,265.769 189.96,264.47 C190.493,263.171 191.218,262.087 192.129,261.2 C193.329,260.017 194.871,259.055 196.761,258.307 C200.176,256.962 203.324,256.939 206.212,258.249 C209.099,259.559 211.291,262.099 212.781,265.873 C214.26,269.613 214.399,272.947 213.198,275.863 C211.998,278.78 209.696,280.908 206.293,282.253 C202.849,283.615 199.689,283.644 196.825,282.351 C193.961,281.047 191.804,278.554 190.343,274.866 Z M182.956,288.706 L181.941,284.044 L186.603,283.03 L187.618,287.697 L182.956,288.706 Z M154.882,291.634 L153.357,266.755 L158.251,266.465 L169.447,282.45 L168.432,265.839 L173.094,265.554 L174.613,290.428 L169.574,290.735 L158.558,275.127 L159.544,291.344 L154.882,291.634 Z M140.242,280.409 L138.282,270.744 L133.528,279.36 L140.242,280.409 Z M147.878,291.582 L142.469,290.735 L141.193,284.81 L131.354,283.267 L128.443,288.544 L123.173,287.72 L136.607,264.592 L141.866,265.415 L147.878,291.582 Z M110.261,273.312 L111.832,269.416 L121.891,273.469 L118.187,282.676 C116.83,283.227 115.079,283.494 112.928,283.465 C110.783,283.436 108.759,283.041 106.863,282.276 C104.439,281.302 102.532,279.951 101.146,278.212 C99.755,276.472 98.989,274.478 98.844,272.228 C98.699,269.973 99.076,267.74 99.969,265.52 C100.937,263.114 102.3,261.177 104.063,259.71 C105.825,258.249 107.878,257.408 110.232,257.194 C112.017,257.02 114.018,257.379 116.227,258.266 C119.097,259.42 121.097,260.922 122.228,262.777 C123.353,264.633 123.724,266.708 123.329,269.022 L118.349,268.024 C118.476,266.755 118.227,265.618 117.589,264.598 C116.957,263.577 115.966,262.8 114.615,262.255 C112.586,261.432 110.701,261.426 108.974,262.238 C107.252,263.05 105.877,264.725 104.857,267.265 C103.744,270.013 103.529,272.315 104.202,274.182 C104.869,276.043 106.185,277.371 108.162,278.165 C109.142,278.559 110.203,278.762 111.339,278.774 C112.476,278.786 113.502,278.658 114.429,278.397 L115.606,275.463 L110.261,273.312 Z M72.98,262.615 L87.069,242.061 L102.306,252.509 L99.923,255.988 L88.831,248.387 L85.706,252.938 L96.027,260.017 L93.655,263.479 L83.335,256.405 L79.502,262 L90.982,269.868 L88.611,273.335 L72.98,262.615 Z M57.835,248.282 L69.541,224.551 L73.333,228.47 L64.474,245.83 L81.972,237.388 L85.677,241.22 L61.569,252.144 L57.835,248.282 Z M263.844,124.008 L288.248,118.958 L289.245,123.747 L275.017,137.111 L291.309,133.737 L292.254,138.317 L267.85,143.367 L266.83,138.422 L280.705,125.295 L264.795,128.588 L263.844,124.008 Z M268.013,108.023 L274.941,101.001 L265.137,101.871 L268.013,108.023 Z M263.003,120.593 L260.69,115.635 L264.894,111.27 L260.678,102.242 L254.683,102.775 L252.422,97.94 L279.11,96.183 L281.36,101.001 L263.003,120.593 Z M251.129,81.387 L254.405,78.754 L261.2,87.208 L253.46,93.429 C252.005,93.249 250.346,92.617 248.485,91.551 C246.63,90.472 245.064,89.139 243.771,87.538 C242.142,85.509 241.145,83.393 240.78,81.195 C240.42,78.998 240.722,76.887 241.701,74.852 C242.676,72.817 244.102,71.049 245.963,69.559 C247.981,67.929 250.126,66.909 252.376,66.492 C254.631,66.08 256.834,66.352 258.985,67.309 C260.632,68.04 262.203,69.333 263.688,71.182 C265.63,73.594 266.639,75.884 266.714,78.053 C266.795,80.221 266.094,82.216 264.627,84.042 L260.765,80.731 C261.496,79.694 261.838,78.569 261.786,77.369 C261.734,76.174 261.252,75.009 260.336,73.878 C258.962,72.162 257.327,71.24 255.425,71.095 C253.524,70.962 251.506,71.75 249.372,73.467 C247.065,75.322 245.748,77.224 245.418,79.178 C245.082,81.126 245.586,82.929 246.925,84.593 C247.581,85.416 248.41,86.106 249.395,86.674 C250.381,87.237 251.344,87.637 252.277,87.863 L254.735,85.88 L251.129,81.387 Z M218.092,62.943 L233.439,43.305 L247.998,54.687 L245.401,58.009 L234.808,49.729 L231.404,54.084 L241.261,61.789 L238.675,65.094 L228.818,57.389 L224.644,62.734 L235.614,71.304 L233.022,74.62 L218.092,62.943 Z M202.461,54.716 L205.244,28.399 L210.16,30.764 L207.847,50.118 L221.339,36.145 L226.151,38.458 L207.302,57.041 L202.461,54.716 Z M167.98,24.595 L165.951,40.975 L169.679,41.433 C171.07,41.606 172.091,41.653 172.728,41.572 C173.558,41.473 174.276,41.212 174.868,40.795 C175.465,40.372 175.993,39.629 176.468,38.568 C176.944,37.502 177.303,36.011 177.541,34.098 C177.778,32.185 177.79,30.7 177.581,29.634 C177.373,28.567 176.996,27.714 176.457,27.059 C175.923,26.416 175.204,25.929 174.288,25.61 C173.61,25.366 172.259,25.123 170.218,24.873 L167.98,24.595 Z M163.504,19.789 L172.63,20.919 C174.688,21.174 176.236,21.522 177.274,21.98 C178.671,22.583 179.825,23.494 180.724,24.711 C181.623,25.934 182.249,27.367 182.591,29.013 C182.933,30.666 182.962,32.643 182.678,34.962 C182.423,36.991 181.953,38.719 181.263,40.128 C180.422,41.85 179.356,43.201 178.074,44.175 C177.106,44.906 175.854,45.416 174.317,45.706 C173.175,45.92 171.679,45.909 169.835,45.682 L160.442,44.517 L163.504,19.789 Z M136.543,46.32 L134.119,21.511 L152.511,19.719 L152.922,23.911 L139.535,25.221 L140.074,30.718 L152.528,29.506 L152.934,33.686 L140.48,34.898 L141.141,41.647 L154.992,40.302 L155.404,44.477 L136.543,46.32 Z M125.892,49.138 L119.601,25.024 L124.472,23.754 L130.762,47.863 L125.892,49.138 Z M105.095,57.11 L95.255,34.22 L110.956,27.471 L112.62,31.344 L101.546,36.104 L103.871,41.525 L113.426,37.415 L115.096,41.293 L105.535,45.398 L109.716,55.122 L105.095,57.11 Z M95.673,62.914 L82.529,41.74 L86.808,39.084 L99.946,60.259 L95.673,62.914 Z M82.419,73.032 L69.008,57.25 L63.378,62.039 L60.647,58.827 L75.734,46.001 L78.464,49.219 L72.84,53.991 L86.251,69.773 L82.419,73.032 Z M53.336,84.048 L55.597,81.085 C57.064,79.172 57.899,77.908 58.096,77.305 C58.305,76.708 58.311,76.116 58.119,75.548 C57.928,74.974 57.539,74.458 56.942,74.006 C56.275,73.496 55.603,73.264 54.925,73.304 C54.24,73.351 53.597,73.652 53,74.214 C52.704,74.504 51.939,75.461 50.698,77.079 L48.315,80.204 L53.336,84.048 Z M61.702,96.775 L41.908,81.642 L48.338,73.223 C49.956,71.113 51.312,69.709 52.397,69.025 C53.487,68.335 54.704,68.051 56.055,68.167 C57.406,68.289 58.664,68.799 59.835,69.692 C61.32,70.823 62.213,72.203 62.514,73.814 C62.816,75.426 62.427,77.2 61.349,79.131 C62.514,78.65 63.616,78.36 64.648,78.261 C65.68,78.157 67.332,78.221 69.605,78.441 L75.31,78.975 L71.658,83.758 L65.141,83.346 C62.816,83.201 61.308,83.161 60.618,83.236 C59.934,83.306 59.348,83.497 58.879,83.81 C58.403,84.112 57.824,84.732 57.116,85.648 L56.496,86.46 L64.764,92.774 L61.702,96.775 Z M51.202,118.389 L28.544,108.017 L36.232,91.22 L40.064,92.977 L34.469,105.199 L39.49,107.501 L44.697,96.125 L48.518,97.865 L43.311,109.246 L49.474,112.07 L55.272,99.407 L59.087,101.158 L51.202,118.389 Z M39.467,126.107 L41.966,121.636 C44.482,122.924 46.21,124.553 47.144,126.524 C48.083,128.495 48.28,130.791 47.735,133.406 C47.068,136.653 45.404,139.083 42.76,140.712 C40.116,142.335 36.87,142.753 33.031,141.958 C28.973,141.112 26.033,139.407 24.224,136.845 C22.409,134.288 21.853,131.29 22.566,127.875 C23.186,124.895 24.572,122.651 26.723,121.149 C27.999,120.256 29.668,119.735 31.738,119.584 L31.889,124.704 C30.561,124.727 29.436,125.127 28.52,125.886 C27.599,126.652 26.996,127.689 26.723,129 C26.352,130.809 26.694,132.409 27.761,133.806 C28.828,135.204 30.811,136.201 33.715,136.804 C36.806,137.448 39.113,137.343 40.656,136.502 C42.192,135.668 43.149,134.357 43.52,132.589 C43.792,131.278 43.607,130.061 42.969,128.948 C42.337,127.829 41.166,126.884 39.467,126.107 Z M156.546,11.955 C76.818,11.955 11.95,76.818 11.95,156.546 C11.95,236.269 76.818,301.137 156.546,301.137 C236.275,301.137 301.137,236.269 301.137,156.546 C301.137,76.818 236.275,11.955 156.546,11.955 Z M156.546,313.092 C70.225,313.092 0,242.861 0,156.546 C0,70.225 70.225,0 156.546,0 C242.873,0 313.092,70.225 313.092,156.546 C313.092,242.861 242.873,313.092 156.546,313.092 Z" id="Shape"></path>
            </g>
        </g>
    </g>
</svg>